<?xml version="1.0" encoding="UTF-8"?>
<svg width="106px" height="36px" viewBox="0 0 106 36" version="1.1" xmlns="http://www.w3.org/2000/svg"
  xmlns:xlink="http://www.w3.org/1999/xlink">

  <g id="Page-1" stroke="none" stroke-width="1" fill="none" fill-rule="evenodd">
    <g id="10.0-MobileApp-Dark-" transform="translate(-130.000000, -644.000000)" fill-rule="nonzero">
      <g id="Download_on_the_App_Store_Badge_US-UK_RGB_blk_092917" transform="translate(130.000000, 644.500000)">
        <g id="Group">
          <g fill="#000000" id="Path">
            <path
              d="M7.51589858,34.8212494 C7.24473338,34.8212494 6.98011859,34.8177784 6.71108049,34.8117264 C6.15374628,34.8044647 5.59771469,34.7559457 5.04754592,34.6665674 C4.5345413,34.5782155 4.03757771,34.4138648 3.57304734,34.1789365 C3.11277647,33.9459546 2.69297243,33.6404623 2.32971736,33.2741625 C1.96120426,32.9121774 1.65440027,32.4923366 1.42146348,32.0312775 C1.18595992,31.5672218 1.02297745,31.0698101 0.938193485,30.5563695 C0.846634165,30.0046718 0.79709678,29.4468183 0.790008487,28.8876195 C0.784365887,28.6999185 0.776978888,28.0749605 0.776978888,28.0749605 L0.776978888,7.51546248 C0.776978888,7.51546248 0.784846487,6.90010759 0.790052987,6.71932189 C0.796839973,6.16100893 0.846089298,5.60402117 0.937374685,5.05317962 C1.02231515,4.5383325 1.1854238,4.03948643 1.42105408,3.57391064 C1.65313477,3.11316998 1.95823545,2.69301562 2.32452866,2.32973516 C2.69041017,1.96300303 3.11155708,1.65593764 3.57261124,1.41973688 C4.03607399,1.18556329 4.53209837,1.02237195 5.04406602,0.935630285 C5.59604164,0.84535415 6.15400355,0.796546502 6.71326989,0.789616887 L7.51633468,0.778749987 L98.9803427,0.778749987 L99.7930017,0.790052987 C100.347181,0.796638273 100.900074,0.845010492 101.446978,0.934758085 C101.964128,1.02258779 102.465322,1.18691781 102.934079,1.42234458 C103.857737,1.89835755 104.6093,2.65145498 105.083429,3.57608224 C105.315298,4.03844397 105.475891,4.53322094 105.559757,5.04362102 C105.652129,5.59898224 105.703827,6.16034702 105.714439,6.72323789 C105.71702,6.97528589 105.71702,7.24602388 105.71702,7.51546248 C105.724051,7.84921247 105.724051,8.16688017 105.724051,8.48715556 L105.724051,27.1136716 C105.724051,27.4370086 105.724051,27.7525136 105.71702,28.0705995 C105.71702,28.3600275 105.71702,28.6251585 105.713549,28.8980325 C105.703167,29.4508789 105.652331,30.0022237 105.561448,30.5476475 C105.478401,31.0647919 105.316306,31.5660862 105.080848,32.0339475 C104.846264,32.4900023 104.541222,32.9062064 104.176964,33.2672205 C103.813382,33.6354888 103.392837,33.9427685 102.931498,34.1772455 C102.464039,34.4139798 101.963583,34.5789383 101.446978,34.6665674 C100.896851,34.7564227 100.340766,34.8049448 99.7833897,34.8117264 C99.5227087,34.8177784 99.2497457,34.8212494 98.9847037,34.8212494 L98.0199437,34.8230294 L7.51589858,34.8212494 Z">
            </path>
          </g>
          <g id="_Group_" transform="translate(8.010000, 7.120000)" fill="#FFFFFF">
            <g id="_Group_3">
              <path
                d="M14.034303,10.947605 C14.0537557,9.43774596 14.8453092,8.04309551 16.1316413,7.25227168 C15.316466,6.08805627 14.0000487,5.37638165 12.579509,5.33193651 C11.0849854,5.17506512 9.63610995,6.2262352 8.87452806,6.2262352 C8.09820777,6.2262352 6.92563279,5.34751151 5.66296311,5.37349061 C4.00161906,5.4271651 2.49034205,6.34883757 1.68206437,7.80129487 C-0.0391955994,10.7813886 1.24470948,15.1611231 2.89353235,17.5700059 C3.71847334,18.7495674 4.68259252,20.0671679 5.944123,20.0204429 C7.17860638,19.9692412 7.63966198,19.2332557 9.12978895,19.2332557 C10.6060853,19.2332557 11.038652,20.0204429 12.3257789,19.9907347 C13.6504371,19.9692323 14.4850346,18.8059311 15.2810328,17.6152001 C15.8737515,16.7747195 16.3298476,15.8458053 16.6324265,14.8628663 C15.0591349,14.1974411 14.0361393,12.6558304 14.034303,10.947605 L14.034303,10.947605 Z"
                id="_Path_"></path>
              <path
                d="M11.6031523,3.74769204 C12.325411,2.88064685 12.6812404,1.76620716 12.5950751,0.64104029 C11.4916245,0.756936522 10.4723452,1.28431419 9.74032894,2.11809317 C9.01749652,2.94072819 8.65131128,4.01695502 8.72242706,5.10973022 C9.84067362,5.12124394 10.9024251,4.61923629 11.6031523,3.74769204 L11.6031523,3.74769204 Z"
                id="_Path_2"></path>
            </g>
            <g id="Group" transform="translate(22.250000, 8.010000)">
              <path
                d="M7.38902018,9.02428835 L3.17629425,9.02428835 L2.16461347,12.0115288 L0.380270294,12.0115288 L4.37049623,0.959508985 L6.2243662,0.959508985 L10.2145921,12.0115288 L8.39981986,12.0115288 L7.38902018,9.02428835 Z M3.61259894,7.64582968 L6.95187889,7.64582968 L5.30572601,2.79775946 L5.25965962,2.79775946 L3.61259894,7.64582968 Z"
                id="Shape"></path>
              <path
                d="M18.8321238,7.98305957 C18.8321238,10.4870567 17.4919084,12.0958296 15.4694191,12.0958296 C14.424012,12.1505153 13.4392956,11.6029571 12.9341384,10.6860696 L12.8958684,10.6860696 L12.8958684,14.6771678 L11.2418924,14.6771678 L11.2418924,3.95371814 L12.8428778,3.95371814 L12.8428778,5.29393351 L12.873298,5.29393351 C13.4008974,4.38279418 14.3866756,3.8354717 15.4389989,3.86940844 C17.4840497,3.86941734 18.8321238,5.48601331 18.8321238,7.98305957 Z M17.1320814,7.98305957 C17.1320814,6.3516896 16.2890111,5.27915952 15.0026853,5.27915952 C13.7389565,5.27915952 12.8889353,6.3742778 12.8889353,7.98305957 C12.8889353,9.60661535 13.7389565,10.6939105 15.0026853,10.6939105 C16.28902,10.6939105 17.1320814,9.62921245 17.1320814,7.98305957 Z"
                id="Shape"></path>
              <path
                d="M27.7008313,7.98305957 C27.7008313,10.4870567 26.3606159,12.0958296 24.3381265,12.0958296 C23.2927194,12.1505153 22.3080031,11.6029571 21.8028458,10.6860696 L21.7645759,10.6860696 L21.7645759,14.6771678 L20.1105999,14.6771678 L20.1105999,3.95371814 L21.7115497,3.95371814 L21.7115497,5.29393351 L21.7419699,5.29393351 C22.2695731,4.38279473 23.255355,3.83547547 24.3076796,3.86941734 C26.3527928,3.86941734 27.7008313,5.48601331 27.7008313,7.98305957 Z M26.0007978,7.98305957 C26.0007978,6.3516896 25.1577186,5.27915952 23.8713927,5.27915952 C22.6076639,5.27915952 21.7576428,6.3742778 21.7576428,7.98305957 C21.7576428,9.60661535 22.6076639,10.6939105 23.8713927,10.6939105 C25.1577275,10.6939105 26.0007978,9.62921245 26.0007978,7.98305957 L26.0007978,7.98305957 Z"
                id="Shape"></path>
              <path
                d="M33.5623178,8.93215556 C33.6848708,10.028146 34.7495777,10.7477555 36.2045052,10.7477555 C37.5986101,10.7477555 38.6015956,10.0281104 38.6015956,9.03989005 C38.6015956,8.18204577 37.9966715,7.66840008 36.5643322,7.31638728 L35.1319929,6.97133429 C33.1025527,6.4811401 32.1603987,5.53203521 32.1603987,3.99191694 C32.1603987,2.08502077 33.8221978,0.775225588 36.1819081,0.775225588 C38.5172681,0.775225588 40.1182446,2.08502077 40.1721341,3.99191694 L38.5024941,3.99191694 C38.4025471,2.88897555 37.4908133,2.22321996 36.158421,2.22321996 C34.8260287,2.22321996 33.9143039,2.89680755 33.9143039,3.87719594 C33.9143039,4.65855363 34.4966308,5.11832762 35.921147,5.47029591 L37.1388094,5.76928251 C39.4063959,6.3055431 40.3485499,7.21642248 40.3485499,8.83300066 C40.3485499,10.9006842 38.7015248,12.1957054 36.0819344,12.1957054 C33.6309546,12.1957054 31.9761153,10.9311044 31.8692085,8.93207546 L33.5623178,8.93215556 Z"
                id="Path"></path>
              <path
                d="M43.9181262,2.04682197 L43.9181262,3.95371814 L45.4504214,3.95371814 L45.4504214,5.26351332 L43.9181262,5.26351332 L43.9181262,9.70569014 C43.9181262,10.3957872 44.2249359,10.7173709 44.8985146,10.7173709 C45.080423,10.7141989 45.262037,10.7014245 45.4425983,10.6791009 L45.4425983,11.981073 C45.1397565,12.0376588 44.8319433,12.0632863 44.5239136,12.0575596 C42.8925436,12.0575596 42.2563271,11.4448124 42.2563271,9.88209704 L42.2563271,5.26351332 L41.0847311,5.26351332 L41.0847311,3.95371814 L42.2563093,3.95371814 L42.2563093,2.04682197 L43.9181262,2.04682197 Z"
                id="Path"></path>
              <path
                d="M46.3378493,7.98305957 C46.3378493,5.44777891 47.8310289,3.85464334 50.1594647,3.85464334 C52.4957147,3.85464334 53.9819434,5.44774331 53.9819434,7.98305957 C53.9819434,10.5253 52.5035378,12.1114758 50.1594647,12.1114758 C47.8162193,12.1114758 46.3378493,10.5252911 46.3378493,7.98305957 Z M52.2966751,7.98305957 C52.2966751,6.2439106 51.4996712,5.21745582 50.1594558,5.21745582 C48.8192404,5.21745582 48.0231087,6.2517337 48.0231087,7.98305957 C48.0231087,9.72915944 48.8192404,10.7478 50.1594558,10.7478 C51.4996712,10.7478 52.2966751,9.72915944 52.2966751,7.98305957 L52.2966751,7.98305957 Z"
                id="Shape"></path>
              <path
                d="M55.3455836,3.95371814 L56.9230819,3.95371814 L56.9230819,5.32520811 L56.9613519,5.32520811 C57.1813386,4.44231781 57.9903098,3.83468202 58.8995316,3.86939954 C59.0901375,3.86873402 59.2802176,3.8894341 59.4662123,3.93111214 L59.4662123,5.47818131 C59.2255839,5.40465247 58.9745671,5.37089296 58.7230624,5.37823431 C58.2368093,5.35850786 57.7662242,5.55229582 57.4348688,5.90871522 C57.1035134,6.26513462 56.9444922,6.74857685 56.9995596,7.23210428 L56.9995596,12.011511 L55.3455836,12.011511 L55.3455836,3.95371814 Z"
                id="Path"></path>
              <path
                d="M67.0920259,9.64484974 C66.8695259,11.1076092 65.4450008,12.1114669 63.6224144,12.1114669 C61.2783413,12.1114669 59.8234049,10.5409284 59.8234049,8.02129397 C59.8234049,5.49383641 61.2861644,3.85463444 63.5528876,3.85463444 C65.7822307,3.85463444 67.1841587,5.38605741 67.1841587,7.82921417 L67.1841587,8.39589497 L61.4930271,8.39589497 L61.4930271,8.49584196 C61.4398918,9.0957301 61.6470341,9.68953615 62.0617637,10.1262151 C62.4764933,10.562894 63.0588375,10.8003575 63.6606666,10.7782024 C64.4633062,10.8534071 65.2200383,10.39251 65.5214963,9.64484084 L67.0920259,9.64484974 Z M61.5008345,7.23994518 L65.5293105,7.23994518 C65.5593262,6.70089666 65.3631088,6.17377245 64.9879325,5.78556198 C64.6127562,5.39735152 64.0926377,5.18325348 63.5528876,5.19484982 C63.0088678,5.1916033 62.4860897,5.40580173 62.1007507,5.78983549 C61.7154117,6.17386926 61.4994407,6.69591749 61.5008345,7.23994518 L61.5008345,7.23994518 Z"
                id="Shape"></path>
            </g>
          </g>
        </g>
        <g id="Group" transform="translate(31.149999, 7.120000)" fill="#FFFFFF">
          <path
            d="M2.51530906,0.65058999 C3.21747148,0.600201912 3.90522405,0.867347197 4.38926748,1.3784959 C4.8733109,1.88964459 5.10262435,2.59091882 5.01409082,3.28929755 C5.01409082,4.98586002 4.09715053,5.9610775 2.51530906,5.9610775 L0.59711879,5.9610775 L0.59711879,0.65058999 L2.51530906,0.65058999 Z M1.42192628,5.21005992 L2.42317626,5.21005992 C2.92497778,5.2400547 3.41358295,5.04234744 3.75332442,4.67183402 C4.09306588,4.3013206 4.24777378,3.79744697 4.17449153,3.30011995 C4.24244215,2.80485679 4.08550629,2.30514109 3.7466072,1.93764921 C3.4077081,1.57015733 2.9223111,1.37334678 2.42317626,1.40104688 L1.42192628,1.40104688 L1.42192628,5.21005992 Z"
            id="Shape"></path>
          <path
            d="M5.9458051,3.95546254 C5.87708565,3.23713024 6.22153036,2.54193958 6.83468007,2.16145162 C7.44782977,1.78096366 8.22367268,1.78096366 8.83682238,2.16145162 C9.44997209,2.54193958 9.7944168,3.23713024 9.72569734,3.95546254 C9.79572427,4.67456674 9.45159395,5.37110575 8.83790059,5.75241282 C8.22420723,6.1337199 7.44729522,6.1337199 6.83360186,5.75241282 C6.2199085,5.37110575 5.87577818,4.67456674 5.9458051,3.95546254 Z M8.91218396,3.95546254 C8.91218396,3.08676025 8.52192786,2.57874826 7.83705507,2.57874826 C7.14956569,2.57874826 6.76282509,3.08676025 6.76282509,3.95547144 C6.76282509,4.83113352 7.14959239,5.33522951 7.83705507,5.33522951 C8.52194566,5.33522951 8.91218396,4.82764472 8.91218396,3.95546254 L8.91218396,3.95546254 Z"
            id="Shape"></path>
          <polygon id="Path"
            points="14.7502012 5.9609974 13.9297369 5.9609974 13.1014495 3.00939255 13.0388736 3.00939255 12.2140572 5.9609974 11.4014071 5.9609974 10.2967302 1.95338977 11.0989495 1.95338977 11.8168591 5.01142972 11.875964 5.01142972 12.6999082 1.95338977 13.4586688 1.95338977 14.282613 5.01142972 14.3451889 5.01142972 15.0596186 1.95338977 15.8505348 1.95338977">
          </polygon>
          <path
            d="M16.7796414,1.95338977 L17.5410097,1.95338977 L17.5410097,2.59003346 L17.6001146,2.59003346 C17.8056466,2.12129533 18.2859155,1.83456362 18.7960521,1.87603097 C19.191049,1.84633325 19.5781181,1.99786298 19.8479705,2.28783581 C20.1178228,2.57780863 20.2411745,2.9747571 20.1831972,3.36660295 L20.1831972,5.9609529 L19.3922809,5.9609529 L19.3922809,3.56521534 C19.3922809,2.92118465 19.1124204,2.60090036 18.5274857,2.60090036 C18.2595653,2.58842177 17.9995557,2.69356944 17.8156233,2.88877689 C17.631691,3.08398434 17.5421801,3.34978285 17.5705577,3.61648824 L17.5705577,5.9609974 L16.7796414,5.9609974 L16.7796414,1.95338977 Z"
            id="Path"></path>
          <polygon id="Path"
            points="21.443455 0.388929994 22.2343712 0.388929994 22.2343712 5.9609885 21.443455 5.9609885"></polygon>
          <path
            d="M23.3338327,3.95546254 C23.265166,3.23708325 23.6096651,2.54187499 24.2228603,2.16138117 C24.8360555,1.78088734 25.6119383,1.78088734 26.2251335,2.16138117 C26.8383287,2.54187499 27.1828277,3.23708325 27.1141611,3.95546254 C27.184099,4.67459248 26.8399057,5.37111181 26.2261819,5.75240209 C25.612458,6.13369237 24.8355357,6.13369237 24.2218119,5.75240209 C23.6080881,5.37111181 23.2638947,4.67459248 23.3338327,3.95546254 L23.3338327,3.95546254 Z M26.3002116,3.95546254 C26.3002116,3.08676025 25.9099555,2.57874826 25.2250827,2.57874826 C24.5375933,2.57874826 24.1508527,3.08676025 24.1508527,3.95547144 C24.1508527,4.83113352 24.53762,5.33522951 25.2250827,5.33522951 C25.9099644,5.33522951 26.3002116,4.82764472 26.3002116,3.95546254 L26.3002116,3.95546254 Z"
            id="Shape"></path>
          <path
            d="M27.9468006,4.82764472 C27.9468006,4.10625523 28.4839333,3.69037604 29.4373725,3.63127114 L30.5229322,3.56869524 L30.5229322,3.22277895 C30.5229322,2.79950386 30.2430717,2.56049436 29.7024679,2.56049436 C29.2609478,2.56049436 28.9550103,2.72259006 28.8672207,3.00593045 L28.1015092,3.00593045 C28.182339,2.31756886 28.8298496,1.87604877 29.7389668,1.87604877 C30.7436967,1.87604877 31.3103775,2.37622876 31.3103775,3.22277895 L31.3103775,5.9610063 L30.5490092,5.9610063 L30.5490092,5.39780541 L30.4864333,5.39780541 C30.2278426,5.80909784 29.7679841,6.04947518 29.2826727,6.0270354 C28.9424579,6.06242342 28.6031499,5.95224039 28.3486318,5.72372558 C28.0941138,5.49521078 27.948141,5.16969246 27.9468006,4.82764472 L27.9468006,4.82764472 Z M30.5229322,4.48519943 L30.5229322,4.15015003 L29.5442793,4.21272593 C28.9923725,4.24966093 28.74206,4.43739753 28.74206,4.79070082 C28.74206,5.15139112 29.0549484,5.36128871 29.48521,5.36128871 C29.7399156,5.38707189 29.99418,5.30838271 30.1897967,5.14323479 C30.3854133,4.97808687 30.505632,4.74062146 30.5229322,4.48519943 Z"
            id="Shape"></path>
          <path
            d="M32.3498619,3.95546254 C32.3498619,2.68912606 33.0008524,1.88690677 34.0133965,1.88690677 C34.5246808,1.86334859 35.0035459,2.13731082 35.2423618,2.59000676 L35.3014667,2.59000676 L35.3014667,0.388929994 L36.092383,0.388929994 L36.092383,5.9609885 L35.3344946,5.9609885 L35.3344946,5.32781581 L35.2719187,5.32781581 C35.0150507,5.77675582 34.5302858,6.04608717 34.0134054,6.0270354 C32.9939015,6.0270799 32.3498619,5.22484282 32.3498619,3.95546254 Z M33.1668819,3.95546254 C33.1668819,4.80548372 33.5675599,5.31697561 34.2376675,5.31697561 C34.9042775,5.31697561 35.3162674,4.79810562 35.3162674,3.95894244 C35.3162674,3.12369525 34.8999521,2.59742936 34.2376675,2.59742936 C33.5718764,2.59742936 33.1668552,3.11239225 33.1668552,3.95546254 L33.1668819,3.95546254 Z"
            id="Shape"></path>
          <path
            d="M39.3646994,3.95546254 C39.2959799,3.23713024 39.6404246,2.54193958 40.2535743,2.16145162 C40.866724,1.78096366 41.6425669,1.78096366 42.2557166,2.16145162 C42.8688664,2.54193958 43.2133111,3.23713024 43.1445916,3.95546254 C43.2146185,4.67456674 42.8704882,5.37110575 42.2567949,5.75241282 C41.6431015,6.1337199 40.8661895,6.1337199 40.2524961,5.75241282 C39.6388028,5.37110575 39.2946724,4.67456674 39.3646994,3.95546254 L39.3646994,3.95546254 Z M42.3310693,3.95546254 C42.3310693,3.08676025 41.9408221,2.57874826 41.2559493,2.57874826 C40.5684599,2.57874826 40.1817194,3.08676025 40.1817194,3.95547144 C40.1817194,4.83113352 40.5684866,5.33522951 41.2559493,5.33522951 C41.940831,5.33522951 42.3310693,4.82764472 42.3310693,3.95546254 Z"
            id="Shape"></path>
          <path
            d="M44.2058098,1.95338977 L44.9671781,1.95338977 L44.9671781,2.59003346 L45.026283,2.59003346 C45.231815,2.12129533 45.7120839,1.83456362 46.2222205,1.87603097 C46.6172174,1.84633325 47.0042865,1.99786298 47.2741388,2.28783581 C47.5439912,2.57780863 47.6673429,2.9747571 47.6093655,3.36660295 L47.6093655,5.9609529 L46.8184492,5.9609529 L46.8184492,3.56521534 C46.8184492,2.92118465 46.5385888,2.60090036 45.9536541,2.60090036 C45.6857337,2.58842177 45.425724,2.69356944 45.2417917,2.88877689 C45.0578593,3.08398434 44.9683485,3.34978285 44.9967261,3.61648824 L44.9967261,5.9609974 L44.2058098,5.9609974 L44.2058098,1.95338977 Z"
            id="Path"></path>
          <path
            d="M52.0784916,0.955619685 L52.0784916,1.97164367 L52.9467666,1.97164367 L52.9467666,2.63784426 L52.0784916,2.63784426 L52.0784916,4.69857692 C52.0784916,5.11837212 52.2514542,5.30219271 52.6451724,5.30219271 C52.7459698,5.30187012 52.8466661,5.29577551 52.9467666,5.28393882 L52.9467666,5.9427435 C52.8047311,5.96815364 52.6608236,5.98167214 52.5165407,5.9831584 C51.6369715,5.9831584 51.2867031,5.67374101 51.2867031,4.90107862 L51.2867031,2.63780866 L50.6504955,2.63780866 L50.6504955,1.97160807 L51.2867031,1.97160807 L51.2867031,0.955619685 L52.0784916,0.955619685 Z"
            id="Path"></path>
          <path
            d="M54.027102,0.388929994 L54.8110674,0.388929994 L54.8110674,2.59742046 L54.8736433,2.59742046 C55.089048,2.12457998 55.5777224,1.83748288 56.0956133,1.87951087 C56.4883673,1.85813955 56.8701966,2.01300527 57.1370995,2.30192609 C57.4040025,2.59084691 57.5281795,2.98372997 57.4758075,3.37356275 L57.4758075,5.9609974 L56.6840991,5.9609974 L56.6840991,3.56867744 C56.6840991,2.92855385 56.3859491,2.60436246 55.827127,2.60436246 C55.5519648,2.58179532 55.2808709,2.68182891 55.0863198,2.87772017 C54.8917687,3.07361143 54.7935984,3.34538562 54.8180539,3.62038644 L54.8180539,5.9609974 L54.0271376,5.9609974 L54.027102,0.388929994 Z"
            id="Path"></path>
          <path
            d="M62.0875115,4.87891762 C61.8657298,5.63486535 61.134187,6.1232916 60.3509702,6.0383473 C59.8165821,6.05245398 59.3030054,5.83095123 58.9465042,5.43260901 C58.590003,5.03426679 58.426618,4.49935571 58.4996991,3.96980044 C58.428559,3.43877347 58.5913319,2.90300528 58.9458479,2.50129775 C59.3003639,2.09959022 59.8117388,1.87147128 60.3474903,1.87603987 C61.462598,1.87603987 62.1353134,2.63787986 62.1353134,3.89633984 L62.1353134,4.17231993 L59.3053893,4.17231993 L59.3053893,4.21664193 C59.2803465,4.51402665 59.3819122,4.80817842 59.5851081,5.02675614 C59.7883041,5.24533386 60.0742762,5.3680562 60.3726951,5.36474191 C60.7596421,5.41119518 61.1363085,5.21925632 61.3261432,4.87889092 L62.0875115,4.87891762 Z M59.3053715,3.58737634 L61.3295964,3.58737634 C61.3497575,3.31539273 61.254123,3.04754246 61.0662605,2.84983255 C60.8783979,2.65212263 60.6157786,2.5429402 60.3431204,2.54919136 C60.0667683,2.54571939 59.8007259,2.65399886 59.6053428,2.84946746 C59.4099596,3.04493606 59.3017965,3.31102577 59.3053893,3.58737634 L59.3053715,3.58737634 Z"
            id="Shape"></path>
        </g>
      </g>
    </g>
  </g>
</svg>