<?xml version="1.0" encoding="UTF-8"?>
<svg width="24px" height="24px" viewBox="0 0 24 24" version="1.1" xmlns="http://www.w3.org/2000/svg"
  xmlns:xlink="http://www.w3.org/1999/xlink">

  <defs></defs>
  <g id="Symbols" stroke="none" stroke-width="1" fill="none" fill-rule="evenodd">
    <g id="Icon/Arrow-Dark">
      <rect id="Rectangle-8"
        transform="translate(12.000000, 12.000000) rotate(90.000000) translate(-12.000000, -12.000000) " x="0" y="0"
        width="24" height="24"></rect>
      <path
        d="M11.000125,15.9936575 L11.000125,6.499975 C11.000125,5.94769025 11.4478403,5.499975 12.000125,5.499975 C12.5524097,5.499975 13.000125,5.94769025 13.000125,6.499975 L13.000125,15.9944517 L15.709525,13.304775 C16.119525,12.898775 16.783525,12.898775 17.192525,13.304775 C17.602525,13.711775 17.602525,14.370775 17.192525,14.777775 L12.742525,19.194775 C12.332525,19.601775 11.668525,19.601775 11.257525,19.194775 L6.807525,14.777775 C6.397525,14.370775 6.397525,13.711775 6.807525,13.304775 C7.216525,12.898775 7.881525,12.898775 8.291525,13.304775 L11.000125,15.9936575 Z"
        id="Combined-Shape" fill="#394152"
        transform="translate(12.000025, 12.500000) rotate(90.000000) translate(-12.000025, -12.500000) "></path>
    </g>
  </g>
</svg>