<?xml version="1.0" encoding="UTF-8"?>
<svg width="16px" height="16px" viewBox="0 0 16 16" version="1.1" xmlns="http://www.w3.org/2000/svg" xmlns:xlink="http://www.w3.org/1999/xlink">
    <!-- Generator: Sketch 51.3 (57544) - http://www.bohemiancoding.com/sketch -->
    <title></title>
    <desc>Created with Sketch.</desc>
    <defs></defs>
    <g id="Screens-NEW" stroke="none" stroke-width="1" fill="none" fill-rule="evenodd">
        <g id="9.0-Settings-Light" transform="translate(-486.000000, -170.000000)" fill="#CCCCCC">
            <g id="Group-6-Copy" transform="translate(486.000000, 163.000000)">
                <path d="M12.18,18.38 L15.5,18.38 L15.5,22.56 L11.32,22.56 L11.32,20.02 L8,16.5 L4.68,20.02 L4.68,22.56 L0.5,22.56 L0.5,18.38 L3.82,18.38 L7.18,15.06 L7.18,12.4 C6.6866642,12.2266658 6.2833349,11.9300021 5.97,11.51 C5.6566651,11.0899979 5.5,10.6066694 5.5,10.06 C5.5,9.6199978 5.6133322,9.2066686 5.84,8.82 C6.0666678,8.4333314 6.3733314,8.1266678 6.76,7.9 C7.1466686,7.6733322 7.5599978,7.56 8,7.56 C8.4400022,7.56 8.8533314,7.6733322 9.24,7.9 C9.6266686,8.1266678 9.9333322,8.4333314 10.16,8.82 C10.3866678,9.2066686 10.5,9.6199978 10.5,10.06 C10.5,10.6066694 10.3433349,11.0899979 10.03,11.51 C9.7166651,11.9300021 9.3133358,12.2266658 8.82,12.4 L8.82,15.06 L12.18,18.38 Z" id=""></path>
            </g>
        </g>
    </g>
</svg>