<?xml version="1.0" encoding="UTF-8"?>
<svg width="100%" height="100%" fill="#6AE27E" viewBox="0 0 24.5 24.5" version="1.1" xmlns="http://www.w3.org/2000/svg" xmlns:xlink="http://www.w3.org/1999/xlink">
    <!-- Generator: Sketch 49.2 (51160) - http://www.bohemiancoding.com/sketch -->
    <title>Icon/Dark/Confirm</title>
    <desc>Created with Sketch.</desc>
    <defs></defs>
    <g id="Components" stroke="none" stroke-width="1" fill="none" fill-rule="evenodd">
        <g id="Component-Library">
            <g id="Icon/Confirm-Dark">
                <rect id="Rectangle-6-Copy-5" x="0" y="0"></rect>
                <path d="M12,21.5 C6.75329488,21.5 2.5,17.2467051 2.5,12 C2.5,6.75329488 6.75329488,2.5 12,2.5 C17.2467051,2.5 21.5,6.75329488 21.5,12 C21.5,17.2467051 17.2467051,21.5 12,21.5 Z M12,19.6 C16.1973641,19.6 19.6,16.1973641 19.6,12 C19.6,7.8026359 16.1973641,4.4 12,4.4 C7.8026359,4.4 4.4,7.8026359 4.4,12 C4.4,16.1973641 7.8026359,19.6 12,19.6 Z M15.1757486,8.76324856 C15.5467466,8.39225048 16.1482534,8.39225048 16.5192514,8.76324856 C16.8902495,9.13424664 16.8902495,9.73575336 16.5192514,10.1067514 L11.3892514,15.2367514 C11.0182534,15.6077495 10.4167466,15.6077495 10.0457486,15.2367514 L7.48074856,12.6717514 C7.10975048,12.3007534 7.10975048,11.6992466 7.48074856,11.3282486 C7.85174664,10.9572505 8.45325336,10.9572505 8.82425144,11.3282486 L10.7175,13.2214971 L15.1757486,8.76324856 Z" id="Confirm" fill="#394152" fill-rule="evenodd"></path>
            </g>
        </g>
    </g>
</svg> 