<?xml version="1.0" encoding="UTF-8"?>
<svg width="24px" height="24px" viewBox="0 0 24 24" version="1.1" xmlns="http://www.w3.org/2000/svg"
  xmlns:xlink="http://www.w3.org/1999/xlink">

  <defs></defs>
  <g id="Symbols" stroke="none" stroke-width="1" fill="none" fill-rule="evenodd">
    <g id="Icon/Claim-Dark">
      <rect id="Rectangle-6" x="0" y="0" width="24" height="24"></rect>
      <path
        d="M6.37617028,18.75 L4.12438997,18.75 C3.50331265,18.75 3,18.24675 3,17.628 L3,10.872 C3,10.25175 3.50331265,9.75 4.12438997,9.75 L6.37617028,9.75 C6.88548368,9.75 7.31528718,10.08825 7.45405446,10.551 C8.14038989,10.641 9.3397892,10.965 10.3696674,11.6325 C10.5729427,11.6325 12.751964,11.625 12.751964,11.625 C13.7690906,11.625 14.5686901,12.19875 15.186017,13.125 L17.6268208,13.125 C19.5343082,13.125 20.9999907,14.26725 20.9999907,15.369 C21.0037412,16.0185 19.8726004,17.02875 18.4241701,17.862 C16.6344473,18.89175 14.5649396,19.512 12.3799176,19.5 C10.2248994,19.512 8.42917584,19.0935 7.24327822,18.342 C7.03775263,18.591 6.72571379,18.75 6.37617028,18.75 Z M12.3799176,18 C16.5009306,17.9775 19.3685376,15.51525 19.3685376,15.28725 C19.3685376,15.06 18.5509358,14.625 17.6268208,14.625 L15.9301096,14.625 C16.0051189,14.83425 16.0628761,15.02775 16.1041312,15.19275 C16.222646,15.666 15.8641014,16.125 15.3765407,16.125 L9.37579368,16.125 C8.96099204,16.125 8.62570031,15.789 8.62570031,15.375 C8.62570031,14.96025 8.96099204,14.625 9.37579368,14.625 L14.2514006,14.625 C14.2514006,14.625 13.7518384,13.125 12.751964,13.125 L10.1258871,13.125 C9.96536707,13.125 9.80859756,13.07325 9.6788314,12.97725 C9.64882767,12.95475 8.64670292,12.2865 7.50056025,12.07725 L7.50056025,16.641 C8.35641679,17.60025 10.4701799,18.00975 12.3799176,18 Z M6.0003735,11.2515 L4.50018675,11.25 L4.50018675,17.25 L6.0003735,17.25 L6.0003735,11.2515 Z M17.2517741,12 C16.0088694,12 15.001494,10.99275 15.001494,9.75 C15.001494,8.50725 16.0088694,7.5 17.2517741,7.5 C18.4946788,7.5 19.5020542,8.50725 19.5020542,9.75 C19.5020542,10.99275 18.4946788,12 17.2517741,12 Z M17.2517741,10.5 C17.6665757,10.5 18.0018675,10.164 18.0018675,9.75 C18.0018675,9.33525 17.6665757,9 17.2517741,9 C16.8369725,9 16.5016807,9.33525 16.5016807,9.75 C16.5016807,10.164 16.8369725,10.5 17.2517741,10.5 Z M12.0011205,9 C10.7582158,9 9.75084037,7.99275 9.75084037,6.75 C9.75084037,5.50725 10.7582158,4.5 12.0011205,4.5 C13.2440252,4.5 14.2514006,5.50725 14.2514006,6.75 C14.2514006,7.99275 13.2440252,9 12.0011205,9 Z M12.0011205,7.5 C12.4159221,7.5 12.7512139,7.164 12.7512139,6.75 C12.7512139,6.33525 12.4159221,6 12.0011205,6 C11.5863189,6 11.2510271,6.33525 11.2510271,6.75 C11.2510271,7.164 11.5863189,7.5 12.0011205,7.5 Z"
        id="Claim" fill="#394152"></path>
    </g>
  </g>
</svg>