<?xml version="1.0" encoding="UTF-8"?>
<svg width="16px" height="16px" viewBox="0 0 16 16" version="1.1" xmlns="http://www.w3.org/2000/svg"
  xmlns:xlink="http://www.w3.org/1999/xlink">

  <g id="Page-1" stroke="none" stroke-width="1" fill="none" fill-rule="evenodd">
    <g id="2.0-Home-Dark-Copy-2" transform="translate(-1150.000000, -416.000000)" fill="#FFFFFF" fill-rule="nonzero">
      <path
        d="M1158,432 C1159.45067,432 1160.79467,431.637333 1162.032,430.912 C1163.24089,430.200889 1164.20089,429.240889 1164.912,428.032 C1165.63733,426.794667 1166,425.450667 1166,424 C1166,422.549333 1165.63733,421.205333 1164.912,419.968 C1164.20089,418.759111 1163.24089,417.799111 1162.032,417.088 C1160.79467,416.362667 1159.45067,416 1158,416 L1158,416 L1157.12533,416 L1157.12533,419.541333 L1158.87467,419.541333 L1158.87467,417.834667 C1159.87022,417.962667 1160.77333,418.318222 1161.584,418.901333 C1162.39467,419.484444 1163.03467,420.216889 1163.504,421.098667 C1163.97333,422.008889 1164.208,422.976 1164.208,424 C1164.208,425.137778 1163.93067,426.183111 1163.376,427.136 C1162.82133,428.074667 1162.07467,428.821333 1161.136,429.376 C1160.18311,429.930667 1159.13778,430.208 1158,430.208 C1156.86222,430.208 1155.81689,429.930667 1154.864,429.376 C1153.92533,428.821333 1153.17867,428.074667 1152.624,427.136 C1152.06933,426.183111 1151.792,425.137778 1151.792,424 C1151.792,422.520889 1152.24711,421.212444 1153.15733,420.074667 L1153.15733,420.074667 L1158,424.874667 L1159.25867,423.616 L1153.2,417.578667 L1153.2,417.621333 C1152.20444,418.360889 1151.42933,419.278222 1150.87467,420.373333 C1150.29156,421.496889 1150,422.705778 1150,424 C1150,425.450667 1150.36267,426.794667 1151.088,428.032 C1151.79911,429.240889 1152.75911,430.200889 1153.968,430.912 C1155.20533,431.637333 1156.54933,432 1158,432 Z M1153.54133,424.874667 C1153.79733,424.874667 1154.01422,424.789333 1154.192,424.618667 C1154.36978,424.448 1154.45867,424.241778 1154.45867,424 C1154.45867,423.758222 1154.36622,423.552 1154.18133,423.381333 C1153.99644,423.210667 1153.78311,423.125333 1153.54133,423.125333 C1153.29956,423.125333 1153.09333,423.210667 1152.92267,423.381333 C1152.752,423.552 1152.66667,423.758222 1152.66667,424 C1152.66667,424.241778 1152.74844,424.448 1152.912,424.618667 C1153.07556,424.789333 1153.28533,424.874667 1153.54133,424.874667 Z M1162.45867,424.874667 C1162.70044,424.874667 1162.90667,424.789333 1163.07733,424.618667 C1163.248,424.448 1163.33333,424.241778 1163.33333,424 C1163.33333,423.758222 1163.248,423.552 1163.07733,423.381333 C1162.90667,423.210667 1162.70044,423.125333 1162.45867,423.125333 C1162.21689,423.125333 1162.00356,423.210667 1161.81867,423.381333 C1161.63378,423.552 1161.54133,423.758222 1161.54133,424 C1161.54133,424.241778 1161.63378,424.448 1161.81867,424.618667 C1162.00356,424.789333 1162.21689,424.874667 1162.45867,424.874667 Z M1158,429.333333 C1158.24178,429.333333 1158.448,429.251556 1158.61867,429.088 C1158.78933,428.924444 1158.87467,428.714667 1158.87467,428.458667 C1158.87467,428.202667 1158.78933,427.985778 1158.61867,427.808 C1158.448,427.630222 1158.24178,427.541333 1158,427.541333 C1157.75822,427.541333 1157.552,427.630222 1157.38133,427.808 C1157.21067,427.985778 1157.12533,428.202667 1157.12533,428.458667 C1157.12533,428.700444 1157.21067,428.906667 1157.38133,429.077333 C1157.552,429.248 1157.75822,429.333333 1158,429.333333 Z"
        id=""></path>
    </g>
  </g>
</svg>