<?xml version="1.0" encoding="UTF-8"?>
<svg width="24px" height="24px" viewBox="0 0 24 24" version="1.1" xmlns="http://www.w3.org/2000/svg" xmlns:xlink="http://www.w3.org/1999/xlink">
    <!-- Generator: Sketch 48.2 (47327) - http://www.bohemiancoding.com/sketch -->
    <title>Icon/Close-Dark</title>
    <desc>Created with Sketch.</desc>
    <defs></defs>
    <g id="Symbols" stroke="none" stroke-width="1" fill="none" fill-rule="evenodd">
        <g id="Icon/Close-Dark" fill="#394152">
            <path d="M13.8708451,12 L17.6125353,15.7416902 C18.1291549,16.2583098 18.1291549,17.0959157 17.6125353,17.6125353 C17.0959157,18.1291549 16.2583098,18.1291549 15.7416902,17.6125353 L12,13.8708451 L8.2583098,17.6125353 C7.7416902,18.1291549 6.90408431,18.1291549 6.38746471,17.6125353 C5.8708451,17.0959157 5.8708451,16.2583098 6.38746471,15.7416902 L10.1291549,12 L6.38746471,8.2583098 C5.8708451,7.7416902 5.8708451,6.90408431 6.38746471,6.38746471 C6.90408431,5.8708451 7.7416902,5.8708451 8.2583098,6.38746471 L12,10.1291549 L15.7416902,6.38746471 C16.2583098,5.8708451 17.0959157,5.8708451 17.6125353,6.38746471 C18.1291549,6.90408431 18.1291549,7.7416902 17.6125353,8.2583098 L13.8708451,12 Z" id="Combined-Shape"></path>
        </g>
    </g>
</svg>