<?xml version="1.0" encoding="UTF-8"?>
<svg width="24px" height="24px" viewBox="0 0 24 24" version="1.1" xmlns="http://www.w3.org/2000/svg" xmlns:xlink="http://www.w3.org/1999/xlink">
    <!-- Generator: Sketch 51.3 (57544) - http://www.bohemiancoding.com/sketch -->
    <title>Icon/Settings-Dark</title>
    <desc>Created with Sketch.</desc>
    <defs></defs>
    <g id="Icon/Settings-Dark" stroke="none" stroke-width="1" fill="none" fill-rule="evenodd">
        <rect id="Rectangle-6-Copy-5" x="0" y="0" width="24" height="24"></rect>
        <path d="M10.6825938,5.92542717 C10.6825938,6.28569993 10.4594204,6.60790234 10.1231977,6.7330448 C9.48839464,6.96931918 8.90222451,7.31723605 8.39182891,7.75830289 C8.11724851,7.99558611 7.72387703,8.03385382 7.40909535,7.85390452 L6.26300016,7.19872337 C6.04472407,7.07394283 5.76321871,7.14850603 5.6415861,7.35710492 L4.77191852,8.84857739 C4.65361481,9.05146724 4.7235641,9.30933472 4.9361641,9.43087044 L6.11826071,10.1066323 C6.4334045,10.2867886 6.60164192,10.6467043 6.53839518,11.0054394 C6.48245619,11.3227251 6.45409147,11.646223 6.45409147,11.9736842 C6.45409147,12.3011454 6.48245619,12.6246434 6.53839518,12.941929 C6.60164192,13.3006641 6.4334045,13.6605798 6.11826071,13.8407361 L4.9361641,14.516498 C4.7235641,14.6380337 4.65361481,14.8959012 4.77191852,15.098791 L5.6415861,16.5902635 C5.76321871,16.7988624 6.04472407,16.8734256 6.26300016,16.748645 L7.40909535,16.0934639 C7.72387703,15.9135146 8.11724851,15.9517823 8.39182891,16.1890655 C8.90222451,16.6301324 9.48839464,16.9780492 10.1231977,17.2143236 C10.4594204,17.3394661 10.6825938,17.6616685 10.6825938,18.0219412 L10.6825938,19.2914588 C10.6825938,19.5292646 10.8799197,19.7248804 11.1303324,19.7248804 L12.8696676,19.7248804 C13.1180646,19.7248804 13.3174062,19.5273395 13.3174062,19.2914588 L13.3174062,18.1063386 C13.3174062,17.7337125 13.5558952,17.4033485 13.9084108,17.2876566 C14.5880086,17.0646197 15.2174261,16.7153635 15.7648825,16.2605734 C16.0392981,16.0326073 16.4253992,15.9988504 16.7348756,16.1757669 L17.7369998,16.748645 C17.9552759,16.8734256 18.2367813,16.7988624 18.3584139,16.5902635 L19.2280815,15.098791 C19.3463852,14.8959012 19.2764359,14.6380337 19.0638359,14.516498 L18.099608,13.9652838 C17.7789988,13.7820031 17.611045,13.4131705 17.6826264,13.0495774 C17.7518463,12.6979793 17.7870138,12.338303 17.7870138,11.9736842 C17.7870138,11.6090654 17.7518463,11.2493891 17.6826264,10.8977911 C17.611045,10.5341979 17.7789988,10.1653653 18.099608,9.98208466 L19.0638359,9.43087044 C19.2764359,9.30933472 19.3463852,9.05146724 19.2280815,8.84857739 L18.3584139,7.35710492 C18.2367813,7.14850603 17.9552759,7.07394283 17.7369998,7.19872337 L16.7348756,7.77160154 C16.4253992,7.94851798 16.0392981,7.91476116 15.7648825,7.68679505 C15.2174261,7.23200487 14.5880086,6.88274868 13.9084108,6.65971182 C13.5558952,6.54401988 13.3174062,6.21365593 13.3174062,5.84102978 L13.3174062,4.65590961 C13.3174062,4.41810379 13.1200803,4.22248804 12.8696676,4.22248804 L11.1303324,4.22248804 C10.8819354,4.22248804 10.6825938,4.42002896 10.6825938,4.65590961 L10.6825938,5.92542717 Z M8.9683513,4.65590961 C8.9683513,3.46333513 9.94046793,2.5 11.1303324,2.5 L12.8696676,2.5 C14.0616876,2.5 15.0316487,3.46155474 15.0316487,4.65590961 L15.0316487,5.24477873 C15.5061377,5.44695791 15.9574856,5.69808653 16.378588,5.99353484 L16.8893084,5.70157445 C17.9204162,5.11212743 19.2399886,5.46164666 19.8374867,6.48635084 L20.7071543,7.97782331 C21.3100669,9.01181334 20.9515522,10.3334748 19.9115273,10.9280194 L19.4590334,11.1866938 C19.4871046,11.4468384 19.5012562,11.709436 19.5012562,11.9736842 C19.5012562,12.2379324 19.4871046,12.50053 19.4590334,12.7606746 L19.9115273,13.0193491 C20.9515522,13.6138937 21.3100669,14.9355551 20.7071543,15.9695451 L19.8374867,17.4610176 C19.2399886,18.4857218 17.9204162,18.835241 16.8893084,18.245794 L16.378588,17.9538336 C15.9574856,18.2492819 15.5061377,18.5004105 15.0316487,18.7025897 L15.0316487,19.2914588 C15.0316487,20.4840333 14.0595321,21.4473684 12.8696676,21.4473684 L11.1303324,21.4473684 C9.93831242,21.4473684 8.9683513,20.4858137 8.9683513,19.2914588 L8.9683513,18.5947143 C8.5416386,18.3945483 8.13551225,18.1541581 7.75539216,17.877242 L7.11069156,18.245794 C6.07958376,18.835241 4.76001143,18.4857218 4.1625133,17.4610176 L3.29284572,15.9695451 C2.68993307,14.9355551 3.04844778,13.6138937 4.0884727,13.0193491 L4.76918056,12.630213 C4.74966936,12.4128082 4.739849,12.1938116 4.739849,11.9736842 C4.739849,11.7535569 4.74966936,11.5345602 4.76918056,11.3171554 L4.0884727,10.9280194 C3.04844778,10.3334748 2.68993307,9.01181334 3.29284572,7.97782331 L4.1625133,6.48635084 C4.76001143,5.46164666 6.07958376,5.11212743 7.11069156,5.70157445 L7.75539216,6.07012645 C8.13551225,5.79321029 8.5416386,5.55282017 8.9683513,5.35265414 L8.9683513,4.65590961 Z M12,14.9880383 C10.3431875,14.9880383 9.00007568,13.638466 9.00007568,11.9736842 C9.00007568,10.3089024 10.3431875,8.95933014 12,8.95933014 C13.6568125,8.95933014 14.9999243,10.3089024 14.9999243,11.9736842 C14.9999243,13.638466 13.6568125,14.9880383 12,14.9880383 Z M12,13.2655502 C12.7100625,13.2655502 13.2856819,12.6871621 13.2856819,11.9736842 C13.2856819,11.2602063 12.7100625,10.6818182 12,10.6818182 C11.2899375,10.6818182 10.7143181,11.2602063 10.7143181,11.9736842 C10.7143181,12.6871621 11.2899375,13.2655502 12,13.2655502 Z" id="Combined-Shape" fill="#394152" fill-rule="nonzero"></path>
    </g>
</svg>