<?xml version="1.0" encoding="UTF-8"?>
<svg width="112px" height="111px" viewBox="0 0 112 111" version="1.1" xmlns="http://www.w3.org/2000/svg" xmlns:xlink="http://www.w3.org/1999/xlink">
    <!-- Generator: Sketch 52.2 (67145) - http://www.bohemiancoding.com/sketch -->
    <title>Check</title>
    <desc>Created with Sketch.</desc>
    <g id="Screens-NEW" stroke="none" stroke-width="1" fill="none" fill-rule="evenodd">
        <g id="4.2-Completion-Dark" transform="translate(-248.000000, -279.000000)" fill="#F7BC33">
            <g id="Group-2" transform="translate(248.594720, 278.000000)">
                <path d="M26.9746,55.1304 C26.6806,55.1304 26.2826,55.1914 25.8056,55.6684 C25.5076,55.9654 25.3806,56.2984 25.3806,56.7804 C25.3806,57.2624 25.5076,57.5954 25.8056,57.8934 L43.7346,75.7134 C44.0296,76.0414 44.3306,76.1744 44.7746,76.1744 C45.2196,76.1744 45.5206,76.0414 45.8146,75.7134 L46.3316,75.1924 L82.1576,39.1424 C82.4596,38.8404 82.5866,38.5074 82.5866,38.0254 C82.5866,37.5434 82.4596,37.2104 82.1626,36.9124 C81.6856,36.4364 81.2876,36.3754 80.9936,36.3754 C80.7006,36.3754 80.3026,36.4364 79.8276,36.9094 L44.7236,72.2474 L28.1436,55.6674 C27.6666,55.1914 27.2686,55.1304 26.9746,55.1304 M55.4996,108.9244 C48.2936,108.9244 41.4316,107.5274 35.1036,104.7714 C28.7976,102.0234 23.2236,98.2344 18.5366,93.5084 C13.8516,88.7864 10.0856,83.1964 7.3416,76.8954 C4.5846,70.5684 3.1876,63.7064 3.1876,56.4994 C3.1876,49.2934 4.5846,42.4304 7.3416,36.1034 C10.0866,29.7994 13.8556,24.2274 18.5416,19.5414 C23.2276,14.8554 28.7996,11.0874 35.1036,8.3404 C41.4316,5.5844 48.2936,4.1874 55.4996,4.1874 C62.7066,4.1874 69.5686,5.5844 75.8956,8.3404 C82.2006,11.0864 87.7726,14.8554 92.4586,19.5414 C97.1446,24.2274 100.9126,29.7994 103.6596,36.1034 C106.4156,42.4304 107.8126,49.2924 107.8126,56.4994 C107.8126,63.7074 106.4156,70.5694 103.6596,76.8954 C100.9146,83.1974 97.1476,88.7864 92.4646,93.5084 C87.7776,98.2344 82.2026,102.0234 75.8956,104.7714 C69.5696,107.5274 62.7066,108.9244 55.4996,108.9244 M55.4996,0.9994 C47.8736,0.9994 40.5996,2.4564 33.8816,5.3304 C27.1496,8.2114 21.2016,12.2054 16.2036,17.2034 C11.2056,22.2014 7.2116,28.1494 4.3306,34.8814 C1.4566,41.5994 -0.0004,48.8734 -0.0004,56.4994 C-0.0004,64.1264 1.4566,71.4004 4.3306,78.1174 C7.2116,84.8504 11.2066,90.7984 16.2036,95.7964 C21.2026,100.7944 27.1506,104.7894 33.8816,107.6694 C40.6006,110.5434 47.8746,112.0004 55.4996,112.0004 C63.1256,112.0004 70.3996,110.5434 77.1186,107.6694 C83.8506,104.7894 89.7986,100.7944 94.7966,95.7964 C99.7936,90.7984 103.7886,84.8504 106.6686,78.1174 C109.5426,71.4014 110.9996,64.1284 110.9996,56.4994 C110.9996,48.8714 109.5426,41.5984 106.6686,34.8814 C103.7886,28.1494 99.7946,22.2014 94.7966,17.2034 C89.7986,12.2054 83.8506,8.2114 77.1186,5.3304 C70.4006,2.4564 63.1266,0.9994 55.4996,0.9994" id="Check"></path>
            </g>
        </g>
    </g>
</svg>