<?xml version="1.0" encoding="UTF-8"?>
<svg width="20px" height="20px" fill="" viewBox="0 0 20 20" version="1.1" xmlns="http://www.w3.org/2000/svg" xmlns:xlink="http://www.w3.org/1999/xlink">
    <!-- Generator: Sketch 51.2 (57519) - http://www.bohemiancoding.com/sketch -->
    <title>Confirm</title>
    <desc>Created with Sketch.</desc>
    <defs></defs>
    <g id="Symbols" stroke="none" stroke-width="1" fill="none" fill-rule="evenodd">
        <g id="TextField/Dark/Success" transform="translate(-220.000000, -8.000000)" fill="#6AE27E">
            <path d="M230,27.5 C224.753295,27.5 220.5,23.2467051 220.5,18 C220.5,12.7532949 224.753295,8.5 230,8.5 C235.246705,8.5 239.5,12.7532949 239.5,18 C239.5,23.2467051 235.246705,27.5 230,27.5 Z M230,25.6 C234.197364,25.6 237.6,22.1973641 237.6,18 C237.6,13.8026359 234.197364,10.4 230,10.4 C225.802636,10.4 222.4,13.8026359 222.4,18 C222.4,22.1973641 225.802636,25.6 230,25.6 Z M233.175749,14.7632486 C233.546747,14.3922505 234.148253,14.3922505 234.519251,14.7632486 C234.89025,15.1342466 234.89025,15.7357534 234.519251,16.1067514 L229.389251,21.2367514 C229.018253,21.6077495 228.416747,21.6077495 228.045749,21.2367514 L225.480749,18.6717514 C225.10975,18.3007534 225.10975,17.6992466 225.480749,17.3282486 C225.851747,16.9572505 226.453253,16.9572505 226.824251,17.3282486 L228.7175,19.2214971 L233.175749,14.7632486 Z" id="Confirm"></path>
        </g>
    </g>
</svg> 