<?xml version="1.0" encoding="UTF-8"?>
<svg width="24px" height="24px" viewBox="0 0 24 24" version="1.1" xmlns="http://www.w3.org/2000/svg"
  xmlns:xlink="http://www.w3.org/1999/xlink">

  <defs></defs>
  <g id="Symbols" stroke="none" stroke-width="1" fill="none" fill-rule="evenodd">
    <g id="Icon/Contacts-Add-Dark">
      <rect id="Rectangle-6-Copy" x="0" y="0" width="24" height="24"></rect>
      <path
        d="M18.3805113,15.2772314 L18.3805113,14.456109 C18.3805113,14.0026156 18.0128823,13.6349866 17.5593889,13.6349866 C17.1058956,13.6349866 16.7382666,14.0026156 16.7382666,14.456109 L16.7382666,15.2772314 L15.9171442,15.2772314 C15.4636508,15.2772314 15.0960218,15.6448604 15.0960218,16.0983538 C15.0960218,16.5518472 15.4636508,16.9194762 15.9171442,16.9194762 L16.7382666,16.9194762 L16.7382666,17.7405986 C16.7382666,18.194092 17.1058956,18.561721 17.5593889,18.561721 C18.0128823,18.561721 18.3805113,18.194092 18.3805113,17.7405986 L18.3805113,16.9194762 L19.2016337,16.9194762 C19.6551271,16.9194762 20.0227561,16.5518472 20.0227561,16.0983538 C20.0227561,15.6448604 19.6551271,15.2772314 19.2016337,15.2772314 L18.3805113,15.2772314 Z M14.3542552,18.6643613 L5.34340805,18.6643613 C4.32383018,18.6643613 3.49766797,17.8359568 3.50000495,16.7511688 C3.50494628,16.6818331 3.51448127,16.5656172 3.52875418,16.417584 C3.55256991,16.1705764 3.58141229,15.9230811 3.61578089,15.6888305 C3.68583416,15.2113593 3.76598521,14.8529289 3.89022985,14.5830305 C4.42364411,13.424287 8.02011439,11.8901015 10.5798486,11.8901015 C11.9875558,11.8901015 13.5671637,12.295519 14.959536,12.9206464 C15.667515,12.3407248 16.5728141,11.9927418 17.5593889,11.9927418 C19.8268558,11.9927418 21.6650009,13.8308869 21.6650009,16.0983538 C21.6650009,18.3658207 19.8268558,20.2039658 17.5593889,20.2039658 C16.2628446,20.2039658 15.1066707,19.6029683 14.3542552,18.6643613 Z M10.5798486,11.2742597 C8.70918843,11.2742597 7.19271874,9.75779005 7.19271874,7.88712987 C7.19271874,6.0164697 8.70918843,4.5 10.5798486,4.5 C12.4505088,4.5 13.9669785,6.0164697 13.9669785,7.88712987 C13.9669785,9.75779005 12.4505088,11.2742597 10.5798486,11.2742597 Z M10.5798486,9.42673436 C11.4301487,9.42673436 12.1194531,8.73742995 12.1194531,7.88712987 C12.1194531,7.03682979 11.4301487,6.34752538 10.5798486,6.34752538 C9.72954853,6.34752538 9.04024412,7.03682979 9.04024412,7.88712987 C9.04024412,8.73742995 9.72954853,9.42673436 10.5798486,9.42673436 Z M10.5798486,13.7376269 C9.5224659,13.7376269 8.28229285,14.0397547 7.12372667,14.5339769 C6.64127845,14.7397801 6.20569024,14.9666009 5.87981398,15.1762239 C5.73948589,15.2664913 5.62800064,15.3483275 5.55433457,15.412856 C5.5348564,15.4299181 5.53414717,15.4301077 5.55798693,15.3783417 C5.53773959,15.4312727 5.4871217,15.661319 5.44373679,15.9570232 C5.41430756,16.1576078 5.38885591,16.3760074 5.36775147,16.5948946 C5.35632112,16.7134457 5.34844724,16.8073701 5.34585253,16.8168359 L13.4123799,16.8168359 C13.3718424,16.5815139 13.3511367,16.3413287 13.3511367,16.0983538 C13.3511367,15.5034513 13.4754053,14.9268339 13.7084768,14.399107 C12.6669457,13.9924241 11.5454619,13.7376269 10.5798486,13.7376269 Z"
        id="Add-Contact" fill="#394152" fill-rule="nonzero"></path>
    </g>
  </g>
</svg>