<?xml version="1.0" encoding="UTF-8"?>
<svg width="24px" height="24px" viewBox="0 0 24 24" version="1.1" xmlns="http://www.w3.org/2000/svg"
  xmlns:xlink="http://www.w3.org/1999/xlink">

  <defs></defs>
  <g id="Symbols" stroke="none" stroke-width="1" fill="none" fill-rule="evenodd">
    <g id="Icon/Copy-Dark">
      <rect id="Rectangle-6-Copy-2" x="0" y="0" width="24" height="24"></rect>
      <path
        d="M18,6 L10,6 L10,8 L14,8 C15.105,8 16,8.895 16,10 L16,14 L18,14 L18,6 Z M6,18 L14,18 L14,10 L6,10 L6,18 Z M18,16 L16,16 L16,18 C16,19.105 15.105,20 14,20 L6,20 C4.895,20 4,19.105 4,18 L4,10 C4,8.895 4.895,8 6,8 L8,8 L8,6 C8,4.895 8.895,4 10,4 L18,4 C19.105,4 20,4.895 20,6 L20,14 C20,15.105 19.105,16 18,16 Z"
        id="Copy" fill="#394152"></path>
    </g>
  </g>
</svg>