<?xml version="1.0" encoding="UTF-8"?>
<svg width="20px" height="15px" viewBox="0 0 20 15" version="1.1" xmlns="http://www.w3.org/2000/svg" xmlns:xlink="http://www.w3.org/1999/xlink">
    <!-- Generator: Sketch 51.3 (57544) - http://www.bohemiancoding.com/sketch -->
    <title>toll - material</title>
    <desc>Created with Sketch.</desc>
    <defs></defs>
    <g id="Screens-NEW" stroke="none" stroke-width="1" fill="none" fill-rule="evenodd">
        <g id="9.0-Settings-Light" transform="translate(-484.000000, -223.000000)" fill="#CCCCCC">
            <g id="Group-5-Copy" transform="translate(483.000000, 204.000000)">
                <path d="M3.5,26.5817193 C3.5,27.6617247 3.8066636,28.6350483 4.42,29.5017193 C5.0333364,30.3683903 5.8333284,30.9683843 6.82,31.3017193 L6.82,33.0217193 C5.8599952,32.7817181 5.0033371,32.3483891 4.25,31.7217193 C3.4966629,31.0950495 2.9066688,30.3483903 2.48,29.4817193 C2.0399978,28.5750481 1.82,27.6083911 1.82,26.5817193 C1.82,25.5550475 2.0399978,24.5883905 2.48,23.6817193 C2.9066688,22.8150483 3.4966629,22.0683891 4.25,21.4417193 C5.0033371,20.8150495 5.8599952,20.3817205 6.82,20.1417193 L6.82,21.8617193 C5.8333284,22.1950543 5.0333364,22.7950483 4.42,23.6617193 C3.8066636,24.5283903 3.5,25.5017139 3.5,26.5817193 Z M13.5,31.5817193 C14.4066712,31.5817193 15.2433295,31.3583882 16.01,30.9117193 C16.7766705,30.4650504 17.3833311,29.8583898 17.83,29.0917193 C18.2766689,28.3250488 18.5,27.4883905 18.5,26.5817193 C18.5,25.6750481 18.2766689,24.8383898 17.83,24.0717193 C17.3833311,23.3050488 16.7766705,22.6983882 16.01,22.2517193 C15.2433295,21.8050504 14.4066712,21.5817193 13.5,21.5817193 C12.5933288,21.5817193 11.7566705,21.8050504 10.99,22.2517193 C10.2233295,22.6983882 9.6166689,23.3050488 9.17,24.0717193 C8.7233311,24.8383898 8.5,25.6750481 8.5,26.5817193 C8.5,27.4883905 8.7233311,28.3250488 9.17,29.0917193 C9.6166689,29.8583898 10.2233295,30.4650504 10.99,30.9117193 C11.7566705,31.3583882 12.5933288,31.5817193 13.5,31.5817193 Z M13.5,19.9017193 C14.700006,19.9017193 15.8199948,20.2083829 16.86,20.8217193 C17.8733384,21.4083889 18.6733304,22.2083809 19.26,23.2217193 C19.8733364,24.2617245 20.18,25.3817133 20.18,26.5817193 C20.18,27.7817253 19.8733364,28.9017141 19.26,29.9417193 C18.6733304,30.9550577 17.8733384,31.7550497 16.86,32.3417193 C15.8199948,32.9550557 14.700006,33.2617193 13.5,33.2617193 C12.299994,33.2617193 11.1800052,32.9550557 10.14,32.3417193 C9.1266616,31.7550497 8.3266696,30.9550577 7.74,29.9417193 C7.1266636,28.9017141 6.82,27.7817253 6.82,26.5817193 C6.82,25.3817133 7.1266636,24.2617245 7.74,23.2217193 C8.3266696,22.2083809 9.1266616,21.4083889 10.14,20.8217193 C11.1800052,20.2083829 12.299994,19.9017193 13.5,19.9017193 Z" id="toll---material"></path>
            </g>
        </g>
    </g>
</svg>