<?xml version="1.0" encoding="UTF-8"?>
<svg width="24px" height="24px" viewBox="0 0 24 24" version="1.1" xmlns="http://www.w3.org/2000/svg" xmlns:xlink="http://www.w3.org/1999/xlink">
    <!-- Generator: Sketch 48.2 (47327) - http://www.bohemiancoding.com/sketch -->
    <title>Icon/Delete-Dark</title>
    <desc>Created with Sketch.</desc>
    <defs></defs>
    <g id="Symbols" stroke="none" stroke-width="1" fill="none" fill-rule="evenodd">
        <g id="Icon/Delete-Dark">
            <rect id="Rectangle-6-Copy-6" x="0" y="0" width="24" height="24"></rect>
            <path d="M7.3125,18.9384375 C7.3125,18.939375 16.689375,18.9375 16.689375,18.9375 C16.6865625,18.9375 16.6875,9.7528125 16.6875,6.75 L7.3125,6.75 L7.3125,18.9384375 Z M18.5625,18.9384375 C18.5625,19.9734375 17.7215625,20.8125 16.689375,20.8125 L7.310625,20.8125 C6.2765625,20.8125 5.4375,19.974375 5.4375,18.9384375 L5.4375,6.75 C4.9190625,6.75 4.5,6.3346875 4.5,5.8125 C4.5,5.295 4.91625,4.875 5.4384375,4.875 L10.125,4.875 C10.125,3.84 10.965,3 12,3 C13.035,3 13.875,3.84 13.875,4.875 L18.5615625,4.875 C19.08,4.875 19.5,5.29125 19.5,5.8125 C19.5,6.3309375 19.08375,6.75 18.5625,6.75 L18.5625,18.9384375 Z M12.9375,9.560625 C12.9375,9.0440625 13.35375,8.625 13.875,8.625 C14.3934375,8.625 14.8125,9.0440625 14.8125,9.560625 L14.8125,16.1278125 C14.8125,16.644375 14.39625,17.0625 13.875,17.0625 C13.3565625,17.0625 12.9375,16.644375 12.9375,16.1278125 L12.9375,9.560625 Z M9.1875,9.560625 C9.1875,9.0440625 9.60375,8.625 10.125,8.625 C10.6434375,8.625 11.0625,9.0440625 11.0625,9.560625 L11.0625,16.1278125 C11.0625,16.644375 10.64625,17.0625 10.125,17.0625 C9.6065625,17.0625 9.1875,16.644375 9.1875,16.1278125 L9.1875,9.560625 Z" id="Delete" fill="#394152"></path>
        </g>
    </g>
</svg>