<?xml version="1.0" encoding="UTF-8"?>
<svg width="30px" height="31px" viewBox="0 0 30 31" version="1.1" xmlns="http://www.w3.org/2000/svg"
  xmlns:xlink="http://www.w3.org/1999/xlink">

  <g id="Page-1" stroke="none" stroke-width="1" fill="none" fill-rule="evenodd">
    <g id="4.3-Send-Dark-QR---B-Copy" transform="translate(-837.000000, -480.000000)" fill="#8D98AE"
      fill-rule="nonzero">
      <path
        d="M852,510.875 C854.070312,510.875 856.018555,510.484375 857.844727,509.703125 C859.670898,508.921875 861.262695,507.852539 862.620117,506.495117 C863.977539,505.137695 865.046875,503.545898 865.828125,501.719727 C866.609375,499.893555 867,497.945312 867,495.875 C867,493.804688 866.609375,491.856445 865.828125,490.030273 C865.046875,488.204102 863.977539,486.612305 862.620117,485.254883 C861.262695,483.897461 859.670898,482.828125 857.844727,482.046875 C856.018555,481.265625 854.070312,480.875 852,480.875 C849.929688,480.875 847.981445,481.265625 846.155273,482.046875 C844.329102,482.828125 842.737305,483.897461 841.379883,485.254883 C840.022461,486.612305 838.953125,488.204102 838.171875,490.030273 C837.390625,491.856445 837,493.804688 837,495.875 C837,497.945312 837.390625,499.893555 838.171875,501.719727 C838.953125,503.545898 840.022461,505.137695 841.379883,506.495117 C842.737305,507.852539 844.329102,508.921875 846.155273,509.703125 C847.981445,510.484375 849.929688,510.875 852,510.875 Z M852,509.029297 C850.183594,509.029297 848.479492,508.682617 846.887695,507.989258 C845.295898,507.295898 843.90918,506.353516 842.727539,505.162109 C841.545898,503.970703 840.608398,502.579102 839.915039,500.987305 C839.22168,499.395508 838.875,497.691406 838.875,495.875 C838.875,494.058594 839.22168,492.354492 839.915039,490.762695 C840.608398,489.170898 841.545898,487.78418 842.727539,486.602539 C843.90918,485.420898 845.295898,484.483398 846.887695,483.790039 C848.479492,483.09668 850.183594,482.75 852,482.75 C853.816406,482.75 855.520508,483.09668 857.112305,483.790039 C858.704102,484.483398 860.09082,485.420898 861.272461,486.602539 C862.454102,487.78418 863.391602,489.170898 864.084961,490.762695 C864.77832,492.354492 865.125,494.058594 865.125,495.875 C865.125,497.691406 864.77832,499.395508 864.084961,500.987305 C863.391602,502.579102 862.454102,503.970703 861.272461,505.162109 C860.09082,506.353516 858.704102,507.295898 857.112305,507.989258 C855.520508,508.682617 853.816406,509.029297 852,509.029297 Z M856.643555,501.441406 C856.907227,501.441406 857.126953,501.353516 857.302734,501.177734 C857.478516,501.001953 857.566406,500.782227 857.566406,500.518555 C857.566406,500.254883 857.478516,500.035156 857.302734,499.859375 L853.318359,495.875 L857.302734,491.890625 C857.478516,491.714844 857.566406,491.495117 857.566406,491.231445 C857.566406,490.967773 857.478516,490.748047 857.302734,490.572266 C857.126953,490.396484 856.907227,490.308594 856.643555,490.308594 C856.379883,490.308594 856.160156,490.396484 855.984375,490.572266 L852,494.556641 L848.015625,490.572266 C847.839844,490.396484 847.620117,490.308594 847.356445,490.308594 C847.092773,490.308594 846.873047,490.396484 846.697266,490.572266 C846.521484,490.748047 846.433594,490.967773 846.433594,491.231445 C846.433594,491.495117 846.521484,491.714844 846.697266,491.890625 L850.681641,495.875 L846.697266,499.859375 C846.521484,500.035156 846.433594,500.254883 846.433594,500.518555 C846.433594,500.782227 846.521484,501.001953 846.697266,501.177734 C846.873047,501.353516 847.092773,501.441406 847.356445,501.441406 C847.620117,501.441406 847.839844,501.353516 848.015625,501.177734 L852,497.193359 L855.984375,501.177734 C856.160156,501.353516 856.379883,501.441406 856.643555,501.441406 Z"
        id=""></path>
    </g>
  </g>
</svg>