<?xml version="1.0" encoding="UTF-8"?>
<svg width="24px" height="24px" viewBox="0 0 24 24" version="1.1" xmlns="http://www.w3.org/2000/svg" xmlns:xlink="http://www.w3.org/1999/xlink">
    <!-- Generator: Sketch 48.2 (47327) - http://www.bohemiancoding.com/sketch -->
    <title>Icon/Edit-Dark</title>
    <desc>Created with Sketch.</desc>
    <defs></defs>
    <g id="Symbols" stroke="none" stroke-width="1" fill="none" fill-rule="evenodd">
        <g id="Icon/Edit-Dark">
            <rect id="Rectangle-6-Copy-7" x="0" y="0" width="24" height="24"></rect>
            <path d="M6.40702999,9.00632234 L19.0857863,9.00000019 C20.1903556,8.99952444 21.0861717,9.89456918 21.0866475,10.9991386 C21.0866476,10.9994257 21.0866477,10.9997129 21.0866477,11 L21.0857864,13.9967172 C21.0857864,15.1012867 20.1903559,15.9967172 19.0857864,15.9967172 C19.0846931,15.9967172 19.0835997,15.9967163 19.0825064,15.9967146 L6.3868294,15.9758932 C5.85753365,15.9750252 5.35016502,15.7643786 4.9758959,15.3901095 L3.5,13.9142136 C2.71895142,13.133165 2.71895142,11.866835 3.5,11.0857864 L4.99367785,9.59210859 C5.36853954,9.2172469 5.87689555,9.00655067 6.40702999,9.00632234 Z M6.58578644,11 L5.08578644,12.5 L6.58578644,14 L15.0857864,14 L15.0857864,11 L6.58578644,11 Z M17.0857864,11 L17.0857864,14 L19.0857864,14 L19.0857864,11 L17.0857864,11 Z" id="Edit" fill="#394152" transform="translate(11.793109, 12.499179) rotate(-45.000000) translate(-11.793109, -12.499179) "></path>
        </g>
    </g>
</svg>