<?xml version="1.0" encoding="UTF-8"?>
<svg width="20px" height="20px" viewBox="0 0 20 20" version="1.1" xmlns="http://www.w3.org/2000/svg" xmlns:xlink="http://www.w3.org/1999/xlink">
    <!-- Generator: Sketch 50.2 (55047) - http://www.bohemiancoding.com/sketch -->
    <title>Error</title>
    <desc>Created with Sketch.</desc>
    <defs></defs>
    <g id="Symbols" stroke="none" stroke-width="1" fill="none" fill-rule="evenodd">
        <g id="TextField/Light/Error" transform="translate(-220.000000, -8.000000)" fill="#EE6D66" fill-rule="nonzero">
            <path d="M222.4,14.9735029 L222.4,21.0264971 L226.973503,25.6 L233.429593,25.6 L237.6,21.0504655 L237.6,14.9495345 L233.429593,10.4 L226.973503,10.4 L222.4,14.9735029 Z M230,16.6564971 L227.679251,14.3357486 C227.308253,13.9647505 226.706747,13.9647505 226.335749,14.3357486 C225.96475,14.7067466 225.96475,15.3082534 226.335749,15.6792514 L228.656497,18 L226.335749,20.3207486 C225.96475,20.6917466 225.96475,21.2932534 226.335749,21.6642514 C226.706747,22.0352495 227.308253,22.0352495 227.679251,21.6642514 L230,19.3435029 L232.320749,21.6642514 C232.691747,22.0352495 233.293253,22.0352495 233.664251,21.6642514 C234.03525,21.2932534 234.03525,20.6917466 233.664251,20.3207486 L231.343503,18 L233.664251,15.6792514 C234.03525,15.3082534 234.03525,14.7067466 233.664251,14.3357486 C233.293253,13.9647505 232.691747,13.9647505 232.320749,14.3357486 L230,16.6564971 Z M226.58,8.5 L233.8475,8.5 C234.113791,8.5 234.367857,8.61176404 234.547796,8.8080616 L239.250296,13.9380616 C239.410904,14.1132699 239.5,14.3423179 239.5,14.58 L239.5,21.42 C239.5,21.6576821 239.410904,21.8867301 239.250296,22.0619384 L234.547796,27.1919384 C234.367857,27.388236 234.113791,27.5 233.8475,27.5 L226.58,27.5 C226.328044,27.5 226.086408,27.399911 225.908249,27.2217514 L220.778249,22.0917514 C220.600089,21.9135919 220.5,21.6719557 220.5,21.42 L220.5,14.58 C220.5,14.3280443 220.600089,14.0864081 220.778249,13.9082486 L225.908249,8.77824856 C226.086408,8.600089 226.328044,8.5 226.58,8.5 Z" id="Error"></path>
        </g>
    </g>
</svg>