<?xml version="1.0" encoding="UTF-8"?>
<svg width="24px" height="24px" viewBox="0 0 24 24" version="1.1" xmlns="http://www.w3.org/2000/svg" xmlns:xlink="http://www.w3.org/1999/xlink">
    <!-- Generator: Sketch 48.2 (47327) - http://www.bohemiancoding.com/sketch -->
    <title>Icon/Export-Dark</title>
    <desc>Created with Sketch.</desc>
    <defs></defs>
    <g id="Symbols" stroke="none" stroke-width="1" fill="none" fill-rule="evenodd">
        <g id="Icon/Export-Dark">
            <rect id="Rectangle-6-Copy-11" x="0" y="0" width="24" height="24"></rect>
            <path d="M12.9,14.9857864 L13.9928932,13.8928932 C14.3834175,13.5023689 15.0165825,13.5023689 15.4071068,13.8928932 C15.7976311,14.2834175 15.7976311,14.9165825 15.4071068,15.3071068 L12.7071068,18.0071068 C12.3165825,18.3976311 11.6834175,18.3976311 11.2928932,18.0071068 L8.59289322,15.3071068 C8.20236893,14.9165825 8.20236893,14.2834175 8.59289322,13.8928932 C8.98341751,13.5023689 9.61658249,13.5023689 10.0071068,13.8928932 L11.1,14.9857864 L11.1,10.9973271 C11.1,10.501747 11.4994783,10.1 12,10.1 C12.4970563,10.1 12.9,10.5077327 12.9,10.9973271 L12.9,14.9857864 Z M22,14.15 C22,16.4419817 20.1419817,18.3 17.85,18.3 C17.2977153,18.3 16.85,17.8522847 16.85,17.3 C16.85,16.7477153 17.2977153,16.3 17.85,16.3 C19.0374122,16.3 20,15.3374122 20,14.15 C20,12.9625878 19.0374122,12 17.85,12 C17.729942,12 17.6115368,12.0097428 17.4954096,12.0289453 C16.9483568,12.1194043 16.4321461,11.7474883 16.3447637,11.1999357 C16.0066411,9.08120408 14.1696164,7.5 12,7.5 C10.4075195,7.5 8.96470612,8.35228974 8.18394469,9.70780293 C7.99378564,10.0379462 7.63255024,10.2313513 7.25236489,10.2065699 C7.18528642,10.2021976 7.11781245,10.2 7.05,10.2 C5.36553151,10.2 4,11.5655315 4,13.25 C4,14.9344688 5.36553179,16.3 7.05000239,16.3 C7.60228714,16.3 8.05000239,16.7477153 8.05000239,17.3 C8.05000239,17.8522847 7.60228714,18.3 7.05000239,18.3 C4.26096247,18.3 2,16.0390384 2,13.25 C2,10.5542922 4.11217567,8.35190948 6.77184835,8.20753045 C7.95591788,6.53191828 9.8884298,5.5 12,5.5 C14.8493967,5.5 17.3033331,7.37373726 18.1158999,10.0083812 C20.283977,10.1454762 22,11.9473388 22,14.15 Z" id="Export" fill="#394152" fill-rule="nonzero"></path>
        </g>
    </g>
</svg>