<?xml version="1.0" encoding="UTF-8"?>
<svg width="86px" height="85px" viewBox="0 0 86 85" version="1.1" xmlns="http://www.w3.org/2000/svg" xmlns:xlink="http://www.w3.org/1999/xlink">
    <title>Group 9</title>
    <g id="Page-1" stroke="none" stroke-width="1" fill="none" fill-rule="evenodd">
        <g id="10.0-MobileApp-Dark-" transform="translate(-971.000000, -482.000000)">
            <g id="Group-5" transform="translate(520.000000, 465.000000)">
                <g id="Group-6" transform="translate(0.500000, 0.000000)">
                    <g id="Group-9" transform="translate(451.000000, 17.000000)">
                        <circle id="Oval" fill="#D7E1E8" cx="42.5" cy="42.5" r="42.5"></circle>
                        <path d="M38.9214285,33.3979728 L38.9214285,46.4285714 L37.7785714,46.9214285 L37.7785714,57.8571429 L28.1428571,58.35 L27.65,48.805171 L31.9438917,33.7506835 L38.9214285,33.3979728 Z M53.5221259,33.3642858 L58.35,48.8134828 L58.35,57.8571429 L48.7142857,58.35 L48.2214286,46.9214285 L47.5714286,46.9214285 L47.0785715,33.3642858 L53.5221259,33.3642858 Z M44.6357142,33.3642858 L44.6357142,44.6357142 L41.3642858,44.6357142 L41.3642858,33.3642858 L44.6357142,33.3642858 Z M39.4928571,27.6526268 L39.4928571,30.9214285 L34.5071429,30.9214285 L34.5071429,27.801035 L39.4928571,27.6526268 Z M51.4928571,27.6526268 L51.4928571,30.9214285 L46.5071429,30.9214285 L46.5071429,27.801035 L51.4928571,27.6526268 Z" id="" stroke="#282828" stroke-width="1.30000007"></path>
                    </g>
                </g>
            </g>
        </g>
    </g>
</svg>