<?xml version="1.0" encoding="UTF-8"?>
<svg width="24px" height="24px" viewBox="0 0 24 24" version="1.1" xmlns="http://www.w3.org/2000/svg" xmlns:xlink="http://www.w3.org/1999/xlink">
    <!-- Generator: Sketch 48.2 (47327) - http://www.bohemiancoding.com/sketch -->
    <title>Icon/External-Dark</title>
    <desc>Created with Sketch.</desc>
    <defs></defs>
    <g id="Symbols" stroke="none" stroke-width="1" fill="none" fill-rule="evenodd">
        <g id="Icon/External-Dark">
            <rect id="Rectangle-6-Copy-3" x="0" y="0" width="24" height="24"></rect>
            <path d="M18,18.007 L6.002,18 C6,18 6,5.993 6,5.993 C6,6 9.99,6 9.99,6 C10.542,6 10.99,5.552 10.99,5 C10.99,4.448 10.542,4 9.99,4 L5.996,4 C4.9,4 4,4.893 4,5.993 L4,18.007 C4,19.11 4.9,20 6.002,20 L17.998,20 C19.108,20 20,19.11 20,18.007 L20,14 C20,13.448 19.552,13 19,13 C18.448,13 18,13.448 18,14 L18,18.007 Z M18.002,7.402 L18,10 C18,10.552 18.448,11 19,11 C19.552,11 20,10.552 20,10 L20,5.993 C20,4.893 19.105,4 18.003,4 L14,4 C13.448,4 13,4.448 13,5 C13,5.552 13.448,6 14,6 L16.563,6 L11.297,11.27 C10.903,11.66 10.903,12.29 11.297,12.68 C11.692,13.07 12.331,13.07 12.727,12.68 L18,7.402 L18.002,7.402 Z" id="External" fill="#394152"></path>
        </g>
    </g>
</svg>