<?xml version="1.0" encoding="UTF-8" standalone="no"?>
<svg
   xmlns:dc="http://purl.org/dc/elements/1.1/"
   xmlns:cc="http://creativecommons.org/ns#"
   xmlns:rdf="http://www.w3.org/1999/02/22-rdf-syntax-ns#"
   xmlns:svg="http://www.w3.org/2000/svg"
   xmlns="http://www.w3.org/2000/svg"
   width="24px"
   height="24px"
   viewBox="0 0 24 24"
   version="1.1"
   id="svg12">
  <title
     id="title2">Icon/Forward-Arrow-Dark</title>
  <desc
     id="desc4">Created with Sketch.</desc>
  <defs
     id="defs6" />
  <g
     id="Symbols"
     style="fill:none;fill-rule:evenodd;stroke:none;stroke-width:1">
    <g
       id="Icon/Forward-Arrow-Dark">
      <rect
         id="Rectangle-8"
         transform="rotate(90,12,12)"
         x="0"
         y="0"
         width="24"
         height="24" />
      <path
         d="M 15.493682,11.5001 6,11.5001 c -0.5522848,0 -1,0.447715 -1,1 0,0.552285 0.4477152,1 1,1 l 9.494477,0 -2.689677,2.7094 c -0.406,0.41 -0.406,1.074 0,1.483 0.407,0.41 1.066,0.41 1.473,0 l 4.417,-4.45 c 0.407,-0.41 0.407,-1.074 0,-1.485 l -4.417,-4.45 c -0.407,-0.41 -1.066,-0.41 -1.473,0 -0.406,0.409 -0.406,1.074 0,1.484 z"
         id="Combined-Shape"
         style="fill:#394152" />
    </g>
  </g>
</svg>
