<?xml version="1.0" encoding="UTF-8"?>
<svg width="34px" height="32px" viewBox="0 0 34 32" version="1.1" xmlns="http://www.w3.org/2000/svg" xmlns:xlink="http://www.w3.org/1999/xlink">
    <title></title>
    <g id="Page-1" stroke="none" stroke-width="1" fill="none" fill-rule="evenodd">
        <g id="2.0-Home-Dark-New-features-overlay" transform="translate(-528.000000, -113.000000)" fill="#4CFFB3" fill-rule="nonzero">
            <path d="M557.375,144.063477 C557.955078,144.063477 558.443848,143.859375 558.841309,143.451172 C559.23877,143.042969 559.4375,142.55957 559.4375,142.000977 L559.4375,128.5625 L561.5,128.5625 L561.5,122.375 C561.5,121.816406 561.30127,121.333008 560.903809,120.924805 C560.506348,120.516602 560.017578,120.3125 559.4375,120.3125 L555.924805,120.3125 C556.375977,119.882812 556.73584,119.372559 557.004395,118.781738 C557.272949,118.190918 557.407227,117.530273 557.407227,116.799805 C557.407227,115.897461 557.117188,115.048828 556.537109,114.253906 C555.957031,113.458984 554.947266,113.061523 553.507812,113.061523 C552.5625,113.061523 551.660156,113.287109 550.800781,113.738281 C549.941406,114.189453 549.146484,114.737305 548.416016,115.381836 C547.685547,116.026367 547.035645,116.708496 546.466309,117.428223 C545.896973,118.147949 545.429688,118.797852 545.064453,119.37793 C544.699219,118.797852 544.226562,118.147949 543.646484,117.428223 C543.066406,116.708496 542.405762,116.026367 541.664551,115.381836 C540.92334,114.737305 540.117676,114.189453 539.247559,113.738281 C538.377441,113.287109 537.469727,113.061523 536.524414,113.061523 C535.084961,113.061523 534.075195,113.458984 533.495117,114.253906 C532.915039,115.048828 532.625,115.897461 532.625,116.799805 C532.625,117.530273 532.759277,118.190918 533.027832,118.781738 C533.296387,119.372559 533.666992,119.893555 534.139648,120.344727 L530.5625,120.344727 C529.982422,120.344727 529.493652,120.543457 529.096191,120.940918 C528.69873,121.338379 528.5,121.827148 528.5,122.407227 L528.5,128.5625 L530.594727,128.5625 L530.594727,142.000977 C530.594727,142.55957 530.793457,143.042969 531.190918,143.451172 C531.588379,143.859375 532.077148,144.063477 532.657227,144.063477 L557.375,144.063477 Z M550.381836,120.3125 L546.901367,120.3125 C547.631836,119.238281 548.593262,118.10498 549.785645,116.912598 C550.978027,115.720215 552.21875,115.124023 553.507812,115.124023 C554.152344,115.124023 554.619629,115.263672 554.909668,115.542969 C555.199707,115.822266 555.344727,116.241211 555.344727,116.799805 C555.344727,117.938477 554.818359,118.808594 553.765625,119.410156 C552.712891,120.011719 551.584961,120.3125 550.381836,120.3125 Z M543.227539,120.3125 L539.74707,120.3125 C538.543945,120.3125 537.399902,120.006348 536.314941,119.394043 C535.22998,118.781738 534.6875,117.90625 534.6875,116.767578 C534.6875,116.208984 534.83252,115.79541 535.122559,115.526855 C535.412598,115.258301 535.879883,115.124023 536.524414,115.124023 C537.813477,115.124023 539.070312,115.720215 540.294922,116.912598 C541.519531,118.10498 542.49707,119.238281 543.227539,120.3125 Z M559.4375,126.5 L546.03125,126.5 L546.03125,122.375 L559.4375,122.375 L559.4375,126.5 Z M543.96875,126.5 L530.5625,126.5 L530.5625,122.375 L543.96875,122.375 L543.96875,126.5 Z M543.96875,142.000977 L532.657227,142.000977 L532.657227,128.5625 L543.96875,128.5625 L543.96875,142.000977 Z M557.375,142.000977 L546.03125,142.000977 L546.03125,128.5625 L557.375,128.5625 L557.375,142.000977 Z" id=""></path>
        </g>
    </g>
</svg>