<?xml version="1.0" encoding="UTF-8"?>
<svg width="117px" height="35px" viewBox="0 0 117 35" version="1.1" xmlns="http://www.w3.org/2000/svg" xmlns:xlink="http://www.w3.org/1999/xlink">
    <title>en_get</title>
    <defs>
        <linearGradient x1="60.9991005%" y1="4.9481245%" x2="26.5173007%" y2="71.9074222%" id="linearGradient-1">
            <stop stop-color="#00A0FF" offset="0%"></stop>
            <stop stop-color="#00A1FF" offset="1%"></stop>
            <stop stop-color="#00BEFF" offset="26%"></stop>
            <stop stop-color="#00D2FF" offset="51%"></stop>
            <stop stop-color="#00DFFF" offset="76%"></stop>
            <stop stop-color="#00E3FF" offset="100%"></stop>
        </linearGradient>
        <linearGradient x1="107.684729%" y1="50%" x2="-130.640394%" y2="50%" id="linearGradient-2">
            <stop stop-color="#FFE000" offset="0%"></stop>
            <stop stop-color="#FFBD00" offset="41%"></stop>
            <stop stop-color="#FFA500" offset="78%"></stop>
            <stop stop-color="#FF9C00" offset="100%"></stop>
        </linearGradient>
        <linearGradient x1="86.219293%" y1="30.9112842%" x2="-50.1497903%" y2="135.987548%" id="linearGradient-3">
            <stop stop-color="#FF3A44" offset="0%"></stop>
            <stop stop-color="#C31162" offset="100%"></stop>
        </linearGradient>
        <linearGradient x1="-18.7537448%" y1="-11.831554%" x2="42.1210306%" y2="35.0948125%" id="linearGradient-4">
            <stop stop-color="#32A071" offset="0%"></stop>
            <stop stop-color="#2DA771" offset="7%"></stop>
            <stop stop-color="#15CF74" offset="48%"></stop>
            <stop stop-color="#06E775" offset="80%"></stop>
            <stop stop-color="#00F076" offset="100%"></stop>
        </linearGradient>
    </defs>
    <g id="Page-1" stroke="none" stroke-width="1" fill="none" fill-rule="evenodd">
        <g id="10.0-MobileApp-Dark-" transform="translate(-248.000000, -645.000000)" fill-rule="nonzero">
            <g id="en_get" transform="translate(248.000000, 645.000000)">
                <rect id="Rectangle" fill="#000000" x="0" y="0" width="116.545502" height="34.5320005" rx="4.31650006"></rect>
                <path d="M40.9376865,8.84019212 C40.967344,9.48009689 40.7333155,10.1041729 40.2902115,10.5667921 C39.7950656,11.0811491 39.104455,11.3605324 38.3909515,11.3351292 C37.2965808,11.3265641 36.3139796,10.6628051 35.897475,9.65075544 C35.4809704,8.63870581 35.7117306,7.47559318 36.4830585,6.69920809 C36.9842326,6.18755259 37.6749123,5.90628035 38.3909515,5.92223808 C38.7559182,5.92102206 39.1172768,5.99446894 39.4528105,6.13806308 C39.7651995,6.26406479 40.043294,6.46228106 40.2643125,6.71647409 L39.8067635,7.1740231 C39.4574264,6.75849647 38.9330045,6.53146015 38.3909515,6.56108009 C37.8597596,6.55878553 37.3494129,6.76760268 36.9721845,7.14159311 C36.594956,7.51558354 36.3817472,8.02411114 36.3794625,8.55530311 C36.3794625,8.55530311 36.3794625,8.60710112 36.3794625,8.63300012 C36.3678959,9.45588879 36.8525306,10.2049309 37.6078808,10.5316198 C38.363231,10.8583088 39.2409503,10.6984848 39.8326625,10.1265091 C40.0983081,9.83863019 40.251521,9.46479079 40.2643125,9.07328312 L38.3909515,9.07328312 L38.3909515,8.45170711 L40.9031545,8.45170711 C40.9261815,8.57991936 40.9377378,8.70992848 40.9376865,8.84019212 Z" id="Path" stroke="#FFFFFF" stroke-width="0.5" fill="#FFFFFF"></path>
                <polygon id="Path" stroke="#FFFFFF" stroke-width="0.5" fill="#FFFFFF" points="44.8916006 6.68194209 42.5606906 6.68194209 42.5606906 8.32221211 44.6844086 8.32221211 44.6844086 8.94378812 42.5606906 8.94378812 42.5606906 10.5840581 44.8916006 10.5840581 44.8916006 11.2229002 41.8700506 11.2229002 41.8700506 6.04310008 44.8916006 6.04310008"></polygon>
                <polygon id="Path" stroke="#FFFFFF" stroke-width="0.5" fill="#FFFFFF" points="47.7232246 11.2229002 47.0584836 11.2229002 47.0584836 6.68194209 45.6081396 6.68194209 45.6081396 6.04310008 49.2081007 6.04310008 49.2081007 6.68194209 47.7232246 6.68194209"></polygon>
                <polygon id="Path" stroke="#FFFFFF" stroke-width="0.5" fill="#FFFFFF" points="51.7462027 11.2229002 51.7462027 6.04310008 52.4109437 6.04310008 52.4109437 11.2229002"></polygon>
                <polygon id="Path" stroke="#FFFFFF" stroke-width="0.5" fill="#FFFFFF" points="55.3634297 11.2229002 54.6986887 11.2229002 54.6986887 6.68194209 53.2483447 6.68194209 53.2483447 6.04310008 56.8051408 6.04310008 56.8051408 6.68194209 55.3634297 6.68194209"></polygon>
                <path d="M63.5475139,10.5495261 C62.496869,11.5943159 60.7996387,11.5943159 59.7489938,10.5495261 C58.7305319,9.47146633 58.7305319,7.7859009 59.7489938,6.70784109 C60.7937243,5.66504393 62.4855174,5.66504393 63.5302479,6.70784109 L63.5302479,6.70784109 C64.5579076,7.77956623 64.5654988,9.46860709 63.5475139,10.5495261 L63.5475139,10.5495261 Z M60.2410748,10.1178761 C61.0191878,10.8927441 62.2773199,10.8927441 63.0554328,10.1178761 C63.8196246,9.27544307 63.8196246,7.99055716 63.0554328,7.1481241 C62.2773199,6.37325616 61.0191878,6.37325616 60.2410748,7.1481241 C59.4768831,7.99055716 59.4768831,9.27544307 60.2410748,10.1178761 L60.2410748,10.1178761 Z" id="Shape" stroke="#FFFFFF" stroke-width="0.5" fill="#FFFFFF"></path>
                <polygon id="Path" stroke="#FFFFFF" stroke-width="0.5" fill="#FFFFFF" points="65.2482149 11.2229002 65.2482149 6.04310008 66.0597169 6.04310008 68.5805529 10.0747111 68.5805529 10.0747111 68.5805529 6.04310008 69.2452939 6.04310008 69.2452939 11.2229002 68.5546539 11.2229002 65.9215889 7.00136309 65.9215889 7.00136309 65.9215889 11.2229002"></polygon>
                <path d="M58.8252628,18.7767753 C56.8011911,18.7863004 55.1671791,20.4331727 55.1735034,22.4572568 C55.1798644,24.4813409 56.8241655,26.1179404 58.8482571,26.1147848 C60.8723486,26.1116201 62.5115314,24.4698944 62.5115538,22.4458003 C62.5253903,21.4864233 62.1574981,20.5608535 61.4888295,19.8727562 C60.8201608,19.1846589 59.9055046,18.790415 58.9461248,18.7767753 L58.8252628,18.7767753 Z M58.8252628,24.6731143 C57.9261109,24.7373864 57.0768742,24.2533448 56.6739824,23.4469434 C56.2710906,22.640542 56.3939936,21.6708028 56.9853195,20.9904069 C57.5766455,20.3100109 58.5197852,20.0531319 59.3744743,20.3396828 C60.2291635,20.6262336 60.826858,21.3997067 60.8885498,22.2990393 C60.8885498,22.3508373 60.8885498,22.3997576 60.8885498,22.4458003 C60.9167056,23.0092179 60.7195417,23.5606875 60.340557,23.9785424 C59.9615723,24.3963973 59.4319108,24.6462993 58.8684278,24.6731143 L58.8252628,24.6731143 Z M50.7879397,18.7767753 C48.7627237,18.7815405 47.1243772,20.426323 47.1275475,22.4515421 C47.1307271,24.4767612 48.7742226,26.1163987 50.7994436,26.1148152 C52.8246645,26.1132294 54.4655921,24.4710219 54.4655977,22.4458003 C54.4945802,20.461199 52.9189533,18.8239339 50.9347007,18.7767753 L50.8224717,18.7767753 L50.7879397,18.7767753 Z M50.7879397,24.6731143 C49.8891369,24.7406083 49.0382546,24.2597489 48.6324068,23.4549573 C48.226559,22.6501658 48.3457577,21.6801049 48.9343718,20.9975104 C49.522986,20.3149159 50.4649716,20.0543597 51.320696,20.3374456 C52.1764203,20.6205315 52.7771794,21.3914498 52.8425937,22.2904063 C52.8425937,22.3422043 52.8425937,22.3940023 52.8425937,22.4458003 C52.8707495,23.0092179 52.6735856,23.5606875 52.2946009,23.9785424 C51.9156162,24.3963973 51.3859547,24.6462993 50.8224717,24.6731143 L50.7793067,24.6731143 L50.7879397,24.6731143 Z M41.2139426,19.9076983 L41.2139426,21.4616383 L44.9433986,21.4616383 C44.8849216,22.1935473 44.5806785,22.8841793 44.0800986,23.4213293 C43.3255941,24.1898603 42.2814503,24.6037551 41.2053096,24.5608853 C38.9167299,24.5608853 37.0614695,22.7056249 37.0614695,20.4170453 C37.0614695,18.1284656 38.9167299,16.2732052 41.2053096,16.2732052 C42.2566326,16.2560591 43.2718443,16.6565554 44.0283006,17.3868622 L45.1246916,16.2904712 C44.0929787,15.2457557 42.6821728,14.6633701 41.2139426,14.6761002 C39.1705072,14.5871747 37.2357622,15.5987133 36.1426769,17.3274991 C35.0495916,19.0562848 34.9653665,21.2378794 35.92191,23.0457955 C36.8784534,24.8537115 38.7294506,26.0114067 40.7736595,26.0802934 L41.2139426,26.0802934 C42.6349233,26.1619194 44.0242034,25.639111 45.0388336,24.6409253 C46.0534639,23.6427396 46.5989017,22.2621871 46.5405036,20.8400623 C46.5432894,20.5128614 46.5143777,20.1861598 46.4541736,19.8645333 L41.2139426,19.9076983 Z M80.3300661,21.1163183 C79.8148103,19.5187849 78.2063946,18.5403709 76.550838,18.817379 C74.8952813,19.0943872 73.6929719,20.5430925 73.725821,22.2213423 C73.725821,22.2961616 73.725821,22.370981 73.725821,22.4458003 C73.7049901,23.3983432 74.0635241,24.3201255 74.722505,25.0082505 C75.381486,25.6963755 76.2868995,26.0944403 77.239452,26.1148786 L77.368947,26.1148786 C78.5955742,26.1214373 79.7435775,25.5117633 80.4250291,24.4918213 L79.1732441,23.6285213 C78.7931728,24.2621336 78.1078078,24.6490861 77.368947,24.6472153 C76.6037105,24.676382 75.8984374,24.2347304 75.590549,23.5335583 L80.5027261,21.5048033 L80.3300661,21.1163183 Z M75.322926,22.3422043 C75.2873995,21.8098602 75.4648201,21.2852095 75.8161509,20.8836886 C76.1674817,20.4821677 76.6639381,20.2366733 77.196287,20.2012203 L77.196287,20.2012203 C77.765521,20.1637113 78.3022317,20.4694325 78.5603011,20.9781903 L75.322926,22.3422043 Z M71.33448,25.8990003 L72.948851,25.8990003 L72.948851,15.1077502 L71.33448,15.1077502 L71.33448,25.8990003 Z M68.6927819,19.5969103 L68.6323509,19.5969103 C68.1402372,19.0467091 67.4367298,18.7326433 66.6985589,18.733608 C64.7389947,18.8286351 63.1990317,20.4450849 63.1990317,22.4069518 C63.1990317,24.3688187 64.7389947,25.9852685 66.6985589,26.0802934 C67.4391226,26.0927454 68.1471901,25.7766438 68.6323509,25.2169933 L68.6841489,25.2169933 L68.6841489,25.7436063 C68.6841489,27.1507854 67.9330779,27.9018564 66.7244579,27.9018564 C65.9011313,27.8825853 65.1711464,27.3675025 64.8769959,26.5982734 L63.4698169,27.1853174 C64.0116944,28.5034133 65.2993489,29.3607111 66.7244579,29.3522632 C68.6150849,29.3522632 70.1776579,28.2385434 70.1776579,25.5277813 L70.1776579,18.9926003 L68.6927819,18.9926003 L68.6927819,19.5969103 Z M66.8453199,24.6731143 C65.6909907,24.5713829 64.8056669,23.6046036 64.8056669,22.4458003 C64.8056669,21.286997 65.6909907,20.3202177 66.8453199,20.2184863 C67.9868397,20.2788942 68.863764,21.2523961 68.8050109,22.3940023 L68.8050109,22.4458003 C68.8995944,23.5755397 68.0612631,24.5684021 66.9316499,24.6644813 L66.8453199,24.6644813 L66.8453199,24.6731143 Z M87.8925742,15.1077502 L84.0336231,15.1077502 L84.0336231,25.8990003 L85.6479941,25.8990003 L85.6479941,21.8069583 L87.9012072,21.8069583 C89.1553092,21.8970556 90.3546834,21.2790581 91.0091995,20.2055134 C91.6637157,19.1319688 91.6637157,17.7827397 91.0091995,16.7091951 C90.3546834,15.6356504 89.1553092,15.0176529 87.9012072,15.1077502 L87.8925742,15.1077502 Z M87.8925742,20.2875503 L85.6393611,20.2875503 L85.6393611,16.6098922 L87.9271062,16.6098922 C88.9498152,16.6098922 89.7788847,17.4389617 89.7788847,18.4616707 C89.7788847,19.4843798 88.9498152,20.3134493 87.9271062,20.3134493 L87.8925742,20.2875503 Z M97.8464233,18.7336103 C96.6422803,18.6582797 95.5087416,19.306501 94.9630013,20.3825133 L96.3960793,20.9781903 C96.6847718,20.446111 97.2603503,20.1346215 97.8636893,20.1839543 C98.2736282,20.1353349 98.6860655,20.251829 99.0099916,20.5077306 C99.3339176,20.7636322 99.5427076,21.1379077 99.5902893,21.5479683 L99.5902893,21.6860963 C99.0717849,21.4115661 98.4935463,21.2692305 97.9068543,21.2717123 C96.3615473,21.2717123 94.7989743,22.1350123 94.7989743,23.6975853 C94.8642718,25.0656856 96.0202694,26.12535 97.3888743,26.0716603 L97.4579383,26.0716603 C98.2860408,26.1311271 99.0805702,25.7338624 99.5298583,25.0357003 L99.5816563,25.0357003 L99.5816563,25.8990003 L101.135596,25.8990003 L101.135596,21.7465273 C101.135596,19.8559003 99.7025183,18.7595093 97.8636893,18.7595093 L97.8464233,18.7336103 Z M97.6478643,24.6472153 C97.1212513,24.6472153 96.3874463,24.3795923 96.3874463,23.7321173 C96.3874463,22.8688173 97.3025443,22.5839283 98.1140463,22.5839283 C98.6268827,22.571274 99.1337166,22.6964917 99.5816563,22.9465143 C99.4700282,23.9129053 98.6635572,24.6494086 97.6910293,24.6731143 L97.6478643,24.6472153 Z M106.824743,18.9926003 L104.977281,23.6716863 L104.925483,23.6716863 L103.008957,18.9926003 L101.282357,18.9926003 L104.157146,25.5364143 L102.516876,29.1709074 L104.200311,29.1709074 L108.620407,18.9926003 L106.824743,18.9926003 Z M92.3126702,25.8990003 L93.9270413,25.8990003 L93.9270413,15.1077502 L92.3126702,15.1077502 L92.3126702,25.8990003 Z" id="Shape" fill="#FFFFFF"></path>
                <path d="M9.01285212,6.50928209 C8.7376637,6.84947024 8.60189823,7.28145128 8.63300012,7.7179021 L8.63300012,26.8140984 C8.60671578,27.2528318 8.74873839,27.6850745 9.03011812,28.0227184 L9.09054912,28.0831494 L19.7695703,17.3954952 L19.7695703,17.1451382 L9.07328312,6.44885109 L9.01285212,6.50928209 Z" id="Path" fill="url(#linearGradient-1)"></path>
                <path d="M23.3091003,20.9609243 L19.7695703,17.3954952 L19.7695703,17.1451382 L23.3091003,13.5710762 L23.3867973,13.5710762 L27.6256004,16.0228482 C28.8342204,16.7048552 28.8342204,17.8271452 27.6256004,18.5177852 L23.4040633,20.9177593 L23.3091003,20.9609243 Z" id="Path" fill="url(#linearGradient-2)"></path>
                <path d="M23.4126963,20.9091263 L19.7695703,17.2660002 L9.01285212,28.0227184 C9.52109214,28.4694955 10.2753671,28.4912534 10.8085161,28.0745164 L23.4213293,20.9091263" id="Path" fill="url(#linearGradient-3)"></path>
                <path d="M23.4126963,13.6228742 L10.7998831,6.45748409 C10.2667341,6.04074706 9.51245914,6.06250499 9.00421912,6.50928209 L19.7695703,17.2660002 L23.4126963,13.6228742 Z" id="Path" fill="url(#linearGradient-4)"></path>
                <path d="M23.3091003,20.8314293 L10.7998831,27.9536544 C10.2879795,28.3363867 9.58518676,28.3363867 9.07328312,27.9536544 L9.07328312,27.9536544 L9.01285212,28.0140854 L9.01285212,28.0140854 L9.07328312,28.0745164 L9.07328312,28.0745164 C9.5842236,28.4601346 10.2889427,28.4601346 10.7998831,28.0745164 L23.4126963,20.9091263 L23.3091003,20.8314293 Z" id="Path" fill="#000000" opacity="0.2"></path>
                <path d="M9.01285212,27.9018564 C8.73147239,27.5642125 8.58944978,27.1319698 8.61573412,26.6932364 L8.61573412,26.8227314 C8.58944978,27.2614648 8.73147239,27.6937075 9.01285212,28.0313514 L9.07328312,27.9709204 L9.01285212,27.9018564 Z" id="Path" fill="#000000" opacity="0.12"></path>
                <path d="M27.6256004,18.3882902 L23.3091003,20.8314293 L23.3867973,20.9091263 L27.6256004,18.5091522 C28.115152,18.2791805 28.4444132,17.8050445 28.4889004,17.2660002 L28.4889004,17.2660002 C28.3905096,17.7536248 28.0716726,18.168113 27.6256004,18.3882902 Z" id="Path" fill="#000000" opacity="0.12"></path>
                <path d="M10.7998831,6.57834609 L27.6256004,16.1437102 C28.0716726,16.3638875 28.3905096,16.7783756 28.4889004,17.2660002 L28.4889004,17.2660002 C28.4444132,16.726956 28.115152,16.2528199 27.6256004,16.0228482 L10.7998831,6.45748409 C9.59126313,5.77547708 8.63300012,6.34525509 8.63300012,7.7265351 L8.63300012,7.85603011 C8.63300012,6.46611709 9.59989613,5.89633908 10.7998831,6.57834609 Z" id="Path" fill="#FFFFFF" opacity="0.25"></path>
            </g>
        </g>
    </g>
</svg>