<?xml version="1.0" encoding="UTF-8"?>
<svg width="40px" height="39px" viewBox="0 0 40 39" version="1.1" xmlns="http://www.w3.org/2000/svg"
  xmlns:xlink="http://www.w3.org/1999/xlink">
  <title></title>
  <g id="Page-1" stroke="none" stroke-width="1" fill="none" fill-rule="evenodd">
    <g id="10.0-MobileApp-Dark-" transform="translate(-765.000000, -208.000000)" fill="none" fill-rule="nonzero">
      <g id="Group-8" transform="translate(377.000000, 105.000000)">
        <g id="Group-3" transform="translate(352.000000, 65.000000)">
          <path
            d="M63.453125,65 L63.453125,62.046875 L61.0625,62.046875 L61.0625,60.21875 L70.671875,60.21875 L70.671875,57.828125 L72.5,57.828125 L72.5,60.21875 L75.453125,60.21875 L75.453125,57.265625 L73.0625,57.265625 L73.0625,52.4375 L70.109375,52.4375 L70.109375,57.265625 L65.84375,57.265625 L65.84375,52.4375 L58.671875,52.4375 L58.671875,47.65625 L56.28125,47.65625 L56.28125,45.828125 L58.671875,45.828125 L58.671875,43.390625 L61.0625,43.390625 L61.0625,40.4375 L58.671875,40.4375 L58.671875,38.046875 L50.890625,38.046875 L50.890625,41 L55.71875,41 L55.71875,42.828125 L53.28125,42.828125 L53.28125,48.21875 L55.71875,48.21875 L55.71875,52.4375 L53.28125,52.4375 L53.28125,54.875 L49.0625,54.875 L49.0625,52.4375 L46.109375,52.4375 L46.109375,54.875 L44.28125,54.875 L44.28125,52.4375 L38.890625,52.4375 L38.890625,54.875 L36.5,54.875 L36.5,57.828125 L39.453125,57.828125 L39.453125,55.4375 L43.71875,55.4375 L43.71875,57.828125 L46.109375,57.828125 L46.109375,62.609375 L49.0625,62.609375 L49.0625,57.828125 L53.84375,57.828125 L53.84375,55.390625 L62.890625,55.390625 L62.890625,57.265625 L55.71875,57.265625 L55.71875,60.21875 L58.109375,60.21875 L58.109375,65 L63.453125,65 Z M46.390625,50.609375 C47.109375,50.609375 47.734375,50.34375 48.265625,49.8125 C48.796875,49.28125 49.0625,48.65625 49.0625,47.9375 L49.0625,40.71875 C49.0625,40 48.796875,39.375 48.265625,38.84375 C47.734375,38.3125 47.109375,38.046875 46.390625,38.046875 L39.171875,38.046875 C38.453125,38.046875 37.828125,38.3125 37.296875,38.84375 C36.765625,39.375 36.5,40 36.5,40.71875 L36.5,47.9375 C36.5,48.65625 36.765625,49.28125 37.296875,49.8125 C37.828125,50.34375 38.453125,50.609375 39.171875,50.609375 L46.390625,50.609375 Z M72.78125,50.609375 C73.53125,50.609375 74.1640625,50.34375 74.6796875,49.8125 C75.1953125,49.28125 75.453125,48.65625 75.453125,47.9375 L75.453125,40.71875 C75.453125,40 75.1953125,39.375 74.6796875,38.84375 C74.1640625,38.3125 73.53125,38.046875 72.78125,38.046875 L65.5625,38.046875 C64.84375,38.046875 64.21875,38.3125 63.6875,38.84375 C63.15625,39.375 62.890625,40 62.890625,40.71875 L62.890625,47.9375 C62.890625,48.65625 63.15625,49.28125 63.6875,49.8125 C64.21875,50.34375 64.84375,50.609375 65.5625,50.609375 L72.78125,50.609375 Z M46.109375,47.65625 L39.453125,47.65625 L39.453125,41 L46.109375,41 L46.109375,47.65625 Z M72.5,47.65625 L65.84375,47.65625 L65.84375,41 L72.5,41 L72.5,47.65625 Z M44.28125,45.828125 L44.28125,42.828125 L41.28125,42.828125 L41.28125,45.828125 L44.28125,45.828125 Z M70.671875,45.828125 L70.671875,42.828125 L67.71875,42.828125 L67.71875,45.828125 L70.671875,45.828125 Z M39.453125,62.609375 L39.453125,59.65625 L36.5,59.65625 L36.5,62.609375 L39.453125,62.609375 Z M58.671875,77 L58.671875,74.609375 L61.0625,74.609375 L61.0625,71.65625 L58.109375,71.65625 L58.109375,74.046875 L56.28125,74.046875 L56.28125,69.828125 L61.0625,69.828125 L61.0625,66.828125 L53.84375,66.828125 L53.84375,62.046875 L50.890625,62.046875 L50.890625,69.828125 L53.28125,69.828125 L53.28125,71.65625 L50.890625,71.65625 L50.890625,74.609375 L55.71875,74.609375 L55.71875,77 L58.671875,77 Z M72.78125,77 C73.53125,77 74.1640625,76.7421875 74.6796875,76.2265625 C75.1953125,75.7109375 75.453125,75.078125 75.453125,74.328125 L75.453125,67.109375 C75.453125,66.390625 75.1953125,65.765625 74.6796875,65.234375 C74.1640625,64.703125 73.53125,64.4375 72.78125,64.4375 L65.5625,64.4375 C64.84375,64.4375 64.21875,64.703125 63.6875,65.234375 C63.15625,65.765625 62.890625,66.390625 62.890625,67.109375 L62.890625,74.328125 C62.890625,75.078125 63.15625,75.7109375 63.6875,76.2265625 C64.21875,76.7421875 64.84375,77 65.5625,77 L72.78125,77 Z M46.390625,77 C47.109375,77 47.734375,76.7421875 48.265625,76.2265625 C48.796875,75.7109375 49.0625,75.078125 49.0625,74.328125 L49.0625,67.109375 C49.0625,66.390625 48.796875,65.765625 48.265625,65.234375 C47.734375,64.703125 47.109375,64.4375 46.390625,64.4375 L39.171875,64.4375 C38.453125,64.4375 37.828125,64.703125 37.296875,65.234375 C36.765625,65.765625 36.5,66.390625 36.5,67.109375 L36.5,74.328125 C36.5,75.078125 36.765625,75.7109375 37.296875,76.2265625 C37.828125,76.7421875 38.453125,77 39.171875,77 L46.390625,77 Z M72.5,74.046875 L65.84375,74.046875 L65.84375,67.390625 L72.5,67.390625 L72.5,74.046875 Z M46.109375,74.046875 L39.453125,74.046875 L39.453125,67.390625 L46.109375,67.390625 L46.109375,74.046875 Z M70.671875,72.21875 L70.671875,69.265625 L67.71875,69.265625 L67.71875,72.21875 L70.671875,72.21875 Z M44.28125,72.21875 L44.28125,69.265625 L41.28125,69.265625 L41.28125,72.21875 L44.28125,72.21875 Z"
            id=""></path>
        </g>
      </g>
    </g>
  </g>
</svg>