<?xml version="1.0" encoding="UTF-8"?>
<svg width="100%" height="100%" viewBox="0 0 24.5 24.5" version="1.1" xmlns="http://www.w3.org/2000/svg" xmlns:xlink="http://www.w3.org/1999/xlink">
    <!-- Generator: Sketch 50.2 (55047) - http://www.bohemiancoding.com/sketch -->
    <title>grid_on - material</title>
    <desc>Created with Sketch.</desc>
    <defs></defs>
    <g id="Symbols" stroke="none" stroke-width="1" fill="none" fill-rule="evenodd">
        <g id="Icon/Code-Dark" fill="#394152">
            <path d="M18.68,8.68 L18.68,5.32 L15.32,5.32 L15.32,8.68 L18.68,8.68 Z M18.68,13.68 L18.68,10.32 L15.32,10.32 L15.32,13.68 L18.68,13.68 Z M18.68,18.68 L18.68,15.32 L15.32,15.32 L15.32,18.68 L18.68,18.68 Z M13.68,8.68 L13.68,5.32 L10.32,5.32 L10.32,8.68 L13.68,8.68 Z M13.68,13.68 L13.68,10.32 L10.32,10.32 L10.32,13.68 L13.68,13.68 Z M13.68,18.68 L13.68,15.32 L10.32,15.32 L10.32,18.68 L13.68,18.68 Z M8.68,8.68 L8.68,5.32 L5.32,5.32 L5.32,8.68 L8.68,8.68 Z M8.68,13.68 L8.68,10.32 L5.32,10.32 L5.32,13.68 L8.68,13.68 Z M8.68,18.68 L8.68,15.32 L5.32,15.32 L5.32,18.68 L8.68,18.68 Z M18.68,3.68 C19.1333356,3.68 19.5199984,3.8399984 19.84,4.16 C20.1600016,4.4800016 20.32,4.8666644 20.32,5.32 L20.32,18.68 C20.32,19.1333356 20.1600016,19.5199984 19.84,19.84 C19.5199984,20.1600016 19.1333356,20.32 18.68,20.32 L5.32,20.32 C4.8666644,20.32 4.4800016,20.1600016 4.16,19.84 C3.8399984,19.5199984 3.68,19.1333356 3.68,18.68 L3.68,5.32 C3.68,4.8666644 3.8399984,4.4800016 4.16,4.16 C4.4800016,3.8399984 4.8666644,3.68 5.32,3.68 L18.68,3.68 Z" id="grid_on---material"></path>
        </g>
    </g>
</svg>