<?xml version="1.0" encoding="UTF-8"?>
<svg width="100%" height="100%" viewBox="0 0 24.5 24.5" version="1.1" xmlns="http://www.w3.org/2000/svg" xmlns:xlink="http://www.w3.org/1999/xlink">
    <!-- Generator: Sketch 51.2 (57519) - http://www.bohemiancoding.com/sketch -->
    <title>Icon/Import-Dark</title>
    <desc>Created with Sketch.</desc>
    <defs></defs>
    <g id="Icon/Import-Dark" stroke="none" stroke-width="1" fill="none" fill-rule="evenodd">
        <rect id="Rectangle-6-Copy-10"></rect>
        <path d="M12.9,17.3142136 L12.9,21.3026729 C12.9,21.798253 12.5005217,22.2 12,22.2 C11.5029437,22.2 11.1,21.7922673 11.1,21.3026729 L11.1,17.3142136 L10.0071068,18.4071068 C9.61658249,18.7976311 8.98341751,18.7976311 8.59289322,18.4071068 C8.20236893,18.0165825 8.20236893,17.3834175 8.59289322,16.9928932 L11.2928932,14.2928932 C11.6834175,13.9023689 12.3165825,13.9023689 12.7071068,14.2928932 L15.4071068,16.9928932 C15.7976311,17.3834175 15.7976311,18.0165825 15.4071068,18.4071068 C15.0165825,18.7976311 14.3834175,18.7976311 13.9928932,18.4071068 L12.9,17.3142136 Z M22,11.15 C22,13.4419817 20.1419817,15.3 17.85,15.3 C17.2977153,15.3 16.85,14.8522847 16.85,14.3 C16.85,13.7477153 17.2977153,13.3 17.85,13.3 C19.0374122,13.3 20,12.3374122 20,11.15 C20,9.96258779 19.0374122,9 17.85,9 C17.729942,9 17.6115368,9.0097428 17.4954096,9.02894527 C16.9483568,9.11940434 16.4321461,8.74748833 16.3447637,8.1999357 C16.0066411,6.08120408 14.1696164,4.5 12,4.5 C10.4075195,4.5 8.96470612,5.35228974 8.18394469,6.70780293 C7.99378564,7.03794616 7.63255024,7.23135127 7.25236489,7.20656991 C7.18528642,7.20219758 7.11781245,7.2 7.05,7.2 C5.36553151,7.2 4,8.56553151 4,10.25 C4,11.9344688 5.36553179,13.3 7.05000239,13.3 C7.60228714,13.3 8.05000239,13.7477153 8.05000239,14.3 C8.05000239,14.8522847 7.60228714,15.3 7.05000239,15.3 C4.26096247,15.3 2,13.0390384 2,10.25 C2,7.55429221 4.11217567,5.35190948 6.77184835,5.20753045 C7.95591788,3.53191828 9.8884298,2.5 12,2.5 C14.8493967,2.5 17.3033331,4.37373726 18.1158999,7.00838118 C20.283977,7.14547617 22,8.94733876 22,11.15 Z" id="Import" fill="#394152" fill-rule="nonzero"></path>
    </g>
</svg>