<?xml version="1.0" encoding="UTF-8"?>
<svg width="20px" height="20px" viewBox="0 0 20 20" version="1.1" xmlns="http://www.w3.org/2000/svg" xmlns:xlink="http://www.w3.org/1999/xlink">
    <!-- Generator: Sketch 49.2 (51160) - http://www.bohemiancoding.com/sketch -->
    <title>Group 6</title>
    <desc>Created with Sketch.</desc>
    <defs></defs>
    <g id="Components" stroke="none" stroke-width="1" fill="none" fill-rule="evenodd">
        <g id="Component-Library" transform="translate(-605.000000, -3094.000000)">
            <g id="Group-6" transform="translate(605.000000, 3094.000000)">
                <g id="Icon/Export-Dark">
                    <rect id="Rectangle-6-Copy-11" x="0" y="0" width="24" height="24"></rect>
                    <path d="M12.9,18.0857864 L13.9928932,16.9928932 C14.3834175,16.6023689 15.0165825,16.6023689 15.4071068,16.9928932 C15.7976311,17.3834175 15.7976311,18.0165825 15.4071068,18.4071068 L12.7071068,21.1071068 C12.3165825,21.4976311 11.6834175,21.4976311 11.2928932,21.1071068 L8.59289322,18.4071068 C8.20236893,18.0165825 8.20236893,17.3834175 8.59289322,16.9928932 C8.98341751,16.6023689 9.61658249,16.6023689 10.0071068,16.9928932 L11.1,18.0857864 L11.1,14.0973271 C11.1,13.601747 11.4994783,13.2 12,13.2 C12.4970563,13.2 12.9,13.6077327 12.9,14.0973271 L12.9,18.0857864 Z M22,11.25 C22,13.5419817 20.1419817,15.4 17.85,15.4 C17.2977153,15.4 16.85,14.9522847 16.85,14.4 C16.85,13.8477153 17.2977153,13.4 17.85,13.4 C19.0374122,13.4 20,12.4374122 20,11.25 C20,10.0625878 19.0374122,9.1 17.85,9.1 C17.729942,9.1 17.6115368,9.1097428 17.4954096,9.12894527 C16.9483568,9.21940434 16.4321461,8.84748833 16.3447637,8.2999357 C16.0066411,6.18120408 14.1696164,4.6 12,4.6 C10.4075195,4.6 8.96470612,5.45228974 8.18394469,6.80780293 C7.99378564,7.13794616 7.63255024,7.33135127 7.25236489,7.30656991 C7.18528642,7.30219758 7.11781245,7.3 7.05,7.3 C5.36553151,7.3 4,8.66553151 4,10.35 C4,12.0344688 5.36553179,13.4 7.05000239,13.4 C7.60228714,13.4 8.05000239,13.8477153 8.05000239,14.4 C8.05000239,14.9522847 7.60228714,15.4 7.05000239,15.4 C4.26096247,15.4 2,13.1390384 2,10.35 C2,7.65429221 4.11217567,5.45190948 6.77184835,5.30753045 C7.95591788,3.63191828 9.8884298,2.6 12,2.6 C14.8493967,2.6 17.3033331,4.47373726 18.1158999,7.10838118 C20.283977,7.24547617 22,9.04733876 22,11.25 Z" id="Export" fill="#394152" fill-rule="nonzero"></path>
                </g>
            </g>
        </g>
    </g>
</svg>