<?xml version="1.0" encoding="UTF-8"?>
<svg width="24px" height="24px" viewBox="0 0 24 24" version="1.1" xmlns="http://www.w3.org/2000/svg" xmlns:xlink="http://www.w3.org/1999/xlink">
    <!-- Generator: Sketch 48.2 (47327) - http://www.bohemiancoding.com/sketch -->
    <title>Icon/Info-Dark</title>
    <desc>Created with Sketch.</desc>
    <defs></defs>
    <g id="Symbols" stroke="none" stroke-width="1" fill="none" fill-rule="evenodd">
        <g id="Icon/Info-Dark">
            <rect id="Rectangle-6-Copy-22" x="0" y="0" width="24" height="24"></rect>
            <path d="M12,21.5 C6.75329488,21.5 2.5,17.2467051 2.5,12 C2.5,6.75329488 6.75329488,2.5 12,2.5 C17.2467051,2.5 21.5,6.75329488 21.5,12 C21.5,17.2467051 17.2467051,21.5 12,21.5 Z M12,19.6 C16.1973641,19.6 19.6,16.1973641 19.6,12 C19.6,7.8026359 16.1973641,4.4 12,4.4 C7.8026359,4.4 4.4,7.8026359 4.4,12 C4.4,16.1973641 7.8026359,19.6 12,19.6 Z M12,8.58 C11.5277965,8.58 11.145,8.19720346 11.145,7.725 C11.145,7.25279654 11.5277965,6.87 12,6.87 C12.4722035,6.87 12.855,7.25279654 12.855,7.725 C12.855,8.19720346 12.4722035,8.58 12,8.58 Z M11.05,10.7175 C11.05,10.1928295 11.4753295,9.7675 12,9.7675 C12.5246705,9.7675 12.95,10.1928295 12.95,10.7175 L12.95,16.275 C12.95,16.7996705 12.5246705,17.225 12,17.225 C11.4753295,17.225 11.05,16.7996705 11.05,16.275 L11.05,10.7175 Z" id="Info" fill="#394152"></path>
        </g>
    </g>
</svg>