<?xml version="1.0" encoding="UTF-8"?>
<svg width="12px" height="18px" viewBox="0 0 12 18" version="1.1" xmlns="http://www.w3.org/2000/svg" xmlns:xlink="http://www.w3.org/1999/xlink">
    <!-- Generator: Sketch 51.3 (57544) - http://www.bohemiancoding.com/sketch -->
    <title>lightbulb_outline - material copy</title>
    <desc>Created with Sketch.</desc>
    <defs></defs>
    <g id="Screens-NEW" stroke="none" stroke-width="1" fill="none" fill-rule="evenodd">
        <g id="9.0-Settings-Light" transform="translate(-488.000000, -274.000000)" fill="#CCCCCC">
            <g id="Group-3-Copy" transform="translate(483.000000, 257.000000)">
                <path d="M13.38,26.744 C13.9533362,26.3573314 14.3966651,25.864003 14.71,25.264 C15.0233349,24.663997 15.18,24.0240034 15.18,23.344 C15.18,22.5839962 14.9933352,21.8840032 14.62,21.244 C14.2466648,20.6039968 13.7400032,20.0973352 13.1,19.724 C12.4599968,19.3506648 11.7600038,19.164 11,19.164 C10.2399962,19.164 9.5400032,19.3506648 8.9,19.724 C8.2599968,20.0973352 7.7533352,20.6039968 7.38,21.244 C7.0066648,21.8840032 6.82,22.5839962 6.82,23.344 C6.82,24.0240034 6.9766651,24.663997 7.29,25.264 C7.6033349,25.864003 8.0466638,26.3573314 8.62,26.744 L9.32,27.244 L9.32,29.164 L12.68,29.164 L12.68,27.244 L13.38,26.744 Z M11,17.524 C12.0533386,17.524 13.0333288,17.790664 13.94,18.324 C14.806671,18.8440026 15.4999974,19.537329 16.02,20.404 C16.553336,21.3106712 16.82,22.2906614 16.82,23.344 C16.82,24.3306716 16.5933356,25.2439958 16.14,26.084 C15.6999978,26.884004 15.0933372,27.5573306 14.32,28.104 L14.32,30.024 C14.32,30.2506678 14.2400008,30.4439992 14.08,30.604 C13.9199992,30.7640008 13.7266678,30.844 13.5,30.844 L8.5,30.844 C8.2733322,30.844 8.0800008,30.7640008 7.92,30.604 C7.7599992,30.4439992 7.68,30.2506678 7.68,30.024 L7.68,28.104 C6.9066628,27.5573306 6.3000022,26.884004 5.86,26.084 C5.4066644,25.2439958 5.18,24.3306716 5.18,23.344 C5.18,22.2906614 5.446664,21.3106712 5.98,20.404 C6.5000026,19.537329 7.193329,18.8440026 8.06,18.324 C8.9666712,17.790664 9.9466614,17.524 11,17.524 Z M8.5,33.344 L8.5,32.524 L13.5,32.524 L13.5,33.344 C13.5,33.5706678 13.4200008,33.7639992 13.26,33.924 C13.0999992,34.0840008 12.9066678,34.164 12.68,34.164 L9.32,34.164 C9.0933322,34.164 8.9000008,34.0840008 8.74,33.924 C8.5799992,33.7639992 8.5,33.5706678 8.5,33.344 Z" id="lightbulb_outline---material-copy"></path>
            </g>
        </g>
    </g>
</svg>