<?xml version="1.0" encoding="UTF-8"?>
<svg width="24px" height="24px" viewBox="0 0 14 19" version="1.1" xmlns="http://www.w3.org/2000/svg" xmlns:xlink="http://www.w3.org/1999/xlink">
    <!-- Generator: Sketch 50 (54983) - http://www.bohemiancoding.com/sketch -->
    <title>lock_outline - material</title>
    <desc>Created with Sketch.</desc>
    <defs></defs>
    <g id="Symbols" stroke="none" stroke-width="1" fill="none" fill-rule="evenodd">
        <g id="Icon/Encrypt-Colour" transform="translate(-5.000000, -2.000000)" fill="#000000">
            <path d="M17,18.68 L17,10.32 L7,10.32 L7,18.68 L17,18.68 Z M9.42,7 L9.42,8.68 L14.58,8.68 L14.58,7 C14.58,6.5466644 14.4633345,6.120002 14.23,5.72 C13.9966655,5.319998 13.680002,5.0033345 13.28,4.77 C12.879998,4.5366655 12.4533356,4.42 12,4.42 C11.5466644,4.42 11.120002,4.5366655 10.72,4.77 C10.319998,5.0033345 10.0033345,5.319998 9.77,5.72 C9.5366655,6.120002 9.42,6.5466644 9.42,7 Z M17,8.68 C17.4533356,8.68 17.846665,8.8399984 18.18,9.16 C18.513335,9.4800016 18.68,9.8666644 18.68,10.32 L18.68,18.68 C18.68,19.1333356 18.513335,19.5199984 18.18,19.84 C17.846665,20.1600016 17.4533356,20.32 17,20.32 L7,20.32 C6.5466644,20.32 6.153335,20.1600016 5.82,19.84 C5.486665,19.5199984 5.32,19.1333356 5.32,18.68 L5.32,10.32 C5.32,9.8666644 5.486665,9.4800016 5.82,9.16 C6.153335,8.8399984 6.5466644,8.68 7,8.68 L7.82,8.68 L7.82,7 C7.82,6.2399962 8.0066648,5.5400032 8.38,4.9 C8.7533352,4.2599968 9.2599968,3.7533352 9.9,3.38 C10.5400032,3.0066648 11.2399962,2.82 12,2.82 C12.7600038,2.82 13.4599968,3.0066648 14.1,3.38 C14.7400032,3.7533352 15.2466648,4.2599968 15.62,4.9 C15.9933352,5.5400032 16.18,6.2399962 16.18,7 L16.18,8.68 L17,8.68 Z M12,16.18 C11.5466644,16.18 11.153335,16.013335 10.82,15.68 C10.486665,15.346665 10.32,14.9533356 10.32,14.5 C10.32,14.0466644 10.486665,13.653335 10.82,13.32 C11.153335,12.986665 11.5466644,12.82 12,12.82 C12.4533356,12.82 12.846665,12.986665 13.18,13.32 C13.513335,13.653335 13.68,14.0466644 13.68,14.5 C13.68,14.9533356 13.513335,15.346665 13.18,15.68 C12.846665,16.013335 12.4533356,16.18 12,16.18 Z" id="lock_outline---material"></path>
        </g>
    </g>
</svg>
