<?xml version="1.0" encoding="UTF-8"?>
<svg width="10px" height="10px" viewBox="0 0 10 10" version="1.1" xmlns="http://www.w3.org/2000/svg"
  xmlns:xlink="http://www.w3.org/1999/xlink">
  <g id="Page-1" stroke="none" stroke-width="1" fill="none" fill-rule="evenodd">
    <g id="2.0-Home-Dark" transform="translate(-1220.000000, -10.000000)" fill="#94999D" fill-rule="nonzero">
      <path
        d="M1228.44097,19.2436135 C1228.7166,19.2436135 1228.95575,19.1422802 1229.15841,18.9396135 C1229.36108,18.7369469 1229.46241,18.4978002 1229.46241,18.2221735 L1229.46241,18.2221735 L1229.46241,11.1450535 C1229.46241,10.8694269 1229.36108,10.6302802 1229.15841,10.4276135 C1228.95575,10.2249469 1228.7166,10.1236135 1228.44097,10.1236135 L1228.44097,10.1236135 L1221.36385,10.1236135 C1221.08823,10.1236135 1220.84908,10.2249469 1220.64641,10.4276135 C1220.44375,10.6302802 1220.34241,10.8694269 1220.34241,11.1450535 L1220.34241,11.1450535 L1220.34241,18.2221735 C1220.34241,18.4978002 1220.44375,18.7369469 1220.64641,18.9396135 C1220.84908,19.1422802 1221.08823,19.2436135 1221.36385,19.2436135 L1221.36385,19.2436135 L1228.44097,19.2436135 Z M1228.44097,18.2221735 L1221.36385,18.2221735 L1221.36385,11.1450535 L1228.44097,11.1450535 L1228.44097,18.2221735 Z"
        id=""></path>
    </g>
  </g>
</svg>