<svg width="17" height="12" viewBox="0 0 17 12" fill="none" xmlns="http://www.w3.org/2000/svg">
<path d="M6.79166 8.10417V7.25521H7.9236V4.70834H7.90591C7.76442 4.92943 7.63177 5.0267 7.41953 5.21241L6.7386 4.50495L8.04741 3.29341H9.05554V7.25521H10.1875V8.10417H6.79166ZM11.3194 5.84029C11.3194 4.2308 10.3467 2.16147 8.48957 2.16147C6.63248 2.16147 5.65971 4.2308 5.65971 5.84029C5.65971 7.44977 6.63248 9.5191 8.48957 9.5191C10.3467 9.5191 11.3194 7.44977 11.3194 5.84029ZM15.8472 8.10417C14.6003 8.10417 13.5833 9.12115 13.5833 10.3681H3.39583C3.39583 9.12115 2.37885 8.10417 1.13194 8.10417V3.5764C2.37885 3.5764 3.39583 2.55942 3.39583 1.31251H13.5833C13.5833 2.55942 14.6003 3.5764 15.8472 3.5764V8.10417ZM16.9791 0.746542C16.9791 0.437026 16.7227 0.180571 16.4132 0.180571H0.565971C0.256456 0.180571 0 0.437026 0 0.746542V10.934C0 11.2435 0.256456 11.5 0.565971 11.5H16.4132C16.7227 11.5 16.9791 11.2435 16.9791 10.934V0.746542Z" fill="#94999D"/>
</svg>
