<?xml version="1.0" encoding="UTF-8"?>
<svg width="38px" height="37px" viewBox="0 0 38 37" version="1.1" xmlns="http://www.w3.org/2000/svg" xmlns:xlink="http://www.w3.org/1999/xlink">
    <!-- Generator: Sketch 50 (54983) - http://www.bohemiancoding.com/sketch -->
    <title>apps - material</title>
    <desc>Created with Sketch.</desc>
    <defs></defs>
    <g id="Screens-NEW" stroke="none" stroke-width="1" fill="none" fill-rule="evenodd">
        <g id="9.2-Settings-NodeSelector" transform="translate(-501.000000, -103.000000)" fill="#000000">
            <g id="Group" transform="translate(501.000000, 103.000000)">
                <path d="M25.2538167,31.6267594 L25.2538167,25.0374208 L31.8431553,25.0374208 L31.8431553,31.6267594 L25.2538167,31.6267594 Z M25.2538167,21.821196 L25.2538167,15.2318574 L31.8431553,15.2318574 L31.8431553,21.821196 L25.2538167,21.821196 Z M15.4482534,12.0156326 L15.4482534,5.42629404 L22.0375919,5.42629404 L22.0375919,12.0156326 L15.4482534,12.0156326 Z M25.2538167,5.42629404 L31.8431553,5.42629404 L31.8431553,12.0156326 L25.2538167,12.0156326 L25.2538167,5.42629404 Z M15.4482534,21.821196 L15.4482534,15.2318574 L22.0375919,15.2318574 L22.0375919,21.821196 L15.4482534,21.821196 Z M5.64268999,21.821196 L5.64268999,15.2318574 L12.2320286,15.2318574 L12.2320286,21.821196 L5.64268999,21.821196 Z M5.64268999,31.6267594 L5.64268999,25.0374208 L12.2320286,25.0374208 L12.2320286,31.6267594 L5.64268999,31.6267594 Z M15.4482534,31.6267594 L15.4482534,25.0374208 L22.0375919,25.0374208 L22.0375919,31.6267594 L15.4482534,31.6267594 Z M5.64268999,12.0156326 L5.64268999,5.42629404 L12.2320286,5.42629404 L12.2320286,12.0156326 L5.64268999,12.0156326 Z" id="apps---material" transform="translate(18.742923, 18.526527) rotate(45.000000) translate(-18.742923, -18.526527) "></path>
            </g>
        </g>
    </g>
</svg>