<?xml version="1.0" encoding="UTF-8"?>
<svg width="36px" height="36px" viewBox="0 0 36 36" version="1.1" xmlns="http://www.w3.org/2000/svg" xmlns:xlink="http://www.w3.org/1999/xlink">
    <!-- Generator: Sketch 51.2 (57519) - http://www.bohemiancoding.com/sketch -->
    <title>ICN_Nothing</title>
    <desc>Created with Sketch.</desc>
    <defs></defs>
    <g id="Screens-NEW" stroke="none" stroke-width="1" fill="none" fill-rule="evenodd">
        <g id="2.0-Home-Dark-ALERT-B" transform="translate(-139.000000, -156.000000)" fill="#F7BC33">
            <g id="Card_Balances" transform="translate(95.000000, 83.000000)">
                <g id="TXT_Nothing-2-See" transform="translate(44.000000, 73.000000)">
                    <path d="M34.5944681,25.0115745 C33.660766,27.1945532 32.364766,29.123234 30.744,30.744 C29.123234,32.3655319 27.1945532,33.660766 25.0115745,34.5944681 C22.8324255,35.5274043 20.4732766,36 18,36 C15.5267234,36 13.1675745,35.5274043 10.9876596,34.5944681 C8.80468085,33.660766 6.87676596,32.3655319 5.25523404,30.744 C3.63446809,29.123234 2.33846809,27.1945532 1.40476596,25.0115745 C0.472595745,22.8324255 0,20.4732766 0,18 C0,15.5267234 0.472595745,13.1675745 1.40476596,10.9876596 C2.33846809,8.80468085 3.63446809,6.87676596 5.25523404,5.25523404 C6.87676596,3.63446809 8.80468085,2.33846809 10.9876596,1.40476596 C13.1675745,0.472595745 15.5267234,0 18,0 C20.4732766,0 22.8324255,0.472595745 25.0115745,1.40476596 C27.1945532,2.33846809 29.123234,3.63446809 30.744,5.25523404 C32.364766,6.87676596 33.660766,8.80468085 34.5944681,10.9876596 C35.5266383,13.1675745 36,15.5267234 36,18 C36,20.4732766 35.5266383,22.8324255 34.5944681,25.0115745 Z M24.4179574,33.1973617 C26.4040851,32.3318298 28.1596596,31.1384681 29.6356596,29.6509787 C31.1101277,28.1642553 32.2965957,26.4033191 33.1613617,24.4179574 C34.0284255,22.428 34.4680851,20.268766 34.4680851,18 C34.4680851,15.731234 34.0284255,13.571234 33.1613617,11.5812766 C32.2965957,9.59591489 31.1093617,7.84110638 29.6341277,6.36510638 C28.1588936,4.88987234 26.4040851,3.70340426 24.4179574,2.83787234 C22.428,1.97080851 20.268766,1.53191489 18,1.53191489 C15.731234,1.53191489 13.571234,1.97080851 11.5812766,2.83787234 C9.59514894,3.70340426 7.84034043,4.88987234 6.36510638,6.36510638 C4.88987234,7.84110638 3.70340426,9.59591489 2.83787234,11.5812766 C1.97080851,13.571234 1.53191489,15.731234 1.53191489,18 C1.53191489,20.268766 1.97080851,22.428 2.83787234,24.4179574 C3.7026383,26.4033191 4.88910638,28.1642553 6.36434043,29.6509787 C7.83957447,31.1384681 9.59514894,32.3318298 11.5812766,33.1973617 C13.571234,34.0644255 15.731234,34.5040851 18,34.5040851 C20.268766,34.5040851 22.428,34.0644255 24.4179574,33.1973617 Z M23.1534383,11.7718468 C23.4414383,11.4838468 23.9393106,11.4838468 24.2273106,11.7718468 C24.3713106,11.9158468 24.4387149,12.0866553 24.4387149,12.308783 C24.4387149,12.5316766 24.3713106,12.7017191 24.2273106,12.8457191 L19.0739489,17.9998468 L24.2273106,23.1532085 C24.3713106,23.2972085 24.4387149,23.468017 24.4387149,23.6909106 C24.4387149,23.9130383 24.3713106,24.0838468 24.2273106,24.2278468 C23.9393106,24.5158468 23.4414383,24.5158468 23.1534383,24.2278468 L17.9993106,19.0737191 L12.8459489,24.2278468 C12.5579489,24.5158468 12.0600766,24.5158468 11.7720766,24.2278468 C11.6280766,24.0838468 11.5606723,23.9130383 11.5606723,23.6909106 C11.5606723,23.468017 11.6280766,23.2972085 11.7720766,23.1532085 L16.9254383,17.9998468 L11.7720766,12.8457191 C11.6280766,12.7017191 11.5606723,12.5316766 11.5606723,12.308783 C11.5606723,12.0866553 11.6280766,11.9158468 11.7720766,11.7718468 C12.0600766,11.4838468 12.5579489,11.4838468 12.8459489,11.7718468 L17.9993106,16.9259745 L23.1534383,11.7718468 Z" id="ICN_Nothing"></path>
                </g>
            </g>
        </g>
    </g>
</svg>