<?xml version="1.0" encoding="UTF-8"?>
<svg width="24px" height="24px" viewBox="0 0 24 24" version="1.1" xmlns="http://www.w3.org/2000/svg" xmlns:xlink="http://www.w3.org/1999/xlink">
    <!-- Generator: Sketch 48.2 (47327) - http://www.bohemiancoding.com/sketch -->
    <title>Icon/Notification-Dark</title>
    <desc>Created with Sketch.</desc>
    <defs></defs>
    <g id="Symbols" stroke="none" stroke-width="1" fill="none" fill-rule="evenodd">
        <g id="Icon/Notification-Dark">
            <rect id="Rectangle-6-Copy-8" x="0" y="0" width="24" height="24"></rect>
            <path d="M6.58505556,18.9090909 C5.15819444,18.9090909 4,17.7483636 4,16.3181818 C4,15.3690455 4.51236111,14.5244091 5.29511111,14.0718636 C5.29511111,13.8101818 5.29166667,10.7036818 5.29166667,10.7036818 C5.29166667,7.71895455 7.28858333,5.2075 10.0277778,4.45613636 L10.0277778,4.22727273 C10.0277778,3.27381818 10.7993333,2.5 11.75,2.5 C12.7015278,2.5 13.4722222,3.27381818 13.4722222,4.22727273 L13.4722222,4.45613636 C16.2114167,5.20663636 18.2083333,7.71895455 18.2083333,10.7088636 L18.2083333,14.0796364 C18.9919444,14.5339091 19.5,15.3759545 19.5,16.3181818 C19.5,17.7500909 18.3435278,18.9090909 16.9149444,18.9090909 L14.3333333,18.9090909 C14.3316111,20.3401364 13.1725556,21.5 11.75,21.5 C10.3231389,21.5 9.16666667,20.341 9.16666667,18.9108182 L6.58505556,18.9090909 Z M10.8888889,18.9090909 C10.8888889,19.3875455 11.2738056,19.7727273 11.75,19.7727273 C12.22275,19.7727273 12.6093889,19.3858182 12.6111111,18.9090909 L10.8888889,18.9090909 Z M16.4861111,14.8810909 L16.4861111,10.7088636 C16.4861111,8.07995455 14.3669167,5.95454545 11.75,5.95454545 C9.13394444,5.95454545 7.01388889,8.08081818 7.01388889,10.7036818 L7.01388889,14.8810909 C7.01388889,15.1229091 6.82875,15.363 6.60141667,15.4217273 L6.36719444,15.4821818 C5.99088889,15.5797727 5.72222222,15.9217727 5.72222222,16.3181818 C5.72222222,16.7940455 6.10886111,17.1818182 6.58505556,17.1818182 L16.9149444,17.1818182 C17.3928611,17.1818182 17.7777778,16.7966364 17.7777778,16.3181818 C17.7777778,15.9235 17.50825,15.5806364 17.1310833,15.4821818 L16.9054722,15.4243182 C16.6764167,15.3647273 16.4861111,15.1203182 16.4861111,14.8810909 Z" id="Notification" fill="#394152"></path>
        </g>
    </g>
</svg>