<svg xmlns="http://www.w3.org/2000/svg" width="17" height="17" viewBox="0 0 17 17"><g><g><path fill="#4cffb3" d="M7.4 17c.126 0 .24 0 .341-.133a.413.413 0 0 0 .152-.322v-7.02c0-.355-.165-.633-.493-.835l-.152-.076-6.49-3.377-.075-.038C.658 5.173.594 5.16.493 5.16a.505.505 0 0 0-.341.133.413.413 0 0 0-.152.322v6.944c0 .33.177.607.531.835v.038l6.64 3.491C7.274 17 7.35 17 7.4 17zm2.2 0h.228v-.076l6.64-3.491v-.038c.355-.228.532-.506.532-.835V5.616a.413.413 0 0 0-.152-.322.505.505 0 0 0-.531-.095l-.076.038-6.527 3.377-.114.076c-.328.202-.493.48-.493.835v7.02c0 .126.05.234.152.322.101.133.215.133.341.133zM8.5 7.893c.177 0 .342-.038.5-.114l.07-.038L16 4.061 16.09 4c.05 0 .1-.054.151-.13a.408.408 0 0 0 .076-.227c0-.152-.101-.266-.317-.342L9.145.19 8.5 0c-.152 0-.367.063-.645.19L1 3.3l-.09.038a.595.595 0 0 0-.151.114.257.257 0 0 0-.076.19c0 .177.101.357.317.455l6.93 3.643.07.038c.158.076.323.114.5.114z"/></g></g></svg>