<?xml version="1.0" encoding="UTF-8"?>
<svg width="24px" height="24px" viewBox="0 0 24 24" version="1.1" xmlns="http://www.w3.org/2000/svg" xmlns:xlink="http://www.w3.org/1999/xlink">
    <!-- Generator: Sketch 51.2 (57519) - http://www.bohemiancoding.com/sketch -->
    <title>Icon/Receive-Dark</title>
    <desc>Created with Sketch.</desc>
    <defs></defs>
    <g id="Icon/Receive-Dark" stroke="none" stroke-width="1" fill="none" fill-rule="evenodd">
        <rect id="Rectangle-6-Copy-2" x="0" y="0" width="24" height="24"></rect>
        <path d="M14.2469222,11.002 L16.7281553,8.708 C17.1245121,8.318 17.1245121,7.685 16.7281553,7.294 C16.3327995,6.904 15.6912221,6.904 15.2958663,7.294 L11.4444,10.941 C11.1581423,11.224 11,11.599 11,12.001 C11,12.401 11.1581423,12.779 11.4444,13.061 L15.2978681,16.708 C15.692223,17.098 16.3338004,17.098 16.7281553,16.708 C17.125513,16.318 17.125513,15.685 16.7281553,15.294 L14.2499249,13.002 L19.9990992,13.002 C20.5515964,13.002 21,12.555 21,12.002 C21,11.452 20.5515964,11.002 19.9990992,11.002 L14.2469222,11.002 Z M5.995,18 C5.997,18 6,6 6,6 C6,6.004 11,6 11,6 C11.552,6 12,5.552 12,5 C12,4.448 11.552,4 11,4 L5.995,4 C4.9,4 4,4.9 4,6 L4,18 C4,19.106 4.891,20 5.995,20 L11,20 C11.552,20 12,19.552 12,19 C12,18.448 11.552,18 11,18 L5.995,18 Z" id="Fill-25" fill="#394152"></path>
    </g>
</svg>