<?xml version="1.0" encoding="UTF-8"?>
<svg width="24px" height="24px" viewBox="0 0 24 24" version="1.1" xmlns="http://www.w3.org/2000/svg" xmlns:xlink="http://www.w3.org/1999/xlink">
    <!-- Generator: Sketch 48.2 (47327) - http://www.bohemiancoding.com/sketch -->
    <title>Icon/Refresh-Dark</title>
    <desc>Created with Sketch.</desc>
    <defs></defs>
    <g id="Symbols" stroke="none" stroke-width="1" fill="none" fill-rule="evenodd">
        <g id="Icon/Refresh-Dark" fill="#394152" fill-rule="nonzero">
            <path d="M6.50545214,17.8985906 L6.50545214,19.1111111 C6.50545214,19.6020309 6.10483459,20 5.6106478,20 C5.11646102,20 4.71584347,19.6020309 4.71584347,19.1111111 L4.71584347,15.5555556 C4.71584347,15.0646358 5.11646102,14.6666667 5.6106478,14.6666667 L9.18986515,14.6666667 C9.68405193,14.6666667 10.0846695,15.0646358 10.0846695,15.5555556 C10.0846695,16.0464753 9.68405193,16.4444444 9.18986515,16.4444444 L7.56227298,16.4444444 C8.71339595,17.5660185 10.2734936,18.2222222 11.946761,18.2222222 C15.4060685,18.2222222 18.2103913,15.4364384 18.2103913,12 C18.2103913,11.5090802 18.6110089,11.1111111 19.1051957,11.1111111 C19.5993825,11.1111111 20,11.5090802 20,12 C20,16.418278 16.3944421,20 11.946761,20 C9.88960228,20 7.96398347,19.2273472 6.50545214,17.8985906 Z M17.6010259,6.20018652 L17.6010259,4.88888889 C17.6010259,4.39796911 18.0016434,4 18.4958302,4 C18.990017,4 19.3906346,4.39796911 19.3906346,4.88888889 L19.3906346,8.44444444 C19.3906346,8.93536422 18.990017,9.33333333 18.4958302,9.33333333 L14.9166129,9.33333333 C14.4224261,9.33333333 14.0218086,8.93536422 14.0218086,8.44444444 C14.0218086,7.95352467 14.4224261,7.55555556 14.9166129,7.55555556 L16.437727,7.55555556 C15.286604,6.43398148 13.7265064,5.77777778 12.053239,5.77777778 C8.5939315,5.77777778 5.78960867,8.56356156 5.78960867,12 C5.78960867,12.4909198 5.38899112,12.8888889 4.89480434,12.8888889 C4.40061755,12.8888889 4,12.4909198 4,12 C4,7.581722 7.60555792,4 12.053239,4 C14.1608564,4 16.1304018,4.81102147 17.6010259,6.20018652 Z" id="Combined-Shape"></path>
        </g>
    </g>
</svg>