<?xml version="1.0" encoding="UTF-8"?>
<svg width="16px" height="15px" viewBox="0 0 16 15" version="1.1" xmlns="http://www.w3.org/2000/svg" xmlns:xlink="http://www.w3.org/1999/xlink">
    <!-- Generator: Sketch 51.3 (57544) - http://www.bohemiancoding.com/sketch -->
    <title>save - material</title>
    <desc>Created with Sketch.</desc>
    <defs></defs>
    <g id="Screens-NEW" stroke="none" stroke-width="1" fill="none" fill-rule="evenodd">
        <g id="9.0-Settings-Light" transform="translate(-486.000000, -557.000000)" fill="#CCCCCC">
            <g id="Group-11-Copy" transform="translate(483.000000, 539.000000)">
                <path d="M13.5,23 L13.5,19.68 L5.18,19.68 L5.18,23 L13.5,23 Z M11,31.32 C11.4400022,31.32 11.8533314,31.2066678 12.24,30.98 C12.6266686,30.7533322 12.9333322,30.4466686 13.16,30.06 C13.3866678,29.6733314 13.5,29.2600022 13.5,28.82 C13.5,28.3799978 13.3866678,27.9666686 13.16,27.58 C12.9333322,27.1933314 12.6266686,26.8866678 12.24,26.66 C11.8533314,26.4333322 11.4400022,26.32 11,26.32 C10.5599978,26.32 10.1466686,26.4333322 9.76,26.66 C9.3733314,26.8866678 9.0666678,27.1933314 8.84,27.58 C8.6133322,27.9666686 8.5,28.3799978 8.5,28.82 C8.5,29.2600022 8.6133322,29.6733314 8.84,30.06 C9.0666678,30.4466686 9.3733314,30.7533322 9.76,30.98 C10.1466686,31.2066678 10.5599978,31.32 11,31.32 Z M15.18,18 L18.5,21.32 L18.5,31.32 C18.5,31.7733356 18.333335,32.166665 18,32.5 C17.666665,32.833335 17.2733356,33 16.82,33 L5.18,33 C4.713331,33 4.3166683,32.833335 3.99,32.5 C3.6633317,32.166665 3.5,31.7733356 3.5,31.32 L3.5,19.68 C3.5,19.2266644 3.6633317,18.833335 3.99,18.5 C4.3166683,18.166665 4.713331,18 5.18,18 L15.18,18 Z" id="save---material"></path>
            </g>
        </g>
    </g>
</svg>