<?xml version="1.0" encoding="UTF-8"?>
<svg width="24px" height="24px" viewBox="0 0 24 24" version="1.1" xmlns="http://www.w3.org/2000/svg" xmlns:xlink="http://www.w3.org/1999/xlink">
    <!-- Generator: Sketch 51.2 (57519) - http://www.bohemiancoding.com/sketch -->
    <title>Icon/Send-Dark</title>
    <desc>Created with Sketch.</desc>
    <defs></defs>
    <g id="Icon/Send-Dark" stroke="none" stroke-width="1" fill="none" fill-rule="evenodd">
        <rect id="Rectangle-6-Copy-3" x="0" y="0" width="24" height="24"></rect>
        <path d="M16.7530778,13 L14.2718447,15.294 C13.8754879,15.684 13.8754879,16.317 14.2718447,16.708 C14.6672005,17.098 15.3087779,17.098 15.7041337,16.708 L19.5556,13.061 C19.8418577,12.778 20,12.403 20,12.001 C20,11.601 19.8418577,11.223 19.5556,10.941 L15.7021319,7.294 C15.307777,6.904 14.6661996,6.904 14.2718447,7.294 C13.874487,7.684 13.874487,8.317 14.2718447,8.708 L16.7500751,11 L11.0009008,11 C10.4484036,11 10,11.447 10,12 C10,12.55 10.4484036,13 11.0009008,13 L16.7530778,13 Z M5.995,18 C5.997,18 6,6 6,6 C6,6.004 11,6 11,6 C11.552,6 12,5.552 12,5 C12,4.448 11.552,4 11,4 L5.995,4 C4.9,4 4,4.9 4,6 L4,18 C4,19.106 4.891,20 5.995,20 L11,20 C11.552,20 12,19.552 12,19 C12,18.448 11.552,18 11,18 L5.995,18 Z" id="Nav-Send" fill="#394152"></path>
    </g>
</svg>