<?xml version="1.0" encoding="UTF-8"?>
<svg width="24px" height="24px" viewBox="0 0 24 24" version="1.1" xmlns="http://www.w3.org/2000/svg" xmlns:xlink="http://www.w3.org/1999/xlink">
    <!-- Generator: Sketch 48.2 (47327) - http://www.bohemiancoding.com/sketch -->
    <title>Icon/Theme-Light-Dark</title>
    <desc>Created with Sketch.</desc>
    <defs></defs>
    <g id="Symbols" stroke="none" stroke-width="1" fill="none" fill-rule="evenodd">
        <g id="Icon/Theme-Light-Dark">
            <rect id="Rectangle-6-Copy-9" x="0" y="0" width="24" height="24"></rect>
            <path d="M16.199,6.121875 L17.0385625,5.27875 C17.3401875,4.9783125 17.778375,4.8619375 18.1880625,4.9735625 C18.5989375,5.084 18.918375,5.4058125 19.027625,5.8166875 C19.136875,6.2275625 19.0193125,6.6645625 18.7176875,6.965 L17.878125,7.79625 C17.5848125,8.1251875 17.13475,8.2653125 16.70725,8.159625 C16.2785625,8.0539375 15.9460625,7.7214375 15.8391875,7.2939375 C15.7323125,6.8664375 15.87125,6.4151875 16.199,6.121875 M5.2823125,17.035 L6.121875,16.20375 C6.4151875,15.8748125 6.86525,15.7370625 7.29275,15.8415625 C7.72025,15.9460625 8.0539375,16.27975 8.159625,16.7060625 C8.2665,17.1335625 8.12875,17.5848125 7.801,17.878125 L6.9614375,18.72125 C6.4959375,19.184375 5.741875,19.1831875 5.27875,18.7176875 C4.815625,18.2521875 4.8168125,17.498125 5.2823125,17.035 M16.199,16.20375 C16.662125,15.7418125 17.4138125,15.7418125 17.878125,16.20375 L18.7176875,17.035 C19.1831875,17.498125 19.184375,18.2521875 18.72125,18.7176875 C18.2569375,19.1831875 17.5040625,19.184375 17.0385625,18.72125 L16.199,17.878125 C15.97575,17.6560625 15.8510625,17.355625 15.8510625,17.0409375 C15.8510625,16.7274375 15.97575,16.4258125 16.199,16.20375 M5.2823125,5.27875 C5.7454375,4.815625 6.4983125,4.815625 6.9614375,5.27875 L7.801,6.121875 C8.12875,6.4151875 8.2665,6.8664375 8.159625,7.2939375 C8.0539375,7.7214375 7.72025,8.0539375 7.29275,8.159625 C6.86525,8.2653125 6.4151875,8.1251875 6.121875,7.79625 L5.2823125,6.965 C4.8191875,6.4983125 4.8191875,5.746625 5.2823125,5.27875 M19.125,10.8125 L20.3125,10.8125 C20.968,10.8125 21.5,11.3445 21.5,12 C21.5,12.6555 20.968,13.1875 20.3125,13.1875 L19.125,13.1875 C18.4695,13.1875 17.9375,12.6555 17.9375,12 C17.9375,11.3445 18.4695,10.8125 19.125,10.8125 M3.6875,10.8125 L4.875,10.8125 C5.5305,10.8125 6.0625,11.3445 6.0625,12 C6.0625,12.6555 5.5305,13.1875 4.875,13.1875 L3.6875,13.1875 C3.032,13.1875 2.5,12.6555 2.5,12 C2.5,11.3445 3.032,10.8125 3.6875,10.8125 M12,17.9375 C12.6555,17.9375 13.1875,18.4695 13.1875,19.125 L13.1875,20.3125 C13.1875,20.968 12.6555,21.5 12,21.5 C11.3445,21.5 10.8125,20.968 10.8125,20.3125 L10.8125,19.125 C10.8125,18.4695 11.3445,17.9375 12,17.9375 M12,2.5 C12.6555,2.5 13.1875,3.032 13.1875,3.6875 L13.1875,4.875 C13.1875,5.5305 12.6555,6.0625 12,6.0625 C11.3445,6.0625 10.8125,5.5305 10.8125,4.875 L10.8125,3.6875 C10.8125,3.032 11.3445,2.5 12,2.5 M12,9.625 C13.3121875,9.625 14.375,10.6878125 14.375,12 C14.375,13.313375 13.3121875,14.375 12,14.375 C10.686625,14.375 9.625,13.313375 9.625,12 C9.625,10.689 10.686625,9.625 12,9.625 M12,7.25 C14.6231875,7.25 16.75,9.3768125 16.75,12 C16.75,14.6231875 14.6231875,16.75 12,16.75 C9.3768125,16.75 7.25,14.6231875 7.25,12 C7.25,9.3768125 9.3768125,7.25 12,7.25" id="Light" fill="#394152"></path>
        </g>
    </g>
</svg>