<?xml version="1.0" encoding="UTF-8"?>
<svg width="24px" height="24px" viewBox="0 0 24 24" version="1.1" xmlns="http://www.w3.org/2000/svg" xmlns:xlink="http://www.w3.org/1999/xlink">
    <!-- Generator: Sketch 48.2 (47327) - http://www.bohemiancoding.com/sketch -->
    <title>Icon/Theme-Dark-Dark</title>
    <desc>Created with Sketch.</desc>
    <defs></defs>
    <g id="Symbols" stroke="none" stroke-width="1" fill="none" fill-rule="evenodd">
        <g id="Icon/Theme-Dark-Dark">
            <rect id="Rectangle-6-Copy-10" x="0" y="0" width="24" height="24"></rect>
            <path d="M11.7436685,11.9982931 C11.7436685,14.5450263 12.82693,16.9702722 14.7234813,18.6688443 C14.4838814,18.7138395 14.2409069,18.738587 13.9934328,18.747586 C10.2678231,18.747586 7.2441399,15.7261525 7.2441399,11.9982931 C7.2441399,8.27155851 10.2678231,5.24900016 13.9934328,5.24900016 C14.2409069,5.26024898 14.4838814,5.28499639 14.7234813,5.32774191 C12.82693,7.02631396 11.7436685,9.45380965 11.7436685,11.9982931 Z M17.8517786,18.0951544 C15.4985251,16.9781464 13.9979323,14.604645 13.9979323,11.9982931 C13.9979323,9.39306601 15.4985251,7.01956467 17.8517786,5.90143181 C18.2454874,5.71695114 18.4985858,5.31986774 18.4985858,4.88453834 C18.4985858,4.44808407 18.2454874,4.05212555 17.8506537,3.86651999 C14.0710497,2.0757076 9.55239808,3.12747242 6.95054566,6.40425413 C4.34981811,9.67991096 4.34981811,14.318925 6.95054566,17.5968316 C9.55239808,20.8724884 14.0710497,21.9242532 17.8506537,20.1334408 C18.2432376,19.9489601 18.497461,19.5518767 18.497461,19.1165474 C18.497461,18.6789682 18.2432376,18.2841346 17.8495288,18.098529 L17.8517786,18.0951544 Z" id="Dark" fill="#394152"></path>
        </g>
    </g>
</svg>