<?xml version="1.0" encoding="UTF-8"?>
<svg width="18px" height="18px" viewBox="0 0 18 18" version="1.1" xmlns="http://www.w3.org/2000/svg" xmlns:xlink="http://www.w3.org/1999/xlink">
    <!-- Generator: Sketch 51.3 (57544) - http://www.bohemiancoding.com/sketch -->
    <title>access_time - material</title>
    <desc>Created with Sketch.</desc>
    <defs></defs>
    <g id="Screens-NEW" stroke="none" stroke-width="1" fill="none" fill-rule="evenodd">
        <g id="9.0-Settings-Light" transform="translate(-485.000000, -504.000000)" fill="#CCCCCC">
            <g id="Group-10-Copy" transform="translate(485.000000, 499.000000)">
                <path d="M9.44,10.0412493 L9.44,14.4212493 L13.18,16.6412493 L12.56,17.7012493 L8.18,15.0412493 L8.18,10.0412493 L9.44,10.0412493 Z M9,20.9012493 C10.200006,20.9012493 11.3199948,20.5945857 12.36,19.9812493 C13.3733384,19.3945797 14.1733304,18.5945877 14.76,17.5812493 C15.3733364,16.5412441 15.68,15.4212553 15.68,14.2212493 C15.68,13.0212433 15.3733364,11.9012545 14.76,10.8612493 C14.1733304,9.84791087 13.3733384,9.04791887 12.36,8.46124927 C11.3199948,7.84791287 10.200006,7.54124927 9,7.54124927 C7.799994,7.54124927 6.6800052,7.84791287 5.64,8.46124927 C4.6266616,9.04791887 3.8266696,9.84791087 3.24,10.8612493 C2.6266636,11.9012545 2.32,13.0212433 2.32,14.2212493 C2.32,15.4212553 2.6266636,16.5412441 3.24,17.5812493 C3.8266696,18.5945877 4.6266616,19.3945797 5.64,19.9812493 C6.6800052,20.5945857 7.799994,20.9012493 9,20.9012493 Z M9,5.90124927 C10.5200076,5.90124927 11.9266602,6.28124547 13.22,7.04124927 C14.4733396,7.76125287 15.4599964,8.74790967 16.18,10.0012493 C16.9400038,11.2945891 17.32,12.7012417 17.32,14.2212493 C17.32,15.7412569 16.9400038,17.1479095 16.18,18.4412493 C15.4599964,19.6945889 14.4733396,20.6812457 13.22,21.4012493 C11.9266602,22.1612531 10.5200076,22.5412493 9,22.5412493 C7.4799924,22.5412493 6.0733398,22.1612531 4.78,21.4012493 C3.5266604,20.6679123 2.5400036,19.6745889 1.82,18.4212493 C1.0599962,17.1279095 0.68,15.7279235 0.68,14.2212493 C0.68,12.7145751 1.0599962,11.3145891 1.82,10.0212493 C2.553337,8.76790967 3.5466604,7.77458627 4.8,7.04124927 C6.0933398,6.28124547 7.4933258,5.90124927 9,5.90124927 Z" id="access_time---material"></path>
            </g>
        </g>
    </g>
</svg>