<svg xmlns="http://www.w3.org/2000/svg" width="17" height="21" viewBox="0 0 17 21"><defs><clipPath id="yzdsa"><path fill="#fff" d="M8.683.269A.5.5 0 0 0 8 .734v4.73a.5.5 0 0 0 .294.456l2 .902A.5.5 0 0 0 11 6.366V1.521a.5.5 0 0 0-.317-.465z"/></clipPath></defs><g><g><g><path fill="#4cffb3" d="M8 11.777l-.072-.038L1 8.097a.498.498 0 0 1-.32-.456c0-.076.025-.139.076-.19a.595.595 0 0 1 .152-.113L1 7.3l6.308-2.816-.053 1.451 3.458 1.627a.5.5 0 0 0 .713-.452V5.999a.5.5 0 0 1 .707-.455L16 7.3c.213.076.314.19.314.341a.408.408 0 0 1-.076.228c-.05.076-.101.131-.152.131L16 8.059l-6.934 3.68-.066.038a1.16 1.16 0 0 1-1 0zM5.542 6.544l5.087 2.515.908-.5L6.45 6.096z"/></g><g><path fill="#4cffb3" d="M9.603 21h.228v-.077l6.64-3.49v-.039c.355-.227.529-.506.529-.834V9.615c0-.126 0-.234-.149-.322a.505.505 0 0 0-.531-.095l-.076.038-6.527 3.377-.114.076c-.329.202-.493.48-.493.835v7.02c0 .126.05.234.152.322.101.134.215.134.341.134z"/></g><g><path fill="#4cffb3" d="M2 15.944v-.68c0-.062 0-.095.125-.097l.125-.003 1.099.08c-.089-.11-.163-.244-.223-.35-.06-.124-.126-.243-.126-.358a1.056 1.056 0 0 1-.1-.321c-.016-.1-.024-.215-.024-.215v-.61c0-.098.032-.178.124-.242 0-.063.124-.148.23-.148h.361c.136 0 .273.082.409.153.14.07.276.165.41.282.135.118.255.243.36.374.106.132.23.264.23.395a.584.584 0 0 1 .128.342v.583c0 .07-.008.147-.023.232a.51.51 0 0 1-.105.241c0 .078-.058.145-.118.203a.447.447 0 0 1-.22.115L5.755 17s.04 0 .123.091c.123.085.123.161.123.23V18zM7.4 21c.126 0 .24 0 .341-.134a.413.413 0 0 0 .152-.322v-7.02c0-.354-.165-.633-.493-.835l-.152-.076-6.49-3.377-.075-.038C.658 9.173.594 9.16.493 9.16a.505.505 0 0 0-.341.133.413.413 0 0 0-.152.322v6.945c0 .328.177.607.531.834v.038l6.64 3.491C7.274 21 7.35 21 7.4 21z"/></g><g><path fill="none" stroke="#4cffb3" stroke-miterlimit="20" stroke-width="2" d="M8.683.269A.5.5 0 0 0 8 .734v4.73a.5.5 0 0 0 .294.456l2 .902A.5.5 0 0 0 11 6.366V1.521a.5.5 0 0 0-.317-.465z" clip-path="url(&quot;#yzdsa&quot;)"/></g></g></g></svg>