<?xml version="1.0" encoding="UTF-8"?>
<svg width="49px" height="49px" viewBox="0 0 49 49" version="1.1" xmlns="http://www.w3.org/2000/svg" xmlns:xlink="http://www.w3.org/1999/xlink">
    <title>walletconnect-circle-blue</title>
    <defs>
        <radialGradient cx="0%" cy="50%" fx="0%" fy="50%" r="100%" id="radialGradient-1">
            <stop stop-color="#5D9DF6" offset="0%"></stop>
            <stop stop-color="#006FFF" offset="100%"></stop>
        </radialGradient>
    </defs>
    <g id="Page-1" stroke="none" stroke-width="1" fill="none" fill-rule="evenodd">
        <g id="2.1.3-dAPP-Request-screen-Copy-2" transform="translate(-508.000000, -106.000000)" fill-rule="nonzero">
            <g id="walletconnect-circle-blue" transform="translate(508.000000, 106.000000)">
                <rect id="base" fill="url(#radialGradient-1)" x="0" y="0" width="49" height="49" rx="24.5"></rect>
                <path d="M16.175552,17.77576 C20.7730254,13.3167558 28.2270025,13.3167558 32.8244757,17.77576 L33.3777891,18.3124083 C33.6076628,18.5353585 33.6076628,18.8968322 33.3777891,19.1197825 L31.4850146,20.9555494 C31.3700777,21.0670246 31.1837283,21.0670246 31.0687914,20.9555494 L30.3073666,20.2170575 C27.1000543,17.1063448 21.8999735,17.1063448 18.6926612,20.2170575 L17.8772381,21.0079214 C17.7623012,21.1193965 17.5759517,21.1193965 17.461015,21.0079214 L15.5682405,19.1721545 C15.3383668,18.9492042 15.3383668,18.5877305 15.5682405,18.3647803 L16.175552,17.77576 Z M36.7389122,21.5723201 L38.4234851,23.2061619 C38.6533577,23.429111 38.653359,23.7905826 38.4234881,24.0135332 L30.8276322,31.3807284 C30.5977601,31.6036803 30.2250613,31.6036828 29.995186,31.3807342 C29.995185,31.3807333 29.995184,31.3807322 29.995183,31.3807313 L24.6041066,26.1520183 C24.5466383,26.0962808 24.4534635,26.0962808 24.3959951,26.1520183 C24.3959947,26.1520187 24.3959945,26.1520191 24.3959941,26.1520194 L19.0050325,31.3807284 C18.7751611,31.6036809 18.4024622,31.6036846 18.1725862,31.3807366 C18.1725849,31.3807353 18.1725835,31.3807339 18.172582,31.3807325 L10.5765148,24.0134394 C10.3466412,23.7904892 10.3466412,23.4290154 10.5765148,23.2060653 L12.2610908,21.5722262 C12.4909644,21.349276 12.8636633,21.349276 13.0935369,21.5722262 L18.4846918,26.8010122 C18.5421603,26.8567498 18.6353348,26.8567498 18.6928033,26.8010122 C18.6928042,26.8010114 18.6928049,26.8010106 18.6928058,26.80101 L24.0836905,21.5722262 C24.3135589,21.3492709 24.6862578,21.3492625 24.9161367,21.5722076 C24.9161399,21.5722107 24.916143,21.5722139 24.9161462,21.572217 L30.307294,26.80101 C30.3647623,26.8567474 30.4579371,26.8567474 30.5154055,26.80101 L35.906466,21.5723201 C36.1363397,21.3493698 36.5090385,21.3493698 36.7389122,21.5723201 Z" id="WalletConnect" fill="#FFFFFF"></path>
            </g>
        </g>
    </g>
</svg>