<?xml version="1.0" encoding="UTF-8"?>
<svg width="24px" height="24px" viewBox="0 0 24 24" version="1.1" xmlns="http://www.w3.org/2000/svg" xmlns:xlink="http://www.w3.org/1999/xlink">
    <!-- Generator: Sketch 48.2 (47327) - http://www.bohemiancoding.com/sketch -->
    <title>Icon/Warning-Dark</title>
    <desc>Created with Sketch.</desc>
    <defs></defs>
    <g id="Symbols" stroke="none" stroke-width="1" fill="none" fill-rule="evenodd">
        <g id="Icon/Warning-Dark">
            <rect id="Rectangle-6-Copy-11" x="0" y="0" width="24" height="24"></rect>
            <path d="M4.4,8.97350288 L4.4,15.0264971 L8.97350288,19.6 L15.4295934,19.6 L19.6,15.0504655 L19.6,8.94953451 L15.4295934,4.4 L8.97350288,4.4 L4.4,8.97350288 Z M12,10.6564971 L9.67925144,8.33574856 C9.30825336,7.96475048 8.70674664,7.96475048 8.33574856,8.33574856 C7.96475048,8.70674664 7.96475048,9.30825336 8.33574856,9.67925144 L10.6564971,12 L8.33574856,14.3207486 C7.96475048,14.6917466 7.96475048,15.2932534 8.33574856,15.6642514 C8.70674664,16.0352495 9.30825336,16.0352495 9.67925144,15.6642514 L12,13.3435029 L14.3207486,15.6642514 C14.6917466,16.0352495 15.2932534,16.0352495 15.6642514,15.6642514 C16.0352495,15.2932534 16.0352495,14.6917466 15.6642514,14.3207486 L13.3435029,12 L15.6642514,9.67925144 C16.0352495,9.30825336 16.0352495,8.70674664 15.6642514,8.33574856 C15.2932534,7.96475048 14.6917466,7.96475048 14.3207486,8.33574856 L12,10.6564971 Z M8.58,2.5 L15.8475,2.5 C16.1137911,2.5 16.367857,2.61176404 16.5477964,2.8080616 L21.2502964,7.9380616 C21.4109041,8.11326994 21.5,8.34231791 21.5,8.58 L21.5,15.42 C21.5,15.6576821 21.4109041,15.8867301 21.2502964,16.0619384 L16.5477964,21.1919384 C16.367857,21.388236 16.1137911,21.5 15.8475,21.5 L8.58,21.5 C8.32804433,21.5 8.08640812,21.399911 7.90824856,21.2217514 L2.77824856,16.0917514 C2.600089,15.9135919 2.5,15.6719557 2.5,15.42 L2.5,8.58 C2.5,8.32804433 2.600089,8.08640812 2.77824856,7.90824856 L7.90824856,2.77824856 C8.08640812,2.600089 8.32804433,2.5 8.58,2.5 Z" id="Error" fill="#394152" fill-rule="nonzero"></path>
        </g>
    </g>
</svg>