<?xml version="1.0" encoding="UTF-8"?>
<svg width="113px" height="113px" viewBox="0 0 113 113" version="1.1" xmlns="http://www.w3.org/2000/svg" xmlns:xlink="http://www.w3.org/1999/xlink">
    <title></title>
    <g id="Page-1" stroke="none" stroke-width="1" fill="none" fill-rule="evenodd">
        <g id="2.1.3-dAPP-Transaction-failure" transform="translate(-584.000000, -213.000000)" fill="#EA5D8E" fill-rule="nonzero">
            <path d="M640.0235,325.3095 C655.465875,325.3095 668.663719,319.832844 679.617031,308.879531 C690.570344,297.926219 696.047,284.728375 696.047,269.286 C696.047,253.843625 690.570344,240.645781 679.617031,229.692469 C668.663719,218.739156 655.465875,213.2625 640.0235,213.2625 C624.581125,213.2625 611.383281,218.739156 600.429969,229.692469 C589.476656,240.645781 584,253.843625 584,269.286 C584,284.728375 589.476656,297.926219 600.429969,308.879531 C611.383281,319.832844 624.581125,325.3095 640.0235,325.3095 Z M640.0235,320.461312 C625.6585,320.461312 613.538031,315.523344 603.662094,305.647406 C593.786156,295.771469 588.848187,283.651 588.848187,269.286 C588.848187,254.921 593.786156,242.800531 603.662094,232.924594 C613.538031,223.048656 625.6585,218.110687 640.0235,218.110687 C654.3885,218.110687 666.508969,223.048656 676.384906,232.924594 C686.260844,242.800531 691.198813,254.921 691.198813,269.286 C691.198813,283.651 686.260844,295.771469 676.384906,305.647406 C666.508969,315.523344 654.3885,320.461312 640.0235,320.461312 Z M662.648375,295.143 L665.8805,291.910875 L643.255625,269.286 L665.8805,246.661125 L662.648375,243.429 L640.0235,266.053875 L617.398625,243.429 L614.1665,246.661125 L636.791375,269.286 L614.1665,291.910875 L617.398625,295.143 L640.0235,272.518125 L662.648375,295.143 Z" id=""></path>
        </g>
    </g>
</svg>