<?xml version="1.0" encoding="UTF-8" standalone="no"?>
<svg width="54px" height="15px" viewBox="0 0 54 15" version="1.1" xmlns="http://www.w3.org/2000/svg" xmlns:xlink="http://www.w3.org/1999/xlink">
    <!-- Generator: Sketch 3.7.2 (28276) - http://www.bohemiancoding.com/sketch -->
    <title>NEON_Logo_Velocihamster_TextOnly_001</title>
    <desc>Created with Sketch.</desc>
    <defs></defs>
    <g id="Page-1" stroke="none" stroke-width="1" fill="none" fill-rule="evenodd">
        <g id="NEON_Logo_Velocihamster_TextOnly_001" fill="#FFFFFF">
            <g id="Layer_1">
                <g id="Group">
                    <path d="M12,0.6 L12,14.8 L11.4,14.2 L10.3,13.1 L8.9,11.7 C8.4,11.2 7.8,10.7 7.3,10.2 C6.8,9.7 6.2,9.2 5.7,8.7 C5.2,8.2 4.7,7.8 4.3,7.3 C3.8,6.9 3.4,6.6 3.1,6.3 C2.9,6 2.7,5.8 2.6,5.7 C2.6,5.7 2.5,5.6 2.5,5.5 C2.3,5.4 2.3,5.3 2.2,5.2 L2.3,5.8 L2.3,14 C2.3,14.1 2.2,14.1 2.2,14.1 L0,14.1 L0,0 L0.6,0.6 C0.9,0.9 1.3,1.2 1.7,1.6 C2.1,2.1 2.6,2.5 3.1,3 C3.6,3.5 4.2,4 4.7,4.5 C5.3,5 5.8,5.5 6.3,6 C6.8,6.5 7.3,6.9 7.7,7.3 C8.1,7.7 8.5,8 8.8,8.3 L9.4,8.9 L9.8,9.4 L9.7,8.8 L9.7,0.6 L12,0.6 L12,0.6 Z" id="Shape"></path>
                    <path d="M53.1,0.6 L53.1,14.8 C53,14.7 52.8,14.5 52.5,14.2 C52.2,13.9 51.8,13.5 51.4,13.1 C51,12.7 50.5,12.2 50,11.7 C49.5,11.2 48.9,10.7 48.4,10.2 C47.9,9.7 47.3,9.2 46.8,8.7 C46.3,8.2 45.8,7.8 45.4,7.3 C45,6.9 44.6,6.5 44.3,6.2 C44,6 43.8,5.8 43.7,5.7 C43.7,5.7 43.6,5.6 43.6,5.5 C43.5,5.4 43.4,5.3 43.4,5.2 L43.5,5.8 L43.5,13.4 C43.5,13.8 43.1,14.2 42.7,14.2 L41.2,14.2 L41.2,0 C41.3,0.1 41.5,0.3 41.8,0.6 C42.1,0.9 42.5,1.2 42.9,1.6 C43.3,2 43.8,2.5 44.3,2.9 C44.8,3.4 45.4,3.9 45.9,4.4 C46.4,4.9 47,5.4 47.5,5.9 C48,6.4 48.5,6.8 48.9,7.2 C49.3,7.6 49.7,7.9 50,8.2 C50.3,8.5 50.5,8.7 50.6,8.8 L51,9.3 L50.9,8.7 L50.9,0.6 L53.1,0.6 L53.1,0.6 Z" id="Shape"></path>
                    <path d="M25.5,7.4 C25.5,6.5 25.7,5.6 26,4.7 C26.4,3.9 26.9,3.1 27.5,2.5 C28.1,1.9 28.9,1.4 29.7,1 C30.5,0.6 31.4,0.4 32.4,0.4 C33.3,0.4 34.2,0.6 35.1,1 C35.9,1.4 36.7,1.9 37.3,2.5 C37.9,3.1 38.4,3.9 38.8,4.7 C39.2,5.5 39.3,6.4 39.3,7.4 C39.3,8.4 39.1,9.2 38.8,10.1 C38.4,10.9 37.9,11.7 37.3,12.3 C36.7,12.9 35.9,13.4 35.1,13.8 C34.3,14.2 33.4,14.3 32.4,14.3 C31.4,14.3 30.6,14.1 29.7,13.8 C28.9,13.4 28.1,12.9 27.5,12.3 C26.9,11.7 26.4,10.9 26,10.1 C25.7,9.3 25.5,8.4 25.5,7.4 L25.5,7.4 Z M27.8,7.4 C27.8,8.1 27.9,8.7 28.2,9.2 C28.4,9.8 28.8,10.3 29.2,10.7 C29.6,11.1 30.1,11.5 30.7,11.7 C31.3,11.9 31.9,12.1 32.5,12.1 C33.1,12.1 33.7,12 34.3,11.7 C34.9,11.5 35.4,11.1 35.8,10.7 C36.2,10.3 36.5,9.8 36.8,9.2 C37,8.6 37.2,8 37.2,7.4 C37.2,6.7 37.1,6.1 36.8,5.6 C36.6,5 36.2,4.5 35.8,4.1 C35.4,3.7 34.9,3.3 34.3,3.1 C33.7,2.9 33.1,2.7 32.5,2.7 C31.9,2.7 31.3,2.8 30.7,3.1 C30.1,3.3 29.6,3.7 29.2,4.1 C28.8,4.5 28.5,5 28.2,5.6 C27.9,6.1 27.8,6.8 27.8,7.4 L27.8,7.4 Z" id="Shape"></path>
                    <polygon id="Shape" points="14.6 14.2 14.6 0.6 23.6 0.6 23.6 2.7 16.9 2.7 16.9 6.3 22.4 6.3 22.4 8.4 16.9 8.4 16.9 12 23.9 12 23.9 14.1 14.6 14.1"></polygon>
                </g>
            </g>
        </g>
    </g>
</svg>