<svg width="24" height="25" viewBox="0 0 24 25" fill="none" xmlns="http://www.w3.org/2000/svg">
<path fill-rule="evenodd" clip-rule="evenodd" d="M7.3027 10.5041C6.94715 10.1503 6.94533 9.57707 7.29907 9.22152C7.65191 8.86596 8.22696 8.86415 8.58161 9.21698L10.3957 11.0201C10.7512 11.3739 10.753 11.948 10.3993 12.3027L8.58523 14.1285C8.2324 14.4841 7.65825 14.4859 7.3027 14.1322C6.94715 13.7784 6.94533 13.2052 7.29907 12.8496L7.5739 12.5703H3.4034C2.90453 12.5703 2.5 12.1648 2.5 11.6632C2.5 11.1598 2.90453 10.7562 3.4034 10.7562H7.55667L7.3027 10.5041ZM12.4773 19.8265H8.39567C7.64556 19.8265 7.03513 19.2206 7.03513 18.4696V16.1984C7.03513 15.6986 7.44057 15.2913 7.94215 15.2913C8.44374 15.2913 8.84918 15.6986 8.84918 16.1984V18.0124H12.4773V8.22288C12.4773 7.66325 12.812 7.06008 13.29 6.76529L15.641 5.31042L8.84918 5.31405V7.1281C8.84918 7.62969 8.44374 8.03513 7.94215 8.03513C7.44057 8.03513 7.03513 7.62969 7.03513 7.1281V4.85782C7.03513 4.11043 7.64646 3.5 8.39567 3.5H18.372C18.811 3.5 19.2002 3.7068 19.4505 4.02789C19.4732 4.05873 19.4913 4.08957 19.5022 4.12131C19.6464 4.31723 19.7335 4.56757 19.7335 4.85782V18.4696C19.7335 19.0292 19.3988 19.6324 18.9208 19.929L14.2442 22.8196C13.4251 23.3267 12.4773 22.7933 12.4773 21.8346V19.8265ZM14.2868 20.67L17.9194 18.4587V6.05056L14.2868 8.30633V20.67Z" fill="#4CFFB3"/>
</svg>
