<svg width="36" height="32" viewBox="0 0 36 32" fill="#4CFFB3" xmlns="http://www.w3.org/2000/svg">
<path d="M15.9774 23.4662L15.6239 23.8197L15.9774 24.1733L16.331 23.8197L15.9774 23.4662ZM8.48879 15.9773L8.13524 15.6238L7.78168 15.9773L8.13523 16.3309L8.48879 15.9773ZM12.2105 12.2558L12.5641 11.9022L12.2105 11.5487L11.857 11.9022L12.2105 12.2558ZM15.9774 16.0227L15.6239 16.3762L15.9774 16.7298L16.331 16.3763L15.9774 16.0227ZM19.7446 12.2558L20.0981 11.9022L19.7446 11.5487L19.391 11.9022L19.7446 12.2558ZM23.4661 15.9773L23.8197 16.3309L24.1732 15.9773L23.8197 15.6238L23.4661 15.9773ZM34.7221 4.72155L35.0757 5.0751L35.4292 4.72154L35.0757 4.36798L34.7221 4.72155ZM31.0004 1L31.3539 0.646437L31.0004 0.292903L30.6468 0.646447L31.0004 1ZM27.2335 4.76692L26.8799 5.12049L27.2335 5.474L27.587 5.12047L27.2335 4.76692ZM23.4662 1L23.8197 0.646428L23.4662 0.292912L23.1126 0.646447L23.4662 1ZM19.6993 4.76692L19.3457 5.12048L19.6993 5.47401L20.0528 5.12047L19.6993 4.76692ZM15.9775 1.04537L16.3311 0.691808L15.9775 0.338275L15.624 0.691815L15.9775 1.04537ZM1 16.0227L0.646449 15.6691L0.292889 16.0227L0.646449 16.3762L1 16.0227ZM15.9775 31L15.624 31.3536L15.9775 31.7071L16.3311 31.3536L15.9775 31ZM30.955 16.0227L31.3086 16.3762L31.6621 16.0227L31.3086 15.6691L30.955 16.0227ZM27.1879 12.2558L26.8344 11.9022L26.4808 12.2558L26.8344 12.6093L27.1879 12.2558ZM16.331 23.1126L8.84234 15.6238L8.13523 16.3309L15.6239 23.8197L16.331 23.1126ZM8.84233 16.3309L12.5641 12.6093L11.857 11.9022L8.13524 15.6238L8.84233 16.3309ZM11.857 12.6093L15.6239 16.3762L16.331 15.6691L12.5641 11.9022L11.857 12.6093ZM16.331 16.3763L20.0981 12.6093L19.391 11.9022L15.6239 15.6691L16.331 16.3763ZM19.391 12.6093L23.1125 16.3309L23.8197 15.6238L20.0981 11.9022L19.391 12.6093ZM23.1125 15.6238L15.6239 23.1126L16.331 23.8197L23.8197 16.3309L23.1125 15.6238ZM35.0757 4.36798L31.3539 0.646437L30.6469 1.35356L34.3686 5.07511L35.0757 4.36798ZM30.6468 0.646447L26.8799 4.41336L27.587 5.12047L31.3539 1.35355L30.6468 0.646447ZM27.587 4.41334L23.8197 0.646428L23.1126 1.35357L26.8799 5.12049L27.587 4.41334ZM23.1126 0.646447L19.3457 4.41336L20.0528 5.12047L23.8197 1.35355L23.1126 0.646447ZM20.0528 4.41335L16.3311 0.691808L15.624 1.39893L19.3457 5.12048L20.0528 4.41335ZM15.624 0.691815L0.646449 15.6691L1.35355 16.3762L16.3311 1.39893L15.624 0.691815ZM0.646449 16.3762L15.624 31.3536L16.3311 30.6464L1.35355 15.6691L0.646449 16.3762ZM16.3311 31.3536L31.3086 16.3762L30.6015 15.6691L15.624 30.6464L16.3311 31.3536ZM31.3086 15.6691L27.5415 11.9022L26.8344 12.6093L30.6015 16.3762L31.3086 15.6691ZM27.5415 12.6093L35.0757 5.0751L34.3686 4.36799L26.8344 11.9022L27.5415 12.6093Z"/>
</svg>
