<svg width="252" height="47" viewBox="0 0 252 47" fill="none" xmlns="http://www.w3.org/2000/svg">
<path d="M21.6154 30.9949L21.2618 31.3485L21.6154 31.702L21.9689 31.3485L21.6154 30.9949ZM13.9898 23.3691L13.6362 23.0156L13.2826 23.3691L13.6362 23.7227L13.9898 23.3691ZM17.7796 19.5795L18.1331 19.226L17.7796 18.8724L17.426 19.226L17.7796 19.5795ZM21.6154 23.4153L21.2618 23.7689L21.6153 24.1224L21.9689 23.7689L21.6154 23.4153ZM25.4514 19.5795L25.8049 19.226L25.4514 18.8724L25.0978 19.226L25.4514 19.5795ZM29.241 23.3691L29.5945 23.7227L29.9481 23.3691L29.5945 23.0156L29.241 23.3691ZM40.7028 11.9075L41.0563 12.2611L41.4099 11.9075L41.0563 11.554L40.7028 11.9075ZM36.913 8.11792L37.2665 7.76436L36.9129 7.41082L36.5594 7.76437L36.913 8.11792ZM33.0772 11.9537L32.7236 12.3073L33.0772 12.6608L33.4307 12.3073L33.0772 11.9537ZM29.241 8.11792L29.5945 7.76435L29.2409 7.41083L28.8874 7.76437L29.241 8.11792ZM25.4052 11.9537L25.0516 12.3073L25.4052 12.6608L25.7587 12.3073L25.4052 11.9537ZM21.6154 8.16412L21.9689 7.81056L21.6153 7.45702L21.2618 7.81056L21.6154 8.16412ZM6.36395 23.4153L6.0104 23.0618L5.65684 23.4153L6.0104 23.7689L6.36395 23.4153ZM21.6154 38.6665L21.2618 39.0201L21.6154 39.3736L21.9689 39.0201L21.6154 38.6665ZM36.8668 23.4153L37.2203 23.7689L37.5739 23.4153L37.2203 23.0618L36.8668 23.4153ZM33.0308 19.5795L32.6772 19.226L32.3236 19.5795L32.6772 19.9331L33.0308 19.5795ZM21.9689 30.6414L14.3433 23.0156L13.6362 23.7227L21.2618 31.3485L21.9689 30.6414ZM14.3433 23.7227L18.1331 19.9331L17.426 19.226L13.6362 23.0156L14.3433 23.7227ZM17.426 19.9331L21.2618 23.7689L21.9689 23.0618L18.1331 19.226L17.426 19.9331ZM21.9689 23.7689L25.8049 19.9331L25.0978 19.226L21.2618 23.0618L21.9689 23.7689ZM25.0978 19.9331L28.8874 23.7227L29.5945 23.0156L25.8049 19.226L25.0978 19.9331ZM28.8874 23.0156L21.2618 30.6414L21.9689 31.3485L29.5945 23.7227L28.8874 23.0156ZM41.0563 11.554L37.2665 7.76436L36.5594 8.47148L40.3492 12.2611L41.0563 11.554ZM36.5594 7.76437L32.7236 11.6002L33.4307 12.3073L37.2665 8.47147L36.5594 7.76437ZM33.4307 11.6001L29.5945 7.76435L28.8874 8.47149L32.7236 12.3073L33.4307 11.6001ZM28.8874 7.76437L25.0516 11.6002L25.7587 12.3073L29.5945 8.47147L28.8874 7.76437ZM25.7587 11.6002L21.9689 7.81056L21.2618 8.51768L25.0516 12.3073L25.7587 11.6002ZM21.2618 7.81056L6.0104 23.0618L6.7175 23.7689L21.9689 8.51768L21.2618 7.81056ZM6.0104 23.7689L21.2618 39.0201L21.9689 38.313L6.7175 23.0618L6.0104 23.7689ZM21.9689 39.0201L37.2203 23.7689L36.5132 23.0618L21.2618 38.313L21.9689 39.0201ZM37.2203 23.0618L33.3843 19.226L32.6772 19.9331L36.5132 23.7689L37.2203 23.0618ZM33.3843 19.9331L41.0563 12.2611L40.3492 11.554L32.6772 19.226L33.3843 19.9331Z" fill="#4CFFB3"/>
<path fill-rule="evenodd" clip-rule="evenodd" d="M75.7997 22.4508V30.983H73.0505V22.6088C73.0505 20.1438 71.5337 18.627 69.4795 18.627C67.4255 18.627 64.9607 19.7964 64.9607 22.988V30.983H62.2115V16.2254H64.9607V18.469C65.8455 16.6678 68.2471 15.9094 69.8587 15.9094C73.5245 15.9094 75.8313 18.311 75.7997 22.4508" fill="white"/>
<path fill-rule="evenodd" clip-rule="evenodd" d="M95.3284 22.4192C94.9808 19.8912 93.1796 18.5006 90.7462 18.5006C88.2496 18.5006 86.4802 19.7648 86.0378 22.4192H95.3284ZM98.0146 24.7894H86.0062C86.4168 27.4122 88.313 28.7078 90.841 28.7078C92.6422 28.7078 94.317 27.9494 95.1388 26.4642L97.5406 27.4122C96.2448 29.9718 93.5904 31.299 90.7462 31.299C86.5432 31.299 83.162 28.2338 83.162 23.5568C83.162 18.88 86.5432 15.9094 90.7462 15.9094C94.9492 15.9094 98.0777 18.88 98.0777 23.5568C98.0777 23.9676 98.046 24.3784 98.0146 24.7894V24.7894Z" fill="white"/>
<path fill-rule="evenodd" clip-rule="evenodd" d="M117.29 23.5568C117.29 20.5232 115.015 18.5006 112.297 18.5006C109.611 18.5006 107.368 20.5232 107.368 23.5568C107.368 26.6222 109.611 28.7078 112.297 28.7078C115.015 28.7078 117.29 26.6222 117.29 23.5568M104.587 23.5568C104.587 18.88 108.095 15.9094 112.297 15.9094C116.5 15.9094 120.04 18.88 120.04 23.5568C120.04 28.2338 116.5 31.299 112.297 31.299C108.095 31.299 104.587 28.2338 104.587 23.5568" fill="white"/>
<path fill-rule="evenodd" clip-rule="evenodd" d="M141.243 22.4508V30.983H138.494V22.6088C138.494 20.1438 136.977 18.627 134.923 18.627C132.869 18.627 130.404 19.7964 130.404 22.988V30.983H127.655V16.2254H130.404V18.469C131.289 16.6678 133.69 15.9094 135.302 15.9094C138.968 15.9094 141.275 18.311 141.243 22.4508" fill="white"/>
<path fill-rule="evenodd" clip-rule="evenodd" d="M171.2 16.2253L165.702 30.9829H163.395L159.318 20.0173L155.4 30.9829H153.125L147.5 16.2253H150.47L154.231 26.7169L157.991 16.2253H160.677L164.469 26.7169L168.23 16.2253H171.2Z" fill="white"/>
<path fill-rule="evenodd" clip-rule="evenodd" d="M189.275 23.5568C189.275 20.3652 186.684 18.5006 184.251 18.5006C181.564 18.5006 179.416 20.5864 179.416 23.5568C179.416 26.4958 181.564 28.7078 184.251 28.7078C186.905 28.7078 189.275 26.717 189.275 23.5568V23.5568ZM192.024 16.2254V30.983H189.275V28.6446C188.296 30.351 186.147 31.299 184.029 31.299C179.984 31.299 176.635 28.2338 176.635 23.5884C176.635 18.9114 179.953 15.9094 183.998 15.9094C186.21 15.9094 188.296 16.7942 189.275 18.5322V16.2254H192.024Z" fill="white"/>
<mask id="mask0_147_157" style="mask-type:luminance" maskUnits="userSpaceOnUse" x="0" y="0" width="252" height="47">
<path fill-rule="evenodd" clip-rule="evenodd" d="M0 46.8306H251.526V0H0V46.8306Z" fill="white"/>
</mask>
<g mask="url(#mask0_147_157)">
<path fill-rule="evenodd" clip-rule="evenodd" d="M200.619 30.9832H203.368V8.16724H200.619V30.9832Z" fill="white"/>
<path fill-rule="evenodd" clip-rule="evenodd" d="M211.931 30.9832H214.68V8.16724H211.931V30.9832Z" fill="white"/>
<path fill-rule="evenodd" clip-rule="evenodd" d="M234.399 22.4192C234.051 19.8912 232.25 18.5006 229.817 18.5006C227.32 18.5006 225.551 19.7648 225.108 22.4192H234.399ZM237.085 24.7894H225.077C225.487 27.4122 227.383 28.7078 229.911 28.7078C231.713 28.7078 233.387 27.9494 234.209 26.4642L236.611 27.4122C235.315 29.9718 232.661 31.299 229.817 31.299C225.614 31.299 222.232 28.2338 222.232 23.5568C222.232 18.88 225.614 15.9094 229.817 15.9094C234.02 15.9094 237.148 18.88 237.148 23.5568C237.148 23.9676 237.116 24.3784 237.085 24.7894V24.7894Z" fill="white"/>
<path fill-rule="evenodd" clip-rule="evenodd" d="M251.526 18.5955H248.335V30.9831H245.585V18.5955H242.931V16.2255H245.585V10.6321H248.335V16.2255H251.526V18.5955Z" fill="white"/>
</g>
</svg>
