<svg width="253" height="49" viewBox="0 0 253 49" fill="none" xmlns="http://www.w3.org/2000/svg">
<path fill-rule="evenodd" clip-rule="evenodd" d="M43.8898 47.5307H4.9406C2.9298 47.5307 1.2998 45.9007 1.2998 43.8899V4.94065C1.2998 2.93005 2.9298 1.30005 4.9406 1.30005H43.8898C45.9006 1.30005 47.5304 2.93005 47.5304 4.94065V43.8899C47.5304 45.9007 45.9006 47.5307 43.8898 47.5307Z" stroke="#4CFFB3"/>
<path d="M22.6157 31.9949L22.2621 32.3485L22.6157 32.702L22.9692 32.3485L22.6157 31.9949ZM14.9901 24.3691L14.6365 24.0156L14.2829 24.3691L14.6365 24.7227L14.9901 24.3691ZM18.7799 20.5795L19.1334 20.226L18.7799 19.8724L18.4263 20.226L18.7799 20.5795ZM22.6157 24.4153L22.2621 24.7689L22.6157 25.1224L22.9692 24.7689L22.6157 24.4153ZM26.4517 20.5795L26.8052 20.226L26.4517 19.8724L26.0981 20.226L26.4517 20.5795ZM30.2413 24.3691L30.5948 24.7227L30.9484 24.3691L30.5948 24.0156L30.2413 24.3691ZM41.7031 12.9075L42.0566 13.2611L42.4102 12.9075L42.0566 12.554L41.7031 12.9075ZM37.9133 9.11792L38.2668 8.76436L37.9133 8.41082L37.5597 8.76437L37.9133 9.11792ZM34.0775 12.9537L33.7239 13.3073L34.0775 13.6608L34.431 13.3073L34.0775 12.9537ZM30.2413 9.11792L30.5948 8.76435L30.2412 8.41083L29.8877 8.76437L30.2413 9.11792ZM26.4055 12.9537L26.0519 13.3073L26.4055 13.6608L26.759 13.3073L26.4055 12.9537ZM22.6157 9.16412L22.9692 8.81056L22.6157 8.45702L22.2621 8.81056L22.6157 9.16412ZM7.36426 24.4153L7.01071 24.0618L6.65715 24.4153L7.01071 24.7689L7.36426 24.4153ZM22.6157 39.6665L22.2621 40.0201L22.6157 40.3736L22.9692 40.0201L22.6157 39.6665ZM37.8671 24.4153L38.2206 24.7689L38.5742 24.4153L38.2206 24.0618L37.8671 24.4153ZM34.0311 20.5795L33.6775 20.226L33.3239 20.5795L33.6775 20.9331L34.0311 20.5795ZM22.9692 31.6414L15.3436 24.0156L14.6365 24.7227L22.2621 32.3485L22.9692 31.6414ZM15.3436 24.7227L19.1334 20.9331L18.4263 20.226L14.6365 24.0156L15.3436 24.7227ZM18.4263 20.9331L22.2621 24.7689L22.9692 24.0618L19.1334 20.226L18.4263 20.9331ZM22.9692 24.7689L26.8052 20.9331L26.0981 20.226L22.2621 24.0618L22.9692 24.7689ZM26.0981 20.9331L29.8877 24.7227L30.5948 24.0156L26.8052 20.226L26.0981 20.9331ZM29.8877 24.0156L22.2621 31.6414L22.9692 32.3485L30.5948 24.7227L29.8877 24.0156ZM42.0566 12.554L38.2668 8.76436L37.5597 9.47148L41.3495 13.2611L42.0566 12.554ZM37.5597 8.76437L33.7239 12.6002L34.431 13.3073L38.2668 9.47147L37.5597 8.76437ZM34.431 12.6001L30.5948 8.76435L29.8877 9.47149L33.7239 13.3073L34.431 12.6001ZM29.8877 8.76437L26.0519 12.6002L26.759 13.3073L30.5948 9.47147L29.8877 8.76437ZM26.759 12.6002L22.9692 8.81056L22.2621 9.51768L26.0519 13.3073L26.759 12.6002ZM22.2621 8.81056L7.01071 24.0618L7.71781 24.7689L22.9692 9.51768L22.2621 8.81056ZM7.01071 24.7689L22.2621 40.0201L22.9692 39.313L7.71781 24.0618L7.01071 24.7689ZM22.9692 40.0201L38.2206 24.7689L37.5135 24.0618L22.2621 39.313L22.9692 40.0201ZM38.2206 24.0618L34.3846 20.226L33.6775 20.9331L37.5135 24.7689L38.2206 24.0618ZM34.3846 20.9331L42.0566 13.2611L41.3495 12.554L33.6775 20.226L34.3846 20.9331Z" fill="#4CFFB3"/>
<path fill-rule="evenodd" clip-rule="evenodd" d="M76.8001 23.4508V31.983H74.0509V23.6088C74.0509 21.1438 72.5341 19.627 70.4799 19.627C68.4259 19.627 65.9611 20.7964 65.9611 23.988V31.983H63.2119V17.2254H65.9611V19.469C66.8459 17.6678 69.2475 16.9094 70.8591 16.9094C74.5249 16.9094 76.8317 19.311 76.8001 23.4508Z" fill="white"/>
<path fill-rule="evenodd" clip-rule="evenodd" d="M96.3285 23.4192C95.9809 20.8912 94.1797 19.5006 91.7463 19.5006C89.2497 19.5006 87.4803 20.7648 87.0379 23.4192H96.3285ZM99.0147 25.7894H87.0063C87.4169 28.4122 89.3131 29.7078 91.8411 29.7078C93.6423 29.7078 95.3171 28.9494 96.1389 27.4642L98.5407 28.4122C97.2449 30.9718 94.5905 32.299 91.7463 32.299C87.5433 32.299 84.1621 29.2338 84.1621 24.5568C84.1621 19.88 87.5433 16.9094 91.7463 16.9094C95.9493 16.9094 99.0777 19.88 99.0777 24.5568C99.0777 24.9676 99.0461 25.3784 99.0147 25.7894Z" fill="white"/>
<path fill-rule="evenodd" clip-rule="evenodd" d="M118.291 24.5568C118.291 21.5232 116.015 19.5006 113.298 19.5006C110.612 19.5006 108.368 21.5232 108.368 24.5568C108.368 27.6222 110.612 29.7078 113.298 29.7078C116.015 29.7078 118.291 27.6222 118.291 24.5568ZM105.587 24.5568C105.587 19.88 109.095 16.9094 113.298 16.9094C117.501 16.9094 121.04 19.88 121.04 24.5568C121.04 29.2338 117.501 32.299 113.298 32.299C109.095 32.299 105.587 29.2338 105.587 24.5568Z" fill="white"/>
<path fill-rule="evenodd" clip-rule="evenodd" d="M142.242 23.4508V31.983H139.493V23.6088C139.493 21.1438 137.976 19.627 135.922 19.627C133.868 19.627 131.403 20.7964 131.403 23.988V31.983H128.654V17.2254H131.403V19.469C132.288 17.6678 134.69 16.9094 136.301 16.9094C139.967 16.9094 142.274 19.311 142.242 23.4508Z" fill="white"/>
<path fill-rule="evenodd" clip-rule="evenodd" d="M172.201 17.2255L166.702 31.9831H164.395L160.319 21.0175L156.4 31.9831H154.125L148.5 17.2255H151.471L155.231 27.7171L158.992 17.2255H161.678L165.47 27.7171L169.23 17.2255H172.201Z" fill="white"/>
<path fill-rule="evenodd" clip-rule="evenodd" d="M190.275 24.5568C190.275 21.3652 187.684 19.5006 185.251 19.5006C182.564 19.5006 180.416 21.5864 180.416 24.5568C180.416 27.4958 182.564 29.7078 185.251 29.7078C187.905 29.7078 190.275 27.717 190.275 24.5568ZM193.024 17.2254V31.983H190.275V29.6446C189.296 31.351 187.147 32.299 185.029 32.299C180.984 32.299 177.635 29.2338 177.635 24.5884C177.635 19.9114 180.953 16.9094 184.998 16.9094C187.21 16.9094 189.296 17.7942 190.275 19.5322V17.2254H193.024Z" fill="white"/>
<mask id="mask0_901_2716" style="mask-type:luminance" maskUnits="userSpaceOnUse" x="1" y="1" width="252" height="47">
<path fill-rule="evenodd" clip-rule="evenodd" d="M1 47.8306H252.526V1H1V47.8306Z" fill="white"/>
</mask>
<g mask="url(#mask0_901_2716)">
<path fill-rule="evenodd" clip-rule="evenodd" d="M201.618 31.9832H204.367V9.16724H201.618V31.9832Z" fill="white"/>
<path fill-rule="evenodd" clip-rule="evenodd" d="M212.932 31.9832H215.681V9.16724H212.932V31.9832Z" fill="white"/>
<path fill-rule="evenodd" clip-rule="evenodd" d="M235.399 23.4192C235.051 20.8912 233.25 19.5006 230.817 19.5006C228.32 19.5006 226.551 20.7648 226.108 23.4192H235.399ZM238.085 25.7894H226.077C226.487 28.4122 228.383 29.7078 230.911 29.7078C232.713 29.7078 234.387 28.9494 235.209 27.4642L237.611 28.4122C236.315 30.9718 233.661 32.299 230.817 32.299C226.614 32.299 223.232 29.2338 223.232 24.5568C223.232 19.88 226.614 16.9094 230.817 16.9094C235.02 16.9094 238.148 19.88 238.148 24.5568C238.148 24.9676 238.116 25.3784 238.085 25.7894Z" fill="white"/>
<path fill-rule="evenodd" clip-rule="evenodd" d="M252.526 19.5955H249.335V31.9831H246.585V19.5955H243.931V17.2255H246.585V11.6321H249.335V17.2255H252.526V19.5955Z" fill="white"/>
</g>
</svg>
