<svg width="195" height="24" viewBox="0 0 195 24" fill="none" xmlns="http://www.w3.org/2000/svg">
<g clip-path="url(#clip0_279_297)">
<path d="M8.20896 5.05945C14.247 -0.850547 24.038 -0.850547 30.076 5.05945L30.803 5.77045C30.8746 5.83991 30.9316 5.92306 30.9705 6.01496C31.0094 6.10686 31.0295 6.20565 31.0295 6.30545C31.0295 6.40526 31.0094 6.50404 30.9705 6.59595C30.9316 6.68785 30.8746 6.771 30.803 6.84045L28.317 9.27345C28.2436 9.3445 28.1456 9.38424 28.0435 9.38424C27.9414 9.38424 27.8433 9.3445 27.77 9.27345L26.77 8.29445C22.558 4.17245 15.728 4.17245 11.515 8.29445L10.444 9.34245C10.3706 9.4135 10.2726 9.45324 10.1705 9.45324C10.0684 9.45324 9.97028 9.4135 9.89696 9.34245L7.41096 6.90945C7.33929 6.84 7.2823 6.75685 7.24339 6.66495C7.20447 6.57304 7.18442 6.47426 7.18442 6.37445C7.18442 6.27465 7.20447 6.17586 7.24339 6.08396C7.2823 5.99206 7.33929 5.90891 7.41096 5.83945L8.20896 5.05945ZM35.218 10.0905L37.43 12.2565C37.5016 12.3259 37.5586 12.4091 37.5975 12.501C37.6364 12.5929 37.6565 12.6916 37.6565 12.7915C37.6565 12.8913 37.6364 12.99 37.5975 13.0819C37.5586 13.1739 37.5016 13.257 37.43 13.3265L27.454 23.0905C27.3074 23.2328 27.1112 23.3124 26.907 23.3124C26.7027 23.3124 26.5065 23.2328 26.36 23.0905L19.28 16.1605C19.2433 16.1247 19.1942 16.1046 19.143 16.1046C19.0918 16.1046 19.0426 16.1247 19.006 16.1605L11.926 23.0905C11.7794 23.2328 11.5832 23.3124 11.379 23.3124C11.1747 23.3124 10.9785 23.2328 10.832 23.0905L0.854959 13.3265C0.783288 13.257 0.726302 13.1739 0.687387 13.0819C0.648471 12.99 0.628418 12.8913 0.628418 12.7915C0.628418 12.6916 0.648471 12.5929 0.687387 12.501C0.726302 12.4091 0.783288 12.3259 0.854959 12.2565L3.06796 10.0905C3.21442 9.94841 3.41043 9.86898 3.61446 9.86898C3.81848 9.86898 4.01449 9.94841 4.16096 10.0905L11.241 17.0205C11.2776 17.0562 11.3268 17.0763 11.378 17.0763C11.4292 17.0763 11.4783 17.0562 11.515 17.0205L18.595 10.0905C18.7415 9.94812 18.9377 9.86849 19.142 9.86849C19.3462 9.86849 19.5424 9.94812 19.689 10.0905L26.77 17.0205C26.8066 17.0562 26.8558 17.0763 26.907 17.0763C26.9582 17.0763 27.0073 17.0562 27.044 17.0205L34.124 10.0905C34.2705 9.94812 34.4667 9.86849 34.671 9.86849C34.8752 9.86849 35.0714 9.94812 35.218 10.0905ZM50.963 19.9405L53.636 9.25045C53.794 8.66045 53.93 8.02645 54.111 7.03045C54.247 8.02645 54.406 8.66045 54.519 9.25045L56.829 19.9405H61.609L65.64 4.08545H61.97L59.751 13.8255C59.5306 14.7521 59.3571 15.6893 59.231 16.6335C59.049 15.5695 58.868 14.7765 58.664 13.8475L56.512 4.08545H51.71L49.377 13.8475C49.168 14.7705 48.9869 15.6995 48.834 16.6335C48.6807 15.6995 48.4993 14.7704 48.29 13.8475L46.116 4.08545H42.288L46.297 19.9405H50.963ZM68.376 20.3485C70.188 20.3485 71.343 19.6005 71.932 18.5135C71.864 18.8535 71.842 19.1935 71.842 19.5335V19.9405H74.877V13.3945C74.877 10.2695 73.45 8.45745 69.962 8.45745C66.949 8.45745 64.979 10.1335 64.798 12.4435H68.128C68.24 11.4235 68.965 10.8135 70.075 10.8135C71.117 10.8135 71.683 11.4015 71.683 12.0815C71.683 12.5795 71.389 12.8735 70.505 12.9865L68.92 13.1685C66.564 13.4625 64.549 14.3235 64.549 16.8145C64.549 19.0795 66.429 20.3485 68.376 20.3485ZM69.396 18.0155C68.512 18.0155 67.856 17.5175 67.856 16.6555C67.856 15.8185 68.603 15.4105 69.736 15.2065L70.506 15.0705C71.162 14.9345 71.525 14.8215 71.751 14.6175V15.6595C71.751 17.0645 70.731 18.0155 69.395 18.0155H69.396ZM76.455 4.08545V19.9405H79.739V4.08545H76.455ZM81.639 4.08545V19.9405H84.923V4.08545H81.639ZM92.092 20.3485C95.218 20.3485 97.233 18.5815 97.46 16.2715H94.153C93.994 17.2905 93.133 17.8565 92.092 17.8565C90.688 17.8565 89.668 16.7245 89.646 15.1615H97.528V14.5275C97.528 10.8575 95.512 8.45745 92.024 8.45745C88.672 8.45745 86.316 10.8125 86.316 14.3685C86.316 18.2185 88.74 20.3485 92.092 20.3485ZM89.622 13.0095C89.759 11.7415 90.688 10.8125 92.002 10.8125C93.27 10.8125 94.152 11.6955 94.176 13.0095H89.622ZM104.479 20.1665C105.204 20.1665 105.906 20.0535 106.223 19.9635V17.4705C105.961 17.5156 105.696 17.5384 105.43 17.5385C104.23 17.5385 103.8 16.8585 103.8 15.7485V11.4005H106.472V8.84045H103.8V4.90045H100.538V8.84045H98.137V11.4005H100.538V16.2025C100.538 18.8295 101.852 20.1665 104.479 20.1665ZM115.565 20.3485C120.05 20.3485 122.768 17.7205 123.108 13.9385H119.552C119.28 15.9985 117.83 17.4035 115.701 17.4035C113.187 17.4035 111.42 15.3655 111.42 11.9225C111.42 8.54745 113.255 6.62245 115.769 6.62245C117.921 6.62245 119.144 7.93645 119.393 9.86145H123.04C122.677 5.92045 119.778 3.67745 115.792 3.67745C111.239 3.67745 107.751 6.75745 107.751 11.9225C107.751 17.2675 110.809 20.3485 115.565 20.3485ZM130.228 20.3485C133.648 20.3485 136.072 18.1965 136.072 14.4365C136.072 10.7445 133.648 8.45645 130.228 8.45645C126.83 8.45645 124.407 10.7445 124.407 14.4365C124.407 18.1965 126.808 20.3485 130.228 20.3485ZM130.228 17.8115C128.71 17.8115 127.736 16.5655 127.736 14.4365C127.736 12.2625 128.756 11.0395 130.228 11.0395C131.723 11.0395 132.742 12.2625 132.742 14.4365C132.742 16.5665 131.745 17.8115 130.228 17.8115ZM140.65 19.9405V13.4405C140.65 12.0585 141.511 11.0395 142.734 11.0395C143.889 11.0395 144.569 11.9225 144.569 13.3945V19.9405H147.853V12.9195C147.853 10.2465 146.449 8.45645 143.934 8.45645C142.19 8.45645 141.126 9.29445 140.56 10.2915C140.618 9.95457 140.649 9.61337 140.65 9.27145V8.84145H137.366V19.9405H140.65ZM153.102 19.9405V13.4405C153.102 12.0585 153.962 11.0395 155.185 11.0395C156.341 11.0395 157.02 11.9225 157.02 13.3945V19.9405H160.304V12.9195C160.304 10.2465 158.9 8.45645 156.386 8.45645C154.642 8.45645 153.577 9.29445 153.011 10.2915C153.079 9.88345 153.102 9.56645 153.102 9.27145V8.84145H149.817V19.9405H153.102ZM167.371 20.3485C170.496 20.3485 172.512 18.5815 172.739 16.2715H169.432C169.273 17.2905 168.413 17.8565 167.371 17.8565C165.966 17.8565 164.947 16.7245 164.925 15.1615H172.807V14.5275C172.807 10.8575 170.791 8.45745 167.303 8.45745C163.951 8.45745 161.595 10.8125 161.595 14.3685C161.595 18.2185 164.019 20.3485 167.371 20.3485ZM164.902 13.0095C165.038 11.7415 165.966 10.8125 167.28 10.8125C168.548 10.8125 169.432 11.6955 169.454 13.0095H164.902ZM179.859 20.3485C183.302 20.3485 185.182 18.4685 185.544 15.5465H182.26C182.146 16.7695 181.444 17.8115 179.972 17.8115C178.477 17.8115 177.458 16.4295 177.458 14.3915C177.458 12.1715 178.636 11.0395 180.04 11.0395C181.422 11.0395 182.101 12.0355 182.192 13.1905H185.476C185.227 10.4955 183.392 8.45645 180.017 8.45645C176.733 8.45645 174.128 10.6315 174.128 14.3915C174.128 18.1055 176.325 20.3485 179.859 20.3485ZM192.648 20.1665C193.373 20.1665 194.075 20.0535 194.392 19.9635V17.4705C194.13 17.5156 193.865 17.5383 193.599 17.5385C192.399 17.5385 191.968 16.8585 191.968 15.7485V11.4005H194.641V8.84045H191.968V4.90045H188.707V8.84045H186.306V11.4005H188.707V16.2025C188.707 18.8295 190.02 20.1665 192.648 20.1665Z" fill="white"/>
</g>
<defs>
<clipPath id="clip0_279_297">
<rect width="195" height="24" fill="white"/>
</clipPath>
</defs>
</svg>
