<?xml version="1.0" encoding="UTF-8"?>
<svg width="30px" height="31px" viewBox="0 0 30 31" version="1.1" xmlns="http://www.w3.org/2000/svg" xmlns:xlink="http://www.w3.org/1999/xlink">
    <title></title>
    <g id="Page-1" stroke="none" stroke-width="1" fill="none" fill-rule="evenodd">
        <g id="4.3-Send-Dark-QR---B-Copy" transform="translate(-795.000000, -480.000000)" fill="#00E599" fill-rule="nonzero">
            <path d="M810,510.875 C812.070312,510.875 814.018555,510.484375 815.844727,509.703125 C817.670898,508.921875 819.262695,507.852539 820.620117,506.495117 C821.977539,505.137695 823.046875,503.545898 823.828125,501.719727 C824.609375,499.893555 825,497.945312 825,495.875 C825,493.804688 824.609375,491.856445 823.828125,490.030273 C823.046875,488.204102 821.977539,486.612305 820.620117,485.254883 C819.262695,483.897461 817.670898,482.828125 815.844727,482.046875 C814.018555,481.265625 812.070312,480.875 810,480.875 C807.929688,480.875 805.981445,481.265625 804.155273,482.046875 C802.329102,482.828125 800.737305,483.897461 799.379883,485.254883 C798.022461,486.612305 796.953125,488.204102 796.171875,490.030273 C795.390625,491.856445 795,493.804688 795,495.875 C795,497.945312 795.390625,499.893555 796.171875,501.719727 C796.953125,503.545898 798.022461,505.137695 799.379883,506.495117 C800.737305,507.852539 802.329102,508.921875 804.155273,509.703125 C805.981445,510.484375 807.929688,510.875 810,510.875 Z M810,509.029297 C808.183594,509.029297 806.479492,508.682617 804.887695,507.989258 C803.295898,507.295898 801.90918,506.353516 800.727539,505.162109 C799.545898,503.970703 798.608398,502.579102 797.915039,500.987305 C797.22168,499.395508 796.875,497.691406 796.875,495.875 C796.875,494.058594 797.22168,492.354492 797.915039,490.762695 C798.608398,489.170898 799.545898,487.78418 800.727539,486.602539 C801.90918,485.420898 803.295898,484.483398 804.887695,483.790039 C806.479492,483.09668 808.183594,482.75 810,482.75 C811.816406,482.75 813.520508,483.09668 815.112305,483.790039 C816.704102,484.483398 818.09082,485.420898 819.272461,486.602539 C820.454102,487.78418 821.391602,489.170898 822.084961,490.762695 C822.77832,492.354492 823.125,494.058594 823.125,495.875 C823.125,497.691406 822.77832,499.395508 822.084961,500.987305 C821.391602,502.579102 820.454102,503.970703 819.272461,505.162109 C818.09082,506.353516 816.704102,507.295898 815.112305,507.989258 C813.520508,508.682617 811.816406,509.029297 810,509.029297 Z M807.202148,501.529297 C807.46582,501.529297 807.685547,501.431641 807.861328,501.236328 C807.880859,501.216797 807.900391,501.197266 807.919922,501.177734 C807.939453,501.158203 807.958984,501.138672 807.978516,501.119141 L817.324219,491.714844 C817.5,491.539062 817.587891,491.319336 817.587891,491.055664 C817.587891,490.791992 817.5,490.572266 817.324219,490.396484 C817.128906,490.201172 816.904297,490.103516 816.650391,490.103516 C816.396484,490.103516 816.171875,490.201172 815.976562,490.396484 L807.1875,499.244141 L803.232422,495.289062 C803.037109,495.09375 802.8125,494.996094 802.558594,494.996094 C802.304688,494.996094 802.080078,495.09375 801.884766,495.289062 C801.708984,495.464844 801.621094,495.68457 801.621094,495.948242 C801.621094,496.211914 801.708984,496.431641 801.884766,496.607422 L806.542969,501.236328 C806.71875,501.431641 806.938477,501.529297 807.202148,501.529297 Z" id=""></path>
        </g>
    </g>
</svg>