<?xml version="1.0" encoding="UTF-8"?>
<svg width="253px" height="49px" viewBox="0 0 253 49" version="1.1" xmlns="http://www.w3.org/2000/svg" xmlns:xlink="http://www.w3.org/1999/xlink">
    <title>Group 22</title>
    <defs>
        <polygon id="path-1" points="0 46.8306042 251.526022 46.8306042 251.526022 0 0 0"></polygon>
    </defs>
    <g id="Page-1" stroke="none" stroke-width="1" fill="none" fill-rule="evenodd">
        <g id="1.0-Login-Dark---D2" transform="translate(-513.000000, -126.000000)">
            <g id="Group-22" transform="translate(514.000000, 127.000000)">
                <path d="M42.8899638,46.5306442 L3.94076035,46.5306442 C1.92996017,46.5306442 0.299960027,44.900644 0.299960027,42.8898438 L0.299960027,3.94064035 C0.299960027,1.93004017 1.92996017,0.300040027 3.94076035,0.300040027 L42.8899638,0.300040027 C44.900764,0.300040027 46.5305642,1.93004017 46.5305642,3.94064035 L46.5305642,42.8898438 C46.5305642,44.900644 44.900764,46.5306442 42.8899638,46.5306442 Z" id="Stroke-1" stroke="#4CFFB3"></path>
                <path d="M21.6153619,30.9949028 L13.9897613,23.3691021 L17.7795616,19.5795018 L21.6153619,23.4153021 L25.4513623,19.5795018 L29.2409626,23.3691021 L21.6153619,30.9949028 Z M40.7027636,11.9075011 L36.9129633,8.11790073 L33.077163,11.9537011 L29.2409626,8.11790073 L25.4051623,11.9537011 L21.6153619,8.16410073 L6.36396057,23.4153021 L21.6153619,38.6665035 L36.8667633,23.4153021 L33.030763,19.5795018 L40.7027636,11.9075011 Z" id="Stroke-3" stroke="#4CFFB3"></path>
                <path d="M75.7997468,22.450862 L75.7997468,30.9830628 L73.0505465,30.9830628 L73.0505465,22.608862 C73.0505465,20.1438618 71.5337464,18.6270617 69.4795462,18.6270617 C67.425546,18.6270617 64.9607458,19.7964618 64.9607458,22.9880621 L64.9607458,30.9830628 L62.2115456,30.9830628 L62.2115456,16.2254615 L64.9607458,16.2254615 L64.9607458,18.4690617 C65.8455459,16.6678615 68.2471461,15.9094614 69.8587462,15.9094614 C73.5245466,15.9094614 75.8313468,18.3110616 75.7997468,22.450862" id="Fill-5" fill="#FFFFFF"></path>
                <path d="M95.3284485,22.419222 C94.9808485,19.8912218 93.1796483,18.5006217 90.7462481,18.5006217 C88.2496479,18.5006217 86.4802477,19.7648218 86.0378477,22.419222 L95.3284485,22.419222 Z M98.0146488,24.7894222 L86.0062477,24.7894222 C86.4168477,27.4122225 88.3130479,28.7078226 90.8410481,28.7078226 C92.6422483,28.7078226 94.3170484,27.9494225 95.1388485,26.4642224 L97.5406487,27.4122225 C96.2448486,29.9718227 93.5904484,31.2990228 90.7462481,31.2990228 C86.5432477,31.2990228 83.1620474,28.2338225 83.1620474,23.5568221 C83.1620474,18.8800217 86.5432477,15.9094214 90.7462481,15.9094214 C94.9492485,15.9094214 98.0776488,18.8800217 98.0776488,23.5568221 C98.0776488,23.9676221 98.0460488,24.3784222 98.0146488,24.7894222 L98.0146488,24.7894222 Z" id="Fill-7" fill="#FFFFFF"></path>
                <path d="M117.29037,23.5568221 C117.29037,20.5232218 115.01517,18.5006217 112.29737,18.5006217 C109.61137,18.5006217 107.36777,20.5232218 107.36777,23.5568221 C107.36777,26.6222224 109.61137,28.7078226 112.29737,28.7078226 C115.01517,28.7078226 117.29037,26.6222224 117.29037,23.5568221 M104.586769,23.5568221 C104.586769,18.8800217 108.09457,15.9094214 112.29737,15.9094214 C116.50037,15.9094214 120.039771,18.8800217 120.039771,23.5568221 C120.039771,28.2338225 116.50037,31.2990228 112.29737,31.2990228 C108.09457,31.2990228 104.586769,28.2338225 104.586769,23.5568221" id="Fill-9" fill="#FFFFFF"></path>
                <path d="M141.242913,22.450862 L141.242913,30.9830628 L138.493712,30.9830628 L138.493712,22.608862 C138.493712,20.1438618 136.976912,18.6270617 134.922712,18.6270617 C132.868712,18.6270617 130.403912,19.7964618 130.403912,22.9880621 L130.403912,30.9830628 L127.654711,30.9830628 L127.654711,16.2254615 L130.403912,16.2254615 L130.403912,18.4690617 C131.288712,16.6678615 133.690312,15.9094614 135.301912,15.9094614 C138.967712,15.9094614 141.274513,18.3110616 141.242913,22.450862" id="Fill-11" fill="#FFFFFF"></path>
                <polygon id="Fill-13" fill="#FFFFFF" points="171.200335 16.2254615 165.701735 30.9830628 163.394935 30.9830628 159.318334 20.0174618 155.399734 30.9830628 153.124534 30.9830628 147.499533 16.2254615 150.470133 16.2254615 154.230534 26.7170624 157.991134 16.2254615 160.677134 16.2254615 164.469335 26.7170624 168.229735 16.2254615"></polygon>
                <path d="M189.275137,23.5568221 C189.275137,20.3652218 186.683737,18.5006217 184.250536,18.5006217 C181.564336,18.5006217 179.415536,20.5864218 179.415536,23.5568221 C179.415536,26.4958224 181.564336,28.7078226 184.250536,28.7078226 C186.904937,28.7078226 189.275137,26.7170224 189.275137,23.5568221 L189.275137,23.5568221 Z M192.024337,16.2254215 L192.024337,30.9830228 L189.275137,30.9830228 L189.275137,28.6446226 C188.295537,30.3510227 186.146537,31.2990228 184.029336,31.2990228 C179.984336,31.2990228 176.634736,28.2338225 176.634736,23.5884221 C176.634736,18.9114217 179.952936,15.9094214 183.997736,15.9094214 C186.209737,15.9094214 188.295537,16.7942215 189.275137,18.5322217 L189.275137,16.2254215 L192.024337,16.2254215 Z" id="Fill-15" fill="#FFFFFF"></path>
                <mask id="mask-2" fill="white">
                    <use xlink:href="#path-1"></use>
                </mask>
                <g id="Clip-18"></g>
                <polygon id="Fill-17" fill="#FFFFFF" mask="url(#mask-2)" points="200.618618 30.9832028 203.367818 30.9832028 203.367818 8.16720073 200.618618 8.16720073"></polygon>
                <polygon id="Fill-19" fill="#FFFFFF" mask="url(#mask-2)" points="211.931219 30.9832028 214.680419 30.9832028 214.680419 8.16720073 211.931219 8.16720073"></polygon>
                <path d="M234.398781,22.419222 C234.051181,19.8912218 232.249981,18.5006217 229.816581,18.5006217 C227.31998,18.5006217 225.55058,19.7648218 225.10818,22.419222 L234.398781,22.419222 Z M237.084981,24.7894222 L225.07658,24.7894222 C225.48718,27.4122225 227.38338,28.7078226 229.911381,28.7078226 C231.712581,28.7078226 233.387381,27.9494225 234.209181,26.4642224 L236.610981,27.4122225 C235.315181,29.9718227 232.660781,31.2990228 229.816581,31.2990228 C225.61358,31.2990228 222.23238,28.2338225 222.23238,23.5568221 C222.23238,18.8800217 225.61358,15.9094214 229.816581,15.9094214 C234.019581,15.9094214 237.147981,18.8800217 237.147981,23.5568221 C237.147981,23.9676221 237.116381,24.3784222 237.084981,24.7894222 L237.084981,24.7894222 Z" id="Fill-20" fill="#FFFFFF" mask="url(#mask-2)"></path>
                <polygon id="Fill-21" fill="#FFFFFF" mask="url(#mask-2)" points="251.526122 18.5954817 248.334522 18.5954817 248.334522 30.9830828 245.585122 30.9830828 245.585122 18.5954817 242.930522 18.5954817 242.930522 16.2254815 245.585122 16.2254815 245.585122 10.632081 248.334522 10.632081 248.334522 16.2254815 251.526122 16.2254815"></polygon>
            </g>
        </g>
    </g>
</svg>