<?xml version="1.0" encoding="UTF-8"?>
<svg xmlns="http://www.w3.org/2000/svg" xmlns:xlink="http://www.w3.org/1999/xlink" width="512px" height="512px" viewBox="0 0 512 512" version="1.1">
<g id="surface1">
<rect x="0" y="0" width="512" height="512" style="fill:rgb(100%,100%,100%);fill-opacity:1;stroke:none;"/>
<path style=" stroke:none;fill-rule:nonzero;fill:rgb(0%,0%,0%);fill-opacity:1;" d="M 292.5 378.375 L 374.296875 378.375 L 374.296875 296.582031 L 292.5 296.582031 Z M 292.5 378.375 "/>
<path style=" stroke:none;fill-rule:nonzero;fill:rgb(0%,0%,0%);fill-opacity:1;" d="M 373.710938 142.078125 L 213.125 142.070312 L 138.238281 142.078125 L 138.238281 455.621094 L 222.515625 455.621094 L 222.515625 226.347656 L 373.710938 226.347656 Z M 373.710938 142.078125 "/>
<path style=" stroke:none;fill-rule:nonzero;fill:rgb(0%,0%,0%);fill-opacity:1;" d="M 435.804688 56.378906 L 350.105469 56.378906 L 350.105469 142.078125 L 435.804688 142.078125 Z M 435.804688 56.378906 "/>
<path style=" stroke:none;fill-rule:nonzero;fill:rgb(0%,0%,0%);fill-opacity:1;" d="M 299.894531 142.078125 L 299.894531 56.378906 L 213.125 56.378906 L 213.125 142.078125 Z M 299.894531 142.078125 "/>
<path style=" stroke:none;fill-rule:nonzero;fill:rgb(0%,0%,0%);fill-opacity:1;" d="M 162.1875 142.078125 L 162.1875 56.378906 L 76.144531 56.378906 L 76.144531 142.078125 Z M 162.1875 142.078125 "/>
</g>
</svg>
