<?xml version="1.0" encoding="UTF-8"?>
<svg id="Layer_1" data-name="Layer 1" xmlns="http://www.w3.org/2000/svg" viewBox="0 0 90.22 90.23">
  <defs>
    <style>
      .cls-1 {
        fill: #03b2ec;
      }

      .cls-2 {
        fill: #065fb9;
      }
    </style>
  </defs>
  <path class="cls-1" d="M90.2,35.1c-8.01,0-15.99,0-23.99,0,0-.07,0-.16,0-.25,0-3.51,0-7.02,0-10.53q0-.3-.3-.3c-3.52,0-7.05,0-10.57,0-.08,0-.16,0-.21,0,0-8,0-15.99,0-24C55.15,.01,55.23,0,55.3,0c10.12,0,20.23,0,30.35,0,2.51,0,4.57,2.12,4.57,4.6-.01,10.09,0,20.17,0,30.26,0,.09,0,.19,0,.25Zm-9.07-25.99c-5.66,0-11.33,0-16.98,0,0,1.89,0,3.81,0,5.79,.06-.01,.14-.04,.22-.04,2.28,0,4.55,0,6.83,0,2.28,0,4.05,1.77,4.05,4.05,0,2.33,0,4.67,0,7,0,.06,0,.13,0,.15,1.98,0,3.94,0,5.88,0,0-5.64,0-11.31,0-16.94Z"/>
  <path class="cls-2" d="M90.22,83.84c0-13.95,0-27.89,0-41.84,0-.11-.01-.21-.02-.26-11.05,0-22.06,0-33.09,0,0,.07,0,.18,0,.29,0,4.86,0,9.72,0,14.58q0,.42-.41,.42c-4.84,0-9.68,0-14.52,0-.13,0-.26,0-.35,0,0,.03,0,.05,0,.08-2.76,0-5.53,0-8.29,0q-.42,0-.42-.41c0-2.77,0-5.54,0-8.31,.03,0,.05,0,.08,0,0-.07,0-.18,0-.29,0-4.86,0-9.72,0-14.58q0-.42,.41-.42c4.84,0,9.68,0,14.52,0,.13,0,.26,0,.35,0,0-11.03,0-22.04,0-33.08-.09,0-.22-.01-.35-.01C34.23,0,20.32,.02,6.42,0,3,0,.08,2.83,.08,6.3c0,11.84,0,23.69,0,35.53H.02c0,.09-.01,.22-.01,.35C0,56.08,.02,69.99,0,83.89c0,3.42,2.83,6.34,6.3,6.34,13.95,0,27.89,0,41.84,0,.11,0,.21-.01,.26-.02v-.09c11.83,0,23.66,0,35.49,0,3.42,0,6.34-2.83,6.34-6.3Z"/>
</svg>