<?xml version="1.0" encoding="utf-8"?>
<!-- Generator: Adobe Illustrator 25.3.1, SVG Export Plug-In . SVG Version: 6.00 Build 0)  -->
<svg version="1.1" id="Layer_1" xmlns="http://www.w3.org/2000/svg" xmlns:xlink="http://www.w3.org/1999/xlink" x="0px" y="0px"
	 viewBox="0 0 320 320" style="enable-background:new 0 0 320 320;" xml:space="preserve">
<style type="text/css">
	.st0{fill:#092530;}
	.st1{fill:#FFF039;}
	.st2{fill:#40FFFA;}
	.st3{fill:#B23BFF;}
	.st4{fill:#353535;}
	.st5{fill:#75FF24;}
	.st6{fill:#2970FF;}
</style>
<g id="logo-logo_7_" transform="matrix(1.9211538461538462 0 0 1.9211538461538462 640.4317614291203 512.1918939684978)">
	<g>
		<g transform="matrix(0.16100942290609596 0 0 -0.16100942290609596 0 0)">
			<path class="st0" d="M-1553.17,1604.24l-403.27-232.82V905.76l403.27-232.83l403.28,232.83v465.66L-1553.17,1604.24"/>
		</g>
		<g transform="matrix(0.16100942290609596 0 0 -0.16100942290609596 26.191724842980477 -75.60760985535907)">
			<path class="st1" d="M-1398.9,885.22l-129.69-74.89l-316.95,182.99l129.69,74.88L-1398.9,885.22"/>
		</g>
		<g transform="matrix(0.16100942290609596 0 0 -0.16100942290609596 -52.38377170480669 -60.48721495024762)">
			<path class="st2" d="M-1544.77,979.13l129.69,74.88l129.69-74.88l-129.69-74.88L-1544.77,979.13"/>
		</g>
		<g transform="matrix(0.16100942290609596 0 0 -0.16100942290609596 4.025477086786736 -2.3233659725349582)">
			<path class="st3" d="M-1578.18,1307.15l158.47-91.5v-182.98l-129.7-74.88v182.99l-158.47,91.49L-1578.18,1307.15"/>
		</g>
		<g transform="matrix(0.16100942290609596 0 0 -0.16100942290609596 26.191322319423193 75.60930045429953)">
			<path class="st4" d="M-1687.07,1375.35l129.7,74.88v-149.76l-129.7-74.88V1375.35"/>
		</g>
		<g transform="matrix(0.16100942290609596 0 0 -0.16100942290609596 -52.38377170480669 30.24336596098945)">
			<path class="st5" d="M-1573.54,1492.8l316.94-182.99l0-365.97l-316.94,182.99V1492.8"/>
		</g>
		<g transform="matrix(0.16100942290609596 0 0 -0.16100942290609596 78.5758185666329 15.121843989917664)">
			<path class="st6" d="M-1825.16,958.03V1324l129.69,74.88v-365.97L-1825.16,958.03"/>
		</g>
	</g>
</g>
</svg>
