<?xml version="1.0" encoding="UTF-8" standalone="no"?>
<svg
   xmlns:dc="http://purl.org/dc/elements/1.1/"
   xmlns:cc="http://creativecommons.org/ns#"
   xmlns:rdf="http://www.w3.org/1999/02/22-rdf-syntax-ns#"
   xmlns:svg="http://www.w3.org/2000/svg"
   xmlns="http://www.w3.org/2000/svg"
   viewBox="0 0 628.97333 628.97302"
   height="628.97302"
   width="628.97333"
   xml:space="preserve"
   id="svg2"
   version="1.1"><metadata
     id="metadata8"><rdf:RDF><cc:Work
         rdf:about=""><dc:format>image/svg+xml</dc:format><dc:type
           rdf:resource="http://purl.org/dc/dcmitype/StillImage" /><dc:title></dc:title></cc:Work></rdf:RDF></metadata><defs
     id="defs6" /><g
     transform="matrix(1.3333333,0,0,-1.3333333,0,628.97299)"
     id="g10"><path
       d="m 235.864,408.96098 c -95.446,0 -173.0945,-77.653 -173.0945,-173.098 0,-95.443 77.6485,-173.091004 173.0945,-173.091004 95.445,0 173.094,77.648004 173.094,173.091004 0,95.445 -77.649,173.098 -173.094,173.098 z m 0,-361.430004 c -50.305,0 -97.601,19.588 -133.172,55.161004 -35.5729,35.573 -55.1627,82.866 -55.1627,133.171 0,50.309 19.5898,97.603 55.1627,133.176 35.571,35.569 82.867,55.16 133.172,55.16 50.306,0 97.6,-19.591 133.173,-55.16 35.57,-35.573 55.161,-82.867 55.161,-133.176 0,-50.305 -19.591,-97.598 -55.161,-133.171 C 333.464,67.118976 286.17,47.530976 235.864,47.530976"
       style="fill:#936d1e;fill-opacity:1;fill-rule:nonzero;stroke:none;stroke-width:0.1"
       id="path24" /><path
       d="m 235.864,465.92398 c -126.854,0 -230.05853,-103.205 -230.05853,-230.061 0,-126.851 103.20453,-230.0570043 230.05853,-230.0570043 126.853,0 230.059,103.2060043 230.059,230.0570043 0,126.856 -103.206,230.061 -230.059,230.061 z m 0,-465.924004345704 C 172.863,-2.4345704e-5 113.632,24.535976 69.0824,69.083976 24.5348,113.63298 0,172.86398 0,235.86298 c 0,63.003 24.5348,122.236 69.0824,166.784 44.5496,44.548 103.7806,69.083 166.7816,69.083 63,0 122.233,-24.535 166.781,-69.083 44.548,-44.548 69.084,-103.781 69.084,-166.784 0,-62.999 -24.536,-122.23 -69.084,-166.779004 C 358.097,24.535976 298.864,-2.4345704e-5 235.864,-2.4345704e-5"
       style="fill:#936d1e;fill-opacity:1;fill-rule:nonzero;stroke:none;stroke-width:0.1"
       id="path26" /><path
       d="m 149.907,299.65898 v 22.163 h 61.098 v -22.163 z m -16.772,38.935 v -55.707 h 77.87 v -22.163 h -77.87 v -16.772 h 94.642 v 38.935 16.772 38.935 h -94.642"
       style="fill:#936d1e;fill-opacity:1;fill-rule:nonzero;stroke:none;stroke-width:0.1"
       id="path28" /><path
       d="m 260.725,299.65898 v 22.163 h 61.096 v -22.163 z m -16.771,38.935 v -55.707 h 77.867 v -22.163 h -77.867 v -16.772 h 94.638 v 38.935 16.772 38.935 h -94.638"
       style="fill:#936d1e;fill-opacity:1;fill-rule:nonzero;stroke:none;stroke-width:0.1"
       id="path30" /><path
       d="m 149.907,188.84298 v 22.163 h 61.098 v -22.163 z m -16.772,38.935 v -55.707 h 77.87 v -22.163 h -77.87 v -16.771 h 94.642 v 38.934 16.772 38.935 h -94.642"
       style="fill:#936d1e;fill-opacity:1;fill-rule:nonzero;stroke:none;stroke-width:0.1"
       id="path32" /><path
       d="m 263.419,149.90798 h -19.465 v -16.771 h 19.465 v 16.771"
       style="fill:#936d1e;fill-opacity:1;fill-rule:nonzero;stroke:none;stroke-width:0.1"
       id="path34" /><path
       d="m 321.821,188.84298 h -61.096 v 22.163 h 61.096 z m -77.867,38.935 v -55.707 h 77.867 v -22.163 h -42.529 v -16.771 h 59.3 v 94.641 h -94.638"
       style="fill:#936d1e;fill-opacity:1;fill-rule:nonzero;stroke:none;stroke-width:0.1"
       id="path36" /><path
       d="m 448.345,216.80898 c -0.131,-1.471 -0.275,-2.942 -0.436,-4.41 -0.158,-1.451 -0.334,-2.902 -0.52,-4.347 l -11.387,1.483 c -0.6,-4.601 -1.358,-9.18 -2.277,-13.727 l 11.262,-2.267 c -0.292,-1.449 -0.598,-2.894 -0.918,-4.335 -0.321,-1.426 -0.652,-2.849 -0.999,-4.265 l -11.155,2.733 c -1.105,-4.508 -2.368,-8.972 -3.781,-13.391 l 10.941,-3.5 c -0.45,-1.409 -0.915,-2.813 -1.397,-4.209 -0.471,-1.381 -0.96,-2.756 -1.464,-4.127 l -10.78,3.953 c -1.599,-4.358 -3.349,-8.654 -5.243,-12.888 l 10.487,-4.692 c -0.603,-1.348 -1.223,-2.691 -1.853,-4.027 -0.626,-1.319 -1.262,-2.633 -1.91,-3.937 l -10.28,5.119 c -2.07,-4.152 -4.283,-8.234 -6.634,-12.231 l 9.901,-5.822 c -0.749,-1.272 -1.51,-2.537 -2.283,-3.796 -0.765,-1.242 -1.545,-2.476 -2.335,-3.702 l -9.653,6.22 c -2.514,-3.899 -5.164,-7.713 -7.941,-11.428 l 9.206,-6.872 c -0.886,-1.186 -1.782,-2.358 -2.69,-3.523 -0.897,-1.153 -1.805,-2.296 -2.727,-3.426 l -8.911,7.241 c -2.925,-3.597 -5.976,-7.097 -9.145,-10.488004 l 8.394,-7.841 c -1.005,-1.079 -2.024,-2.149 -3.054,-3.205 -1.017,-1.047 -2.046,-2.08 -3.083,-3.109 l -8.066,8.176 c -3.304,-3.259 -6.721,-6.403 -10.24,-9.428 l 7.488,-8.709 c -1.117,-0.966 -2.251,-1.917 -3.388,-2.854 -1.127,-0.931 -2.261,-1.846 -3.407,-2.752 l -7.122,9.008 c -3.642,-2.878 -7.379,-5.63 -11.207,-8.25 l 6.49,-9.479 c -1.221,-0.832 -2.45,-1.654 -3.684,-2.464 -1.219,-0.799 -2.45,-1.586 -3.689,-2.359 l -6.092,9.732 c -3.93,-2.46 -7.95,-4.784 -12.041,-6.965 l 5.404,-10.133 c -1.303,-0.698 -2.614,-1.378 -3.93,-2.046 -1.304,-0.661 -2.611,-1.307 -3.928,-1.943 l -4.98,10.349 c -4.181,-2.013 -8.429,-3.879 -12.739,-5.597 l 4.252,-10.667 c -1.371,-0.549 -2.752,-1.082 -4.133,-1.599 -1.368,-0.511 -2.742,-1.008 -4.117,-1.493 l -3.804,10.834 c -4.377,-1.539 -8.809,-2.918 -13.279,-4.149 l 3.044,-11.075 c -1.426,-0.392 -2.854,-0.771 -4.29,-1.13 -1.412,-0.356 -2.832,-0.7 -4.251,-1.027 l -2.582,11.19 c -4.521,-1.04 -9.078,-1.927 -13.66,-2.652 l 1.798,-11.345 c -1.457,-0.231 -2.919,-0.446 -4.383,-0.649 -1.445,-0.199 -2.894,-0.382 -4.342,-0.552 l -1.329,11.409 c -4.611,-0.54 -9.238,-0.919 -13.872,-1.134 l 0.543,-11.473 c -1.475,-0.071 -2.948,-0.128 -4.425,-0.167 -1.458,-0.038 -2.916,-0.064 -4.375,-0.074 l -0.078,11.483 c -4.643,-0.029 -9.287,0.094 -13.919,0.379 l -0.698,-11.464 c -1.474,0.087 -2.948,0.193 -4.422,0.315 -1.452,0.118 -2.906,0.25 -4.357,0.402 l 1.168,11.422 c -4.616,0.471 -9.216,1.107 -13.785,1.894 l -1.956,-11.316 c -1.454,0.251 -2.909,0.517 -4.359,0.799 -1.434,0.277 -2.862,0.569 -4.288,0.877 l 2.421,11.226 c -4.534,0.979 -9.036,2.113 -13.49,3.407 l -3.195,-11.033 c -1.42,0.411 -2.836,0.838 -4.245,1.277 -1.394,0.434 -2.781,0.887 -4.167,1.349 l 3.651,10.89 c -4.397,1.473 -8.745,3.101 -13.029,4.88 l -4.399,-10.613 c -1.365,0.569 -2.723,1.147 -4.075,1.741 -1.337,0.587 -2.668,1.188 -3.992,1.805 l 4.836,10.416 c -4.209,1.953 -8.348,4.053 -12.412,6.291 l -5.544,-10.06 c -1.294,0.715 -2.579,1.441 -3.858,2.18 -1.264,0.732 -2.52,1.474 -3.769,2.232 l 5.954,9.819 c -3.966,2.409 -7.85,4.949 -11.642,7.624 l -6.616,-9.39 c -1.208,0.851 -2.408,1.715 -3.597,2.591 -1.174,0.864 -2.341,1.744 -3.497,2.631 l 6.994,9.107 c -3.679,2.825 -7.261,5.783 -10.736,8.856 l -7.6063,-8.609 c -1.1078,0.979 -2.2047,1.968 -3.2914,2.966 -1.0723,0.99 -2.1351,1.992 -3.1887,3 l 7.9508,8.288 c -3.3457,3.211 -6.5859,6.541 -9.707,9.974004 l -8.5,-7.724004 c -0.9922,1.092 -1.975,2.198 -2.9449,3.312 -0.9582,1.098 -1.9071,2.206 -2.8418,3.326 l 8.8082,7.366004 c -2.9766,3.562 -5.8297,7.226 -8.5543,10.98 l -9.2961,-6.747 c -0.8668,1.194 -1.7242,2.398 -2.5656,3.612 -0.8321,1.198 -1.6539,2.408 -2.4614,3.622 l 9.5645,6.356 c -2.5695,3.866 -5.0031,7.819 -7.2988,11.852 l -9.9805,-5.687 c -0.732,1.284 -1.4484,2.575 -2.1535,3.876 -0.6961,1.281 -1.3774,2.572 -2.0469,3.869 l 10.2051,5.263 c -2.1258,4.124 -4.1102,8.32 -5.9473,12.582 l -10.5469,-4.547 c -0.5843,1.358 -1.1543,2.719 -1.7113,4.088 -0.5508,1.354 -1.0867,2.709 -1.607,4.073 l 10.7254,4.104 c -1.6575,4.332 -3.1649,8.721 -4.5168,13.159 l -10.9867,-3.352 c -0.4301,1.416 -0.8477,2.835 -1.2493,4.255 -0.3968,1.406 -0.7773,2.813 -1.1449,4.225 l 11.1152,2.894 c -1.1668,4.489 -2.1789,9.017 -3.0312,13.577 l -11.2887,-2.114 c -0.2715,1.455 -0.5281,2.91 -0.7722,4.368 -0.236,1.438 -0.459,2.88 -0.6696,4.325 l 11.3657,1.644 c -0.6645,4.592 -1.1657,9.206 -1.5137,13.834 l -11.4543,-0.858 c -0.1125,1.474 -0.2039,2.945 -0.2844,4.422 -0.0801,1.455 -0.1441,2.912 -0.1926,4.37 l 11.477,0.392 c -0.1574,4.637 -0.1574,9.284 0,13.92 l -11.4801,0.389 c 0.0481,1.474 0.1141,2.951 0.1957,4.425 0.0785,1.458 0.1703,2.912 0.2813,4.367 l 11.4507,-0.854 c 0.3485,4.627 0.8496,9.242 1.5141,13.833 l -11.3672,1.642 c 0.2117,1.461 0.4379,2.921 0.6774,4.379 0.241,1.439 0.4945,2.877 0.7613,4.313 l 11.2883,-2.11 c 0.8511,4.56 1.866,9.091 3.0312,13.58 l -11.118,2.887 c 0.3719,1.432 0.7579,2.858 1.1606,4.277 0.3965,1.407 0.8074,2.806 1.2312,4.203 l 10.9856,-3.345 c 1.3535,4.437 2.8609,8.823 4.518,13.159 l -10.7286,4.1 c 0.527,1.381 1.0696,2.755 1.6266,4.123 0.5508,1.355 1.1129,2.701 1.691,4.04 l 10.5449,-4.54 c 1.8368,4.257 3.8211,8.455 5.95,12.578 l -10.2093,5.262 c 0.6758,1.314 1.3664,2.621 2.0707,3.918 0.6953,1.284 1.4054,2.559 2.1273,3.828 l 9.9809,-5.681 c 2.2922,4.033 4.7297,7.983 7.2984,11.849 l -9.5672,6.355 c 0.8168,1.23 1.6469,2.454 2.4903,3.667 0.8316,1.198 1.6777,2.386 2.5336,3.568 l 9.296,-6.743 c 2.7247,3.756 5.5793,7.417 8.5563,10.979 l -8.8133,7.366 c 0.9473,1.133 1.9074,2.254 2.877,3.368 0.9605,1.102 1.9269,2.19 2.9097,3.272 l 8.4996,-7.722 c 3.1215,3.435 6.3598,6.762 9.7075,9.976 l -7.9539,8.285 c 1.0656,1.021 2.1418,2.036 3.2269,3.038 1.0762,0.986 2.1582,1.965 3.2516,2.932 l 7.6051,-8.606 c 3.476,3.073 7.058,6.027 10.738,8.853 l -6.998,9.108 c 1.17,0.899 2.352,1.788 3.54,2.663 1.175,0.867 2.36,1.72 3.552,2.56 l 6.617,-9.386 c 3.793,2.675 7.679,5.216 11.646,7.623 l -5.959,9.82 c 1.263,0.766 2.534,1.518 3.814,2.26 1.264,0.729 2.532,1.448 3.811,2.153 l 5.544,-10.056 c 4.064,2.239 8.205,4.337 12.413,6.291 l -4.837,10.418 c 1.338,0.622 2.686,1.232 4.039,1.824 1.336,0.587 2.678,1.161 4.027,1.72 l 4.399,-10.606 c 4.284,1.777 8.633,3.402 13.031,4.879 l -3.655,10.889 c 1.401,0.47 2.805,0.926 4.217,1.366 1.393,0.435 2.79,0.856 4.193,1.264 l 3.197,-11.03 c 4.456,1.291 8.956,2.425 13.49,3.403 l -2.426,11.228 c 1.445,0.313 2.893,0.61 4.343,0.891 1.434,0.278 2.869,0.543 4.308,0.79 l 1.956,-11.314 c 4.572,0.788 9.171,1.421 13.785,1.893 l -1.172,11.426 c 1.471,0.15 2.941,0.284 4.415,0.407 1.452,0.118 2.908,0.222 4.364,0.311 l 0.702,-11.462 c 4.633,0.286 9.275,0.406 13.918,0.377 l 0.075,11.487 c 1.479,-0.012 2.956,-0.037 4.43,-0.076 1.457,-0.039 2.915,-0.095 4.373,-0.162 l -0.543,-11.472 c 4.634,-0.218 9.265,-0.599 13.872,-1.135 l 1.327,11.409 c 1.467,-0.17 2.932,-0.357 4.396,-0.557 1.445,-0.199 2.89,-0.411 4.332,-0.641 l -1.799,-11.341 c 4.583,-0.728 9.14,-1.612 13.66,-2.654 l 2.58,11.193 c 1.438,-0.334 2.876,-0.679 4.309,-1.039 1.416,-0.357 2.825,-0.73 4.232,-1.117 l -3.041,-11.073 c 4.473,-1.23 8.905,-2.612 13.278,-4.15 l 3.805,10.837 c 1.394,-0.488 2.785,-0.994 4.168,-1.511 1.369,-0.51 2.726,-1.039 4.084,-1.578 l -4.251,-10.667 c 4.31,-1.72 8.561,-3.584 12.739,-5.598 l 4.98,10.35 c 1.333,-0.641 2.655,-1.294 3.976,-1.962 1.301,-0.66 2.595,-1.333 3.882,-2.02 l -5.401,-10.134 c 4.091,-2.184 8.112,-4.508 12.045,-6.968 l 6.088,9.738 c 1.256,-0.782 2.498,-1.581 3.734,-2.39 1.221,-0.8 2.435,-1.61 3.639,-2.434 l -6.486,-9.478 c 3.827,-2.62 7.565,-5.372 11.206,-8.253 l 7.123,9.014 c 1.159,-0.918 2.308,-1.843 3.448,-2.784 1.127,-0.928 2.241,-1.869 3.35,-2.82 l -7.486,-8.708 c 3.52,-3.025 6.933,-6.169 10.238,-9.431 l 8.066,8.178 c 1.05,-1.037 2.09,-2.084 3.121,-3.143 1.018,-1.044 2.023,-2.1 3.022,-3.167 l -8.394,-7.841 c 3.166,-3.391 6.217,-6.891 9.146,-10.491 l 8.91,7.248 c 0.934,-1.147 1.853,-2.303 2.759,-3.468 0.895,-1.15 1.782,-2.312 2.655,-3.478 l -9.2,-6.875 c 2.778,-3.715 5.426,-7.53 7.941,-11.431 l 9.653,6.226 c 0.799,-1.24 1.589,-2.489 2.364,-3.747 0.763,-1.243 1.515,-2.493 2.256,-3.751 l -9.899,-5.822 c 2.351,-4.001 4.566,-8.079 6.631,-12.231 l 10.282,5.125 c 0.658,-1.323 1.304,-2.653 1.936,-3.988 0.623,-1.32 1.233,-2.646 1.831,-3.979 l -10.482,-4.691 c 1.892,-4.236 3.645,-8.536 5.241,-12.89 l 10.783,3.953 c 0.508,-1.387 1.002,-2.778 1.48,-4.178 0.479,-1.378 0.935,-2.764 1.381,-4.155 l -10.937,-3.503 c 1.413,-4.416 2.674,-8.882 3.78,-13.391 l 11.155,2.736 c 0.35,-1.435 0.687,-2.874 1.012,-4.316 0.317,-1.422 0.616,-2.851 0.908,-4.28 l -11.258,-2.27 c 0.915,-4.547 1.673,-9.13 2.274,-13.728 l 11.386,1.484 c 0.193,-1.465 0.37,-2.929 0.53,-4.4 0.157,-1.451 0.305,-2.903 0.433,-4.354 l -11.437,-1.015 c 0.404,-4.624 0.661,-9.261 0.751,-13.9 l 11.486,0.234 c 0.029,-1.478 0.045,-2.955 0.045,-4.432 0,-1.458 -0.016,-2.915 -0.045,-4.373 l -11.479,0.231 c -0.097,-4.64 -0.351,-9.277 -0.758,-13.901 z m 3.629,11.611 c 0.084,2.479 0.122,4.961 0.125,7.443 -0.003,2.502 -0.041,5.003 -0.128,7.502 l -11.479,-0.392 c -0.094,2.803 -0.251,5.6 -0.46,8.397 l 11.458,0.858 c -0.187,2.475 -0.415,4.951 -0.685,7.42 -0.272,2.486 -0.588,4.971 -0.947,7.447 l -11.367,-1.644 c -0.402,2.774 -0.861,5.539 -1.374,8.294 l 11.287,2.113 c -0.453,2.44 -0.954,4.874 -1.493,7.302 -0.546,2.441 -1.134,4.878 -1.764,7.299 l -11.116,-2.893 c -0.703,2.713 -1.471,5.411 -2.287,8.092 l 10.989,3.349 c -0.726,2.38 -1.49,4.743 -2.3,7.094 -0.812,2.369 -1.663,4.72 -2.562,7.058 l -10.725,-4.107 c -1.002,2.62 -2.062,5.215 -3.166,7.79 l 10.548,4.547 c -0.986,2.279 -2.01,4.547 -3.07,6.791 -1.072,2.264 -2.18,4.508 -3.327,6.734 l -10.208,-5.269 c -1.284,2.491 -2.623,4.954 -4.007,7.392 l 9.98,5.683 c -1.227,2.158 -2.498,4.297 -3.799,6.413 -1.313,2.129 -2.662,4.239 -4.049,6.32 l -9.563,-6.359 c -1.554,2.335 -3.15,4.637 -4.8,6.904 l 9.299,6.747 c -1.461,2.013 -2.954,3.998 -4.48,5.957 -1.538,1.971 -3.111,3.921 -4.716,5.838 l -8.809,-7.37 c -1.801,2.151 -3.645,4.264 -5.526,6.339 l 8.5,7.722 c -1.67,1.84 -3.369,3.651 -5.103,5.43 -1.743,1.792 -3.519,3.555 -5.324,5.286 l -7.954,-8.288 c -2.02,1.943 -4.084,3.84 -6.185,5.697 l 7.605,8.609 c -1.86,1.644 -3.751,3.256 -5.664,4.836 -1.934,1.593 -3.889,3.149 -5.874,4.674 l -6.997,-9.109 c -2.225,1.705 -4.48,3.369 -6.772,4.984 l 6.618,9.388 c -2.03,1.431 -4.085,2.827 -6.163,4.188 -2.093,1.371 -4.213,2.705 -6.354,4.002 l -5.953,-9.822 c -2.396,1.453 -4.824,2.856 -7.277,4.211 l 5.545,10.059 c -2.177,1.197 -4.373,2.36 -6.589,3.484 -2.231,1.132 -4.486,2.225 -6.756,3.277 l -4.833,-10.419 c -2.543,1.182 -5.112,2.306 -7.697,3.38 l 4.397,10.611 c -2.293,0.952 -4.609,1.864 -6.934,2.736 -2.344,0.877 -4.704,1.716 -7.08,2.511 l -3.648,-10.892 c -2.659,0.893 -5.334,1.726 -8.028,2.508 l 3.198,11.032 c -2.385,0.692 -4.784,1.342 -7.192,1.95 -2.428,0.612 -4.865,1.184 -7.313,1.71 l -2.42,-11.228 c -2.74,0.592 -5.495,1.125 -8.256,1.603 l 1.956,11.318 c -2.448,0.422 -4.905,0.806 -7.367,1.141 -2.476,0.342 -4.964,0.637 -7.454,0.893 l -1.165,-11.426 c -2.791,0.283 -5.584,0.513 -8.384,0.683 l 0.704,11.465 c -2.48,0.153 -4.958,0.261 -7.444,0.328 -2.499,0.069 -4.999,0.091 -7.501,0.077 l 0.08,-11.486 c -2.803,-0.022 -5.606,-0.095 -8.406,-0.231 l -0.544,11.475 c -2.481,-0.118 -4.958,-0.28 -7.434,-0.481 -2.493,-0.205 -4.985,-0.448 -7.469,-0.74 l 1.331,-11.409 c -2.784,-0.322 -5.562,-0.71 -8.33,-1.146 l -1.798,11.345 c -2.455,-0.392 -4.903,-0.819 -7.341,-1.294 -2.458,-0.477 -4.906,-0.999 -7.347,-1.559 l 2.584,-11.193 c -2.731,-0.632 -5.452,-1.316 -8.152,-2.059 l -3.044,11.075 c -2.397,-0.657 -4.781,-1.36 -7.153,-2.099 -2.389,-0.747 -4.765,-1.537 -7.127,-2.365 l 3.805,-10.836 c -2.642,-0.933 -5.269,-1.912 -7.872,-2.952 l -4.253,10.67 c -2.309,-0.918 -4.6,-1.88 -6.875,-2.879 -2.293,-1.005 -4.566,-2.053 -6.822,-3.139 l 4.984,-10.348 c -2.525,-1.218 -5.028,-2.484 -7.5,-3.805 l -5.404,10.137 c -2.194,-1.171 -4.366,-2.377 -6.516,-3.623 -2.166,-1.251 -4.309,-2.543 -6.432,-3.871 l 6.095,-9.736 c -2.376,-1.487 -4.72,-3.025 -7.036,-4.607 l -6.487,9.48 c -2.049,-1.405 -4.077,-2.842 -6.076,-4.316 -2.015,-1.483 -4.006,-2.999 -5.966,-4.553 l 7.125,-9.008 c -2.2,-1.741 -4.362,-3.523 -6.488,-5.354 l -7.4883,8.713 c -1.8836,-1.619 -3.7379,-3.27 -5.5653,-4.952 -1.8398,-1.696 -3.6507,-3.423 -5.4332,-5.18 l 8.07,-8.175 c -1.9942,-1.972 -3.9512,-3.979 -5.8637,-6.031 l -8.3953,7.842 c -1.6942,-1.815 -3.3606,-3.661 -4.9918,-5.533 -1.6442,-1.885 -3.2543,-3.802 -4.8324,-5.742 l 8.9136,-7.244 c -1.7691,-2.174 -3.4906,-4.386 -5.1695,-6.634 l -9.2031,6.875 c -1.484,-1.991 -2.9387,-4.007 -4.3547,-6.046 -1.4274,-2.056 -2.8207,-4.136 -4.1742,-6.24 l 9.6543,-6.219 c -1.5207,-2.358 -2.9899,-4.747 -4.411,-7.162 l -9.8996,5.822 c -1.2617,-2.141 -2.482,-4.306 -3.6672,-6.492 -1.1926,-2.197 -2.3476,-4.419 -3.4633,-6.661 l 10.2825,-5.121 c -1.2477,-2.508 -2.4504,-5.042 -3.5918,-7.601 l -10.4844,4.692 c -1.0184,-2.267 -1.991,-4.554 -2.9285,-6.856 -0.943,-2.319 -1.8434,-4.653 -2.7071,-7.004 l 10.7864,-3.953 c -0.9621,-2.633 -1.8754,-5.282 -2.7281,-7.954 l -10.9383,3.503 c -0.7602,-2.366 -1.4758,-4.746 -2.15,-7.138 -0.6809,-2.408 -1.3184,-4.829 -1.9141,-7.263 l 11.157,-2.73 c -0.6648,-2.723 -1.2781,-5.459 -1.8304,-8.207 l -11.2582,2.267 c -0.4926,-2.434 -0.9375,-4.878 -1.3489,-7.331 -0.4043,-2.47 -0.7734,-4.946 -1.0945,-7.428 l 11.3895,-1.48 c -0.3625,-2.781 -0.6645,-5.568 -0.9149,-8.359 l -11.4414,1.015 c -0.2168,-2.476 -0.3965,-4.955 -0.5301,-7.433 -0.1359,-2.496 -0.2277,-4.997 -0.2793,-7.499 l 11.4852,-0.228 c -0.0566,-2.803 -0.0566,-5.606 0.0016,-8.41 l -11.4832,-0.234 c 0.05,-2.483 0.1414,-4.964 0.2757,-7.44 0.1336,-2.502 0.3153,-4.997 0.5348,-7.489 l 11.443,1.018 c 0.2492,-2.794 0.5523,-5.577 0.9156,-8.358 l -11.3902,-1.484 c 0.3195,-2.466 0.6871,-4.922 1.0882,-7.373 0.4125,-2.472 0.861,-4.932 1.3586,-7.385 l 11.2582,2.27 c 0.5543,-2.749 1.1676,-5.485 1.8336,-8.208 l -11.1554,-2.732 c 0.591,-2.415 1.223,-4.817 1.8996,-7.209 0.6793,-2.412 1.4,-4.807 2.166,-7.19 l 10.9371,3.503 c 0.8539,-2.668 1.7687,-5.321 2.7293,-7.954 l -10.7832,-3.952 c 0.8574,-2.332 1.7516,-4.653 2.6879,-6.952 0.9437,-2.318 1.925,-4.624 2.9508,-6.907 l 10.4812,4.695 c 1.1445,-2.56 2.3457,-5.093 3.5949,-7.601 l -10.2808,-5.125 c 1.1082,-2.222 2.2547,-4.428 3.4394,-6.612 1.1946,-2.199 2.4242,-4.38 3.693,-6.534 l 9.9027,5.821 c 1.4196,-2.415 2.8903,-4.804 4.4094,-7.157 l -9.6527,-6.227 c 1.3457,-2.087 2.7293,-4.152 4.1453,-6.191 1.4273,-2.055 2.8902,-4.084 4.3883,-6.091 l 9.2015,6.875 c 1.6793,-2.241 3.4004,-4.457 5.1699,-6.632 l -8.9113,-7.247004 c 1.5672,-1.924 3.166,-3.827 4.7977,-5.696 1.6437,-1.889 3.3203,-3.744 5.0289,-5.571 l 8.3937,7.838 c 1.9102,-2.049 3.8692,-4.056 5.8633,-6.024 l -8.0644,-8.179 c 1.7675,-1.744 3.5656,-3.459 5.3925,-5.141 1.8407,-1.696 3.709,-3.359 5.6071,-4.99 l 7.4845,8.714 c 2.126,-1.827 4.291,-3.612 6.49,-5.349 l -7.122,-9.01 c 1.946,-1.542 3.924,-3.048 5.923,-4.521 2.015,-1.484 4.056,-2.929 6.12,-4.345 l 6.485,9.479 c 2.315,-1.58 4.66,-3.118 7.037,-4.605 l -6.091,-9.735 c 2.107,-1.318 4.234,-2.602 6.385,-3.844 2.166,-1.253 4.354,-2.47 6.564,-3.646 l 5.403,10.135 c 2.472,-1.319 4.975,-2.585 7.499,-3.802 l -4.98,-10.349 c 2.238,-1.077 4.495,-2.117 6.772,-3.116 2.293,-1.004 4.601,-1.974 6.926,-2.899 l 4.249,10.674 c 2.604,-1.04 5.23,-2.023 7.875,-2.951 l -3.805,-10.837 c 2.346,-0.823 4.706,-1.607 7.077,-2.348 2.389,-0.745 4.79,-1.451 7.206,-2.113 l 3.039,11.075 c 2.704,-0.741 5.421,-1.426 8.153,-2.055 l -2.578,-11.194 c 2.421,-0.556 4.852,-1.075 7.292,-1.548 2.457,-0.478 4.923,-0.908 7.394,-1.304 l 1.797,11.345 c 2.767,-0.436 5.545,-0.818 8.329,-1.142 l -1.327,-11.41 c 2.467,-0.289 4.938,-0.53 7.412,-0.735 2.495,-0.202 4.99,-0.363 7.49,-0.481 l 0.542,11.472 c 2.799,-0.131 5.603,-0.205 8.406,-0.224 l -0.077,-11.487 c 2.484,-0.015 4.967,0.007 7.446,0.075 2.501,0.067 4.999,0.179 7.497,0.334 l -0.703,11.463 c 2.797,0.17 5.591,0.402 8.382,0.684 l 1.168,-11.425 c 2.473,0.254 4.94,0.549 7.399,0.886 2.482,0.341 4.955,0.729 7.42,1.153 l -1.958,11.316 c 2.762,0.482 5.514,1.014 8.256,1.605 l 2.421,-11.228 c 2.431,0.526 4.849,1.091 7.261,1.701 2.427,0.61 4.842,1.268 7.244,1.962 l -3.198,11.034 c 2.69,0.783 5.369,1.615 8.024,2.511 l 3.655,-10.893 c 2.356,0.79 4.697,1.622 7.025,2.495 2.345,0.877 4.673,1.796 6.984,2.756 l -4.402,10.609 c 2.588,1.076 5.157,2.2 7.697,3.381 l 4.839,-10.417 c 2.251,1.047 4.486,2.133 6.705,3.257 2.232,1.13 4.445,2.302 6.638,3.51 l -5.549,10.056 c 2.453,1.356 4.881,2.759 7.276,4.214 l 5.956,-9.823 c 2.124,1.291 4.23,2.614 6.307,3.976 2.094,1.367 4.162,2.777 6.208,4.218 l -6.622,9.387 c 2.293,1.615 4.547,3.281 6.773,4.987 l 6.997,-9.107 c 1.971,1.513 3.914,3.061 5.832,4.64 1.929,1.592 3.834,3.215 5.706,4.875 l -7.608,8.602 c 2.1,1.86 4.161,3.757 6.185,5.7 l 7.954,-8.288 c 1.792,1.718 3.555,3.471 5.285,5.25 1.747,1.792 3.459,3.617 5.142,5.469 l -8.504,7.72 c 1.886,2.077004 3.725,4.190004 5.523,6.342004 l 8.812,-7.370004 c 1.593,1.908 3.156,3.840004 4.681,5.799004 1.538,1.972 3.044,3.972 4.512,5.998 l -9.3,6.745 c 1.648,2.269 3.247,4.572 4.798,6.906 l 9.567,-6.358 c 1.374,2.072 2.712,4.165 4.016,6.278 1.314,2.132 2.588,4.284 3.828,6.461 l -9.983,5.68 c 1.384,2.434 2.723,4.901 4.007,7.392 l 10.209,-5.266 c 1.139,2.209 2.237,4.438 3.3,6.682 1.07,2.265 2.1,4.547 3.089,6.847 l -10.548,4.544 c 1.108,2.574 2.165,5.168 3.166,7.786 l 10.728,-4.104 c 0.887,2.321 1.734,4.659 2.54,7.006 0.817,2.37 1.583,4.753 2.316,7.148 l -10.989,3.346 c 0.816,2.682 1.58,5.379 2.283,8.092 l 11.118,-2.89 c 0.626,2.406 1.207,4.824 1.75,7.248 0.542,2.444 1.047,4.897 1.506,7.357 l -11.292,2.109 c 0.515,2.752 0.974,5.52 1.375,8.295 l 11.368,-1.644 c 0.356,2.459 0.668,4.925 0.937,7.395 0.274,2.485 0.501,4.977 0.688,7.472 l -11.454,0.857 c 0.209,2.794 0.362,5.594 0.453,8.398 l 11.482,-0.389"
       style="fill:#936d1e;fill-opacity:1;fill-rule:nonzero;stroke:none;stroke-width:0.1"
       id="path38" /></g></svg>