<?xml version="1.0" encoding="UTF-8"?>
<svg width="91px" height="31px" viewBox="0 0 91 31" version="1.1" xmlns="http://www.w3.org/2000/svg" xmlns:xlink="http://www.w3.org/1999/xlink">
    <title>Group 7</title>
    <g id="Page-1" stroke="none" stroke-width="1" fill="none" fill-rule="evenodd">
        <g id="2.0-Home-Dark-New-features-overlay-Copy" transform="translate(-302.000000, -506.000000)">
            <g id="Group-7" transform="translate(302.000000, 506.500000)">
                <path d="M3.99999976,0 L86.3999949,0 C88.6091337,-4.05812226e-16 90.3999946,1.79086089 90.3999946,3.99999976 L90.3999946,26.0000002 C90.3999946,28.2091391 88.6091337,30 86.3999949,30 L3.99999976,30 C1.79086089,30 2.70541484e-16,28.2091391 0,26.0000002 L0,3.99999976 C-2.70541484e-16,1.79086089 1.79086089,4.05812226e-16 3.99999976,0 Z" id="Rectangle" fill="#4CFFB3"></path>
                <g id="Group-17" transform="translate(28.500000, 9.500000)" fill="#394152">
                    <path d="M8.44199831,5.12596563 L4.75868098,5.12596563 C4.66376266,5.12596563 4.58661111,5.20282196 4.58661111,5.29749829 L4.58661111,7.09137836 C4.58661111,7.18605469 4.66376266,7.26303225 4.75868098,7.26303225 L6.19559822,7.26303225 L6.19559822,9.49186581 C6.19559822,9.49186581 5.87299764,9.60133152 4.98113056,9.60133152 C3.92875418,9.60133152 2.45873722,9.21838335 2.45873722,5.99817587 C2.45873722,2.77736227 3.98947757,2.35356144 5.4265165,2.35356144 C6.67043317,2.35356144 7.20647826,2.57176553 7.54733236,2.67686717 C7.65454137,2.70947656 7.75359715,2.6032839 7.75359715,2.50860757 L8.16454478,0.775339745 C8.16454478,0.73097158 8.1494552,0.677632802 8.0988321,0.641386679 C7.96022702,0.542952389 7.11545403,0.0719952274 4.98113056,0.0719952274 C2.52213779,0.0719952274 -1.21690146e-05,1.11416221 -1.21690146e-05,6.12376445 C-1.21690146e-05,11.1334879 2.88769499,11.8799883 5.32113283,11.8799883 C7.33595657,11.8799883 8.5582124,11.0223251 8.5582124,11.0223251 C8.60859212,10.9946859 8.61406817,10.9244969 8.61406817,10.8923724 L8.61406817,5.29749829 C8.61406817,5.20282196 8.53703831,5.12596563 8.44199831,5.12596563" id="Fill-1"></path>
                    <path d="M27.0000011,1.24699705 C27.0000011,1.1546382 26.9288191,1.08000004 26.8397277,1.08000004 L24.8956852,1.08000004 C24.8068219,1.08000004 24.7347273,1.1546382 24.7347273,1.24699705 C24.7347273,1.24746647 24.7351836,5.11210348 24.7351836,5.11210348 L21.7049323,5.11210348 L21.7049323,1.24699705 C21.7049323,1.1546382 21.6334081,1.08000004 21.5445448,1.08000004 L19.6005023,1.08000004 C19.5120953,1.08000004 19.4400008,1.1546382 19.4400008,1.24699705 L19.4400008,11.712534 C19.4400008,11.8047755 19.5120953,11.8800005 19.6005023,11.8800005 L21.5445448,11.8800005 C21.6334081,11.8800005 21.7049323,11.8047755 21.7049323,11.712534 L21.7049323,7.23600498 L24.7351836,7.23600498 C24.7351836,7.23600498 24.7299363,11.712182 24.7299363,11.712534 C24.7299363,11.8047755 24.8020308,11.8800005 24.8910082,11.8800005 L26.8396136,11.8800005 C26.928591,11.8800005 26.9997729,11.8047755 27.0000011,11.712534 L27.0000011,1.24699705 Z" id="Fill-4"></path>
                    <path d="M11.8800005,2.15961086 C11.8800005,1.56244353 11.3964404,1.08000004 10.799853,1.08000004 C10.2038553,1.08000004 9.72000039,1.56244353 9.72000039,2.15961086 C9.72000039,2.75609706 10.2038553,3.24000013 10.799853,3.24000013 C11.3964404,3.24000013 11.8800005,2.75609706 11.8800005,2.15961086" id="Fill-6"></path>
                    <path d="M11.8800005,9.44557711 L11.8800005,4.49091292 C11.8800005,4.39691091 11.8115325,4.32000017 11.7267627,4.32000017 L9.88051964,4.32000017 C9.79574982,4.32000017 9.72000039,4.41677049 9.72000039,4.5107725 L9.72000039,11.6093084 C9.72000039,11.8178942 9.83737398,11.8800005 9.98930757,11.8800005 L11.6527522,11.8800005 C11.8352246,11.8800005 11.8800005,11.7807026 11.8800005,11.6059383 L11.8800005,9.44557711 Z" id="Fill-8"></path>
                    <path d="M34.4012091,4.32000017 L32.5061242,4.32000017 C32.4191639,4.32000017 32.3484526,4.39487486 32.3484526,4.48709142 L32.3484526,9.61067631 C32.3484526,9.61067631 31.8669211,9.97907385 31.1835654,9.97907385 C30.5002098,9.97907385 30.318893,9.6548512 30.318893,8.95520053 L30.318893,4.48709142 C30.318893,4.39487486 30.2482938,4.32000017 30.1613335,4.32000017 L28.2378968,4.32000017 C28.1511607,4.32000017 28.0800011,4.39487486 28.0800011,4.48709142 L28.0800011,9.29348415 C28.0800011,11.3715791 29.1876245,11.8800005 30.7113351,11.8800005 C31.9615017,11.8800005 32.9693896,11.1578522 32.9693896,11.1578522 C32.9693896,11.1578522 33.0172402,11.538436 33.0390924,11.5835483 C33.0607204,11.6285434 33.1173118,11.6740072 33.1784978,11.6740072 L34.4021056,11.6683828 C34.4888418,11.6683828 34.5600014,11.5933909 34.5600014,11.5015259 L34.559329,4.48709142 C34.559329,4.39487486 34.4885057,4.32000017 34.4012091,4.32000017" id="Fill-10"></path>
                    <path d="M39.31783,10.0075102 C38.5908306,9.98694423 38.0976955,9.6812123 38.0976955,9.6812123 L38.0976955,6.43650153 C38.0976955,6.43650153 38.5841382,6.16006748 39.1810064,6.11066322 C39.9357671,6.0480462 40.6630143,6.25933557 40.6630143,7.9285101 C40.6630143,9.68856549 40.334836,10.0360038 39.31783,10.0075102 M40.1444727,4.23468017 C38.9540825,4.23468017 38.1444188,4.72711423 38.1444188,4.72711423 L38.1444188,1.25755665 C38.1444188,1.16713537 38.0663401,1.09406302 37.970167,1.09406302 L35.8520037,1.09406302 C35.7557066,1.09406302 35.677504,1.16713537 35.677504,1.25755665 L35.677504,11.50354 C35.677504,11.5939613 35.7557066,11.6674932 35.8523755,11.6674932 L37.321866,11.6674932 C37.388047,11.6674932 37.4381165,11.6357826 37.4751729,11.5804039 C37.5117336,11.5253698 37.5644057,11.1080762 37.5644057,11.1080762 C37.5644057,11.1080762 38.4304595,11.8689017 40.0699881,11.8689017 C41.9949377,11.8689017 43.0988216,10.9637698 43.0988216,7.80557393 C43.0988216,4.64737806 41.3357304,4.23468017 40.1444727,4.23468017" id="Fill-12"></path>
                    <path d="M18.1592156,4.26700755 L16.6016685,4.26700755 C16.6016685,4.26700755 16.5993536,2.27368499 16.5993536,2.27321278 C16.5993536,2.197777 16.5592696,2.16000009 16.4691113,2.16000009 L14.346734,2.16000009 C14.2642513,2.16000009 14.2199031,2.19529789 14.2199031,2.2721503 L14.2199031,4.33240884 C14.2199031,4.33240884 13.1562778,4.58114622 13.0842729,4.60133326 C13.0127554,4.62140224 12.9600005,4.68538689 12.9600005,4.7617671 L12.9600005,6.05645283 C12.9600005,6.14947848 13.036757,6.22467815 13.131667,6.22467815 L14.2199031,6.22467815 L14.2199031,9.33938484 C14.2199031,11.6527487 15.8947779,11.8800005 17.0248037,11.8800005 C17.5411432,11.8800005 18.1588501,11.7193305 18.2608265,11.6828522 C18.3224753,11.6608944 18.3584169,11.5990347 18.3584169,11.5319806 L18.3600007,10.1076729 C18.3600007,10.0147653 18.2791018,9.93956559 18.1879688,9.93956559 C18.0972012,9.93956559 17.8649824,9.97545366 17.6259409,9.97545366 C16.8609347,9.97545366 16.6016685,9.63073931 16.6016685,9.18449949 C16.6016685,8.73873189 16.6015466,6.22467815 16.6015466,6.22467815 L18.1592156,6.22467815 C18.2541255,6.22467815 18.3311257,6.14947848 18.3311257,6.05645283 L18.3311257,4.43476067 C18.3311257,4.34185307 18.2541255,4.26700755 18.1592156,4.26700755" id="Fill-15"></path>
                </g>
                <path d="M17.9247461,22.9660735 L18.0321547,22.9535722 C21.3000155,21.8607138 23.6571611,18.774996 23.6571611,15.142849 C23.6571611,10.5999867 19.9714426,6.91426827 15.4285803,6.91426827 C10.885718,6.91426827 7.19999957,10.5999867 7.19999957,15.142849 C7.19999957,18.774996 9.5571451,21.8607138 12.8250059,22.9535722 C13.2428636,23.0285722 13.3928637,22.7714291 13.3928637,22.5571431 C13.3928637,22.3535715 13.3821494,21.7107136 13.3821494,21.0249985 C13.3821494,21.0249985 11.0892897,21.5178562 10.6071463,20.0499974 C10.6071463,20.0499974 10.2321459,19.0964249 9.69643097,18.8499961 C9.69643097,18.8499961 8.94643012,18.3357098 9.75000246,18.3464241 C9.75000246,18.3464241 10.5642891,18.4107099 11.0142896,19.1928536 C11.7321476,20.4571408 12.9321489,20.0928546 13.403578,19.8785687 C13.4785781,19.3535681 13.6928641,18.9892819 13.9285786,18.774996 C12.0964337,18.5714243 10.1785744,17.8642807 10.1785744,14.7142771 C10.1785744,13.8142761 10.5000033,13.0857038 11.0250039,12.5071317 C10.9392895,12.2928458 10.6607178,11.4571306 11.1107183,10.321415 C11.7964333,10.107129 13.3714351,11.1678445 13.3714351,11.1678445 C14.0250073,10.9857015 14.732151,10.8892728 15.4285803,10.8892728 C16.1250097,10.8892728 16.8321533,10.9857015 17.4857255,11.1678445 C17.4857255,11.1678445 19.0607273,10.107129 19.7464424,10.321415 C20.1964429,11.4571306 19.9178711,12.2928458 19.8321567,12.5071317 C20.3571573,13.0857038 20.6785863,13.8142761 20.6785863,14.7142771 C20.6785863,17.874995 18.7500127,18.5714243 16.9178677,18.774996 C17.2178681,19.0321391 17.4750112,19.5249968 17.4750112,20.2964263 C17.4750112,21.2528559 17.4669636,22.048333 17.4648175,22.4178223 L17.4642969,22.5571431 C17.4642969,22.7714291 17.6142971,23.0285722 18.0321547,22.9535722 L17.9247461,22.9660735 Z" id="" fill="#394152" fill-rule="nonzero"></path>
            </g>
        </g>
    </g>
</svg>