<svg fill="none" height="211" viewBox="0 0 238 211" width="238" xmlns="http://www.w3.org/2000/svg"><g fill="#f3f3f3" stroke-linecap="round" stroke-linejoin="round" stroke-miterlimit="10"><path d="m142.328 116.055c.196 4.204-2.283 8.393-7.197 11.624l-87.8528 55.028-38.41952-20.823 92.78132-58.054c9.258-5.8041 24.195-5.531 33.085.832 4.109 2.794 7.435 7.598 7.603 11.393z" stroke="#41ccb4"/><path d="m84.0602 114.136 109.4468-71.0727 38.12 20.9473-110.12 70.2974z" stroke="#142533"/><path d="m83.6305 100.895 109.3515-70.9635 38.215 20.8377-110.214 70.4078z" stroke="#142533"/><path d="m205.826 52.7828-2.26 1.4985-13.496-7.4749-.19-2.6615z" stroke="#142533"/><path d="m189.881 44.1447.19 2.6616-43.466 28.2011-2.354-1.2727z" stroke="#142533"/><path d="m203.566 54.2812-43.59 27.9013-13.372-7.1751 43.465-28.2011z" stroke="#142533"/><path d="m83.6316 100.895.4291 13.241 37.4473 20.172-.524-13.131z" stroke="#142533"/><path d="m231.198 50.7692.429 13.2416-110.12 70.2982-.524-13.132z" stroke="#142533"/><path d="m140.61 102.082c.197 4.204-2.282 8.393-7.196 11.624l-86.6391 54.735-39.73544-21.964 92.78124-58.0533c9.2573-5.8039 22.5293-8.7043 34.2913 1.8778 3.648 3.5468 6.331 7.9855 6.498 11.7805z" stroke="#41ccb4"/><path d="m115.924 109.714c6.649-.239 11.899-4.329 11.726-9.136-.173-4.806-5.702-8.5087-12.351-8.2698s-11.899 4.3289-11.727 9.1358c.173 4.806 5.703 8.509 12.352 8.27z" stroke="#41ccb4"/><path d="m125.542 105.728c-2.326 2.017-5.799 3.808-9.594 3.976-3.795.167-7.597-1.208-9.805-3.314 2.545-1.828 5.953-3.099 9.652-3.157 3.7-.058 7.158.827 9.747 2.495z" stroke="#41ccb4"/><path d="m46.8702 168.332.5021 14.265-39.80134-21.445-.53122-14.675z" stroke="#41ccb4"/><path d="m183.196 93.2857-7.663 5.073c-1.185.7017-2.647.3943-3.349-.7903s-.394-2.6469.79-3.3486l7.664-5.073c1.184-.7017 2.647-.3944 3.348.7902.592 1.0896.285 2.5519-.79 3.3487z" stroke="#142533"/><path d="m215.934 71.9192-7.663 5.073c-1.185.7017-2.647.3944-3.349-.7902-.701-1.1846-.394-2.6469.791-3.3487l7.663-5.073c1.185-.7017 2.647-.3943 3.349.7903.701 1.1846.394 2.6469-.791 3.3486z" stroke="#142533"/></g><path d="m37.3877 143.285c1.2504-.704 2.4584-1.407 3.6876-2.11 2.4484-1.086 4.9559 1.348 7.1317 2.192-1.6461.938-3.2921 1.876-4.9593 2.815-1.9246-.953-3.8704-1.906-5.86-2.897z" fill="#142533"/><path d="m72.0378 135.151c-.1555-.195-.2884-.35-.3549-.428 2.1843-.737 3.9173-1.618.8334-2.911.4257 1.846-2.8797 2.122-4.6411 1.583-3.428-.801-4.3987-3.649.2509-3.771-.2165-.113-.4117-.226-.6069-.339.2293-.128.4373-.256.6878-.384 2.8206 1.662 11.8998 4.247 3.8308 6.25zm-1.6434-4.466c-1.0787-.462-2.538-.872-3.5811-.315-.6276.282-.9553.634-.7263 1.106.3215.689 1.942 1.453 3.2833 1.526 2.3176.04 3.2959-1.155 1.0241-2.317z" fill="#142533"/><path d="m63.13 132.56c-1.0376-.504-2.0328-1.01-3.0711-1.534.271-.149.4791-.277.7296-.405 2.7676 1.364 5.5141 2.729 8.2818 4.093-.2293.128-.4374.256-.6879.384-.2596-.131-.5191-.262-.8431-.41.5419 1.522-1.8546 2.266-4.165 1.826-3.8695-.665-5.3225-3.937-.2443-3.954zm2.3108 1.06c-3.7799-1.749-7.02 1.006-1.6184 2.338 2.2686.461 4.1957-.947 1.6184-2.338z" fill="#142533"/><path d="m57.2123 138.41c1.474.829 4.9314.648 4.9733-1.194.3205.049.6403.077.9607.126-.0112 2.722-6.0946 2.554-7.6608.908-1.0283-.845-.892-1.81.381-2.475 1.2717-.704 3.4039-.499 4.8765.29.2588.111.2623.211.0331.339-1.1889.642-2.3551 1.323-3.5638 2.006zm2.3265-2.143c-1.5036-1.068-5.328.167-2.9793 1.705.9794-.554 1.9793-1.129 2.9793-1.705z" fill="#142533"/><path d="m76.3818 127.474c-1.271.725-2.5207 1.449-3.7711 2.153 1.2631.877 4.7637.715 4.9316-1.172.3204.048.619.078.9606.126-.2491 3.211-7.7146 2.411-8.3523-.028-.0455-2.52 4.5954-2.282 6.2312-1.079zm-4.5067 1.779c.9999-.575 1.9998-1.151 3.0004-1.706-1.3953-1.012-5.3109.045-3.0004 1.706z" fill="#142533"/><path d="m47.1597 138.361c.2293-.128.4586-.256.7084-.405 2.5081 1.233 4.995 2.467 7.5038 3.72 1.1046-.619 2.1668-1.236 3.2297-1.833.2596.131.4973.242.7568.373-1.3127.747-2.6042 1.492-3.9381 2.239-2.7245-1.346-5.471-2.711-8.2606-4.094z" fill="#142533"/><path d="m80.5276 128.17c-.2293.128-.4586.256-.6872.404-1.9677-.972-3.9354-1.943-5.9251-2.935.2293-.128.4374-.255.6879-.384.389.187.7568.374 1.1458.561-.3838-.647-.3616-1.229.6651-1.645.2815.151.5411.282.8219.412-2.5645 1.41 2.6367 3.09 3.2916 3.587z" fill="#142533"/><path d="m40.1637 147.951c-.7568-.374-1.4917-.728-2.2492-1.122.6249-.362 1.2504-.704 1.8958-1.087.7356.374 1.4917.728 2.2492 1.122-.6241.382-1.2497.724-1.8958 1.087z" fill="#142533"/><path d="m48.7547 146.931c-.6249.362-1.2292.703-1.8753 1.066-.7568-.374-1.4705-.73-2.2273-1.103.6249-.362 1.2292-.704 1.8753-1.066.7136.355 1.4485.709 2.2273 1.103z" fill="#142533"/><path d="m38.4273 145.07c-.6248.362-1.2504.704-1.854 1.065-1.484-.508-2.2583-1.382-.3513-2.149.7349.355 1.4705.729 2.2053 1.084z" fill="#142533"/><path d="m45.6704 148.659c-1.1804.882-2.5614.89-4.1238-.036.6249-.362 1.2292-.703 1.8753-1.066.7568.374 1.4917.728 2.2485 1.102z" fill="#142533"/><path d="m49.9421 146.229c-.7356-.375-1.4704-.729-2.206-1.104.6248-.362 1.2504-.704 1.854-1.065 1.6135.564 2.1331 1.446.352 2.169z" fill="#142533"/></svg>