<?xml version="1.0" encoding="UTF-8"?>
<svg width="227px" height="155px" viewBox="0 0 227 155" version="1.1" xmlns="http://www.w3.org/2000/svg" xmlns:xlink="http://www.w3.org/1999/xlink">
    <title>ledger</title>
    <g id="Page-1" stroke="none" stroke-width="1" fill="none" fill-rule="evenodd">
        <g id="ledger" transform="translate(1.000000, 1.000000)" fill-rule="nonzero">
            <g id="Group">
                <path d="M128.09154,97.7475 L40.23874,152.7755 L1.81922,131.9525 L94.60054,73.8985 C103.85854,68.0944 118.79554,68.3675 127.68554,74.7305 C131.79454,77.5245 135.12054,82.3285 135.28854,86.1235 C135.48454,90.3275 133.00554,94.5165 128.09154,97.7475 Z" id="Path" stroke="#01E599" fill="#1A2027"></path>
                <polygon id="Path" stroke="#EBDACC" fill="#0C0C0C" points="77.02074 84.2045 186.46754 13.1318 224.58754 34.0791 114.46754 104.3765"></polygon>
                <polygon id="Path" stroke="#EBDACC" fill="#1A2027" points="76.59104 70.9635 185.94254 0 224.15754 20.8377 113.94354 91.2455"></polygon>
                <polygon id="Path" stroke="#EBDACC" fill="#1A2027" points="198.78654 22.8513 196.52654 24.3498 183.03054 16.8749 182.84054 14.2134"></polygon>
                <polygon id="Path" stroke="#EBDACC" fill="#1A2027" points="182.84154 14.2132 183.03154 16.8748 139.56554 45.0759 137.21154 43.8032"></polygon>
                <polygon id="Path" stroke="#EBDACC" fill="#1A2027" points="196.52654 24.3497 152.93654 52.251 139.56454 45.0759 183.02954 16.8748"></polygon>
                <polygon id="Path" stroke="#EBDACC" fill="#1A2027" points="76.59214 70.9635 77.02124 84.2045 114.46854 104.3765 113.94454 91.2455"></polygon>
                <polygon id="Path" stroke="#EBDACC" fill="#1A2027" points="224.15854 20.8377 224.58754 34.0793 114.46754 104.3775 113.94354 91.2455"></polygon>
                <path d="M133.57054,72.1505 C133.76754,76.3545 131.28854,80.5435 126.37454,83.7745 L39.73544,138.5095 L0,116.5455 L92.78124,58.4922 C102.03854,52.6883 115.31054,49.7879 127.07254,60.37 C130.72054,63.9168 133.40354,68.3555 133.57054,72.1505 L133.57054,72.1505 Z" id="Path" stroke="#01E599" fill="#1A2027"></path>
                <path d="M108.88454,79.7825 C115.53354,79.5435 120.78354,75.4535 120.61054,70.6465 C120.43754,65.8405 114.90854,62.1378 108.25954,62.3767 C101.61054,62.6156 96.36054,66.7056 96.53254,71.5125 C96.70554,76.3185 102.23554,80.0215 108.88454,79.7825 Z" id="Path" stroke="#01E599" fill="#1A2027"></path>
                <path d="M118.50254,75.7965 C116.17654,77.8135 112.70354,79.6045 108.90854,79.7725 C105.11354,79.9395 101.31154,78.5645 99.10354,76.4585 C101.64854,74.6305 105.05654,73.3595 108.75554,73.3015 C112.45554,73.2435 115.91354,74.1285 118.50254,75.7965 Z" id="Path" stroke="#01E599" fill="#1A2027"></path>
                <polygon id="Path" stroke="#01E599" fill="#1A2027" points="39.83074 138.4005 40.33284 152.6655 0.5315 131.2205 0.00028 116.5455"></polygon>
                <path d="M176.15654,63.3542 L168.49354,68.4272 C167.30854,69.1289 165.84654,68.8215 165.14454,67.6369 C164.44254,66.4523 164.75054,64.99 165.93454,64.2883 L173.59854,59.2153 C174.78254,58.5136 176.24554,58.8209 176.94654,60.0055 C177.53854,61.0951 177.23154,62.5574 176.15654,63.3542 L176.15654,63.3542 Z" id="Path" stroke="#EBDACC" fill="#1A2027"></path>
                <path d="M208.89454,41.9877 L201.23154,47.0607 C200.04654,47.7624 198.58454,47.4551 197.88254,46.2705 C197.18154,45.0859 197.48854,43.6236 198.67354,42.9218 L206.33654,37.8488 C207.52154,37.1471 208.98354,37.4545 209.68554,38.6391 C210.38654,39.8237 210.07954,41.286 208.89454,41.9877 L208.89454,41.9877 Z" id="Path" stroke="#EBDACC" fill="#1A2027"></path>
            </g>
            <path d="M30.34824,113.3535 C31.59864,112.6495 32.80664,111.9465 34.03584,111.2435 C36.48424,110.1575 38.99174,112.5915 41.16754,113.4355 C39.52144,114.3735 37.87544,115.3115 36.20824,116.2505 C34.28364,115.2975 32.33784,114.3445 30.34824,113.3535 L30.34824,113.3535 Z" id="Path" fill="#EBDACC"></path>
            <path d="M64.99834,105.2195 C64.84284,105.0245 64.70994,104.8695 64.64344,104.7915 C66.82774,104.0545 68.56074,103.1735 65.47684,101.8805 C65.90254,103.7265 62.59714,104.0025 60.83574,103.4635 C57.40774,102.6625 56.43704,99.8145 61.08664,99.6925 C60.87014,99.5795 60.67494,99.4665 60.47974,99.3535 C60.70904,99.2255 60.91704,99.0975 61.16754,98.9695 C63.98814,100.6315 73.06734,103.2165 64.99834,105.2195 L64.99834,105.2195 Z M63.35494,100.7535 C62.27624,100.2915 60.81694,99.8815 59.77384,100.4385 C59.14624,100.7205 58.81854,101.0725 59.04754,101.5445 C59.36904,102.2335 60.98954,102.9975 62.33084,103.0705 C64.64844,103.1105 65.62674,101.9155 63.35494,100.7535 Z" id="Shape" fill="#EBDACC"></path>
            <path d="M56.09054,102.6285 C55.05294,102.1245 54.05774,101.6185 53.01944,101.0945 C53.29044,100.9455 53.49854,100.8175 53.74904,100.6895 C56.51664,102.0535 59.26314,103.4185 62.03084,104.7825 C61.80154,104.9105 61.59344,105.0385 61.34294,105.1665 C61.08334,105.0355 60.82384,104.9045 60.49984,104.7565 C61.04174,106.2785 58.64524,107.0225 56.33484,106.5825 C52.46534,105.9175 51.01234,102.6455 56.09054,102.6285 L56.09054,102.6285 Z M58.40134,103.6885 C54.62144,101.9395 51.38134,104.6945 56.78294,106.0265 C59.05154,106.4875 60.97864,105.0795 58.40134,103.6885 Z" id="Shape" fill="#EBDACC"></path>
            <path d="M50.17284,108.4785 C51.64684,109.3075 55.10424,109.1265 55.14614,107.2845 C55.46664,107.3335 55.78644,107.3615 56.10684,107.4105 C56.09564,110.1325 50.01224,109.9645 48.44604,108.3185 C47.41774,107.4735 47.55404,106.5085 48.82704,105.8435 C50.09874,105.1395 52.23094,105.3445 53.70354,106.1335 C53.96234,106.2445 53.96584,106.3445 53.73664,106.4725 C52.54774,107.1145 51.38154,107.7955 50.17284,108.4785 Z M52.49934,106.3355 C50.99574,105.2675 47.17134,106.5025 49.52004,108.0405 C50.49944,107.4865 51.49934,106.9115 52.49934,106.3355 Z" id="Shape" fill="#EBDACC"></path>
            <path d="M69.34234,97.5425 C68.07134,98.2675 66.82164,98.9915 65.57124,99.6955 C66.83434,100.5725 70.33494,100.4105 70.50284,98.5235 C70.82324,98.5715 71.12184,98.6015 71.46344,98.6495 C71.21434,101.8605 63.74884,101.0605 63.11114,98.6215 C63.06564,96.1015 67.70654,96.3395 69.34234,97.5425 L69.34234,97.5425 Z M64.83564,99.3215 C65.83554,98.7465 66.83544,98.1705 67.83604,97.6155 C66.44074,96.6035 62.52514,97.6605 64.83564,99.3215 Z" id="Shape" fill="#EBDACC"></path>
            <path d="M40.12024,108.4295 C40.34954,108.3015 40.57884,108.1735 40.82864,108.0245 C43.33674,109.2575 45.82364,110.4915 48.33244,111.7445 C49.43704,111.1255 50.49924,110.5085 51.56214,109.9115 C51.82174,110.0425 52.05944,110.1535 52.31894,110.2845 C51.00624,111.0315 49.71474,111.7765 48.38084,112.5235 C45.65634,111.1775 42.90984,109.8125 40.12024,108.4295 Z" id="Path" fill="#EBDACC"></path>
            <path d="M73.48814,98.2385 C73.25884,98.3665 73.02954,98.4945 72.80094,98.6425 C70.83324,97.6705 68.86554,96.6995 66.87584,95.7075 C67.10514,95.5795 67.31324,95.4525 67.56374,95.3235 C67.95274,95.5105 68.32054,95.6975 68.70954,95.8845 C68.32574,95.2375 68.34794,94.6555 69.37464,94.2395 C69.65614,94.3905 69.91574,94.5215 70.19654,94.6515 C67.63204,96.0615 72.83324,97.7415 73.48814,98.2385 L73.48814,98.2385 Z" id="Path" fill="#EBDACC"></path>
            <path d="M33.12424,118.0195 C32.36744,117.6455 31.63254,117.2915 30.87504,116.8975 C31.49994,116.5355 32.12544,116.1935 32.77084,115.8105 C33.50644,116.1845 34.26254,116.5385 35.02004,116.9325 C34.39594,117.3145 33.77034,117.6565 33.12424,118.0195 Z" id="Path" fill="#EBDACC"></path>
            <path d="M41.71524,116.9995 C41.09034,117.3615 40.48604,117.7025 39.83994,118.0655 C39.08314,117.6915 38.36944,117.3355 37.61264,116.9625 C38.23754,116.6005 38.84184,116.2585 39.48794,115.8965 C40.20154,116.2515 40.93644,116.6055 41.71524,116.9995 Z" id="Path" fill="#EBDACC"></path>
            <path d="M31.38784,115.1385 C30.76304,115.5005 30.13744,115.8425 29.53384,116.2035 C28.04984,115.6955 27.27554,114.8215 29.18254,114.0545 C29.91744,114.4095 30.65304,114.7835 31.38784,115.1385 Z" id="Path" fill="#EBDACC"></path>
            <path d="M38.63094,118.7275 C37.45054,119.6095 36.06954,119.6175 34.50714,118.6915 C35.13204,118.3295 35.73634,117.9885 36.38244,117.6255 C37.13924,117.9995 37.87414,118.3535 38.63094,118.7275 Z" id="Path" fill="#EBDACC"></path>
            <path d="M42.90264,116.2975 C42.16704,115.9225 41.43224,115.5685 40.69664,115.1935 C41.32144,114.8315 41.94704,114.4895 42.55064,114.1285 C44.16414,114.6925 44.68374,115.5745 42.90264,116.2975 L42.90264,116.2975 Z" id="Path" fill="#EBDACC"></path>
        </g>
    </g>
</svg>