<?xml version="1.0" encoding="UTF-8"?>
<svg width="312px" height="312px" viewBox="0 0 312 312" version="1.1" xmlns="http://www.w3.org/2000/svg" xmlns:xlink="http://www.w3.org/1999/xlink">
    <title>Group 5</title>
    <defs>
        <linearGradient x1="14.552922%" y1="31.10179%" x2="106.351557%" y2="114.452906%" id="linearGradient-1">
            <stop stop-color="#DAE3E3" offset="0%"></stop>
            <stop stop-color="#FFFFFF" offset="100%"></stop>
        </linearGradient>
        <polygon id="path-2" points="5.03816783e-13 0 311.240002 7.58057877e-14 311.240002 311.240002 1.10574661e-12 311.240002 5.03816783e-13 221.969614"></polygon>
        <linearGradient x1="-38.6989018%" y1="68.6293136%" x2="95.0019031%" y2="-21.2240123%" id="linearGradient-4">
            <stop stop-color="#000033" offset="0%"></stop>
            <stop stop-color="#00AF92" offset="24.3780641%"></stop>
            <stop stop-color="#00E599" offset="78.4959913%"></stop>
            <stop stop-color="#00E599" offset="100%"></stop>
        </linearGradient>
        <path d="M31.9960566,97.2214136 L31.9960566,72.4727125 L31.6499209,61.2233029 L31.8229887,61.2233029 L35.4574134,68.9248218 L51.033519,97.2214136 L70.417117,97.2214136 L70.417117,40.1090264 L54.9275454,40.1090264 L54.9275454,64.8577275 L55.273681,76.1071371 L55.1871471,76.1071371 L51.4661886,68.4056183 L35.890083,40.1090264 L16.5930188,40.1090264 L16.5930188,97.2214136 L31.9960566,97.2214136 Z M102.088532,98.0867528 C106.24216,98.0867528 109.991963,97.3944815 113.337941,96.0099387 C116.68392,94.625396 119.337626,92.6206935 121.299062,89.9958313 C123.260498,87.3709691 124.241215,84.2701703 124.241215,80.6934349 C124.241215,78.0974173 123.765279,76.0061809 122.813406,74.4197257 C121.861532,72.8332705 120.707747,71.6362179 119.352049,70.828568 C117.996351,70.0209181 116.669497,69.4728699 115.371488,69.1844235 C114.07348,68.8959771 113.07834,68.7517539 112.386068,68.7517539 L112.386068,68.7517539 L112.386068,68.4056183 C113.02065,68.4056183 113.914834,68.1892835 115.06862,67.7566139 C116.222405,67.3239443 117.43388,66.6172506 118.703044,65.6365328 C119.972209,64.6558151 121.025038,63.3289616 121.861532,61.6559725 C122.698027,59.9829834 123.116274,57.84848 123.116274,55.2524624 C123.116274,51.8487949 122.294202,48.9643309 120.650058,46.5990704 C119.005913,44.2338099 116.611808,42.4165976 113.467742,41.1474335 C110.323676,39.8782693 106.472917,39.2436872 101.915464,39.2436872 C97.8772143,39.2436872 94.1995227,39.8494247 90.8823891,41.0608995 C87.5652555,42.2723744 84.8250147,44.0318975 82.6616667,46.3394687 C80.4983187,48.6470399 79.1858876,51.5315039 78.7243734,54.9928607 L78.7243734,54.9928607 L94.0408772,59.9252941 C94.213945,57.0985194 94.9206387,55.1515062 96.1609582,54.0842545 C97.4012778,53.0170028 98.9156214,52.483377 100.703989,52.483377 C102.376978,52.483377 103.689409,52.9593135 104.641282,53.9111867 C105.593156,54.8630598 106.069092,56.2043355 106.069092,57.9350139 C106.069092,60.011828 105.578733,61.5117493 104.598015,62.4347778 C103.617298,63.3578063 102.059687,63.8193205 99.9251838,63.8193205 C99.2329124,63.8193205 98.6560196,63.8048982 98.1945054,63.7760535 C97.7329911,63.7472089 97.2714769,63.7039419 96.8099626,63.6462527 L96.8099626,63.6462527 L96.8099626,74.3764587 C97.6176126,74.2610802 98.3243062,74.1745463 98.9300437,74.116857 C99.5357811,74.0591677 100.242475,74.0303231 101.050125,74.0303231 C102.2616,74.0303231 103.328851,74.1889686 104.25188,74.5062596 C105.174908,74.8235507 105.910447,75.3571765 106.458495,76.1071371 C107.006543,76.8570978 107.280567,77.8955048 107.280567,79.2223583 C107.280567,80.3761439 107.020965,81.3857063 106.501762,82.2510455 C105.982558,83.1163847 105.24702,83.7653891 104.295147,84.1980587 C103.343274,84.6307283 102.232755,84.8470631 100.963591,84.8470631 C99.6944266,84.8470631 98.4973741,84.6307283 97.3724331,84.1980587 C96.2474922,83.7653891 95.3677306,82.9721615 94.7331486,81.8183759 C94.0985665,80.6645903 93.7524308,79.0781351 93.6947415,77.0590103 L93.6947415,77.0590103 L77.5994324,83.7221221 C79.2147322,88.5103323 82.0847739,92.10149 86.2095574,94.4955951 C90.334341,96.8897003 95.6273324,98.0867528 102.088532,98.0867528 Z" id="path-5"></path>
    </defs>
    <g id="Page-1" stroke="none" stroke-width="1" fill="none" fill-rule="evenodd">
        <g id="4.0-Send-Dark---EMPTY-Copy-3" transform="translate(-670.000000, -250.000000)">
            <g id="Group-5" transform="translate(670.310000, 250.500000)">
                <g id="Bitmap" transform="translate(0.000000, 0.000000)">
                    <mask id="mask-3" fill="white">
                        <use xlink:href="#path-2"></use>
                    </mask>
                    <use id="Mask" fill="url(#linearGradient-1)" xlink:href="#path-2"></use>
                </g>
                <g id="N3-Logo" transform="translate(85.690000, 83.500000)">
                    <g id="N3" fill-rule="nonzero">
                        <use fill="#000033" xlink:href="#path-5"></use>
                        <use fill="url(#linearGradient-4)" xlink:href="#path-5"></use>
                        <use fill="#282828" xlink:href="#path-5"></use>
                    </g>
                    <rect id="Rectangle" stroke="#282828" stroke-width="3" x="0" y="0" width="139.687815" height="139.687815"></rect>
                </g>
            </g>
        </g>
    </g>
</svg>