<svg xmlns="http://www.w3.org/2000/svg" width="284" height="309"><path d="M229.814 112.86a50.673 50.673 0 0 0 28.006-26.83 50.659 50.659 0 0 0 .829-38.77c-10.124-26.086-39.478-39.029-65.57-28.912a50.673 50.673 0 0 0-28.012 26.827 50.659 50.659 0 0 0-.831 38.773 50.672 50.672 0 0 0 26.8 28.036 50.686 50.686 0 0 0 38.778.876z" fill="#00E599"/><path d="M229.238 115.132a50.673 50.673 0 0 0 28.01-26.833 50.659 50.659 0 0 0 .824-38.775 50.672 50.672 0 0 0-26.8-28.037 50.686 50.686 0 0 0-38.778-.876 50.673 50.673 0 0 0-28.015 26.83 50.659 50.659 0 0 0-.828 38.778 50.672 50.672 0 0 0 26.803 28.04 50.686 50.686 0 0 0 38.784.873z" fill="#01E598"/><path d="M228.662 117.395a50.673 50.673 0 0 0 28.01-26.827 50.659 50.659 0 0 0 .832-38.773 50.672 50.672 0 0 0-26.803-28.04 50.686 50.686 0 0 0-38.784-.872 50.673 50.673 0 0 0-28.006 26.829 50.659 50.659 0 0 0-.828 38.77 50.672 50.672 0 0 0 26.8 28.037 50.686 50.686 0 0 0 38.779.876z" fill="#02E598"/><path d="M228.052 119.65a50.673 50.673 0 0 0 28.01-26.833 50.659 50.659 0 0 0 .824-38.775c-10.123-26.087-39.477-39.03-65.57-28.913A50.673 50.673 0 0 0 163.3 51.96a50.659 50.659 0 0 0-.828 38.778 50.672 50.672 0 0 0 26.8 28.037 50.686 50.686 0 0 0 38.779.876z" fill="#03E597"/><path d="M227.51 121.905a50.673 50.673 0 0 0 28.01-26.827 50.659 50.659 0 0 0 .832-38.773 50.672 50.672 0 0 0-26.803-28.04 50.686 50.686 0 0 0-38.785-.873 50.673 50.673 0 0 0-28.006 26.83 50.659 50.659 0 0 0-.828 38.77 50.672 50.672 0 0 0 26.8 28.037 50.686 50.686 0 0 0 38.78.876z" fill="#04E596"/><path d="M226.9 124.151a50.673 50.673 0 0 0 28.01-26.832 50.659 50.659 0 0 0 .824-38.776c-10.124-26.086-39.478-39.03-65.57-28.912a50.673 50.673 0 0 0-28.016 26.83 50.659 50.659 0 0 0-.828 38.778 50.672 50.672 0 0 0 26.8 28.036 50.686 50.686 0 0 0 38.78.876z" fill="#05E696"/><path d="M226.331 126.423a50.673 50.673 0 0 0 28.006-26.83 50.659 50.659 0 0 0 .829-38.77c-10.124-26.086-39.478-39.03-65.571-28.912a50.673 50.673 0 0 0-28.011 26.827 50.659 50.659 0 0 0-.832 38.772c10.124 26.087 39.478 39.03 65.57 28.913h.01z" fill="#06E695"/><path d="M225.747 128.66a50.673 50.673 0 0 0 28.01-26.832 50.659 50.659 0 0 0 .824-38.775c-10.124-26.087-39.478-39.03-65.57-28.913a50.673 50.673 0 0 0-28.015 26.83 50.659 50.659 0 0 0-.828 38.779 50.672 50.672 0 0 0 26.8 28.036 50.686 50.686 0 0 0 38.779.876z" fill="#07E694"/><path d="M225.179 130.966a50.673 50.673 0 0 0 28.006-26.83 50.659 50.659 0 0 0 .828-38.77 50.672 50.672 0 0 0-26.8-28.036 50.686 50.686 0 0 0-38.779-.876 50.673 50.673 0 0 0-28.006 26.829 50.659 50.659 0 0 0-.828 38.77c10.123 26.087 39.477 39.03 65.57 28.913h.009z" fill="#08E694"/><path d="M224.56 133.204a50.673 50.673 0 0 0 28.012-26.827 50.659 50.659 0 0 0 .831-38.773 50.672 50.672 0 0 0-26.8-28.036 50.686 50.686 0 0 0-38.779-.876 50.673 50.673 0 0 0-28.015 26.83 50.659 50.659 0 0 0-.827 38.778 50.672 50.672 0 0 0 26.8 28.036 50.686 50.686 0 0 0 38.778.876v-.008z" fill="#09E693"/><path d="M223.992 135.484a50.673 50.673 0 0 0 28.012-26.827 50.659 50.659 0 0 0 .831-38.773 50.672 50.672 0 0 0-26.8-28.036 50.686 50.686 0 0 0-38.779-.876 50.673 50.673 0 0 0-28.01 26.827 50.659 50.659 0 0 0-.832 38.773 50.672 50.672 0 0 0 26.8 28.036 50.686 50.686 0 0 0 38.778.876z" fill="#0AE692"/><path d="M223.416 137.714a50.673 50.673 0 0 0 28.006-26.83 50.659 50.659 0 0 0 .828-38.77 50.672 50.672 0 0 0-26.8-28.036 50.686 50.686 0 0 0-38.778-.876 50.673 50.673 0 0 0-28.015 26.83 50.659 50.659 0 0 0-.828 38.778 50.672 50.672 0 0 0 26.803 28.04 50.686 50.686 0 0 0 38.784.872v-.008z" fill="#0BE692"/><path d="M222.84 139.985a50.673 50.673 0 0 0 28.01-26.827 50.659 50.659 0 0 0 .832-38.773 50.672 50.672 0 0 0-26.8-28.036 50.686 50.686 0 0 0-38.778-.876A50.673 50.673 0 0 0 158.092 72.3a50.659 50.659 0 0 0-.831 38.773 50.672 50.672 0 0 0 26.8 28.036 50.686 50.686 0 0 0 38.779.876z" fill="#0CE691"/><path d="M222.23 142.24a50.673 50.673 0 0 0 28.01-26.832 50.659 50.659 0 0 0 .824-38.776c-10.123-26.086-39.477-39.03-65.57-28.912a50.673 50.673 0 0 0-28.015 26.83 50.659 50.659 0 0 0-.828 38.778 50.672 50.672 0 0 0 26.8 28.036 50.686 50.686 0 0 0 38.779.876z" fill="#0DE690"/><path d="M221.687 144.528a50.673 50.673 0 0 0 28.011-26.827 50.659 50.659 0 0 0 .832-38.772 50.672 50.672 0 0 0-26.8-28.037 50.686 50.686 0 0 0-38.78-.876 50.673 50.673 0 0 0-28.01 26.827 50.659 50.659 0 0 0-.832 38.773 50.672 50.672 0 0 0 26.803 28.04 50.686 50.686 0 0 0 38.784.872h-.008z" fill="#0EE790"/><path d="M221.077 146.775a50.673 50.673 0 0 0 28.01-26.833 50.659 50.659 0 0 0 .825-38.775c-10.124-26.086-39.478-39.03-65.57-28.913a50.673 50.673 0 0 0-28.016 26.83 50.659 50.659 0 0 0-.828 38.779 50.672 50.672 0 0 0 26.8 28.036 50.686 50.686 0 0 0 38.78.876z" fill="#0FE78F"/><path d="M220.51 149.047a50.673 50.673 0 0 0 28.005-26.83 50.659 50.659 0 0 0 .829-38.77c-10.124-26.087-39.478-39.03-65.571-28.913a50.673 50.673 0 0 0-28.011 26.827 50.659 50.659 0 0 0-.832 38.773c10.124 26.086 39.478 39.03 65.57 28.913h.01z" fill="#10E78E"/><path d="M219.933 151.285a50.673 50.673 0 0 0 28.005-26.835 50.659 50.659 0 0 0 .821-38.773c-10.124-26.087-39.478-39.03-65.57-28.913a50.673 50.673 0 0 0-28.015 26.83 50.659 50.659 0 0 0-.828 38.778 50.672 50.672 0 0 0 26.8 28.037 50.686 50.686 0 0 0 38.779.876h.008z" fill="#11E78E"/><path d="M219.323 153.556a50.673 50.673 0 0 0 28.006-26.829 50.659 50.659 0 0 0 .829-38.77c-10.124-26.087-39.478-39.03-65.571-28.913a50.673 50.673 0 0 0-28.011 26.827 50.659 50.659 0 0 0-.832 38.773 50.672 50.672 0 0 0 26.8 28.036 50.686 50.686 0 0 0 38.78.876z" fill="#12E78D"/><path d="M218.747 155.803a50.673 50.673 0 0 0 28.01-26.833 50.659 50.659 0 0 0 .824-38.775 50.672 50.672 0 0 0-26.8-28.037 50.686 50.686 0 0 0-38.779-.876 50.673 50.673 0 0 0-28.01 26.833 50.659 50.659 0 0 0-.824 38.775c10.124 26.087 39.478 39.03 65.57 28.913h.009z" fill="#13E78C"/><path d="M218.145 158.074a50.673 50.673 0 0 0 28.006-26.829 50.659 50.659 0 0 0 .829-38.77 50.672 50.672 0 0 0-26.8-28.037 50.686 50.686 0 0 0-38.78-.876 50.673 50.673 0 0 0-28.005 26.83 50.659 50.659 0 0 0-.829 38.77c10.124 26.086 39.478 39.03 65.571 28.912h.008z" fill="#14E78C"/><path d="M217.594 160.338a50.673 50.673 0 0 0 28.01-26.833 50.659 50.659 0 0 0 .824-38.776 50.672 50.672 0 0 0-26.8-28.036 50.686 50.686 0 0 0-38.778-.876 50.673 50.673 0 0 0-28.015 26.83 50.659 50.659 0 0 0-.828 38.778 50.672 50.672 0 0 0 26.8 28.037 50.686 50.686 0 0 0 38.779.876h.008z" fill="#15E78B"/><path d="M216.993 162.61a50.673 50.673 0 0 0 28.006-26.83 50.659 50.659 0 0 0 .828-38.77 50.672 50.672 0 0 0-26.8-28.037 50.686 50.686 0 0 0-38.779-.876 50.673 50.673 0 0 0-28.006 26.83 50.659 50.659 0 0 0-.828 38.77c10.124 26.086 39.477 39.029 65.57 28.912h.009z" fill="#16E88A"/><path d="M216.408 164.856a50.673 50.673 0 0 0 28.01-26.833 50.659 50.659 0 0 0 .824-38.776c-10.123-26.086-39.477-39.029-65.57-28.912a50.673 50.673 0 0 0-28.015 26.83 50.659 50.659 0 0 0-.828 38.778 50.672 50.672 0 0 0 26.8 28.037 50.686 50.686 0 0 0 38.779.876z" fill="#17E88A"/><path d="M215.84 167.119a50.673 50.673 0 0 0 28.006-26.83 50.659 50.659 0 0 0 .828-38.77 50.672 50.672 0 0 0-26.8-28.036 50.686 50.686 0 0 0-38.779-.876 50.673 50.673 0 0 0-28.006 26.829 50.659 50.659 0 0 0-.828 38.77c10.124 26.087 39.478 39.03 65.57 28.913h.009z" fill="#18E889"/><path d="M215.255 169.365a50.673 50.673 0 0 0 28.015-26.83 50.659 50.659 0 0 0 .828-38.778 50.672 50.672 0 0 0-26.803-28.04 50.686 50.686 0 0 0-38.784-.872 50.673 50.673 0 0 0-28.01 26.832 50.659 50.659 0 0 0-.825 38.776 50.672 50.672 0 0 0 26.8 28.036 50.686 50.686 0 0 0 38.78.876z" fill="#19E888"/><path d="M214.654 171.637a50.673 50.673 0 0 0 28.011-26.827 50.659 50.659 0 0 0 .832-38.773 50.672 50.672 0 0 0-26.804-28.04 50.686 50.686 0 0 0-38.784-.872 50.673 50.673 0 0 0-28.006 26.829 50.659 50.659 0 0 0-.828 38.77 50.672 50.672 0 0 0 26.8 28.037 50.686 50.686 0 0 0 38.779.876z" fill="#1AE888"/><path d="M214.103 173.875a50.673 50.673 0 0 0 28.014-26.83 50.659 50.659 0 0 0 .828-38.778 50.672 50.672 0 0 0-26.805-28.035 50.686 50.686 0 0 0-38.782-.87 50.673 50.673 0 0 0-28.006 26.83 50.659 50.659 0 0 0-.828 38.77 50.672 50.672 0 0 0 26.8 28.037 50.686 50.686 0 0 0 38.779.876z" fill="#1BE887"/><path d="M213.501 176.172a50.673 50.673 0 0 0 28.011-26.827 50.659 50.659 0 0 0 .832-38.773 50.672 50.672 0 0 0-26.803-28.04 50.686 50.686 0 0 0-38.784-.872 50.673 50.673 0 0 0-28.006 26.829 50.659 50.659 0 0 0-.829 38.77 50.672 50.672 0 0 0 26.8 28.037 50.686 50.686 0 0 0 38.78.876z" fill="#1CE886"/><path d="M212.916 178.427a50.673 50.673 0 0 0 28.015-26.83 50.659 50.659 0 0 0 .828-38.779 50.672 50.672 0 0 0-26.8-28.036 50.686 50.686 0 0 0-38.779-.876 50.673 50.673 0 0 0-28.01 26.833 50.659 50.659 0 0 0-.824 38.775c10.124 26.087 39.478 39.03 65.57 28.913z" fill="#1DE886"/><path d="M212.323 180.698a50.673 50.673 0 0 0 28.006-26.83 50.659 50.659 0 0 0 .829-38.77c-10.124-26.086-39.478-39.029-65.57-28.912a50.673 50.673 0 0 0-28.012 26.827 50.659 50.659 0 0 0-.832 38.773c10.124 26.086 39.478 39.029 65.571 28.912h.008z" fill="#1EE885"/><path d="M211.772 182.928a50.673 50.673 0 0 0 28.006-26.83 50.659 50.659 0 0 0 .828-38.77 50.672 50.672 0 0 0-26.797-28.041 50.686 50.686 0 0 0-38.781-.88 50.673 50.673 0 0 0-28.01 26.833 50.659 50.659 0 0 0-.825 38.776c10.124 26.086 39.478 39.029 65.57 28.912h.01z" fill="#1FE984"/><path d="M210.41 185.25a50.531 50.531 0 0 0 27.971-26.722 50.517 50.517 0 0 0 .872-38.67 50.53 50.53 0 0 0-26.689-27.996 50.544 50.544 0 0 0-38.672-.924 50.531 50.531 0 0 0-27.976 26.72 50.517 50.517 0 0 0-.876 38.67 50.53 50.53 0 0 0 26.69 27.998 50.544 50.544 0 0 0 38.672.924h.009z" fill="#20E984"/><path d="M210.553 187.446a50.673 50.673 0 0 0 28.014-26.83 50.659 50.659 0 0 0 .828-38.778 50.672 50.672 0 0 0-26.8-28.036 50.686 50.686 0 0 0-38.779-.877 50.673 50.673 0 0 0-28.014 26.83 50.659 50.659 0 0 0-.828 38.779 50.672 50.672 0 0 0 26.8 28.036 50.686 50.686 0 0 0 38.779.876z" fill="#21E983"/><path d="M210.018 189.743a50.673 50.673 0 0 0 28.006-26.83 50.659 50.659 0 0 0 .828-38.77 50.672 50.672 0 0 0-26.8-28.036 50.686 50.686 0 0 0-38.779-.877 50.673 50.673 0 0 0-28.006 26.83 50.659 50.659 0 0 0-.828 38.77c10.124 26.087 39.478 39.03 65.57 28.913h.009z" fill="#22E982"/><path d="M209.408 191.99a50.673 50.673 0 0 0 28.01-26.833 50.659 50.659 0 0 0 .825-38.776c-10.126-26.088-39.486-39.028-65.58-28.904a50.673 50.673 0 0 0-28.01 26.827 50.659 50.659 0 0 0-.832 38.773 50.672 50.672 0 0 0 26.803 28.04 50.686 50.686 0 0 0 38.784.872z" fill="#23E982"/><path d="M208.832 194.26a50.673 50.673 0 0 0 28.011-26.826 50.659 50.659 0 0 0 .832-38.773 50.672 50.672 0 0 0-26.8-28.036 50.686 50.686 0 0 0-38.78-.876 50.673 50.673 0 0 0-28.01 26.827 50.659 50.659 0 0 0-.832 38.772 50.672 50.672 0 0 0 26.8 28.037 50.686 50.686 0 0 0 38.779.876z" fill="#24E981"/><path d="M208.222 196.507a50.673 50.673 0 0 0 28.015-26.83 50.659 50.659 0 0 0 .828-38.778 50.672 50.672 0 0 0-26.806-28.035 50.686 50.686 0 0 0-38.781-.869 50.673 50.673 0 0 0-28.006 26.83 50.659 50.659 0 0 0-.829 38.77 50.672 50.672 0 0 0 26.8 28.036 50.686 50.686 0 0 0 38.78.876z" fill="#25E980"/><path d="M207.68 198.762a50.673 50.673 0 0 0 28.01-26.827 50.659 50.659 0 0 0 .832-38.773 50.672 50.672 0 0 0-26.8-28.036 50.686 50.686 0 0 0-38.78-.876 50.673 50.673 0 0 0-28.01 26.827 50.659 50.659 0 0 0-.832 38.773 50.672 50.672 0 0 0 26.8 28.036 50.686 50.686 0 0 0 38.78.876z" fill="#26E980"/><path d="M206.276 201.017a50.531 50.531 0 0 0 27.972-26.716 50.517 50.517 0 0 0 .879-38.667 50.53 50.53 0 0 0-26.69-27.997 50.544 50.544 0 0 0-38.672-.923 50.531 50.531 0 0 0-27.966 26.718 50.517 50.517 0 0 0-.877 38.664 50.53 50.53 0 0 0 26.686 27.994 50.544 50.544 0 0 0 38.668.927z" fill="#27E97F"/><path d="M206.501 203.289a50.673 50.673 0 0 0 28.006-26.83 50.659 50.659 0 0 0 .829-38.77c-10.124-26.087-39.478-39.03-65.57-28.913a50.673 50.673 0 0 0-28.012 26.827 50.659 50.659 0 0 0-.832 38.773c10.124 26.087 39.478 39.03 65.571 28.913h.008z" fill="#28EA7E"/><path d="M205.917 205.552a50.673 50.673 0 0 0 28.006-26.83 50.659 50.659 0 0 0 .828-38.77c-10.124-26.086-39.478-39.03-65.57-28.912-26.083 10.146-39 39.513-28.852 65.591a50.672 50.672 0 0 0 26.8 28.036 50.686 50.686 0 0 0 38.78.876l.008.009z" fill="#29EA7E"/><path d="M205.349 207.823a50.673 50.673 0 0 0 28.006-26.829 50.659 50.659 0 0 0 .828-38.77c-10.124-26.087-39.478-39.03-65.57-28.913a50.673 50.673 0 0 0-28.012 26.827 50.659 50.659 0 0 0-.831 38.773 50.672 50.672 0 0 0 26.8 28.036 50.686 50.686 0 0 0 38.779.876z" fill="#2AEA7D"/><path d="M204.73 210.07a50.673 50.673 0 0 0 28.012-26.827 50.659 50.659 0 0 0 .831-38.773 50.672 50.672 0 0 0-26.798-28.041 50.686 50.686 0 0 0-38.78-.88 50.673 50.673 0 0 0-28.01 26.833 50.659 50.659 0 0 0-.825 38.776c10.124 26.086 39.478 39.029 65.57 28.912z" fill="#2BEA7C"/><path d="M204.188 212.3a50.673 50.673 0 0 0 28.006-26.83 50.659 50.659 0 0 0 .828-38.77 50.672 50.672 0 0 0-26.8-28.036 50.686 50.686 0 0 0-38.779-.877 50.673 50.673 0 0 0-28.011 26.828 50.659 50.659 0 0 0-.832 38.772 50.672 50.672 0 0 0 26.804 28.04 50.686 50.686 0 0 0 38.784.873z" fill="#2CEA7C"/><path d="M203.586 214.58a50.673 50.673 0 0 0 28.006-26.83 50.659 50.659 0 0 0 .829-38.77 50.672 50.672 0 0 0-26.8-28.037 50.686 50.686 0 0 0-38.78-.876 50.673 50.673 0 0 0-28.005 26.83 50.659 50.659 0 0 0-.829 38.77c10.124 26.087 39.478 39.03 65.57 28.913h.01z" fill="#2DEA7B"/><path d="M203.002 216.818a50.673 50.673 0 0 0 28.01-26.827 50.659 50.659 0 0 0 .832-38.773 50.672 50.672 0 0 0-26.803-28.04 50.686 50.686 0 0 0-38.784-.872 50.673 50.673 0 0 0-28.006 26.829 50.659 50.659 0 0 0-.828 38.77 50.672 50.672 0 0 0 26.8 28.037 50.686 50.686 0 0 0 38.779.876z" fill="#2EEA7A"/><path d="M202.4 219.098a50.673 50.673 0 0 0 28.006-26.83 50.659 50.659 0 0 0 .828-38.77c-10.123-26.086-39.477-39.03-65.57-28.913a50.673 50.673 0 0 0-28.011 26.828 50.659 50.659 0 0 0-.832 38.772 50.672 50.672 0 0 0 26.8 28.037 50.686 50.686 0 0 0 38.78.876z" fill="#2FEA7A"/><path d="M201.815 221.36a50.673 50.673 0 0 0 28.011-26.826 50.659 50.659 0 0 0 .832-38.773 50.672 50.672 0 0 0-26.8-28.036 50.686 50.686 0 0 0-38.779-.876 50.673 50.673 0 0 0-28.01 26.827 50.659 50.659 0 0 0-.833 38.773 50.672 50.672 0 0 0 26.8 28.036 50.686 50.686 0 0 0 38.78.876z" fill="#30EB79"/><path d="M201.247 223.64a50.673 50.673 0 0 0 28.012-26.826 50.659 50.659 0 0 0 .831-38.773 50.672 50.672 0 0 0-26.801-28.045 50.686 50.686 0 0 0-38.786-.876 50.673 50.673 0 0 0-28.01 26.833 50.659 50.659 0 0 0-.825 38.775 50.672 50.672 0 0 0 26.8 28.037 50.686 50.686 0 0 0 38.78.876z" fill="#31EB78"/><path d="M200.638 225.879a50.673 50.673 0 0 0 28.006-26.83 50.659 50.659 0 0 0 .828-38.77c-10.124-26.086-39.478-39.03-65.57-28.912a50.673 50.673 0 0 0-28.012 26.827 50.659 50.659 0 0 0-.831 38.773 50.672 50.672 0 0 0 26.8 28.036 50.686 50.686 0 0 0 38.779.876z" fill="#32EB78"/><path d="M200.095 228.142a50.673 50.673 0 0 0 28.015-26.83 50.659 50.659 0 0 0 .827-38.778 50.672 50.672 0 0 0-26.805-28.035 50.686 50.686 0 0 0-38.782-.869 50.673 50.673 0 0 0-28.006 26.83 50.659 50.659 0 0 0-.828 38.77 50.672 50.672 0 0 0 26.8 28.036 50.686 50.686 0 0 0 38.779.876z" fill="#33EB77"/><path d="M199.485 230.389a50.673 50.673 0 0 0 28.01-26.833 50.659 50.659 0 0 0 .824-38.775c-10.123-26.087-39.477-39.03-65.57-28.913a50.673 50.673 0 0 0-28.015 26.83 50.659 50.659 0 0 0-.828 38.778 50.672 50.672 0 0 0 26.8 28.037 50.686 50.686 0 0 0 38.779.876z" fill="#34EB76"/><path d="M198.065 232.585a50.531 50.531 0 0 0 27.975-26.72 50.517 50.517 0 0 0 .876-38.67 50.53 50.53 0 0 0-26.689-27.998 50.544 50.544 0 0 0-38.673-.924 50.531 50.531 0 0 0-27.97 26.722 50.517 50.517 0 0 0-.872 38.67c10.061 26.026 39.32 38.97 65.353 28.912v.008z" fill="#35EB76"/><path d="M197.48 234.807a50.531 50.531 0 0 0 27.972-26.717 50.517 50.517 0 0 0 .88-38.666 50.53 50.53 0 0 0-26.69-27.997 50.544 50.544 0 0 0-38.672-.924 50.531 50.531 0 0 0-27.972 26.716 50.517 50.517 0 0 0-.88 38.667 50.53 50.53 0 0 0 26.69 27.997 50.544 50.544 0 0 0 38.672.924z" fill="#36EB75"/><path d="M197.764 237.203a50.673 50.673 0 0 0 28.006-26.829 50.659 50.659 0 0 0 .829-38.77 50.672 50.672 0 0 0-26.8-28.037 50.686 50.686 0 0 0-38.78-.876 50.673 50.673 0 0 0-28.005 26.83 50.659 50.659 0 0 0-.829 38.77c10.124 26.086 39.478 39.03 65.57 28.912h.01z" fill="#37EB74"/><path d="M197.146 239.442a50.673 50.673 0 0 0 28.011-26.828 50.659 50.659 0 0 0 .832-38.772 50.672 50.672 0 0 0-26.8-28.037 50.686 50.686 0 0 0-38.78-.876 50.673 50.673 0 0 0-28.01 26.827 50.659 50.659 0 0 0-.832 38.773 50.672 50.672 0 0 0 26.8 28.037 50.686 50.686 0 0 0 38.78.876z" fill="#38EB74"/><path d="M196.578 241.722a50.673 50.673 0 0 0 28.011-26.828 50.659 50.659 0 0 0 .832-38.772 50.672 50.672 0 0 0-26.8-28.037 50.686 50.686 0 0 0-38.78-.876 50.673 50.673 0 0 0-28.01 26.827 50.659 50.659 0 0 0-.832 38.773 50.672 50.672 0 0 0 26.8 28.036 50.686 50.686 0 0 0 38.78.877z" fill="#39EC73"/><path d="M196.002 243.96a50.673 50.673 0 0 0 28.01-26.833 50.659 50.659 0 0 0 .824-38.776 50.672 50.672 0 0 0-26.8-28.036 50.686 50.686 0 0 0-38.779-.876 50.673 50.673 0 0 0-28.01 26.833 50.659 50.659 0 0 0-.824 38.775c10.124 26.087 39.478 39.03 65.57 28.913h.009z" fill="#3AEC72"/><path d="M195.425 246.231a50.673 50.673 0 0 0 28.012-26.827 50.659 50.659 0 0 0 .831-38.773 50.672 50.672 0 0 0-26.803-28.04 50.686 50.686 0 0 0-38.784-.872 50.673 50.673 0 0 0-28.006 26.83 50.659 50.659 0 0 0-.829 38.77 50.672 50.672 0 0 0 26.8 28.036 50.686 50.686 0 0 0 38.78.876z" fill="#3BEC72"/><path d="M194.816 248.478a50.673 50.673 0 0 0 28.01-26.833 50.659 50.659 0 0 0 .824-38.775c-10.124-26.087-39.478-39.03-65.57-28.913a50.673 50.673 0 0 0-28.015 26.83 50.659 50.659 0 0 0-.828 38.778 50.672 50.672 0 0 0 26.8 28.037 50.686 50.686 0 0 0 38.779.876z" fill="#3CEC71"/><path d="M194.273 250.766a50.673 50.673 0 0 0 28.01-26.827 50.659 50.659 0 0 0 .832-38.773 50.672 50.672 0 0 0-26.8-28.036 50.686 50.686 0 0 0-38.779-.876 50.673 50.673 0 0 0-28.01 26.827 50.659 50.659 0 0 0-.832 38.773 50.672 50.672 0 0 0 26.8 28.036 50.686 50.686 0 0 0 38.779.876z" fill="#3DEC70"/><path d="M193.663 253.013a50.673 50.673 0 0 0 28.01-26.833 50.659 50.659 0 0 0 .824-38.776c-10.123-26.086-39.477-39.029-65.57-28.912a50.673 50.673 0 0 0-28.011 26.827 50.659 50.659 0 0 0-.832 38.773 50.672 50.672 0 0 0 26.798 28.041 50.686 50.686 0 0 0 38.78.88z" fill="#3EEC70"/><path d="M193.062 255.284a50.673 50.673 0 0 0 28.014-26.83 50.659 50.659 0 0 0 .828-38.778c-10.125-26.088-39.486-39.028-65.579-28.904a50.673 50.673 0 0 0-28.01 26.827 50.659 50.659 0 0 0-.832 38.773 50.672 50.672 0 0 0 26.8 28.036 50.686 50.686 0 0 0 38.779.876z" fill="#3FEC6F"/><path d="M192.51 257.514a50.673 50.673 0 0 0 28.011-26.827 50.659 50.659 0 0 0 .832-38.773c-10.124-26.086-39.478-39.03-65.57-28.912a50.673 50.673 0 0 0-28.012 26.827 50.659 50.659 0 0 0-.831 38.773 50.672 50.672 0 0 0 26.8 28.036 50.686 50.686 0 0 0 38.779.876h-.009z" fill="#40EC6E"/><path d="M191.909 259.794a50.673 50.673 0 0 0 28.006-26.83 50.659 50.659 0 0 0 .828-38.77c-10.124-26.086-39.477-39.03-65.57-28.912a50.673 50.673 0 0 0-28.011 26.827 50.659 50.659 0 0 0-.832 38.772 50.672 50.672 0 0 0 26.8 28.037 50.686 50.686 0 0 0 38.779.876z" fill="#41EC6E"/><path d="M191.324 262.04a50.673 50.673 0 0 0 28.015-26.83 50.659 50.659 0 0 0 .828-38.778 50.672 50.672 0 0 0-26.8-28.036 50.686 50.686 0 0 0-38.78-.876 50.673 50.673 0 0 0-28.01 26.827 50.659 50.659 0 0 0-.832 38.773 50.672 50.672 0 0 0 26.8 28.036 50.686 50.686 0 0 0 38.78.876v.008z" fill="#42ED6D"/><path d="M190.731 264.312a50.673 50.673 0 0 0 28.006-26.83 50.659 50.659 0 0 0 .828-38.77 50.672 50.672 0 0 0-26.8-28.036 50.686 50.686 0 0 0-38.779-.876 50.673 50.673 0 0 0-28.006 26.829 50.659 50.659 0 0 0-.828 38.77c10.124 26.087 39.478 39.03 65.57 28.913h.009z" fill="#43ED6C"/><path d="M189.278 266.408a50.531 50.531 0 0 0 27.97-26.721 50.517 50.517 0 0 0 .872-38.67 50.53 50.53 0 0 0-26.689-27.997 50.544 50.544 0 0 0-38.672-.924 50.531 50.531 0 0 0-27.976 26.72 50.517 50.517 0 0 0-.875 38.671 50.53 50.53 0 0 0 26.69 27.992 50.544 50.544 0 0 0 38.671.92l.009.01z" fill="#44ED6C"/><path d="M189.578 268.847a50.673 50.673 0 0 0 28.006-26.83 50.659 50.659 0 0 0 .829-38.77 50.672 50.672 0 0 0-26.8-28.036 50.686 50.686 0 0 0-38.78-.877 50.673 50.673 0 0 0-28.005 26.83 50.659 50.659 0 0 0-.829 38.77c10.124 26.087 39.478 39.03 65.571 28.913h.008z" fill="#45ED6B"/><path d="M188.994 271.102a50.673 50.673 0 0 0 28.01-26.833 50.659 50.659 0 0 0 .824-38.776c-10.124-26.086-39.478-39.029-65.57-28.912a50.673 50.673 0 0 0-28.02 26.828 50.659 50.659 0 0 0-.832 38.78 50.672 50.672 0 0 0 26.8 28.037 50.686 50.686 0 0 0 38.78.876h.008z" fill="#46ED6A"/><path d="M188.426 273.356a50.673 50.673 0 0 0 28.006-26.829 50.659 50.659 0 0 0 .828-38.77 50.672 50.672 0 0 0-26.8-28.037 50.686 50.686 0 0 0-38.779-.876 50.673 50.673 0 0 0-28.006 26.83 50.659 50.659 0 0 0-.828 38.77c10.123 26.086 39.477 39.03 65.57 28.912h.009z" fill="#47ED6A"/><path d="M187.84 275.595a50.673 50.673 0 0 0 28.012-26.828 50.659 50.659 0 0 0 .832-38.772 50.672 50.672 0 0 0-26.8-28.037 50.686 50.686 0 0 0-38.78-.876 50.673 50.673 0 0 0-28.014 26.83 50.659 50.659 0 0 0-.828 38.779c10.125 26.088 39.486 39.027 65.579 28.904z" fill="#48ED69"/><path d="M187.24 277.875a50.673 50.673 0 0 0 28.01-26.828 50.659 50.659 0 0 0 .832-38.772 50.672 50.672 0 0 0-26.803-28.04 50.686 50.686 0 0 0-38.784-.873 50.673 50.673 0 0 0-28.006 26.83 50.659 50.659 0 0 0-.828 38.77 50.672 50.672 0 0 0 26.8 28.036 50.686 50.686 0 0 0 38.779.877z" fill="#49ED68"/><path d="M186.655 279.946a50.673 50.673 0 0 0 28.01-26.827 50.659 50.659 0 0 0 .833-38.773 50.672 50.672 0 0 0-26.804-28.04 50.686 50.686 0 0 0-38.784-.873 50.673 50.673 0 0 0-28.006 26.83 50.659 50.659 0 0 0-.828 38.77 50.672 50.672 0 0 0 26.8 28.037 50.686 50.686 0 0 0 38.779.876z" fill="#4AEE68"/><path d="M185.903 277.716a50.673 50.673 0 0 0 28.006-26.83 50.659 50.659 0 0 0 .828-38.77c-10.123-26.086-39.477-39.03-65.57-28.912a50.673 50.673 0 0 0-28.011 26.827 50.659 50.659 0 0 0-.832 38.772 50.672 50.672 0 0 0 26.8 28.037 50.686 50.686 0 0 0 38.78.876z" fill="#4BEE67"/><path d="M185.168 275.553a50.673 50.673 0 0 0 28.01-26.833 50.659 50.659 0 0 0 .824-38.775 50.672 50.672 0 0 0-26.8-28.037 50.686 50.686 0 0 0-38.779-.876 50.673 50.673 0 0 0-28.014 26.83 50.659 50.659 0 0 0-.828 38.778 50.672 50.672 0 0 0 26.8 28.037 50.686 50.686 0 0 0 38.779.876h.008z" fill="#4CEE66"/><path d="M184.416 273.315a50.673 50.673 0 0 0 28.006-26.83 50.659 50.659 0 0 0 .829-38.77 50.672 50.672 0 0 0-26.8-28.037 50.686 50.686 0 0 0-38.78-.876 50.673 50.673 0 0 0-28.005 26.83 50.659 50.659 0 0 0-.829 38.77c10.124 26.087 39.478 39.03 65.57 28.913h.01z" fill="#4DEE66"/><path d="M183.664 271.118a50.673 50.673 0 0 0 28.006-26.829 50.659 50.659 0 0 0 .829-38.77 50.672 50.672 0 0 0-26.8-28.037 50.686 50.686 0 0 0-38.78-.876 50.673 50.673 0 0 0-28.01 26.827 50.659 50.659 0 0 0-.832 38.773 50.672 50.672 0 0 0 26.803 28.04 50.686 50.686 0 0 0 38.784.872z" fill="#4EEE65"/><path d="M182.913 268.897a50.673 50.673 0 0 0 28.01-26.833 50.659 50.659 0 0 0 .824-38.775c-10.125-26.088-39.486-39.028-65.579-28.904a50.673 50.673 0 0 0-28.006 26.829 50.659 50.659 0 0 0-.828 38.77c10.124 26.087 39.477 39.03 65.57 28.913h.009z" fill="#4FEE64"/><path d="M182.128 266.709a50.673 50.673 0 0 0 28.01-26.827 50.659 50.659 0 0 0 .832-38.773 50.672 50.672 0 0 0-26.803-28.04 50.686 50.686 0 0 0-38.784-.873 50.673 50.673 0 0 0-28.006 26.83 50.659 50.659 0 0 0-.828 38.77 50.672 50.672 0 0 0 26.8 28.037 50.686 50.686 0 0 0 38.779.876z" fill="#50EE64"/><path d="M180.499 264.287a50.531 50.531 0 0 0 27.966-26.718 50.517 50.517 0 0 0 .876-38.665 50.53 50.53 0 0 0-26.689-27.997 50.544 50.544 0 0 0-38.672-.924 50.531 50.531 0 0 0-27.97 26.722 50.517 50.517 0 0 0-.873 38.67 50.53 50.53 0 0 0 26.691 27.991 50.544 50.544 0 0 0 38.67.92z" fill="#51EE63"/><path d="M180.624 262.283a50.673 50.673 0 0 0 28.015-26.83 50.659 50.659 0 0 0 .828-38.779 50.672 50.672 0 0 0-26.804-28.04 50.686 50.686 0 0 0-38.784-.872 50.673 50.673 0 0 0-28.01 26.832 50.659 50.659 0 0 0-.824 38.776 50.672 50.672 0 0 0 26.8 28.037 50.686 50.686 0 0 0 38.779.876z" fill="#52EE62"/><path d="M179.889 260.078a50.673 50.673 0 0 0 28.006-26.83 50.659 50.659 0 0 0 .828-38.77c-10.123-26.086-39.477-39.03-65.57-28.912a50.673 50.673 0 0 0-28.011 26.827 50.659 50.659 0 0 0-.832 38.772c10.124 26.087 39.478 39.03 65.57 28.913h.009z" fill="#53EF62"/><path d="M179.137 257.848a50.673 50.673 0 0 0 28.006-26.83 50.659 50.659 0 0 0 .829-38.77 50.672 50.672 0 0 0-26.8-28.036 50.686 50.686 0 0 0-38.78-.876 50.673 50.673 0 0 0-28.01 26.832 50.659 50.659 0 0 0-.824 38.776c10.126 26.083 39.481 39.022 65.57 28.904h.01z" fill="#54EF61"/><path d="M178.385 255.652a50.673 50.673 0 0 0 28.006-26.83 50.659 50.659 0 0 0 .829-38.77 50.672 50.672 0 0 0-26.798-28.042 50.686 50.686 0 0 0-38.781-.879 50.673 50.673 0 0 0-28.01 26.833 50.659 50.659 0 0 0-.825 38.775c10.124 26.086 39.478 39.03 65.571 28.913h.008z" fill="#55EF60"/><path d="M177.634 253.422a50.673 50.673 0 0 0 28.006-26.83 50.659 50.659 0 0 0 .828-38.77 50.672 50.672 0 0 0-26.8-28.036 50.686 50.686 0 0 0-38.779-.876 50.673 50.673 0 0 0-28.006 26.829 50.659 50.659 0 0 0-.828 38.77c10.123 26.087 39.477 39.03 65.57 28.913h.009z" fill="#56EF60"/><path d="M176.848 251.242a50.673 50.673 0 0 0 28.015-26.83 50.659 50.659 0 0 0 .828-38.778 50.672 50.672 0 0 0-26.803-28.04 50.686 50.686 0 0 0-38.784-.873 50.673 50.673 0 0 0-28.01 26.833 50.659 50.659 0 0 0-.824 38.776 50.672 50.672 0 0 0 26.8 28.036 50.686 50.686 0 0 0 38.778.876z" fill="#57EF5F"/><path d="M176.097 249.012a50.673 50.673 0 0 0 28.01-26.827 50.659 50.659 0 0 0 .832-38.773 50.672 50.672 0 0 0-26.8-28.036 50.686 50.686 0 0 0-38.779-.876 50.673 50.673 0 0 0-28.01 26.827 50.659 50.659 0 0 0-.832 38.773 50.672 50.672 0 0 0 26.8 28.036 50.686 50.686 0 0 0 38.779.876z" fill="#58EF5E"/><path d="M175.353 246.807a50.673 50.673 0 0 0 28.006-26.829 50.659 50.659 0 0 0 .829-38.77 50.672 50.672 0 0 0-26.8-28.037 50.686 50.686 0 0 0-38.78-.876 50.673 50.673 0 0 0-28.01 26.827 50.659 50.659 0 0 0-.832 38.773 50.672 50.672 0 0 0 26.803 28.04 50.686 50.686 0 0 0 38.784.872z" fill="#59EF5E"/><path d="M174.602 244.586a50.673 50.673 0 0 0 28.01-26.833 50.659 50.659 0 0 0 .824-38.775 50.672 50.672 0 0 0-26.8-28.036 50.686 50.686 0 0 0-38.779-.877 50.673 50.673 0 0 0-28.015 26.83 50.659 50.659 0 0 0-.828 38.779 50.672 50.672 0 0 0 26.804 28.04 50.686 50.686 0 0 0 38.784.872z" fill="#5AEF5D"/><path d="M173.858 242.381a50.673 50.673 0 0 0 28.006-26.829 50.659 50.659 0 0 0 .828-38.77c-10.123-26.087-39.477-39.03-65.57-28.913a50.673 50.673 0 0 0-28.011 26.827 50.659 50.659 0 0 0-.832 38.773c10.124 26.086 39.478 39.03 65.57 28.912h.01z" fill="#5BEF5C"/><path d="M173.106 240.185a50.673 50.673 0 0 0 28.006-26.83 50.659 50.659 0 0 0 .829-38.77c-10.124-26.086-39.478-39.03-65.57-28.912a50.673 50.673 0 0 0-28.012 26.827 50.659 50.659 0 0 0-.832 38.772 50.672 50.672 0 0 0 26.8 28.037 50.686 50.686 0 0 0 38.78.876z" fill="#5CF05C"/><path d="M172.355 237.955a50.673 50.673 0 0 0 28.01-26.832 50.659 50.659 0 0 0 .824-38.776c-10.124-26.086-39.478-39.03-65.57-28.913a50.673 50.673 0 0 0-28.015 26.83 50.659 50.659 0 0 0-.828 38.779 50.672 50.672 0 0 0 26.8 28.036 50.686 50.686 0 0 0 38.779.876z" fill="#5DF05B"/><path d="M171.57 235.767a50.673 50.673 0 0 0 28.01-26.827 50.659 50.659 0 0 0 .832-38.773 50.672 50.672 0 0 0-26.8-28.036 50.686 50.686 0 0 0-38.779-.876 50.673 50.673 0 0 0-28.006 26.829 50.659 50.659 0 0 0-.828 38.77c10.124 26.087 39.477 39.03 65.57 28.913z" fill="#5EF05A"/><path d="M170.818 233.537a50.673 50.673 0 0 0 28.01-26.827 50.659 50.659 0 0 0 .832-38.773 50.672 50.672 0 0 0-26.8-28.036 50.686 50.686 0 0 0-38.779-.876 50.673 50.673 0 0 0-28.006 26.83 50.659 50.659 0 0 0-.828 38.77c10.124 26.086 39.478 39.029 65.57 28.912z" fill="#5FF05A"/><path d="M170.066 231.332a50.673 50.673 0 0 0 28.011-26.827 50.659 50.659 0 0 0 .832-38.772 50.672 50.672 0 0 0-26.8-28.037 50.686 50.686 0 0 0-38.78-.876 50.673 50.673 0 0 0-28.01 26.833 50.659 50.659 0 0 0-.824 38.775c10.124 26.087 39.478 39.03 65.57 28.913v-.009z" fill="#60F059"/><path d="M169.314 229.111a50.673 50.673 0 0 0 28.011-26.827 50.659 50.659 0 0 0 .832-38.773 50.672 50.672 0 0 0-26.8-28.036 50.686 50.686 0 0 0-38.78-.876 50.673 50.673 0 0 0-28.005 26.829 50.659 50.659 0 0 0-.828 38.77c10.123 26.087 39.477 39.03 65.57 28.913z" fill="#61F058"/><path d="M168.612 226.94a50.673 50.673 0 0 0 28.006-26.83 50.659 50.659 0 0 0 .829-38.77c-10.124-26.087-39.478-39.03-65.57-28.913a50.673 50.673 0 0 0-28.012 26.828 50.659 50.659 0 0 0-.831 38.772 50.672 50.672 0 0 0 26.8 28.037 50.686 50.686 0 0 0 38.778.876z" fill="#62F058"/><path d="M167.86 224.718a50.673 50.673 0 0 0 28.01-26.832 50.659 50.659 0 0 0 .825-38.776c-10.124-26.086-39.478-39.03-65.57-28.912a50.673 50.673 0 0 0-28.015 26.83 50.659 50.659 0 0 0-.828 38.778c10.124 26.086 39.477 39.029 65.57 28.912h.009z" fill="#63F057"/><path d="M167.109 222.488a50.673 50.673 0 0 0 28.006-26.829 50.659 50.659 0 0 0 .828-38.77c-10.123-26.087-39.477-39.03-65.57-28.913a50.673 50.673 0 0 0-28.011 26.827 50.659 50.659 0 0 0-.832 38.773 50.672 50.672 0 0 0 26.8 28.036 50.686 50.686 0 0 0 38.779.876z" fill="#64F156"/><path d="M166.357 220.292a50.673 50.673 0 0 0 28.01-26.833 50.659 50.659 0 0 0 .825-38.775c-10.124-26.087-39.478-39.03-65.571-28.913a50.673 50.673 0 0 0-28.015 26.83 50.659 50.659 0 0 0-.828 38.779 50.672 50.672 0 0 0 26.8 28.036 50.686 50.686 0 0 0 38.78.876z" fill="#65F156"/><path d="M165.58 218.07a50.673 50.673 0 0 0 28.006-26.829 50.659 50.659 0 0 0 .829-38.77 50.672 50.672 0 0 0-26.798-28.042 50.686 50.686 0 0 0-38.781-.88 50.673 50.673 0 0 0-28.01 26.833 50.659 50.659 0 0 0-.825 38.776c10.124 26.086 39.478 39.03 65.571 28.912h.008z" fill="#66F155"/><path d="M164.829 215.882a50.673 50.673 0 0 0 28.01-26.832 50.659 50.659 0 0 0 .824-38.776 50.672 50.672 0 0 0-26.8-28.036 50.686 50.686 0 0 0-38.779-.876 50.673 50.673 0 0 0-28.006 26.83 50.659 50.659 0 0 0-.828 38.77c10.123 26.086 39.477 39.029 65.57 28.912l.009.008z" fill="#67F154"/><path d="M164.077 213.644a50.673 50.673 0 0 0 28.01-26.832 50.659 50.659 0 0 0 .824-38.776 50.672 50.672 0 0 0-26.8-28.036 50.686 50.686 0 0 0-38.779-.876 50.673 50.673 0 0 0-28.01 26.832 50.659 50.659 0 0 0-.824 38.776c10.124 26.086 39.478 39.03 65.57 28.912h.009z" fill="#68F154"/><path d="M163.333 211.481a50.673 50.673 0 0 0 28.015-26.83 50.659 50.659 0 0 0 .828-38.778 50.672 50.672 0 0 0-26.805-28.035 50.686 50.686 0 0 0-38.782-.869 50.673 50.673 0 0 0-28.006 26.83 50.659 50.659 0 0 0-.829 38.77 50.672 50.672 0 0 0 26.8 28.036 50.686 50.686 0 0 0 38.78.876z" fill="#69F153"/><path d="M162.582 209.243a50.673 50.673 0 0 0 28.01-26.827 50.659 50.659 0 0 0 .832-38.773 50.672 50.672 0 0 0-26.803-28.04 50.686 50.686 0 0 0-38.784-.872 50.673 50.673 0 0 0-28.006 26.83 50.659 50.659 0 0 0-.828 38.77 50.672 50.672 0 0 0 26.8 28.036 50.686 50.686 0 0 0 38.779.876z" fill="#6AF152"/><path d="M161.83 207.055a50.673 50.673 0 0 0 28.015-26.83 50.659 50.659 0 0 0 .828-38.778 50.672 50.672 0 0 0-26.804-28.04 50.686 50.686 0 0 0-38.784-.873 50.673 50.673 0 0 0-28.01 26.833 50.659 50.659 0 0 0-.824 38.776 50.672 50.672 0 0 0 26.8 28.036 50.686 50.686 0 0 0 38.779.876z" fill="#6BF152"/><path d="M161.078 204.817a50.673 50.673 0 0 0 28.011-26.827 50.659 50.659 0 0 0 .832-38.773 50.672 50.672 0 0 0-26.8-28.036 50.686 50.686 0 0 0-38.78-.876 50.673 50.673 0 0 0-28.01 26.827 50.659 50.659 0 0 0-.832 38.773 50.672 50.672 0 0 0 26.8 28.036 50.686 50.686 0 0 0 38.78.876z" fill="#6CF151"/><path d="M160.293 202.604a50.673 50.673 0 0 0 28.015-26.83 50.659 50.659 0 0 0 .828-38.778c-10.124-26.087-39.478-39.03-65.57-28.913a50.673 50.673 0 0 0-28.012 26.827 50.659 50.659 0 0 0-.832 38.773c10.124 26.086 39.478 39.03 65.57 28.912v.009z" fill="#6DF250"/><path d="M159.55 200.407a50.673 50.673 0 0 0 28.01-26.832 50.659 50.659 0 0 0 .824-38.776c-10.124-26.086-39.478-39.029-65.57-28.912a50.673 50.673 0 0 0-28.016 26.83 50.659 50.659 0 0 0-.827 38.778 50.672 50.672 0 0 0 26.8 28.036 50.686 50.686 0 0 0 38.779.876z" fill="#6EF250"/><path d="M158.798 198.178a50.673 50.673 0 0 0 28.006-26.83 50.659 50.659 0 0 0 .828-38.77c-10.124-26.087-39.478-39.03-65.57-28.913a50.673 50.673 0 0 0-28.012 26.827 50.659 50.659 0 0 0-.831 38.773 50.672 50.672 0 0 0 26.8 28.037 50.686 50.686 0 0 0 38.779.876z" fill="#6FF24F"/><path d="M158.046 195.973a50.673 50.673 0 0 0 28.006-26.83 50.659 50.659 0 0 0 .828-38.77c-10.123-26.086-39.477-39.03-65.57-28.912a50.673 50.673 0 0 0-28.011 26.827 50.659 50.659 0 0 0-.832 38.772 50.672 50.672 0 0 0 26.8 28.037 50.686 50.686 0 0 0 38.779.876z" fill="#70F24E"/><path d="M157.303 193.776a50.673 50.673 0 0 0 28.014-26.83 50.659 50.659 0 0 0 .828-38.778 50.672 50.672 0 0 0-26.8-28.036 50.686 50.686 0 0 0-38.779-.876 50.673 50.673 0 0 0-28.014 26.83 50.659 50.659 0 0 0-.828 38.778 50.672 50.672 0 0 0 26.8 28.036 50.686 50.686 0 0 0 38.779.876z" fill="#71F24E"/><path d="M156.55 191.58a50.673 50.673 0 0 0 28.012-26.827 50.659 50.659 0 0 0 .832-38.773 50.672 50.672 0 0 0-26.8-28.036 50.686 50.686 0 0 0-38.78-.876 50.673 50.673 0 0 0-28.01 26.827 50.659 50.659 0 0 0-.832 38.773 50.672 50.672 0 0 0 26.8 28.036 50.686 50.686 0 0 0 38.779.876z" fill="#72F24D"/><path d="M155.807 189.35a50.673 50.673 0 0 0 28.006-26.83 50.659 50.659 0 0 0 .829-38.77 50.672 50.672 0 0 0-26.8-28.036 50.686 50.686 0 0 0-38.78-.876 50.673 50.673 0 0 0-28.005 26.83 50.659 50.659 0 0 0-.829 38.77c10.124 26.086 39.478 39.029 65.571 28.912h.008z" fill="#73F24C"/><path d="M155.03 187.137a50.673 50.673 0 0 0 28.005-26.835 50.659 50.659 0 0 0 .822-38.773c-10.124-26.086-39.478-39.03-65.571-28.913a50.673 50.673 0 0 0-28.015 26.83 50.659 50.659 0 0 0-.828 38.779 50.672 50.672 0 0 0 26.8 28.036 50.686 50.686 0 0 0 38.78.876h.008z" fill="#74F24B"/><path d="M154.279 184.932a50.673 50.673 0 0 0 28.006-26.829 50.659 50.659 0 0 0 .828-38.77 50.672 50.672 0 0 0-26.803-28.04 50.686 50.686 0 0 0-38.784-.873 50.673 50.673 0 0 0-28.006 26.83 50.659 50.659 0 0 0-.828 38.77 50.672 50.672 0 0 0 26.8 28.036 50.686 50.686 0 0 0 38.778.876h.009z" fill="#75F24B"/><path d="M153.527 182.71a50.673 50.673 0 0 0 28.005-26.834 50.659 50.659 0 0 0 .821-38.773c-10.124-26.087-39.478-39.03-65.57-28.913a50.673 50.673 0 0 0-28.015 26.83 50.659 50.659 0 0 0-.828 38.778 50.672 50.672 0 0 0 26.8 28.037 50.686 50.686 0 0 0 38.779.876h.008z" fill="#76F34A"/><path d="M152.775 180.514a50.673 50.673 0 0 0 28.01-26.832 50.659 50.659 0 0 0 .825-38.776 50.672 50.672 0 0 0-26.804-28.04 50.686 50.686 0 0 0-38.784-.872 50.673 50.673 0 0 0-28.01 26.832 50.659 50.659 0 0 0-.824 38.776 50.672 50.672 0 0 0 26.8 28.036 50.686 50.686 0 0 0 38.779.876h.008z" fill="#77F349"/><path d="M152.024 178.31a50.673 50.673 0 0 0 28.01-26.827 50.659 50.659 0 0 0 .832-38.773 50.672 50.672 0 0 0-26.8-28.036 50.686 50.686 0 0 0-38.779-.877 50.673 50.673 0 0 0-28.006 26.83 50.659 50.659 0 0 0-.828 38.77c10.124 26.087 39.478 39.03 65.57 28.913z" fill="#78F349"/><path d="M151.272 176.105a50.673 50.673 0 0 0 28.01-26.827 50.659 50.659 0 0 0 .832-38.773 50.672 50.672 0 0 0-26.8-28.036 50.686 50.686 0 0 0-38.778-.876 50.673 50.673 0 0 0-28.006 26.829 50.659 50.659 0 0 0-.829 38.77c10.124 26.087 39.478 39.03 65.57 28.913z" fill="#79F348"/><path d="M150.52 173.875c26.08-10.15 38.992-39.515 28.843-65.591a50.672 50.672 0 0 0-26.8-28.037 50.686 50.686 0 0 0-38.78-.876 50.673 50.673 0 0 0-28.005 26.83 50.659 50.659 0 0 0-.829 38.77c10.124 26.086 39.478 39.03 65.571 28.912v-.008z" fill="#7AF347"/><path d="M149.743 171.704a50.673 50.673 0 0 0 28.015-26.83 50.659 50.659 0 0 0 .828-38.778 50.672 50.672 0 0 0-26.8-28.037 50.686 50.686 0 0 0-38.779-.876 50.673 50.673 0 0 0-28.011 26.827 50.659 50.659 0 0 0-.832 38.773 50.672 50.672 0 0 0 26.8 28.036 50.686 50.686 0 0 0 38.78.876v.009z" fill="#7BF347"/><path d="M148.991 169.474a50.673 50.673 0 0 0 28.015-26.83 50.659 50.659 0 0 0 .828-38.778 50.672 50.672 0 0 0-26.8-28.037 50.686 50.686 0 0 0-38.779-.876 50.673 50.673 0 0 0-28.015 26.83 50.659 50.659 0 0 0-.828 38.779 50.672 50.672 0 0 0 26.8 28.036 50.686 50.686 0 0 0 38.78.876z" fill="#7CF346"/><path d="M148.24 167.236a50.673 50.673 0 0 0 28.01-26.827 50.659 50.659 0 0 0 .832-38.773 50.672 50.672 0 0 0-26.8-28.036 50.686 50.686 0 0 0-38.779-.876 50.673 50.673 0 0 0-28.01 26.827 50.659 50.659 0 0 0-.832 38.772 50.672 50.672 0 0 0 26.8 28.037 50.686 50.686 0 0 0 38.779.876z" fill="#7DF345"/><path d="M147.488 165.04a50.673 50.673 0 0 0 28.011-26.828 50.659 50.659 0 0 0 .832-38.772 50.672 50.672 0 0 0-26.8-28.037 50.686 50.686 0 0 0-38.78-.876 50.673 50.673 0 0 0-28.01 26.827 50.659 50.659 0 0 0-.832 38.773 50.672 50.672 0 0 0 26.8 28.036 50.686 50.686 0 0 0 38.779.876z" fill="#7EF345"/><path d="M146.744 162.818a50.673 50.673 0 0 0 28.01-26.833 50.659 50.659 0 0 0 .825-38.775 50.672 50.672 0 0 0-26.8-28.037 50.686 50.686 0 0 0-38.78-.876 50.673 50.673 0 0 0-28.014 26.83 50.659 50.659 0 0 0-.828 38.779 50.672 50.672 0 0 0 26.803 28.04 50.686 50.686 0 0 0 38.784.872z" fill="#7FF444"/><path d="M146.034 160.647a50.673 50.673 0 0 0 28.01-26.833 50.659 50.659 0 0 0 .825-38.776c-10.126-26.088-39.486-39.027-65.58-28.904a50.673 50.673 0 0 0-28.005 26.83 50.659 50.659 0 0 0-.828 38.77c10.123 26.087 39.477 39.03 65.57 28.913h.008z" fill="#80F443"/><path d="M145.283 158.408a50.673 50.673 0 0 0 28.006-26.829 50.659 50.659 0 0 0 .828-38.77 50.672 50.672 0 0 0-26.8-28.037 50.686 50.686 0 0 0-38.779-.876 50.673 50.673 0 0 0-28.006 26.83 50.659 50.659 0 0 0-.828 38.77c10.124 26.086 39.477 39.03 65.57 28.912h.009z" fill="#81F443"/><path d="M144.506 156.229a50.673 50.673 0 0 0 28.01-26.833 50.659 50.659 0 0 0 .824-38.775 50.672 50.672 0 0 0-26.805-28.036 50.686 50.686 0 0 0-38.782-.869 50.673 50.673 0 0 0-28.015 26.83 50.659 50.659 0 0 0-.828 38.779 50.672 50.672 0 0 0 26.8 28.036 50.686 50.686 0 0 0 38.78.876l.016-.008z" fill="#82F442"/><path d="M143.754 153.999c26.078-10.157 38.983-39.527 28.826-65.6-10.124-26.086-39.478-39.03-65.57-28.912a50.673 50.673 0 0 0-28.012 26.827 50.659 50.659 0 0 0-.831 38.773 50.672 50.672 0 0 0 26.8 28.036 50.686 50.686 0 0 0 38.779.876h.008z" fill="#83F441"/><path d="M143.002 151.77a50.673 50.673 0 0 0 28.006-26.83 50.659 50.659 0 0 0 .829-38.77 50.672 50.672 0 0 0-26.8-28.037 50.686 50.686 0 0 0-38.78-.876 50.673 50.673 0 0 0-28.01 26.827 50.659 50.659 0 0 0-.832 38.773 50.672 50.672 0 0 0 26.8 28.036 50.686 50.686 0 0 0 38.779.876h.008z" fill="#84F441"/><path d="M142.25 149.573a50.673 50.673 0 0 0 28.01-26.833 50.659 50.659 0 0 0 .825-38.776 50.672 50.672 0 0 0-26.8-28.036 50.686 50.686 0 0 0-38.779-.876 50.673 50.673 0 0 0-28.015 26.83 50.659 50.659 0 0 0-.828 38.778 50.672 50.672 0 0 0 26.8 28.037 50.686 50.686 0 0 0 38.78.876h.008z" fill="#85F440"/><path d="M141.499 147.343a50.673 50.673 0 0 0 28.006-26.83 50.659 50.659 0 0 0 .828-38.77 50.672 50.672 0 0 0-26.8-28.036 50.686 50.686 0 0 0-38.779-.876 50.673 50.673 0 0 0-28.01 26.827 50.659 50.659 0 0 0-.832 38.773 50.672 50.672 0 0 0 26.8 28.036 50.686 50.686 0 0 0 38.778.876h.009z" fill="#86F43F"/><path d="M140.747 145.172a50.673 50.673 0 0 0 28.011-26.828 50.659 50.659 0 0 0 .832-38.772 50.672 50.672 0 0 0-26.8-28.037 50.686 50.686 0 0 0-38.78-.876 50.673 50.673 0 0 0-28.005 26.83 50.659 50.659 0 0 0-.829 38.77c10.124 26.086 39.478 39.03 65.571 28.913z" fill="#87F53F"/><path d="M140.004 142.95a50.673 50.673 0 0 0 28.01-26.832 50.659 50.659 0 0 0 .824-38.776c-10.124-26.086-39.478-39.03-65.57-28.913a50.673 50.673 0 0 0-28.015 26.83 50.659 50.659 0 0 0-.828 38.779 50.672 50.672 0 0 0 26.8 28.036 50.686 50.686 0 0 0 38.779.876z" fill="#88F53E"/><path d="M139.227 140.762a50.673 50.673 0 0 0 28.006-26.83 50.659 50.659 0 0 0 .828-38.77 50.672 50.672 0 0 0-26.8-28.036 50.686 50.686 0 0 0-38.779-.876 50.673 50.673 0 0 0-28.01 26.827 50.659 50.659 0 0 0-.832 38.773 50.672 50.672 0 0 0 26.8 28.036 50.686 50.686 0 0 0 38.778.876h.009z" fill="#89F53D"/><path d="M138.475 138.524a50.673 50.673 0 0 0 28.006-26.83 50.659 50.659 0 0 0 .828-38.77 50.672 50.672 0 0 0-26.8-28.036 50.686 50.686 0 0 0-38.779-.876 50.673 50.673 0 0 0-28.014 26.83 50.659 50.659 0 0 0-.828 38.778 50.672 50.672 0 0 0 26.805 28.035 50.686 50.686 0 0 0 38.782.869z" fill="#8AF53D"/><path d="M137.723 136.336a50.673 50.673 0 0 0 28.01-26.833 50.659 50.659 0 0 0 .825-38.775 50.672 50.672 0 0 0-26.8-28.037 50.686 50.686 0 0 0-38.78-.876 50.673 50.673 0 0 0-28.014 26.83 50.659 50.659 0 0 0-.828 38.778 50.672 50.672 0 0 0 26.803 28.04 50.686 50.686 0 0 0 38.784.873z" fill="#8BF53C"/><path d="M136.972 134.098a50.673 50.673 0 0 0 28.006-26.83 50.659 50.659 0 0 0 .828-38.77 50.672 50.672 0 0 0-26.8-28.037 50.686 50.686 0 0 0-38.78-.876 50.673 50.673 0 0 0-28.005 26.83 50.659 50.659 0 0 0-.828 38.77c10.123 26.087 39.477 39.03 65.57 28.913h.009z" fill="#8CF53B"/><path d="M136.22 131.868a50.673 50.673 0 0 0 28.006-26.83 50.659 50.659 0 0 0 .828-38.77 50.672 50.672 0 0 0-26.8-28.036 50.686 50.686 0 0 0-38.779-.876 50.673 50.673 0 0 0-28.015 26.83 50.659 50.659 0 0 0-.828 38.778 50.672 50.672 0 0 0 26.804 28.04 50.686 50.686 0 0 0 38.784.872v-.008z" fill="#8DF53B"/><path d="M135.476 129.696a50.673 50.673 0 0 0 28.006-26.829 50.659 50.659 0 0 0 .829-38.77c-10.124-26.087-39.478-39.03-65.57-28.913a50.673 50.673 0 0 0-28.016 26.83 50.659 50.659 0 0 0-.828 38.778 50.672 50.672 0 0 0 26.8 28.037 50.686 50.686 0 0 0 38.78.876v-.009z" fill="#8EF53A"/><path d="M134.733 127.475c26.07-10.16 38.97-39.524 28.818-65.591-10.124-26.087-39.478-39.03-65.571-28.913a50.673 50.673 0 0 0-28.011 26.827 50.659 50.659 0 0 0-.832 38.773 50.672 50.672 0 0 0 26.8 28.036 50.686 50.686 0 0 0 38.78.876l.016-.008z" fill="#8FF539"/><path d="M133.948 125.287a50.673 50.673 0 0 0 28.006-26.83 50.659 50.659 0 0 0 .828-38.77 50.672 50.672 0 0 0-26.8-28.036 50.686 50.686 0 0 0-38.779-.876 50.673 50.673 0 0 0-28.006 26.829 50.659 50.659 0 0 0-.828 38.77c10.119 26.09 39.476 39.038 65.57 28.921l.009-.008z" fill="#90F639"/><path d="M133.196 123.066a50.673 50.673 0 0 0 28.006-26.83 50.659 50.659 0 0 0 .828-38.77 50.672 50.672 0 0 0-26.8-28.037 50.686 50.686 0 0 0-38.779-.876 50.673 50.673 0 0 0-28.006 26.83 50.659 50.659 0 0 0-.828 38.77c10.124 26.086 39.478 39.03 65.57 28.913h.009z" fill="#91F638"/><path d="M132.444 120.86a50.673 50.673 0 0 0 28.006-26.828 50.659 50.659 0 0 0 .829-38.771C151.155 29.175 121.8 16.23 95.708 26.349a50.673 50.673 0 0 0-28.011 26.827 50.659 50.659 0 0 0-.832 38.772c10.124 26.087 39.478 39.03 65.57 28.913h.01z" fill="#92F637"/><path d="M131.692 118.64a50.673 50.673 0 0 0 28.01-26.833 50.659 50.659 0 0 0 .825-38.776 50.672 50.672 0 0 0-26.8-28.036 50.686 50.686 0 0 0-38.78-.876A50.673 50.673 0 0 0 66.939 50.95a50.659 50.659 0 0 0-.824 38.776c10.123 26.086 39.477 39.03 65.57 28.912h.008z" fill="#93F637"/><path d="M130.94 116.435a50.673 50.673 0 0 0 28.007-26.83 50.659 50.659 0 0 0 .828-38.77c-10.124-26.087-39.478-39.03-65.57-28.913A50.673 50.673 0 0 0 66.192 48.75a50.659 50.659 0 0 0-.831 38.773 50.672 50.672 0 0 0 26.8 28.036 50.686 50.686 0 0 0 38.779.877z" fill="#94F636"/><path d="M130.189 114.205a50.673 50.673 0 0 0 28.006-26.83 50.659 50.659 0 0 0 .828-38.77c-10.123-26.086-39.477-39.03-65.57-28.913A50.673 50.673 0 0 0 65.442 46.52a50.659 50.659 0 0 0-.832 38.772c10.124 26.087 39.478 39.03 65.57 28.913h.009z" fill="#95F635"/><path d="M129.47 113.72a50.673 50.673 0 0 0 28.01-26.832 50.659 50.659 0 0 0 .825-38.776A50.672 50.672 0 0 0 131.5 20.077a50.686 50.686 0 0 0-38.782-.869 50.673 50.673 0 0 0-28.01 26.833 50.659 50.659 0 0 0-.825 38.775 50.672 50.672 0 0 0 26.8 28.037 50.686 50.686 0 0 0 38.78.876l.008-.009z" fill="#96F635"/><path d="M128.886 116A50.673 50.673 0 0 0 156.9 89.17a50.659 50.659 0 0 0 .828-38.778c-10.124-26.086-39.478-39.03-65.571-28.912a50.673 50.673 0 0 0-28.011 26.827 50.659 50.659 0 0 0-.832 38.773c10.124 26.086 39.478 39.029 65.57 28.912V116z" fill="#97F634"/><path d="M128.284 118.238a50.673 50.673 0 0 0 28.01-26.832 50.659 50.659 0 0 0 .825-38.776 50.672 50.672 0 0 0-26.8-28.036 50.686 50.686 0 0 0-38.78-.876A50.673 50.673 0 0 0 63.53 50.55a50.659 50.659 0 0 0-.824 38.776c10.123 26.086 39.477 39.03 65.57 28.912h.008z" fill="#98F633"/><path d="M127.265 120.51a50.531 50.531 0 0 0 27.976-26.72 50.517 50.517 0 0 0 .875-38.671 50.53 50.53 0 0 0-26.689-27.997 50.544 50.544 0 0 0-38.672-.924 50.531 50.531 0 0 0-27.97 26.722 50.517 50.517 0 0 0-.873 38.67 50.53 50.53 0 0 0 26.686 27.993 50.544 50.544 0 0 0 38.667.927z" fill="#99F733"/><path d="M127.098 122.765a50.673 50.673 0 0 0 28.015-26.83 50.659 50.659 0 0 0 .828-38.778 50.672 50.672 0 0 0-26.8-28.037 50.686 50.686 0 0 0-38.779-.876 50.673 50.673 0 0 0-28.015 26.83 50.659 50.659 0 0 0-.828 38.778 50.672 50.672 0 0 0 26.8 28.037 50.686 50.686 0 0 0 38.78.876z" fill="#9AF732"/><path d="M126.489 125.02a50.673 50.673 0 0 0 28.014-26.83 50.659 50.659 0 0 0 .828-38.778 50.672 50.672 0 0 0-26.8-28.037 50.686 50.686 0 0 0-38.779-.876 50.673 50.673 0 0 0-28.01 26.827A50.659 50.659 0 0 0 60.91 96.1a50.672 50.672 0 0 0 26.8 28.036 50.686 50.686 0 0 0 38.779.876v.009z" fill="#9BF731"/><path d="M125.887 127.291a50.673 50.673 0 0 0 28.015-26.83 50.659 50.659 0 0 0 .828-38.778 50.672 50.672 0 0 0-26.803-28.04 50.686 50.686 0 0 0-38.784-.872 50.673 50.673 0 0 0-28.01 26.832 50.659 50.659 0 0 0-.825 38.776 50.672 50.672 0 0 0 26.8 28.036 50.686 50.686 0 0 0 38.78.876z" fill="#9CF731"/><path d="M125.31 129.53a50.673 50.673 0 0 0 28.007-26.83 50.659 50.659 0 0 0 .828-38.77 50.672 50.672 0 0 0-26.8-28.037 50.686 50.686 0 0 0-38.779-.876 50.673 50.673 0 0 0-28.006 26.83 50.659 50.659 0 0 0-.828 38.77c10.124 26.081 39.473 39.024 65.562 28.912h.017z" fill="#9DF730"/><path d="M124.693 131.75a50.673 50.673 0 0 0 28.01-26.826 50.659 50.659 0 0 0 .832-38.773 50.672 50.672 0 0 0-26.8-28.036 50.686 50.686 0 0 0-38.779-.876 50.673 50.673 0 0 0-28.01 26.827 50.659 50.659 0 0 0-.832 38.773 50.672 50.672 0 0 0 26.8 28.036 50.686 50.686 0 0 0 38.779.876z" fill="#9EF72F"/><path d="M124.125 134.014a50.673 50.673 0 0 0 28.01-26.827 50.659 50.659 0 0 0 .832-38.773 50.672 50.672 0 0 0-26.8-28.036 50.686 50.686 0 0 0-38.779-.876 50.673 50.673 0 0 0-28.01 26.827 50.659 50.659 0 0 0-.832 38.773 50.672 50.672 0 0 0 26.8 28.036 50.686 50.686 0 0 0 38.779.876z" fill="#9FF72F"/><path d="M123.49 136.277a50.673 50.673 0 0 0 28.006-26.829 50.659 50.659 0 0 0 .828-38.77 50.672 50.672 0 0 0-26.798-28.042 50.686 50.686 0 0 0-38.78-.88 50.673 50.673 0 0 0-28.007 26.83 50.659 50.659 0 0 0-.828 38.77c10.124 26.087 39.478 39.03 65.57 28.913l.009.008z" fill="#A0F72E"/><path d="M122.905 138.524a50.673 50.673 0 0 0 28.01-26.833 50.659 50.659 0 0 0 .825-38.775c-10.124-26.087-39.478-39.03-65.571-28.913A50.673 50.673 0 0 0 58.158 70.83a50.659 50.659 0 0 0-.832 38.773 50.672 50.672 0 0 0 26.798 28.042 50.686 50.686 0 0 0 38.781.879z" fill="#A1F82D"/><path d="M122.304 140.795a50.673 50.673 0 0 0 28.006-26.829 50.659 50.659 0 0 0 .828-38.77c-10.124-26.087-39.478-39.03-65.57-28.913A50.673 50.673 0 0 0 57.556 73.11a50.659 50.659 0 0 0-.831 38.773 50.672 50.672 0 0 0 26.8 28.036 50.686 50.686 0 0 0 38.779.876z" fill="#A2F82D"/><path d="M121.72 143.042a50.673 50.673 0 0 0 28.014-26.83 50.659 50.659 0 0 0 .828-38.778 50.672 50.672 0 0 0-26.8-28.037 50.686 50.686 0 0 0-38.78-.876 50.673 50.673 0 0 0-28.014 26.83 50.659 50.659 0 0 0-.828 38.779 50.672 50.672 0 0 0 26.8 28.036 50.686 50.686 0 0 0 38.78.876z" fill="#A3F82C"/><path d="M121.118 145.288a50.673 50.673 0 0 0 28.006-26.829 50.659 50.659 0 0 0 .828-38.77 50.672 50.672 0 0 0-26.803-28.04 50.686 50.686 0 0 0-38.784-.873 50.673 50.673 0 0 0-28.006 26.83 50.659 50.659 0 0 0-.829 38.77 50.672 50.672 0 0 0 26.8 28.036 50.686 50.686 0 0 0 38.78.876h.008z" fill="#A4F82B"/><path d="M120.516 147.568a50.673 50.673 0 0 0 28.006-26.829 50.659 50.659 0 0 0 .829-38.77 50.672 50.672 0 0 0-26.8-28.037 50.686 50.686 0 0 0-38.78-.876 50.673 50.673 0 0 0-28.014 26.83 50.659 50.659 0 0 0-.828 38.778 50.672 50.672 0 0 0 26.803 28.04 50.686 50.686 0 0 0 38.784.873v-.009z" fill="#A5F82B"/><path d="M119.898 149.815a50.673 50.673 0 0 0 28.011-26.827 50.659 50.659 0 0 0 .832-38.773 50.672 50.672 0 0 0-26.803-28.04 50.686 50.686 0 0 0-38.784-.872 50.673 50.673 0 0 0-28.006 26.829 50.659 50.659 0 0 0-.829 38.77 50.672 50.672 0 0 0 26.8 28.037 50.686 50.686 0 0 0 38.78.876z" fill="#A6F82A"/><path d="M118.829 151.995a50.531 50.531 0 0 0 27.972-26.717 50.517 50.517 0 0 0 .879-38.666 50.53 50.53 0 0 0-26.689-27.997 50.544 50.544 0 0 0-38.673-.924A50.531 50.531 0 0 0 54.352 84.41a50.517 50.517 0 0 0-.876 38.665 50.53 50.53 0 0 0 26.685 27.993 50.544 50.544 0 0 0 38.668.928z" fill="#A7F829"/><path d="M118.72 154.333a50.673 50.673 0 0 0 28.006-26.83 50.659 50.659 0 0 0 .829-38.77c-10.124-26.086-39.478-39.03-65.57-28.912a50.673 50.673 0 0 0-28.012 26.827 50.659 50.659 0 0 0-.832 38.773c10.124 26.086 39.478 39.029 65.571 28.912h.008z" fill="#A8F829"/><path d="M118.11 156.588a50.673 50.673 0 0 0 28.007-26.83 50.659 50.659 0 0 0 .828-38.77c-10.124-26.086-39.478-39.03-65.57-28.912a50.673 50.673 0 0 0-28.015 26.83 50.659 50.659 0 0 0-.828 38.778c10.125 26.083 39.48 39.022 65.57 28.904h.009z" fill="#A9F828"/><path d="M117.51 158.868a50.673 50.673 0 0 0 28.005-26.83 50.659 50.659 0 0 0 .829-38.77c-10.124-26.086-39.478-39.03-65.571-28.912a50.673 50.673 0 0 0-28.006 26.829 50.659 50.659 0 0 0-.828 38.77c10.123 26.087 39.477 39.03 65.57 28.913z" fill="#AAF927"/><path d="M116.924 161.106a50.673 50.673 0 0 0 28.012-26.827 50.659 50.659 0 0 0 .831-38.773 50.672 50.672 0 0 0-26.803-28.04 50.686 50.686 0 0 0-38.784-.872 50.673 50.673 0 0 0-28.01 26.832 50.659 50.659 0 0 0-.824 38.776c10.125 26.088 39.486 39.027 65.578 28.904z" fill="#ABF927"/><path d="M115.797 163.227a50.531 50.531 0 0 0 27.975-26.72 50.517 50.517 0 0 0 .876-38.67 50.53 50.53 0 0 0-26.691-27.993 50.544 50.544 0 0 0-38.67-.92A50.531 50.531 0 0 0 51.313 95.64a50.517 50.517 0 0 0-.879 38.666 50.53 50.53 0 0 0 26.69 27.997 50.544 50.544 0 0 0 38.672.924z" fill="#ACF926"/><path d="M115.747 165.632a50.673 50.673 0 0 0 28.01-26.832 50.659 50.659 0 0 0 .824-38.776c-10.124-26.086-39.478-39.03-65.57-28.912a50.673 50.673 0 0 0-28.015 26.83 50.659 50.659 0 0 0-.828 38.778c10.124 26.086 39.477 39.03 65.57 28.912h.009z" fill="#ADF925"/><path d="M115.104 167.887a50.673 50.673 0 0 0 28.01-26.827 50.659 50.659 0 0 0 .832-38.773 50.672 50.672 0 0 0-26.806-28.044 50.686 50.686 0 0 0-38.79-.868c-26.069 10.16-38.97 39.524-28.817 65.591a50.672 50.672 0 0 0 26.8 28.037 50.686 50.686 0 0 0 38.779.876l-.008.008z" fill="#AEF925"/><path d="M114.519 170.134a50.673 50.673 0 0 0 28.015-26.83 50.659 50.659 0 0 0 .828-38.778 50.672 50.672 0 0 0-26.8-28.037 50.686 50.686 0 0 0-38.78-.876 50.673 50.673 0 0 0-28.01 26.833 50.659 50.659 0 0 0-.824 38.775c10.124 26.087 39.478 39.03 65.57 28.913z" fill="#AFF924"/><path d="M113.926 172.405a50.673 50.673 0 0 0 28.006-26.829 50.659 50.659 0 0 0 .828-38.77 50.672 50.672 0 0 0-26.8-28.037 50.686 50.686 0 0 0-38.779-.876 50.673 50.673 0 0 0-28.006 26.83 50.659 50.659 0 0 0-.828 38.77c10.124 26.086 39.477 39.03 65.57 28.912h.009z" fill="#B0F923"/><path d="M113.308 174.652a50.673 50.673 0 0 0 28.014-26.83 50.659 50.659 0 0 0 .828-38.778 50.672 50.672 0 0 0-26.8-28.037 50.686 50.686 0 0 0-38.779-.876 50.673 50.673 0 0 0-28.014 26.83 50.659 50.659 0 0 0-.828 38.778 50.672 50.672 0 0 0 26.8 28.037 50.686 50.686 0 0 0 38.779.876z" fill="#B1F923"/><path d="M112.731 176.89a50.673 50.673 0 0 0 28.006-26.83 50.659 50.659 0 0 0 .829-38.77 50.672 50.672 0 0 0-26.8-28.036 50.686 50.686 0 0 0-38.78-.876 50.673 50.673 0 0 0-28.005 26.829 50.659 50.659 0 0 0-.829 38.77c10.124 26.087 39.478 39.03 65.57 28.913h.01z" fill="#B2F922"/><path d="M112.096 179.178a50.673 50.673 0 0 0 28.015-26.83 50.659 50.659 0 0 0 .828-38.778 50.672 50.672 0 0 0-26.8-28.036 50.686 50.686 0 0 0-38.779-.876 50.673 50.673 0 0 0-28.015 26.83 50.659 50.659 0 0 0-.827 38.778 50.672 50.672 0 0 0 26.8 28.036 50.686 50.686 0 0 0 38.778.876z" fill="#B3FA21"/><path d="M111.512 181.391a50.673 50.673 0 0 0 28.01-26.827 50.659 50.659 0 0 0 .832-38.773 50.672 50.672 0 0 0-26.8-28.036 50.686 50.686 0 0 0-38.778-.876 50.673 50.673 0 0 0-28.006 26.83 50.659 50.659 0 0 0-.829 38.77c10.124 26.086 39.478 39.03 65.57 28.912z" fill="#B4FA21"/><path d="M110.919 183.671a50.673 50.673 0 0 0 28.01-26.832 50.659 50.659 0 0 0 .824-38.776c-10.124-26.086-39.478-39.03-65.57-28.912a50.673 50.673 0 0 0-28.015 26.83 50.659 50.659 0 0 0-.828 38.778 50.672 50.672 0 0 0 26.8 28.036 50.686 50.686 0 0 0 38.779.876z" fill="#B5FA20"/><path d="M110.342 185.91a50.673 50.673 0 0 0 28.006-26.83 50.659 50.659 0 0 0 .829-38.77 50.672 50.672 0 0 0-26.8-28.037 50.686 50.686 0 0 0-38.78-.876 50.673 50.673 0 0 0-28.01 26.827 50.659 50.659 0 0 0-.832 38.773 50.672 50.672 0 0 0 26.8 28.036 50.686 50.686 0 0 0 38.779.876h.008z" fill="#B6FA1F"/><path d="M109.7 188.173a50.673 50.673 0 0 0 28.009-26.833 50.659 50.659 0 0 0 .825-38.776 50.672 50.672 0 0 0-26.8-28.036 50.686 50.686 0 0 0-38.78-.876 50.673 50.673 0 0 0-28.01 26.833 50.659 50.659 0 0 0-.824 38.775c10.124 26.087 39.478 39.03 65.57 28.913h.01z" fill="#B7FA1F"/><path d="M109.123 190.436a50.673 50.673 0 0 0 28.01-26.827 50.659 50.659 0 0 0 .833-38.773 50.672 50.672 0 0 0-26.8-28.036 50.686 50.686 0 0 0-38.78-.876 50.673 50.673 0 0 0-28.01 26.827 50.659 50.659 0 0 0-.832 38.772 50.672 50.672 0 0 0 26.8 28.037 50.686 50.686 0 0 0 38.779.876z" fill="#B8FA1E"/><path d="M108.513 192.69a50.673 50.673 0 0 0 28.015-26.83 50.659 50.659 0 0 0 .828-38.777 50.672 50.672 0 0 0-26.803-28.04 50.686 50.686 0 0 0-38.785-.873 50.673 50.673 0 0 0-28.01 26.833 50.659 50.659 0 0 0-.824 38.775 50.672 50.672 0 0 0 26.8 28.037 50.686 50.686 0 0 0 38.78.876z" fill="#B9FA1D"/><path d="M107.937 194.929a50.673 50.673 0 0 0 28.006-26.83 50.659 50.659 0 0 0 .828-38.77 50.672 50.672 0 0 0-26.8-28.036 50.686 50.686 0 0 0-38.779-.876 50.673 50.673 0 0 0-28.01 26.827 50.659 50.659 0 0 0-.833 38.773 50.672 50.672 0 0 0 26.804 28.04 50.686 50.686 0 0 0 38.784.872z" fill="#BAFA1D"/><path d="M107.335 197.209a50.673 50.673 0 0 0 28.01-26.833 50.659 50.659 0 0 0 .825-38.775c-10.126-26.088-39.486-39.028-65.58-28.904a50.673 50.673 0 0 0-28.005 26.829 50.659 50.659 0 0 0-.829 38.77c10.124 26.087 39.478 39.03 65.57 28.913h.01z" fill="#BBFB1C"/><path d="M106.726 199.455a50.673 50.673 0 0 0 28.006-26.829 50.659 50.659 0 0 0 .828-38.77 50.672 50.672 0 0 0-26.8-28.037 50.686 50.686 0 0 0-38.78-.876 50.673 50.673 0 0 0-28.005 26.83 50.659 50.659 0 0 0-.828 38.77c10.123 26.086 39.477 39.03 65.57 28.912h.009z" fill="#BCFB1B"/><path d="M106.107 201.71a50.673 50.673 0 0 0 28.011-26.827 50.659 50.659 0 0 0 .832-38.773 50.672 50.672 0 0 0-26.8-28.036 50.686 50.686 0 0 0-38.779-.876 50.673 50.673 0 0 0-28.01 26.827 50.659 50.659 0 0 0-.833 38.773 50.672 50.672 0 0 0 26.8 28.036 50.686 50.686 0 0 0 38.78.876z" fill="#BDFB1B"/><path d="M105.54 203.973a50.673 50.673 0 0 0 28.005-26.829 50.659 50.659 0 0 0 .829-38.77c-10.124-26.087-39.478-39.03-65.57-28.913a50.673 50.673 0 0 0-28.012 26.827 50.659 50.659 0 0 0-.832 38.773 50.672 50.672 0 0 0 26.8 28.036 50.686 50.686 0 0 0 38.78.876z" fill="#BEFB1A"/><path d="M104.93 206.228a50.673 50.673 0 0 0 28.006-26.829 50.659 50.659 0 0 0 .828-38.77c-10.124-26.087-39.478-39.03-65.57-28.913a50.673 50.673 0 0 0-28.012 26.827 50.659 50.659 0 0 0-.831 38.773 50.672 50.672 0 0 0 26.8 28.036 50.686 50.686 0 0 0 38.779.876z" fill="#BFFB19"/><path d="M104.345 208.466a50.673 50.673 0 0 0 28.011-26.827 50.659 50.659 0 0 0 .832-38.772 50.672 50.672 0 0 0-26.8-28.037 50.686 50.686 0 0 0-38.78-.876 50.673 50.673 0 0 0-28.015 26.825 50.659 50.659 0 0 0-.835 38.775 50.672 50.672 0 0 0 26.8 28.036 50.686 50.686 0 0 0 38.779.876h.008z" fill="#C0FB19"/><path d="M103.718 210.755a50.673 50.673 0 0 0 28.006-26.83 50.659 50.659 0 0 0 .829-38.77c-10.119-26.09-39.476-39.038-65.57-28.92a50.673 50.673 0 0 0-28.016 26.83 50.659 50.659 0 0 0-.827 38.777 50.672 50.672 0 0 0 26.8 28.037 50.686 50.686 0 0 0 38.778.876z" fill="#C1FB18"/><path d="M103.134 212.993c26.08-10.15 38.991-39.515 28.842-65.592a50.672 50.672 0 0 0-26.8-28.036 50.686 50.686 0 0 0-38.778-.876 50.673 50.673 0 0 0-28.015 26.83 50.659 50.659 0 0 0-.828 38.778c10.125 26.088 39.486 39.028 65.579 28.904v-.008z" fill="#C2FB17"/><path d="M102.54 215.273a50.673 50.673 0 0 0 28.007-26.83 50.659 50.659 0 0 0 .828-38.77 50.672 50.672 0 0 0-26.8-28.036 50.686 50.686 0 0 0-38.779-.876A50.673 50.673 0 0 0 37.79 147.59a50.659 50.659 0 0 0-.828 38.77c10.124 26.087 39.477 39.03 65.57 28.913h.009z" fill="#C3FB17"/><path d="M101.956 217.52a50.673 50.673 0 0 0 28.01-26.833 50.659 50.659 0 0 0 .824-38.776c-10.123-26.086-39.477-39.03-65.57-28.912a50.673 50.673 0 0 0-28.015 26.83 50.659 50.659 0 0 0-.828 38.778 50.672 50.672 0 0 0 26.8 28.036 50.686 50.686 0 0 0 38.779.876z" fill="#C4FC16"/><path d="M101.346 219.766a50.673 50.673 0 0 0 28.006-26.83 50.659 50.659 0 0 0 .829-38.77 50.672 50.672 0 0 0-26.8-28.036 50.686 50.686 0 0 0-38.78-.876 50.673 50.673 0 0 0-28.005 26.829 50.659 50.659 0 0 0-.829 38.77c10.124 26.087 39.478 39.03 65.57 28.913h.01z" fill="#C5FC15"/><path d="M100.745 222.046a50.673 50.673 0 0 0 28.006-26.83 50.659 50.659 0 0 0 .828-38.77c-10.124-26.086-39.477-39.03-65.57-28.913a50.673 50.673 0 0 0-28.011 26.828 50.659 50.659 0 0 0-.832 38.772 50.672 50.672 0 0 0 26.8 28.037 50.686 50.686 0 0 0 38.779.876z" fill="#C6FC15"/><path d="M100.135 224.292a50.673 50.673 0 0 0 28.006-26.829 50.659 50.659 0 0 0 .828-38.77c-10.123-26.087-39.477-39.03-65.57-28.913a50.673 50.673 0 0 0-28.006 26.83 50.659 50.659 0 0 0-.829 38.77c10.124 26.086 39.478 39.03 65.571 28.912z" fill="#C7FC14"/><path d="M99.55 226.53a50.673 50.673 0 0 0 28.011-26.827 50.659 50.659 0 0 0 .832-38.772 50.672 50.672 0 0 0-26.803-28.04 50.686 50.686 0 0 0-38.784-.873 50.673 50.673 0 0 0-28.01 26.833 50.659 50.659 0 0 0-.825 38.775c10.126 26.088 39.486 39.028 65.58 28.904z" fill="#C8FC13"/><path d="M98.949 228.81a50.673 50.673 0 0 0 28.011-26.827 50.659 50.659 0 0 0 .832-38.773 50.672 50.672 0 0 0-26.8-28.036 50.686 50.686 0 0 0-38.78-.876 50.673 50.673 0 0 0-28.01 26.827 50.659 50.659 0 0 0-.832 38.773 50.672 50.672 0 0 0 26.8 28.036 50.686 50.686 0 0 0 38.779.876z" fill="#C9FC13"/><path d="M98.314 231.04a50.673 50.673 0 0 0 28.01-26.832 50.659 50.659 0 0 0 .824-38.776 50.672 50.672 0 0 0-26.8-28.036 50.686 50.686 0 0 0-38.778-.876 50.673 50.673 0 0 0-28.015 26.83 50.659 50.659 0 0 0-.828 38.778 50.672 50.672 0 0 0 26.8 28.036 50.686 50.686 0 0 0 38.779.876h.008z" fill="#CAFC12"/><path d="M97.73 233.278a50.673 50.673 0 0 0 28.005-26.829 50.659 50.659 0 0 0 .829-38.77c-10.124-26.087-39.478-39.03-65.57-28.913a50.673 50.673 0 0 0-28.012 26.827 50.659 50.659 0 0 0-.832 38.773c10.124 26.086 39.478 39.03 65.571 28.912h.008z" fill="#CBFC11"/><path d="M97.128 235.558a50.673 50.673 0 0 0 28.015-26.83 50.659 50.659 0 0 0 .828-38.778 50.672 50.672 0 0 0-26.804-28.04 50.686 50.686 0 0 0-38.784-.872 50.673 50.673 0 0 0-28.01 26.832 50.659 50.659 0 0 0-.824 38.776 50.672 50.672 0 0 0 26.8 28.036 50.686 50.686 0 0 0 38.779.876z" fill="#CCFC11"/><path d="M96.552 237.796a50.673 50.673 0 0 0 28.006-26.829 50.659 50.659 0 0 0 .828-38.77 50.672 50.672 0 0 0-26.8-28.037 50.686 50.686 0 0 0-38.779-.876 50.673 50.673 0 0 0-28.011 26.827 50.659 50.659 0 0 0-.832 38.773 50.672 50.672 0 0 0 26.804 28.04 50.686 50.686 0 0 0 38.784.872z" fill="#CDFD10"/><path d="M95.934 240.051a50.673 50.673 0 0 0 28.014-26.83 50.659 50.659 0 0 0 .828-38.778 50.672 50.672 0 0 0-26.8-28.036 50.686 50.686 0 0 0-38.779-.876 50.673 50.673 0 0 0-28.015 26.83 50.659 50.659 0 0 0-.827 38.778 50.672 50.672 0 0 0 26.8 28.036 50.686 50.686 0 0 0 38.779.876z" fill="#CEFD0F"/><path d="M95.34 242.331a50.673 50.673 0 0 0 28.006-26.83 50.659 50.659 0 0 0 .829-38.77 50.672 50.672 0 0 0-26.8-28.036 50.686 50.686 0 0 0-38.78-.876 50.673 50.673 0 0 0-28.01 26.827 50.659 50.659 0 0 0-.832 38.773 50.672 50.672 0 0 0 26.803 28.04 50.686 50.686 0 0 0 38.784.872z" fill="#CFFD0F"/><path d="M94.722 244.578a50.673 50.673 0 0 0 28.015-26.83 50.659 50.659 0 0 0 .828-38.779 50.672 50.672 0 0 0-26.8-28.036 50.686 50.686 0 0 0-38.779-.876 50.673 50.673 0 0 0-28.015 26.83 50.659 50.659 0 0 0-.828 38.778 50.672 50.672 0 0 0 26.8 28.037 50.686 50.686 0 0 0 38.78.876z" fill="#D0FD0E"/><path d="M94.154 246.85a50.673 50.673 0 0 0 28.011-26.828 50.659 50.659 0 0 0 .832-38.773 50.672 50.672 0 0 0-26.803-28.04 50.686 50.686 0 0 0-38.784-.872 50.673 50.673 0 0 0-28.006 26.83 50.659 50.659 0 0 0-.829 38.77 50.672 50.672 0 0 0 26.8 28.036 50.686 50.686 0 0 0 38.78.876z" fill="#D1FD0D"/><path d="M93.545 249.096a50.673 50.673 0 0 0 28.01-26.833 50.659 50.659 0 0 0 .824-38.775c-10.124-26.087-39.478-39.03-65.57-28.913a50.673 50.673 0 0 0-28.015 26.83 50.659 50.659 0 0 0-.828 38.778c10.123 26.087 39.477 39.03 65.57 28.913h.009z" fill="#D2FD0D"/><path d="M92.968 251.334a50.673 50.673 0 0 0 28.006-26.83 50.659 50.659 0 0 0 .829-38.77 50.672 50.672 0 0 0-26.8-28.036 50.686 50.686 0 0 0-38.78-.876 50.673 50.673 0 0 0-28.01 26.827 50.659 50.659 0 0 0-.832 38.773 50.672 50.672 0 0 0 26.8 28.036 50.686 50.686 0 0 0 38.779.876h.008z" fill="#D3FD0C"/><path d="M92.333 253.63a50.673 50.673 0 0 0 28.01-26.832 50.659 50.659 0 0 0 .825-38.776c-10.124-26.086-39.478-39.029-65.57-28.912a50.673 50.673 0 0 0-28.016 26.83 50.659 50.659 0 0 0-.828 38.778c10.124 26.086 39.478 39.03 65.571 28.913h.008z" fill="#D4FD0B"/><path d="M91.749 255.869a50.673 50.673 0 0 0 28.01-26.827 50.659 50.659 0 0 0 .832-38.773 50.672 50.672 0 0 0-26.8-28.036 50.686 50.686 0 0 0-38.779-.877 50.673 50.673 0 0 0-28.01 26.828 50.659 50.659 0 0 0-.832 38.772 50.672 50.672 0 0 0 26.8 28.037 50.686 50.686 0 0 0 38.779.876z" fill="#D5FE0B"/><path d="M91.139 258.115a50.673 50.673 0 0 0 28.01-26.832 50.659 50.659 0 0 0 .824-38.776c-10.123-26.086-39.477-39.03-65.57-28.912a50.673 50.673 0 0 0-28.015 26.83 50.659 50.659 0 0 0-.828 38.778 50.672 50.672 0 0 0 26.8 28.036 50.686 50.686 0 0 0 38.779.876z" fill="#D6FE0A"/><path d="M90.57 260.395a50.673 50.673 0 0 0 28.01-26.832 50.659 50.659 0 0 0 .825-38.776c-10.123-26.086-39.477-39.03-65.57-28.912a50.673 50.673 0 0 0-28.011 26.827 50.659 50.659 0 0 0-.832 38.772 50.672 50.672 0 0 0 26.8 28.037 50.686 50.686 0 0 0 38.779.876v.008z" fill="#D7FE09"/><path d="M89.928 262.642a50.673 50.673 0 0 0 28.01-26.833 50.659 50.659 0 0 0 .824-38.776c-10.124-26.086-39.478-39.029-65.57-28.912a50.673 50.673 0 0 0-28.015 26.83 50.659 50.659 0 0 0-.828 38.778 50.672 50.672 0 0 0 26.8 28.037 50.686 50.686 0 0 0 38.779.876z" fill="#D8FE09"/><path d="M89.351 264.888a50.673 50.673 0 0 0 28.006-26.83 50.659 50.659 0 0 0 .829-38.77 50.672 50.672 0 0 0-26.798-28.041 50.686 50.686 0 0 0-38.781-.88 50.673 50.673 0 0 0-28.006 26.83 50.659 50.659 0 0 0-.829 38.77c10.124 26.087 39.478 39.03 65.571 28.913l.008.008z" fill="#D9FE08"/><path d="M88.75 267.16a50.673 50.673 0 0 0 28.006-26.83 50.659 50.659 0 0 0 .828-38.77 50.672 50.672 0 0 0-26.8-28.036 50.686 50.686 0 0 0-38.779-.877 50.673 50.673 0 0 0-28.01 26.833 50.659 50.659 0 0 0-.824 38.776c10.124 26.086 39.478 39.029 65.57 28.912l.009-.008z" fill="#DAFE07"/><path d="M88.165 269.415a50.673 50.673 0 0 0 28.015-26.83 50.659 50.659 0 0 0 .828-38.779 50.672 50.672 0 0 0-26.803-28.04 50.686 50.686 0 0 0-38.784-.872 50.673 50.673 0 0 0-28.006 26.83 50.659 50.659 0 0 0-.829 38.77 50.672 50.672 0 0 0 26.8 28.036 50.686 50.686 0 0 0 38.78.876v.009z" fill="#DBFE07"/><path d="M87.556 271.653a50.673 50.673 0 0 0 28.006-26.83 50.659 50.659 0 0 0 .828-38.77c-10.124-26.086-39.478-39.03-65.57-28.912a50.673 50.673 0 0 0-28.012 26.827 50.659 50.659 0 0 0-.831 38.772c10.123 26.087 39.477 39.03 65.57 28.913h.009z" fill="#DCFE06"/><path d="M86.954 273.933a50.673 50.673 0 0 0 28.006-26.83 50.659 50.659 0 0 0 .828-38.77c-10.123-26.086-39.477-39.03-65.57-28.913a50.673 50.673 0 0 0-28.011 26.828 50.659 50.659 0 0 0-.832 38.772 50.672 50.672 0 0 0 26.8 28.037 50.686 50.686 0 0 0 38.78.876z" fill="#DDFE05"/><path d="M86.344 276.18a50.673 50.673 0 0 0 28.006-26.83 50.659 50.659 0 0 0 .829-38.77c-10.124-26.087-39.478-39.03-65.57-28.913a50.673 50.673 0 0 0-28.016 26.83 50.659 50.659 0 0 0-.828 38.778c10.124 26.086 39.478 39.03 65.571 28.913l.008-.009z" fill="#DEFF05"/><path d="M85.776 278.45a50.673 50.673 0 0 0 28.006-26.828 50.659 50.659 0 0 0 .829-38.771 50.672 50.672 0 0 0-26.8-28.036 50.686 50.686 0 0 0-38.78-.876 50.673 50.673 0 0 0-28.005 26.829 50.659 50.659 0 0 0-.829 38.77c10.124 26.087 39.478 39.03 65.571 28.913h.008z" fill="#DFFF04"/><path d="M85.158 280.706a50.673 50.673 0 0 0 28.015-26.83 50.659 50.659 0 0 0 .828-38.779 50.672 50.672 0 0 0-26.8-28.036 50.686 50.686 0 0 0-38.779-.876 50.673 50.673 0 0 0-28.015 26.83 50.659 50.659 0 0 0-.828 38.778 50.672 50.672 0 0 0 26.8 28.037 50.686 50.686 0 0 0 38.78.876z" fill="#E0FF03"/><path d="M83.864 282.468a50.531 50.531 0 0 0 27.966-26.719 50.517 50.517 0 0 0 .876-38.664 50.53 50.53 0 0 0-26.689-27.997 50.544 50.544 0 0 0-38.673-.924 50.531 50.531 0 0 0-27.971 26.716 50.517 50.517 0 0 0-.88 38.667 50.53 50.53 0 0 0 26.69 27.997 50.544 50.544 0 0 0 38.672.924h.009z" fill="#E1FF03"/><path d="M83.947 285.199a50.673 50.673 0 0 0 28.011-26.827 50.659 50.659 0 0 0 .832-38.773 50.672 50.672 0 0 0-26.8-28.037 50.686 50.686 0 0 0-38.78-.876 50.673 50.673 0 0 0-28.01 26.828 50.659 50.659 0 0 0-.832 38.772 50.672 50.672 0 0 0 26.8 28.037 50.686 50.686 0 0 0 38.78.876z" fill="#E2FF02"/></svg>