<?xml version="1.0" encoding="UTF-8"?>
<svg width="311px" height="308px" viewBox="0 0 311 308" version="1.1" xmlns="http://www.w3.org/2000/svg" xmlns:xlink="http://www.w3.org/1999/xlink">
    <defs>
        <linearGradient x1="14.552922%" y1="31.2239106%" x2="106.351557%" y2="114.03641%" id="linearGradient-1">
            <stop stop-color="#E2EEEF" offset="0%"></stop>
            <stop stop-color="#FFFFFF" offset="100%"></stop>
        </linearGradient>
        <polygon id="path-2" points="0.40000701 0 309.400007 7.50166509e-14 309.400007 308 0.40000701 308 0.40000701 219.658915"></polygon>
        <linearGradient x1="12.0477235%" y1="64.997861%" x2="53.871263%" y2="48.3978248%" id="linearGradient-4">
            <stop stop-color="#275953" offset="0%"></stop>
            <stop stop-color="#538D9C" stop-opacity="0.569629589" offset="100%"></stop>
        </linearGradient>
        <linearGradient x1="12.0477235%" y1="62.6517941%" x2="53.871263%" y2="48.6484479%" id="linearGradient-5">
            <stop stop-color="#275953" offset="0%"></stop>
            <stop stop-color="#538D9C" stop-opacity="0.569629589" offset="100%"></stop>
        </linearGradient>
        <linearGradient x1="50%" y1="10.4650549%" x2="50%" y2="59.4987948%" id="linearGradient-6">
            <stop stop-color="#000000" offset="0%"></stop>
            <stop stop-color="#000000" stop-opacity="0" offset="100%"></stop>
        </linearGradient>
        <linearGradient x1="11.3441342%" y1="32.8673409%" x2="88.1883475%" y2="57.9630482%" id="linearGradient-7">
            <stop stop-color="#000000" offset="0%"></stop>
            <stop stop-color="#000000" stop-opacity="0" offset="100%"></stop>
        </linearGradient>
        <linearGradient x1="11.3441342%" y1="31.4744802%" x2="88.1883475%" y2="58.6104327%" id="linearGradient-8">
            <stop stop-color="#000000" offset="0%"></stop>
            <stop stop-color="#000000" stop-opacity="0" offset="100%"></stop>
        </linearGradient>
        <filter x="-4.3%" y="-7.1%" width="108.7%" height="114.3%" filterUnits="objectBoundingBox" id="filter-9">
            <feGaussianBlur stdDeviation="1" in="SourceGraphic"></feGaussianBlur>
        </filter>
        <filter x="-4.3%" y="-7.1%" width="108.7%" height="114.3%" filterUnits="objectBoundingBox" id="filter-10">
            <feGaussianBlur stdDeviation="1" in="SourceGraphic"></feGaussianBlur>
        </filter>
        <filter x="-4.3%" y="-7.1%" width="108.7%" height="114.3%" filterUnits="objectBoundingBox" id="filter-11">
            <feGaussianBlur stdDeviation="1" in="SourceGraphic"></feGaussianBlur>
        </filter>
        <filter x="-4.3%" y="-7.1%" width="108.7%" height="114.3%" filterUnits="objectBoundingBox" id="filter-12">
            <feGaussianBlur stdDeviation="1" in="SourceGraphic"></feGaussianBlur>
        </filter>
        <filter x="-4.3%" y="-7.1%" width="108.7%" height="114.3%" filterUnits="objectBoundingBox" id="filter-13">
            <feGaussianBlur stdDeviation="1" in="SourceGraphic"></feGaussianBlur>
        </filter>
        <linearGradient x1="11.3441342%" y1="31.6475177%" x2="88.1883475%" y2="58.530007%" id="linearGradient-14">
            <stop stop-color="#000000" offset="0%"></stop>
            <stop stop-color="#000000" stop-opacity="0" offset="100%"></stop>
        </linearGradient>
        <filter x="-110.5%" y="-64.0%" width="321.1%" height="228.0%" filterUnits="objectBoundingBox" id="filter-15">
            <feGaussianBlur stdDeviation="7.44598966 -4.87052965" in="SourceGraphic"></feGaussianBlur>
        </filter>
        <filter x="-55.5%" y="-96.6%" width="210.9%" height="293.3%" filterUnits="objectBoundingBox" id="filter-16">
            <feGaussianBlur stdDeviation="7.44598966 -4.87052965" in="SourceGraphic"></feGaussianBlur>
        </filter>
        <filter x="-110.7%" y="-63.7%" width="321.4%" height="227.3%" filterUnits="objectBoundingBox" id="filter-17">
            <feGaussianBlur stdDeviation="7.44598966 -4.87052965" in="SourceGraphic"></feGaussianBlur>
        </filter>
        <filter x="-209.9%" y="-121.6%" width="519.9%" height="343.1%" filterUnits="objectBoundingBox" id="filter-18">
            <feGaussianBlur stdDeviation="11.5439617 5.97803886" in="SourceGraphic"></feGaussianBlur>
        </filter>
        <filter x="-105.4%" y="-183.6%" width="310.7%" height="467.2%" filterUnits="objectBoundingBox" id="filter-19">
            <feGaussianBlur stdDeviation="11.5439617 5.97803886" in="SourceGraphic"></feGaussianBlur>
        </filter>
        <filter x="-210.3%" y="-120.9%" width="520.6%" height="341.8%" filterUnits="objectBoundingBox" id="filter-20">
            <feGaussianBlur stdDeviation="11.5439617 5.97803886" in="SourceGraphic"></feGaussianBlur>
        </filter>
        <filter x="0.0%" y="0.0%" width="100.0%" height="100.0%" filterUnits="objectBoundingBox" id="filter-21">
            <feGaussianBlur stdDeviation="0 -0" in="SourceGraphic"></feGaussianBlur>
        </filter>
        <filter x="0.0%" y="0.0%" width="100.0%" height="100.0%" filterUnits="objectBoundingBox" id="filter-22">
            <feGaussianBlur stdDeviation="0 -0" in="SourceGraphic"></feGaussianBlur>
        </filter>
        <filter x="0.0%" y="0.0%" width="100.0%" height="100.0%" filterUnits="objectBoundingBox" id="filter-23">
            <feGaussianBlur stdDeviation="0 -0" in="SourceGraphic"></feGaussianBlur>
        </filter>
        <filter x="-243.2%" y="-141.5%" width="586.4%" height="382.9%" filterUnits="objectBoundingBox" id="filter-24">
            <feGaussianBlur stdDeviation="12.6302426 -8.09178416" in="SourceGraphic"></feGaussianBlur>
        </filter>
        <filter x="-121.6%" y="-211.8%" width="343.1%" height="523.7%" filterUnits="objectBoundingBox" id="filter-25">
            <feGaussianBlur stdDeviation="12.6302426 -8.09178416" in="SourceGraphic"></feGaussianBlur>
        </filter>
        <filter x="-242.6%" y="-140.7%" width="585.3%" height="381.4%" filterUnits="objectBoundingBox" id="filter-26">
            <feGaussianBlur stdDeviation="12.6302426 -8.09178416" in="SourceGraphic"></feGaussianBlur>
        </filter>
        <filter x="-111.0%" y="-64.5%" width="321.9%" height="229.1%" filterUnits="objectBoundingBox" id="filter-27">
            <feGaussianBlur stdDeviation="6.15768667 2.98763771" in="SourceGraphic"></feGaussianBlur>
        </filter>
        <filter x="-55.5%" y="-96.7%" width="210.9%" height="293.3%" filterUnits="objectBoundingBox" id="filter-28">
            <feGaussianBlur stdDeviation="6.15768667 2.98763771" in="SourceGraphic"></feGaussianBlur>
        </filter>
        <filter x="-110.7%" y="-64.2%" width="321.4%" height="228.4%" filterUnits="objectBoundingBox" id="filter-29">
            <feGaussianBlur stdDeviation="6.15768667 2.98763771" in="SourceGraphic"></feGaussianBlur>
        </filter>
        <filter x="-111.0%" y="-64.5%" width="321.9%" height="229.1%" filterUnits="objectBoundingBox" id="filter-30">
            <feGaussianBlur stdDeviation="6.06978893 3.16239569" in="SourceGraphic"></feGaussianBlur>
        </filter>
        <filter x="-55.5%" y="-96.7%" width="210.9%" height="293.3%" filterUnits="objectBoundingBox" id="filter-31">
            <feGaussianBlur stdDeviation="6.06978893 3.16239569" in="SourceGraphic"></feGaussianBlur>
        </filter>
        <filter x="-110.7%" y="-64.2%" width="321.4%" height="228.4%" filterUnits="objectBoundingBox" id="filter-32">
            <feGaussianBlur stdDeviation="6.06978893 3.16239569" in="SourceGraphic"></feGaussianBlur>
        </filter>
    </defs>
    <g id="Page-1" stroke="none" stroke-width="1" fill="none" fill-rule="evenodd">
        <g id="4.0-Send-Dark---EMPTY-Copy" transform="translate(-671.000000, -219.000000)">
            <g id="Image" transform="translate(671.000000, 219.000000)">
                <g id="Group-+-Group-9-Mask" transform="translate(0.099993, 0.000000)">
                    <mask id="mask-3" fill="white">
                        <use xlink:href="#path-2"></use>
                    </mask>
                    <use id="Mask" fill="url(#linearGradient-1)" xlink:href="#path-2"></use>
                    <g id="Group" mask="url(#mask-3)" opacity="0.233491443" stroke-linecap="square" stroke-width="0.825000018">
                        <g transform="translate(-268.500000, -155.950000)">
                            <ellipse id="Oval" stroke="url(#linearGradient-4)" cx="493.020018" cy="447.884471" rx="121.110004" ry="76.2300028"></ellipse>
                            <line x1="363.000013" y1="511.574473" x2="1030.99968" y2="125.400005" id="Line" stroke="url(#linearGradient-5)"></line>
                            <line x1="112.200004" y1="386.174469" x2="780.19967" y2="-6.69905917e-16" id="Line" stroke="url(#linearGradient-5)"></line>
                            <line x1="112.200004" y1="564.374475" x2="780.19967" y2="178.200007" id="Line" stroke="url(#linearGradient-5)"></line>
                            <line x1="7.53860894e-14" y1="518.174474" x2="667.999666" y2="132.000005" id="Line" stroke="url(#linearGradient-5)"></line>
                            <line x1="112.200004" y1="603.974477" x2="780.19967" y2="217.800008" id="Line" stroke="url(#linearGradient-5)" transform="translate(446.199837, 410.887242) scale(-1, 1) translate(-446.199837, -410.887242) "></line>
                        </g>
                    </g>
                    <g id="Group-9" mask="url(#mask-3)">
                        <g transform="translate(-23.099993, -173.000000)">
                            <polygon id="Path-9" fill-opacity="0.18" fill="url(#linearGradient-6)" points="242.814014 362.054015 242.814014 428.712725 165.392124 475.376025 89.1000003 428.323864 89.1000003 362.054015"></polygon>
                            <polygon id="Path-10" fill="url(#linearGradient-7)" opacity="0.131673177" points="146.908007 396.880134 222.317774 351.688014 330.916023 413.671173 255.471322 459.400024"></polygon>
                            <polygon id="Path-10" fill-opacity="0.65" fill="url(#linearGradient-8)" opacity="0.141531808" filter="url(#filter-9)" points="247.946014 399.182368 272.814327 384.266361 316.946014 409.899096 292.196985 426.266361"></polygon>
                            <polygon id="Path-10" fill-opacity="0.65" fill="url(#linearGradient-8)" opacity="0.0473865327" filter="url(#filter-10)" transform="translate(300.446014, 295.266361) scale(1, -1) translate(-300.446014, -295.266361) " points="265.946014 289.182368 290.814327 274.266361 334.946014 299.899096 310.196985 316.266361"></polygon>
                            <polygon id="Path-10" fill-opacity="0.65" fill="url(#linearGradient-8)" opacity="0.141531808" filter="url(#filter-11)" points="315.446014 457.682368 340.314327 442.766361 384.446014 468.399096 359.696985 484.766361"></polygon>
                            <polygon id="Path-10" fill-opacity="0.65" fill="url(#linearGradient-8)" opacity="0.141531808" filter="url(#filter-12)" transform="translate(35.446014, 435.266361) scale(-1, 1) translate(-35.446014, -435.266361) " points="0.946013525 429.182368 25.8143267 414.266361 69.9460135 439.899096 45.1969847 456.266361"></polygon>
                            <polygon id="Path-10" fill-opacity="0.65" fill="url(#linearGradient-8)" opacity="0.0889601935" filter="url(#filter-13)" transform="translate(77.946014, 392.266361) scale(-1, 1) translate(-77.946014, -392.266361) " points="43.4460135 386.182368 68.3143267 371.266361 112.446014 396.899096 87.6969847 413.266361"></polygon>
                            <polygon id="Path-10" fill-opacity="0.65" fill="url(#linearGradient-14)" opacity="0.315406436" points="199.046015 426.692478 217.780119 415.527014 250.939292 435.484496 232.381703 446.96636"></polygon>
                            <polygon id="Fill-2" fill="#2CDD8C" points="221.739239 288.665031 242.584303 298.359016 242.567897 343.008129 184.256032 376.702716 184.234488 286.8294 221.739239 265.157817"></polygon>
                            <polygon id="Fill-10" fill="#9DF4CA" points="221.767009 287.52094 183.721009 309.349642 203.187087 320.524172 242.562561 297.940812"></polygon>
                            <polygon id="Fill-10" fill="#9DF4CA" points="221.767009 287.52094 183.721009 309.349642 203.187087 320.524172 242.562561 297.940812"></polygon>
                            <polygon id="Fill-10" fill="#9DF4CA" points="128.267007 274.32094 90.2210071 296.149642 109.687085 307.324172 149.062559 284.740811"></polygon>
                            <polygon id="Fill-20" fill="#2CDD8C" points="185.470009 330.636853 109.174002 374.726019 108.052002 285.821658 184.234488 245.729007"></polygon>
                            <g id="Group-3" stroke-width="1" fill="none" transform="translate(110.439004, 245.729007)">
                                <polygon id="Fill-4" fill="#9DF4CA" points="74.0410016 0 35.2000008 19.4006323 54.6660787 30.575162 92.8034856 9.76307135"></polygon>
                                <polygon id="Fill-6" fill="#4CFFB3" points="54.6554821 30.461271 35.2000008 19.1307612 35.2143612 109.659761 54.6454299 120.985928"></polygon>
                                <polygon id="Fill-6" fill="#4CFFB3" points="19.4554814 30.461271 1.42641457e-13 19.1307612 0.0143604085 109.659761 19.4454291 120.985928"></polygon>
                            </g>
                            <g id="Group-2" stroke-width="1" fill="none" transform="translate(183.787009, 253.649007)">
                                <polygon id="Fill-10" fill="#9DF4CA" points="19.4554814 1.84307086 0 11.4806318 19.4660779 22.6551615 37.9947199 12.0282672"></polygon>
                                <polygon id="Fill-12" fill="#4CFFB3" points="19.4554814 22.541351 0 11.2107607 0.0143604085 101.73968 19.4454291 113.065928"></polygon>
                            </g>
                            <polygon id="Fill-17" fill="#4CFFB3" points="90.1000003 363.735856 147.644178 396.988904 166.896007 385.659892 166.896007 319.518175 108.07279 285.814944 108.250001 306.229008 90.1000003 295.999683"></polygon>
                            <polygon id="Fill-20" fill="#3FD796" points="242.692014 363.735856 185.07161 397.032953 166.37931 386.118988 166.396007 319.518175 221.767009 287.52094 222.117857 309.152233 242.692014 297.677541"></polygon>
                            <polygon id="Fill-22" fill="#9DF4CA" points="222.496012 287.52094 166.439684 319.748014 108.005903 285.749074 128.198952 275.205093 110.432208 265.004147 163.153646 234.923177 184.909009 245.729007 128.247651 275.474037 166.396007 297.642934 203.030406 276.353678"></polygon>
                            <g id="Group-6" stroke-width="1" fill="none" transform="translate(250.000000, 324.500000)">
                                <polygon id="Fill-4" fill="#AF8A41" points="24.06879 27.6477939 23.9735872 55.6142949 48.1230772 41.7262472 48.1230772 13.9092236"></polygon>
                                <polygon id="Fill-5" fill="#FADD9C" points="0 13.6887445 24.1085617 27.6177205 48.1228102 13.9094016 48.1228102 13.9085118 24.0329332 0"></polygon>
                                <polygon id="Fill-6" fill="#EAC449" points="24.1085617 27.6173646 -1.17772465e-13 13.6883886 0.0186846691 41.3425887 23.97421 55.6150067"></polygon>
                            </g>
                            <g id="Group-6" stroke-width="1" fill="none" transform="translate(280.000000, 342.000000)" opacity="0.430478051">
                                <polygon id="Fill-4" fill="#665127" filter="url(#filter-15)" points="24.06879 27.6477939 23.9735872 55.6142949 48.1230772 41.7262472 48.1230772 13.9092236"></polygon>
                                <polygon id="Fill-5" fill="#CEBC93" filter="url(#filter-16)" points="0 13.6887445 24.1085617 27.6177205 48.1228102 13.9094016 48.1228102 13.9085118 24.0329332 0"></polygon>
                                <polygon id="Fill-6" fill="#D9B236" filter="url(#filter-17)" points="24.1085617 27.6173646 -1.17772465e-13 13.6883886 0.0186846691 41.3425887 23.97421 55.6150067"></polygon>
                            </g>
                            <g id="Group-6" stroke-width="1" fill="none" transform="translate(310.500000, 370.000000)">
                                <polygon id="Fill-5" fill="#9DF4F3" points="0 22.1125857 38.9445968 44.6132376 77.7368417 22.4690317 77.7368417 22.4675944 38.8224278 0"></polygon>
                                <polygon id="Fill-6" fill="#46D2C8" points="38.9445968 44.6126626 -4.22772928e-13 22.1120108 0.0301829249 66.7841769 38.7275672 89.8396197"></polygon>
                            </g>
                            <g id="Group-4" opacity="0.696521577" stroke-width="1" fill="none" transform="translate(282.630140, 223.296053)">
                                <polygon id="Fill-7" fill="#F0085C" opacity="0.365164621" filter="url(#filter-18)" points="18.5452001 21.656786 18.4712828 43.1694778 37.0484969 32.4863648 37.0484969 11.0886555"></polygon>
                                <polygon id="Fill-8" fill="#F37AA3" opacity="0.365164621" filter="url(#filter-19)" points="37.0482916 11.0883818 18.517618 0.389527125 0.0307472939 10.9186456 18.5757937 21.6332419"></polygon>
                                <polygon id="Fill-9" fill="#FF4F8F" opacity="0.365164621" filter="url(#filter-20)" points="0.0442988114 32.1906269 18.4709406 43.1700938 18.5756568 21.6334472 0.0306104099 10.9181665"></polygon>
                            </g>
                            <g id="Group-4" stroke-width="1" fill="none" transform="translate(258.130140, 236.796053)">
                                <polygon id="Fill-7" fill="#F0085C" points="18.5452001 21.656786 18.4712828 43.1694778 37.0484969 32.4863648 37.0484969 11.0886555"></polygon>
                                <polygon id="Fill-8" fill="#F37AA3" points="37.0482916 11.0883818 18.517618 0.389527125 0.0307472939 10.9186456 18.5757937 21.6332419"></polygon>
                                <polygon id="Fill-9" fill="#FF4F8F" points="0.0442988114 32.1906269 18.4709406 43.1700938 18.5756568 21.6334472 0.0306104099 10.9181665"></polygon>
                            </g>
                            <polygon id="Path-28" fill="#22C67B" points="202.784369 343.120395 184.480006 353.210013 184.480006 332.017542 203.24249 320.930267"></polygon>
                            <polygon id="Path" fill="#199E61" points="203.24249 343.120395 202.960007 320.91469 184.909009 332.017542"></polygon>
                            <polygon id="Path-28" fill="#22C67B" points="221.26437 354.340395 202.960007 364.430014 202.960007 343.237543 221.722491 332.150267"></polygon>
                            <polygon id="Path" fill="#199E61" points="221.722491 354.340395 221.440008 332.13469 203.38901 343.237543"></polygon>
                            <g id="Group-8" stroke-width="1" fill="none" transform="translate(166.309075, 374.891052)">
                                <polygon id="Path-28" fill="#22C67B" points="18.7203702 22.202212 0.0424394301 11.1870097 18.4023156 0.159218296"></polygon>
                                <polygon id="Path" fill="#199E61" points="18.6930016 22.2082403 18.5999333 -1.13686838e-13 0.0311431454 11.2081879"></polygon>
                            </g>
                            <g id="Group-8" stroke-width="1" fill="none" transform="translate(157.029075, 386.391052) scale(-1, 1) translate(-157.029075, -386.391052) translate(147.529075, 374.891052)">
                                <polygon id="Path-28" fill="#22C67B" points="18.8972559 22.1368302 0.146406924 11.2343065 18.6223157 0.159218296"></polygon>
                                <polygon id="Path" fill="#0E7D4A" points="18.9211738 22.1590687 18.8199334 0 0.100192612 11.2490163"></polygon>
                            </g>
                            <polygon id="Path-28" fill="#22C67B" transform="translate(138.526039, 337.317642) scale(-1, 1) translate(-138.526039, -337.317642) " points="147.916006 342.979289 129.136073 353.705018 129.223004 331.875169 147.62532 320.930267"></polygon>
                            <polygon id="Path" fill="#199E61" transform="translate(138.482573, 331.875169) scale(-1, 1) translate(-138.482573, -331.875169) " points="147.829074 342.979289 147.736006 320.771048 129.136073 331.937562"></polygon>
                            <polygon id="Path-28" fill="#22C67B" transform="translate(119.826039, 348.317643) scale(-1, 1) translate(-119.826039, -348.317643) " points="129.216006 353.979289 110.436072 364.705018 110.523004 342.875169 128.92532 331.930267"></polygon>
                            <polygon id="Path" fill="#199E61" transform="translate(119.782573, 342.875169) scale(-1, 1) translate(-119.782573, -342.875169) " points="129.129074 353.979289 129.036006 331.771049 110.436072 342.937562"></polygon>
                            <g id="Send-illustration" stroke-width="1" fill="none" transform="translate(10.500000, 257.000000)">
                                <g id="Group" transform="translate(78.000000, 111.000004)"></g>
                                <g id="Group-25" transform="translate(78.000000, 0.400001)"></g>
                                <g id="Group-8" transform="translate(121.680975, 92.110038) scale(-1, 1) translate(-121.680975, -92.110038) translate(112.680975, 77.110038)"></g>
                                <g id="Group-8" transform="translate(104.680975, 102.110038) scale(-1, 1) translate(-104.680975, -102.110038) translate(95.680975, 87.110038)"></g>
                                <g id="Group-5" transform="translate(170.600014, 127.650015)">
                                    <polygon id="Fill-10" fill="#7722BC" filter="url(#filter-21)" points="37.0183656 10.6987862 37.0183656 32.0971799 18.5356014 42.5113158 18.5150688 21.267601"></polygon>
                                    <polygon id="Fill-11" fill="#CEB3FC" filter="url(#filter-22)" points="18.4871445 0 0.000273768032 10.5298029 18.5460046 21.2437148 37.0185025 10.6988546"></polygon>
                                    <polygon id="Fill-12" fill="#BD7CF0" filter="url(#filter-23)" points="18.5457308 21.2437832 -6.57252031e-13 10.5291869 0.0143728216 31.8016473 18.5354645 42.5114527"></polygon>
                                </g>
                                <g id="Group-5" transform="translate(199.600014, 145.650015)" opacity="0.574637277">
                                    <polygon id="Fill-10" fill="#7722BC" filter="url(#filter-24)" points="37.0183656 10.6987862 37.0183656 32.0971799 18.5356014 42.5113158 18.5150688 21.267601"></polygon>
                                    <polygon id="Fill-11" fill="#CEB3FC" filter="url(#filter-25)" points="18.4871445 5.5067062e-14 0.000273768032 10.5298029 18.5460046 21.2437148 37.0185025 10.6988546"></polygon>
                                    <polygon id="Fill-12" fill="#BD7CF0" filter="url(#filter-26)" points="18.5457308 21.2437832 -6.57252031e-13 10.5291869 0.0143728216 31.8016473 18.5354645 42.5114527"></polygon>
                                </g>
                                <g id="Group-5" opacity="0.768717448" transform="translate(20.600014, 123.650015)">
                                    <polygon id="Fill-10" fill="#A62E67" points="37.0183656 10.6987862 37.0183656 32.0971799 18.5356014 42.5113158 18.5150688 21.267601"></polygon>
                                    <polygon id="Fill-11" fill="#F9D9FF" points="18.4871445 0 0.000273768032 10.5298029 18.5460046 21.2437148 37.0185025 10.6988546"></polygon>
                                    <polygon id="Fill-12" fill="#E49EF0" points="18.5457308 21.2437832 -6.57252031e-13 10.5291869 0.0143728216 31.8016473 18.5354645 42.5114527"></polygon>
                                </g>
                                <g id="Group-5" opacity="0.47749256" transform="translate(0.100014, 135.150015)">
                                    <polygon id="Fill-10" fill="#A62E67" filter="url(#filter-27)" points="37.0183656 10.6987862 37.0183656 32.0971799 18.5356014 42.5113158 18.5150688 21.267601"></polygon>
                                    <polygon id="Fill-11" fill="#F9D9FF" filter="url(#filter-28)" points="18.4871445 5.5067062e-14 0.000273768032 10.5298029 18.5460046 21.2437148 37.0185025 10.6988546"></polygon>
                                    <polygon id="Fill-12" fill="#E49EF0" filter="url(#filter-29)" points="18.5457308 21.2437832 -6.57252031e-13 10.5291869 0.0143728216 31.8016473 18.5354645 42.5114527"></polygon>
                                </g>
                                <g id="Group-5" transform="translate(72.500000, 75.500000)">
                                    <polygon id="Fill-10" fill="#0281A2" points="37.0183656 10.6987862 37.0183656 32.0971799 18.5356014 42.5113158 18.5150688 21.267601"></polygon>
                                    <polygon id="Fill-11" fill="#9CE2F5" points="18.4871445 0 0.000273768032 10.5298029 18.5460046 21.2437148 37.0185025 10.6988546"></polygon>
                                    <polygon id="Fill-12" fill="#01BEF2" points="18.5457308 21.2437832 -6.57252031e-13 10.5291869 0.0143728216 31.8016473 18.5354645 42.5114527"></polygon>
                                </g>
                                <g id="Group-5" transform="translate(52.000000, 87.500000)" opacity="0.70296224">
                                    <polygon id="Fill-10" fill="#0281A2" filter="url(#filter-30)" points="37.0183656 10.6987862 37.0183656 32.0971799 18.5356014 42.5113158 18.5150688 21.267601"></polygon>
                                    <polygon id="Fill-11" fill="#9CE2F5" filter="url(#filter-31)" points="18.4871445 0 0.000273768032 10.5298029 18.5460046 21.2437148 37.0185025 10.6988546"></polygon>
                                    <polygon id="Fill-12" fill="#01BEF2" filter="url(#filter-32)" points="18.5457308 21.2437832 -6.57252031e-13 10.5291869 0.0143728216 31.8016473 18.5354645 42.5114527"></polygon>
                                </g>
                            </g>
                        </g>
                    </g>
                </g>
            </g>
        </g>
    </g>
</svg>