<svg width="310" height="308" xmlns="http://www.w3.org/2000/svg" xmlns:xlink="http://www.w3.org/1999/xlink"><defs><filter x="-4.3%" y="-7.1%" width="108.7%" height="114.3%" filterUnits="objectBoundingBox" id="e"><feGaussianBlur stdDeviation="1" in="SourceGraphic"/></filter><filter x="-4.3%" y="-7.1%" width="108.7%" height="114.3%" filterUnits="objectBoundingBox" id="f"><feGaussianBlur stdDeviation="1" in="SourceGraphic"/></filter><filter x="-4.3%" y="-7.1%" width="108.7%" height="114.3%" filterUnits="objectBoundingBox" id="g"><feGaussianBlur stdDeviation="1" in="SourceGraphic"/></filter><filter x="-4.3%" y="-7.1%" width="108.7%" height="114.3%" filterUnits="objectBoundingBox" id="h"><feGaussianBlur stdDeviation="1" in="SourceGraphic"/></filter><filter x="-4.3%" y="-7.1%" width="108.7%" height="114.3%" filterUnits="objectBoundingBox" id="i"><feGaussianBlur stdDeviation="1" in="SourceGraphic"/></filter><filter x="-4.3%" y="-7.1%" width="108.7%" height="114.3%" filterUnits="objectBoundingBox" id="n"><feGaussianBlur stdDeviation="1" in="SourceGraphic"/></filter><filter x="-110.5%" y="-64%" width="321.1%" height="228%" filterUnits="objectBoundingBox" id="p"><feGaussianBlur stdDeviation="7.44598966 -4.87052965" in="SourceGraphic"/></filter><filter x="-55.5%" y="-96.6%" width="210.9%" height="293.3%" filterUnits="objectBoundingBox" id="q"><feGaussianBlur stdDeviation="7.44598966 -4.87052965" in="SourceGraphic"/></filter><filter x="-110.7%" y="-63.7%" width="321.4%" height="227.3%" filterUnits="objectBoundingBox" id="r"><feGaussianBlur stdDeviation="7.44598966 -4.87052965" in="SourceGraphic"/></filter><filter x="-209.9%" y="-121.6%" width="519.9%" height="343.1%" filterUnits="objectBoundingBox" id="s"><feGaussianBlur stdDeviation="11.5439617 5.97803886" in="SourceGraphic"/></filter><filter x="-105.4%" y="-183.6%" width="310.7%" height="467.2%" filterUnits="objectBoundingBox" id="t"><feGaussianBlur stdDeviation="11.5439617 5.97803886" in="SourceGraphic"/></filter><filter x="-210.3%" y="-120.9%" width="520.6%" height="341.8%" filterUnits="objectBoundingBox" id="u"><feGaussianBlur stdDeviation="11.5439617 5.97803886" in="SourceGraphic"/></filter><filter x="0%" y="0%" width="100%" height="100%" filterUnits="objectBoundingBox" id="v"><feGaussianBlur stdDeviation="0 -0" in="SourceGraphic"/></filter><filter x="0%" y="0%" width="100%" height="100%" filterUnits="objectBoundingBox" id="w"><feGaussianBlur stdDeviation="0 -0" in="SourceGraphic"/></filter><filter x="0%" y="0%" width="100%" height="100%" filterUnits="objectBoundingBox" id="x"><feGaussianBlur stdDeviation="0 -0" in="SourceGraphic"/></filter><filter x="-243.2%" y="-141.5%" width="586.4%" height="382.9%" filterUnits="objectBoundingBox" id="y"><feGaussianBlur stdDeviation="12.6302426 -8.09178416" in="SourceGraphic"/></filter><filter x="-121.6%" y="-211.8%" width="343.1%" height="523.7%" filterUnits="objectBoundingBox" id="z"><feGaussianBlur stdDeviation="12.6302426 -8.09178416" in="SourceGraphic"/></filter><filter x="-242.6%" y="-140.7%" width="585.3%" height="381.4%" filterUnits="objectBoundingBox" id="A"><feGaussianBlur stdDeviation="12.6302426 -8.09178416" in="SourceGraphic"/></filter><filter x="-111%" y="-64.5%" width="321.9%" height="229.1%" filterUnits="objectBoundingBox" id="B"><feGaussianBlur stdDeviation="6.15768667 2.98763771" in="SourceGraphic"/></filter><filter x="-55.5%" y="-96.7%" width="210.9%" height="293.3%" filterUnits="objectBoundingBox" id="C"><feGaussianBlur stdDeviation="6.15768667 2.98763771" in="SourceGraphic"/></filter><filter x="-110.7%" y="-64.2%" width="321.4%" height="228.4%" filterUnits="objectBoundingBox" id="D"><feGaussianBlur stdDeviation="6.15768667 2.98763771" in="SourceGraphic"/></filter><filter x="-111%" y="-64.5%" width="321.9%" height="229.1%" filterUnits="objectBoundingBox" id="E"><feGaussianBlur stdDeviation="6.06978893 3.16239569" in="SourceGraphic"/></filter><filter x="-55.5%" y="-96.7%" width="210.9%" height="293.3%" filterUnits="objectBoundingBox" id="F"><feGaussianBlur stdDeviation="6.06978893 3.16239569" in="SourceGraphic"/></filter><filter x="-110.7%" y="-64.2%" width="321.4%" height="228.4%" filterUnits="objectBoundingBox" id="G"><feGaussianBlur stdDeviation="6.06978893 3.16239569" in="SourceGraphic"/></filter><linearGradient x1="74.764%" y1="-6.916%" x2="41.515%" y2="85.265%" id="c"><stop stop-color="#032020" offset="0%"/><stop stop-color="#1A2F37" offset="100%"/></linearGradient><linearGradient x1="11.344%" y1="31.474%" x2="88.188%" y2="58.61%" id="d"><stop offset="0%"/><stop stop-opacity="0" offset="100%"/></linearGradient><linearGradient x1="12.048%" y1="64.998%" x2="53.871%" y2="48.398%" id="j"><stop stop-color="#275953" offset="0%"/><stop stop-color="#538D9C" stop-opacity=".57" offset="100%"/></linearGradient><linearGradient x1="12.048%" y1="62.652%" x2="53.871%" y2="48.648%" id="k"><stop stop-color="#275953" offset="0%"/><stop stop-color="#538D9C" stop-opacity=".57" offset="100%"/></linearGradient><linearGradient x1="50%" y1="10.465%" x2="50%" y2="59.499%" id="l"><stop offset="0%"/><stop stop-opacity="0" offset="100%"/></linearGradient><linearGradient x1="11.344%" y1="32.867%" x2="88.188%" y2="57.963%" id="m"><stop offset="0%"/><stop stop-opacity="0" offset="100%"/></linearGradient><linearGradient x1="11.344%" y1="31.648%" x2="88.188%" y2="58.53%" id="o"><stop offset="0%"/><stop stop-opacity="0" offset="100%"/></linearGradient><path id="a" d="M.4 0h308v308H.4v-88.341z"/></defs><g transform="translate(.1)" fill="none" fill-rule="evenodd"><mask id="b" fill="#fff"><use xlink:href="#a"/></mask><use fill="#1A2026" xlink:href="#a"/><g mask="url(#b)"><g transform="translate(-268.5 -155.95)"><path fill="url(#c)" d="M269.11 104.874h395v373h-395z"/><path fill-opacity=".65" fill="url(#d)" opacity=".142" filter="url(#e)" d="m492.4 385.866 24.868-14.916 44.132 25.633-24.749 16.367z"/><path fill-opacity=".65" fill="url(#d)" opacity=".137" filter="url(#f)" transform="matrix(1 0 0 -1 0 563.9)" d="m510.4 275.866 24.868-14.916 44.132 25.633-24.749 16.367z"/><path fill-opacity=".65" fill="url(#d)" opacity=".142" filter="url(#g)" d="m559.9 444.366 24.868-14.916 44.132 25.633-24.749 16.367z"/><path fill-opacity=".65" fill="url(#d)" opacity=".142" filter="url(#h)" transform="matrix(-1 0 0 1 559.8 0)" d="m245.4 415.866 24.868-14.916 44.132 25.633-24.749 16.367z"/><path fill-opacity=".65" fill="url(#d)" opacity=".281" filter="url(#i)" transform="matrix(-1 0 0 1 644.8 0)" d="m287.9 372.866 24.868-14.916 44.132 25.633-24.749 16.367z"/><ellipse stroke="url(#j)" stroke-width=".825" opacity=".381" stroke-linecap="square" cx="493.02" cy="447.884" rx="121.11" ry="76.23"/><path stroke="url(#k)" stroke-width=".825" opacity=".381" stroke-linecap="square" d="M363 511.574 1031 125.4"/><path stroke="url(#k)" stroke-width=".825" opacity=".204" stroke-linecap="square" d="M112.2 386.174 780.2 0M112.2 564.374l668-386.174M0 518.174 668 132"/><path stroke="url(#k)" stroke-width=".825" opacity=".381" stroke-linecap="square" transform="matrix(-1 0 0 1 892.4 0)" d="m112.2 603.974 668-386.174"/></g></g><g mask="url(#b)"><path fill-opacity=".18" fill="url(#l)" d="M233.814 362.054v66.659l-77.422 46.663L80.1 428.324v-66.27z" transform="translate(-13.1 -173)"/><path fill="url(#m)" opacity=".132" d="m136.908 396.88 75.41-45.192 108.598 61.983-75.445 45.729z" transform="translate(-13.1 -173)"/><path fill-opacity=".65" fill="url(#d)" opacity=".315" filter="url(#n)" d="m237.946 399.182 24.868-14.916 44.132 25.633-24.749 16.367z" transform="translate(-13.1 -173)"/><path fill-opacity=".65" fill="url(#o)" opacity=".315" d="m188.546 427.692 18.734-11.165 33.159 19.957-18.557 11.482z" transform="translate(-13.1 -173)"/><path fill="#2CDD8C" d="m198.639 115.665 20.845 9.694-.016 44.649-58.312 33.695-.022-89.874 37.505-21.671z"/><path fill="#9DF4CA" d="m198.667 114.521-38.046 21.829 19.466 11.174 39.376-22.583z"/><path fill="#9DF4CA" d="m198.667 114.521-38.046 21.829 19.466 11.174 39.376-22.583zM105.167 101.321 67.121 123.15l19.466 11.174 39.376-22.583z"/><path fill="#2CDD8C" d="m162.37 157.637-76.296 44.089-1.122-88.904 76.182-40.093z"/><path fill="#9DF4CA" d="M161.38 72.729 122.539 92.13l19.466 11.174 38.137-20.812z"/><path fill="#4CFFB3" d="m141.994 103.19-19.455-11.33.014 90.529 19.431 11.326zM106.794 103.19 87.339 91.86l.014 90.529 19.431 11.326z"/><path fill="#9DF4CA" d="m180.142 82.492-19.455 9.638 19.466 11.174 18.529-10.627z"/><path fill="#4CFFB3" d="m180.142 103.19-19.455-11.33.014 90.529 19.431 11.326zM67 190.736l57.544 33.253 19.252-11.329v-66.142l-58.823-33.703.177 20.414L67 123z"/><path fill="#3FD796" d="m219.592 190.736-57.62 33.297-18.693-10.914.017-66.601 55.371-31.997.351 21.631 20.574-11.474z"/><path fill="#9DF4CA" d="m199.396 114.521-56.056 32.227-58.434-33.999 20.193-10.544-17.767-10.201 52.722-30.081 21.755 10.806-56.661 29.745 38.148 22.169 36.634-21.289z"/><path fill="#665127" d="m250.969 179.148-.095 27.966 24.149-13.888v-27.817z"/><path fill="#CEBC93" d="m226.9 165.189 24.109 13.929 24.014-13.709-24.09-13.909z"/><path fill="#D9B236" d="M251.009 179.117 226.9 165.188l.019 27.655 23.955 14.272z"/><g opacity=".43"><path fill="#665127" filter="url(#p)" d="m24.069 27.648-.095 27.966 24.149-13.888V13.909z" transform="translate(256.9 169)"/><path fill="#CEBC93" filter="url(#q)" d="m0 13.689 24.109 13.929 24.014-13.709L24.033 0z" transform="translate(256.9 169)"/><path fill="#D9B236" filter="url(#r)" d="M24.109 27.617 0 13.688l.019 27.655 23.955 14.272z" transform="translate(256.9 169)"/></g><path fill="#9DF4F3" d="m287.4 219.113 38.945 22.5 38.792-22.144v-.001L326.222 197z"/><path fill="#46D2C8" d="M326.345 241.613 287.4 219.112l.03 44.672 38.698 23.056z"/><g opacity=".697"><path fill="#F0085C" opacity=".365" filter="url(#s)" d="m18.545 21.657-.074 21.512 18.577-10.683V11.089z" transform="translate(259.53 50.296)"/><path fill="#F37AA3" opacity=".365" filter="url(#t)" d="M37.048 11.088 18.518.39.031 10.919l18.545 10.714z" transform="translate(259.53 50.296)"/><path fill="#FF4F8F" opacity=".365" filter="url(#u)" d="M.044 32.191 18.471 43.17l.105-21.537L.031 10.918z" transform="translate(259.53 50.296)"/></g><path fill="#F0085C" d="m253.575 85.453-.074 21.512 18.577-10.683V74.885z"/><path fill="#F37AA3" d="m272.078 74.884-18.53-10.698-18.487 10.53 18.545 10.713z"/><path fill="#FF4F8F" d="m235.074 95.987 18.427 10.98.105-21.538-18.545-10.715z"/><path fill="#22C67B" d="m179.684 170.12-18.304 10.09v-21.192l18.762-11.088z"/><path fill="#199E61" d="m180.142 170.12-.282-22.205-18.051 11.103z"/><path fill="#22C67B" d="m198.164 181.34-18.304 10.09v-21.192l18.762-11.088z"/><path fill="#199E61" d="m198.622 181.34-.282-22.205-18.051 11.103z"/><path fill="#22C67B" d="m161.93 224.093-18.679-11.015 18.36-11.028z"/><path fill="#199E61" d="m161.902 224.1-.093-22.209L143.24 213.1z"/><path fill="#22C67B" d="m124.532 224.028 18.751-10.903-18.476-11.075z"/><path fill="#0E7D4A" d="m124.508 224.05.101-22.159 18.72 11.25z"/><path fill="#22C67B" d="m106.036 169.979 18.78 10.726-.087-21.83-18.402-10.945z"/><path fill="#199E61" d="m106.036 169.979.093-22.208 18.6 11.167z"/><path fill="#22C67B" d="m87.336 180.979 18.78 10.726-.087-21.83-18.402-10.945z"/><path fill="#199E61" d="m87.336 180.979.093-22.208 18.6 11.167z"/><path fill="#7722BC" filter="url(#v)" d="M37.018 10.699v21.398L18.536 42.511l-.021-21.243z" transform="translate(158 211.65)"/><path fill="#CEB3FC" filter="url(#w)" d="M18.487 0 0 10.53l18.546 10.714 18.473-10.545z" transform="translate(158 211.65)"/><path fill="#BD7CF0" filter="url(#x)" d="M18.546 21.244 0 10.529l.014 21.273 18.521 10.709z" transform="translate(158 211.65)"/><g opacity=".575"><path fill="#7722BC" filter="url(#y)" d="M37.018 10.699v21.398L18.536 42.511l-.021-21.243z" transform="translate(187 229.65)"/><path fill="#CEB3FC" filter="url(#z)" d="M18.487 0 0 10.53l18.546 10.714 18.473-10.545z" transform="translate(187 229.65)"/><path fill="#BD7CF0" filter="url(#A)" d="M18.546 21.244 0 10.529l.014 21.273 18.521 10.709z" transform="translate(187 229.65)"/></g><g opacity=".769"><path fill="#A62E67" d="M45.018 218.349v21.398l-18.482 10.414-.021-21.243z"/><path fill="#F9D9FF" d="M26.487 207.65 8 218.18l18.546 10.714 18.473-10.545z"/><path fill="#E49EF0" d="M26.546 228.894 8 218.179l.014 21.273 18.521 10.709z"/></g><g opacity=".477"><path fill="#A62E67" filter="url(#B)" d="M37.018 10.699v21.398L18.536 42.511l-.021-21.243z" transform="translate(-12.5 219.15)"/><path fill="#F9D9FF" filter="url(#C)" d="M18.487 0 0 10.53l18.546 10.714 18.473-10.545z" transform="translate(-12.5 219.15)"/><path fill="#E49EF0" filter="url(#D)" d="M18.546 21.244 0 10.529l.014 21.273 18.521 10.709z" transform="translate(-12.5 219.15)"/></g><path fill="#0281A2" d="M96.918 170.199v21.398l-18.482 10.414-.021-21.243z"/><path fill="#9CE2F5" d="M78.387 159.5 59.9 170.03l18.546 10.714 18.473-10.545z"/><path fill="#01BEF2" d="M78.446 180.744 59.9 170.029l.014 21.273 18.521 10.709z"/><g opacity=".703"><path fill="#0281A2" filter="url(#E)" d="M37.018 10.699v21.398L18.536 42.511l-.021-21.243z" transform="translate(39.4 171.5)"/><path fill="#9CE2F5" filter="url(#F)" d="M18.487 0 0 10.53l18.546 10.714 18.473-10.545z" transform="translate(39.4 171.5)"/><path fill="#01BEF2" filter="url(#G)" d="M18.546 21.244 0 10.529l.014 21.273 18.521 10.709z" transform="translate(39.4 171.5)"/></g></g></g></svg>