<?xml version="1.0" encoding="UTF-8"?>
<svg width="18px" height="20px" viewBox="0 0 18 20" version="1.1" xmlns="http://www.w3.org/2000/svg" xmlns:xlink="http://www.w3.org/1999/xlink">
    <!-- Generator: Sketch 49.2 (51160) - http://www.bohemiancoding.com/sketch -->
    <title>Icon/Light/Login</title>
    <desc>Created with Sketch.</desc>
    <defs></defs>
    <g id="Components" stroke="none" stroke-width="1" fill="none" fill-rule="evenodd">
        <g id="Component-Library" transform="translate(-582.000000, -3451.000000)">
            <g id="Icon/Login-Dark" transform="translate(580.000000, 3448.000000)">
                <rect id="Rectangle-6-Copy-7" x="0" y="0" width="24" height="24"></rect>
                <path d="M7.30270042,10.0040515 C6.9471464,9.65031152 6.94533235,9.07707136 7.29907232,8.72151733 C7.65190527,8.36596331 8.22695948,8.36414925 8.58160648,8.7169822 L10.3956576,10.520149 C10.7512117,10.873889 10.7530257,11.4480362 10.3992857,11.8026832 L8.58523459,13.6285257 C8.23240164,13.9840797 7.65825445,13.9858938 7.30270042,13.6321538 C6.9471464,13.2784138 6.94533235,12.7051737 7.29907232,12.3496196 L7.57390107,12.0702558 L3.40339747,12.0702558 C2.90453341,12.0702558 2.5,11.6648153 2.5,11.1632302 C2.5,10.659831 2.90453341,10.2562046 3.40339747,10.2562046 L7.55666758,10.2562046 L7.30270042,10.0040515 Z M12.4772813,19.3264604 L8.39566624,19.3264604 C7.64555609,19.3264604 7.03512788,18.7205673 7.03512788,17.9695501 L7.03512788,15.6983581 C7.03512788,15.198587 7.44056831,14.7913325 7.94215345,14.7913325 C8.4437386,14.7913325 8.84917903,15.198587 8.84917903,15.6983581 L8.84917903,17.5124092 L12.4772813,17.5124092 L12.4772813,7.72288217 C12.4772813,7.16324739 12.8119738,6.56007538 13.2899762,6.26529207 L15.6409865,4.81042305 L8.84917903,4.81405115 L8.84917903,6.6281023 C8.84917903,7.12968745 8.4437386,7.53512788 7.94215345,7.53512788 C7.44056831,7.53512788 7.03512788,7.12968745 7.03512788,6.6281023 L7.03512788,4.35781729 C7.03512788,3.61042821 7.64646312,3 8.39566624,3 L18.3720405,3 C18.8110409,3 19.2001549,3.20680183 19.450494,3.52788888 C19.4731696,3.55872775 19.4913101,3.58956662 19.5021944,3.62131252 C19.6464115,3.81723004 19.7334859,4.0675691 19.7334859,4.35781729 L19.7334859,17.9695501 C19.7334859,18.5291849 19.3987935,19.1323569 18.920791,19.4289543 L14.2441672,22.3196448 C13.4251231,22.8266721 12.4772813,22.293341 12.4772813,21.334615 L12.4772813,19.3264604 Z M14.2867974,20.1699941 L17.9194348,17.9586658 L17.9194348,5.55055592 L14.2867974,7.80632853 L14.2867974,20.1699941 Z" id="Login" fill="#394152" fill-rule="evenodd"></path>
            </g>
        </g>
    </g>
</svg>
