<?xml version="1.0" encoding="UTF-8"?>
<svg width="18px" height="19px" viewBox="0 0 18 19" version="1.1" xmlns="http://www.w3.org/2000/svg" xmlns:xlink="http://www.w3.org/1999/xlink">
    <!-- Generator: Sketch 49.2 (51160) - http://www.bohemiancoding.com/sketch -->
    <title>Icon/Light/Wallet</title>
    <desc>Created with Sketch.</desc>
    <defs></defs>
    <g id="Components" stroke="none" stroke-width="1" fill="none" fill-rule="evenodd">
        <g id="Component-Library" transform="translate(-540.000000, -3054.000000)">
            <g id="Icon/Wallet-Dark" transform="translate(537.000000, 3052.000000)">
                <rect id="Rectangle-6-Copy-9" x="0" y="0" width="24" height="24"></rect>
                <path d="M7.0356,3.6060264 C7.3965,2.62102612 8.4963,2.21294168 9.4143,2.7158245 L12.3312,4.24884968 L19.2,4.24884968 C20.1936,4.24884968 21,5.06050435 21,6.05272736 L21,18.6961223 C21,19.6928595 20.1909,20.5 19.2,20.5 L4.8,20.5 C3.8055,20.5 3,19.690151 3,18.6961223 L3,6.95737473 C3,5.4622689 4.2051,4.24884968 5.6955,4.24884968 L6.7998,4.24884968 L7.0356,3.6060264 Z M15.5955,12.3744248 C14.6037,12.3744248 13.8,13.1824681 13.8,14.1801082 C13.8,15.1759426 14.6055,15.9857916 15.5955,15.9857916 L19.2,15.9857916 L19.2,12.3744248 L15.5955,12.3744248 Z M8.6889,4.37344183 L7.3893,7.86021642 L15.3228,7.86021642 L8.6889,4.37344183 Z M4.8,18.6961223 L19.2,18.6943166 L19.2,17.7914749 L15.5955,17.7914749 C13.6101,17.7914749 12,16.1708741 12,14.1801082 C12,12.1857309 13.6092,10.5687415 15.5955,10.5687415 L19.2,10.5687415 L19.2,9.66589978 L5.6955,9.66589978 C5.3814,9.66589978 5.0799,9.61172928 4.8,9.5124167 L4.8,18.6961223 Z M19.2,6.05272736 L15.7656,6.0536302 L19.2,7.85841073 L19.2,6.05272736 Z M5.6955,6.05453305 C5.2005,6.05453305 4.8,6.45810328 4.8,6.95737473 C4.8,7.38261316 5.0925,7.73923563 5.484,7.83583969 L6.1374,6.05453305 L5.6955,6.05453305 Z M15.6,15.0829499 C15.1023,15.0829499 14.7,14.6793797 14.7,14.1801082 C14.7,13.6817396 15.1023,13.2772665 15.6,13.2772665 C16.0968,13.2772665 16.5,13.6817396 16.5,14.1801082 C16.5,14.6793797 16.0968,15.0829499 15.6,15.0829499 Z" id="Wallet-Manager" fill="#394152" fill-rule="evenodd"></path>
            </g>
        </g>
    </g>
</svg>