<?xml version="1.0" encoding="iso-8859-1"?>
<!-- Generator: Adobe Illustrator 19.0.0, SVG Export Plug-In . SVG Version: 6.00 Build 0)  -->
<svg version="1.1" id="Layer_1" xmlns="http://www.w3.org/2000/svg" xmlns:xlink="http://www.w3.org/1999/xlink" x="0px" y="0px"
	 viewBox="0 0 512 512" style="enable-background:new 0 0 512 512;" xml:space="preserve">
<circle style="fill:#F0F0F0;" cx="256" cy="256" r="256"/>
<g>
	<path style="fill:#6DA544;" d="M435.138,73.144C388.965,27.904,325.747,0,256,0c-22.261,0-87.394,27.904-133.565,73.144H435.138z"
		/>
	<path style="fill:#6DA544;" d="M256,219.429h253.388c-3.694-25.825-11.237-50.405-22.038-73.143H244.87L256,219.429z"/>
	<path style="fill:#6DA544;" d="M24.651,365.715h462.698c10.802-22.737,18.345-47.319,22.039-73.144H2.612
		C6.307,318.397,13.848,342.979,24.651,365.715z"/>
	<path style="fill:#6DA544;" d="M76.862,438.856C123.035,484.096,186.253,512,256,512s132.965-27.904,179.138-73.144H76.862z"/>
</g>
<path style="fill:#D80027;" d="M256,0C127.034,0,20.36,95.371,2.612,219.429H256V0z"/>
<g>
	<polygon style="fill:#F0F0F0;" points="128,196.267 116.87,174.007 116.87,129.485 144.696,107.224 172.522,129.485 
		172.522,162.876 183.652,151.746 183.652,174.007 161.391,196.267 	"/>
	<polygon style="fill:#F0F0F0;" points="68.135,128 71.082,137.07 80.618,137.07 72.903,142.677 75.851,151.746 68.135,146.14 
		60.419,151.746 63.367,142.677 55.652,137.07 65.188,137.07 	"/>
	<polygon style="fill:#F0F0F0;" points="90.396,105.739 93.343,114.809 102.88,114.809 95.164,120.416 98.111,129.485 
		90.396,123.88 82.681,129.485 85.629,120.416 77.913,114.809 87.448,114.809 	"/>
	<polygon style="fill:#F0F0F0;" points="112.657,83.478 115.604,92.548 125.139,92.548 117.425,98.155 120.371,107.224 
		112.657,101.619 104.941,107.224 107.888,98.155 100.174,92.548 109.709,92.548 	"/>
	<polygon style="fill:#F0F0F0;" points="221.256,128 218.309,137.07 208.774,137.07 216.488,142.677 213.541,151.746 
		221.256,146.14 228.972,151.746 226.025,142.677 233.739,137.07 224.204,137.07 	"/>
	<polygon style="fill:#F0F0F0;" points="198.995,105.739 196.048,114.809 186.513,114.809 194.227,120.416 191.28,129.485 
		198.995,123.88 206.711,129.485 203.763,120.416 211.478,114.809 201.943,114.809 	"/>
	<polygon style="fill:#F0F0F0;" points="176.735,83.478 173.787,92.548 164.252,92.548 171.966,98.155 169.019,107.224 
		176.735,101.619 184.45,107.224 181.503,98.155 189.217,92.548 179.682,92.548 	"/>
	<polygon style="fill:#F0F0F0;" points="144.696,72.348 141.748,81.418 132.213,81.418 139.927,87.024 136.98,96.093 
		144.696,90.488 152.411,96.093 149.464,87.024 157.178,81.418 147.643,81.418 	"/>
</g>
<g>
</g>
<g>
</g>
<g>
</g>
<g>
</g>
<g>
</g>
<g>
</g>
<g>
</g>
<g>
</g>
<g>
</g>
<g>
</g>
<g>
</g>
<g>
</g>
<g>
</g>
<g>
</g>
<g>
</g>
</svg>
