<?xml version="1.0" encoding="iso-8859-1"?>
<!-- Generator: Adobe Illustrator 19.0.0, SVG Export Plug-In . SVG Version: 6.00 Build 0)  -->
<svg version="1.1" id="Layer_1" xmlns="http://www.w3.org/2000/svg" xmlns:xlink="http://www.w3.org/1999/xlink" x="0px" y="0px"
	 viewBox="0 0 512 512" style="enable-background:new 0 0 512 512;" xml:space="preserve">
<path style="fill:#D80027;" d="M0,256C0,114.616,114.616,0,256,0s256,114.616,256,256c-11.13,0-256,33.391-256,33.391L0,256z"/>
<path d="M512,256c0,141.384-114.616,256-256,256S0,397.384,0,256"/>
<g>
	<polygon style="fill:#FFDA44;" points="220.898,203.612 242.6,219.362 234.33,244.87 256.016,229.094 277.72,244.844 
		269.418,219.344 291.102,203.57 264.287,203.586 255.984,178.087 247.713,203.595 	"/>
	<path style="fill:#FFDA44;" d="M320,145.149c-20.173-11.647-42.23-17.144-64-17.106v33.384
		c16.091-0.029,32.393,4.031,47.304,12.641c45.178,26.084,60.713,84.06,34.628,129.238c-26.083,45.178-84.058,60.713-129.237,34.629
		c-13.162-7.599-23.787-17.917-31.619-29.824L149.2,326.515c10.597,16.109,24.993,30.056,42.8,40.336
		c61.124,35.29,139.561,14.273,174.85-46.851C402.14,258.876,381.124,180.439,320,145.149z"/>
	<path style="fill:#FFDA44;" d="M182.19,233.739c-8.85,16.179-2.908,36.47,13.27,45.32l108.449,59.26
		c-7.375,13.481-3.458,29.89,10.023,37.265l29.295,16.025c13.481,7.376,30.392,2.424,37.767-11.058l16.025-29.294L182.19,233.739z"
		/>
</g>
<g>
</g>
<g>
</g>
<g>
</g>
<g>
</g>
<g>
</g>
<g>
</g>
<g>
</g>
<g>
</g>
<g>
</g>
<g>
</g>
<g>
</g>
<g>
</g>
<g>
</g>
<g>
</g>
<g>
</g>
</svg>
