<?xml version="1.0" encoding="iso-8859-1"?>
<!-- Generator: Adobe Illustrator 19.0.0, SVG Export Plug-In . SVG Version: 6.00 Build 0)  -->
<svg version="1.1" id="Layer_1" xmlns="http://www.w3.org/2000/svg" xmlns:xlink="http://www.w3.org/1999/xlink" x="0px" y="0px"
	 viewBox="0 0 512 512" style="enable-background:new 0 0 512 512;" xml:space="preserve">
<path style="fill:#0052B4;" d="M0,256c0,17.535,1.768,34.657,5.127,51.2L256,322.783L506.874,307.2
	C510.234,290.657,512,273.535,512,256s-1.768-34.657-5.126-51.2L256,189.217L5.127,204.8C1.768,221.343,0,238.465,0,256z"/>
<path style="fill:#F0F0F0;" d="M506.874,307.2H5.127C28.846,424.05,132.151,512,256,512S483.154,424.05,506.874,307.2z"/>
<path d="M5.127,204.8h501.748C483.154,87.95,379.851,0,256,0S28.846,87.95,5.127,204.8z"/>
<polygon style="fill:#FFDA44;" points="367.304,204.8 144.696,204.8 190.176,183.406 165.957,139.361 215.342,148.806 
	221.602,98.917 256,135.611 290.4,98.917 296.656,148.806 346.043,139.361 321.826,183.408 "/>
<g>
	<path style="fill:#A2001D;" d="M0,256c0,141.384,114.616,256,256,256L51.196,102.391C19.052,145.18,0,198.363,0,256z"/>
	<path style="fill:#A2001D;" d="M256,512c141.384,0,256-114.616,256-256c0-57.637-19.052-110.82-51.196-153.609L256,512z"/>
</g>
<g>
</g>
<g>
</g>
<g>
</g>
<g>
</g>
<g>
</g>
<g>
</g>
<g>
</g>
<g>
</g>
<g>
</g>
<g>
</g>
<g>
</g>
<g>
</g>
<g>
</g>
<g>
</g>
<g>
</g>
</svg>
