<?xml version="1.0" encoding="iso-8859-1"?>
<!-- Generator: Adobe Illustrator 19.0.0, SVG Export Plug-In . SVG Version: 6.00 Build 0)  -->
<svg version="1.1" id="Layer_1" xmlns="http://www.w3.org/2000/svg" xmlns:xlink="http://www.w3.org/1999/xlink" x="0px" y="0px"
	 viewBox="0 0 512 512" style="enable-background:new 0 0 512 512;" xml:space="preserve">
<circle style="fill:#FFDA44;" cx="256" cy="256" r="256"/>
<g>
	<path style="fill:#338AF3;" d="M256,512c77.591,0,147.114-34.524,194.061-89.043H61.939C108.886,477.476,178.409,512,256,512z"/>
	<path style="fill:#338AF3;" d="M512,256C512,114.616,397.384,0,256,0S0,114.616,0,256c0,23.107,3.08,45.489,8.819,66.783h494.363
		C508.92,301.489,512,279.107,512,256z"/>
	<path style="fill:#338AF3;" d="M20.349,356.174c4.935,11.596,10.704,22.748,17.225,33.391h436.852
		c6.521-10.644,12.29-21.796,17.227-33.391H20.349z"/>
</g>
<polygon style="fill:#F0F0F0;" points="117.317,161.463 67.301,139.389 117.317,117.315 139.39,67.3 161.463,117.315 
	211.478,139.389 161.463,161.463 139.39,211.478 "/>
<polygon style="fill:#D80027;" points="139.39,94.867 153.021,125.756 183.911,139.389 153.021,153.021 139.39,183.91 
	125.757,153.021 94.868,139.389 125.757,125.756 "/>
<g>
</g>
<g>
</g>
<g>
</g>
<g>
</g>
<g>
</g>
<g>
</g>
<g>
</g>
<g>
</g>
<g>
</g>
<g>
</g>
<g>
</g>
<g>
</g>
<g>
</g>
<g>
</g>
<g>
</g>
</svg>
