<?xml version="1.0" encoding="iso-8859-1"?>
<!-- Generator: Adobe Illustrator 19.0.0, SVG Export Plug-In . SVG Version: 6.00 Build 0)  -->
<svg version="1.1" id="Layer_1" xmlns="http://www.w3.org/2000/svg" xmlns:xlink="http://www.w3.org/1999/xlink" x="0px" y="0px"
	 viewBox="0 0 512 512" style="enable-background:new 0 0 512 512;" xml:space="preserve">
<circle style="fill:#F0F0F0;" cx="256" cy="256" r="256"/>
<path style="fill:#D80027;" d="M0,256c0,97.035,53.99,181.455,133.565,224.873V31.127C53.99,74.545,0,158.965,0,256z"/>
<path style="fill:#0052B4;" d="M0,256c0,118.279,80.221,217.805,189.217,247.181V8.819C80.221,38.195,0,137.721,0,256z"/>
<path style="fill:#D80027;" d="M91.826,89.043v41.739c0,20.747,16.818,37.565,37.565,37.565s37.565-16.818,37.565-37.565V89.043
	H91.826z"/>
<path style="fill:#F0F0F0;" d="M129.391,146.087c-8.439,0-15.304-6.865-15.304-15.304v-19.478h30.609v19.478
	C144.696,139.222,137.83,146.087,129.391,146.087z"/>
<g>
	<path style="fill:#FFDA44;" d="M278.261,267.13h-66.783c0-12.294-9.967-22.261-22.261-22.261s-22.261,9.967-22.261,22.261h-66.783
		c0,12.295,10.709,22.261,23.002,22.261h-0.741c0,12.295,9.965,22.261,22.261,22.261c0,12.295,9.965,22.261,22.261,22.261h44.522
		c12.294,0,22.261-9.966,22.261-22.261c12.294,0,22.261-9.966,22.261-22.261h-0.741C267.552,289.391,278.261,279.425,278.261,267.13
		z"/>
	<polygon style="fill:#FFDA44;" points="287.409,231.507 281.565,240.864 288.654,249.312 277.95,246.647 272.105,256 
		271.334,244.995 260.63,242.326 270.861,238.194 270.091,227.189 277.182,235.641 	"/>
	<polygon style="fill:#FFDA44;" points="253.306,202.892 251.015,213.683 260.568,219.198 249.596,220.356 247.303,231.144 
		242.815,221.066 231.844,222.218 240.043,214.836 235.557,204.76 245.109,210.275 	"/>
	<polygon style="fill:#FFDA44;" points="211.476,187.668 213.011,198.593 223.874,200.508 213.96,205.344 215.495,216.269 
		207.833,208.333 197.917,213.169 203.096,203.428 195.433,195.494 206.298,197.408 	"/>
	<polygon style="fill:#FFDA44;" points="166.959,187.668 172.139,197.408 183.002,195.493 175.339,203.43 180.518,213.17 
		170.604,208.333 162.94,216.267 164.476,205.344 154.561,200.509 165.424,198.593 	"/>
	<polygon style="fill:#FFDA44;" points="125.128,202.892 133.326,210.275 142.878,204.76 138.394,214.84 146.589,222.219 
		135.62,221.066 131.131,231.144 128.841,220.354 117.869,219.202 127.421,213.684 	"/>
	<polygon style="fill:#FFDA44;" points="91.026,231.507 101.257,235.641 108.344,227.19 107.578,238.197 117.805,242.33 
		107.1,244.996 106.328,256 100.487,246.647 89.783,249.314 96.874,240.864 	"/>
</g>
<g>
</g>
<g>
</g>
<g>
</g>
<g>
</g>
<g>
</g>
<g>
</g>
<g>
</g>
<g>
</g>
<g>
</g>
<g>
</g>
<g>
</g>
<g>
</g>
<g>
</g>
<g>
</g>
<g>
</g>
</svg>
