<?xml version="1.0" encoding="iso-8859-1"?>
<!-- Generator: Adobe Illustrator 19.0.0, SVG Export Plug-In . SVG Version: 6.00 Build 0)  -->
<svg version="1.1" id="Layer_1" xmlns="http://www.w3.org/2000/svg" xmlns:xlink="http://www.w3.org/1999/xlink" x="0px" y="0px"
	 viewBox="0 0 512.001 512.001" style="enable-background:new 0 0 512.001 512.001;" xml:space="preserve">
<path style="fill:#FFDA44;" d="M256.001,0.001c141.384,0,256,114.616,256,256s-114.616,256-256,256s-256-114.616-256-256"/>
<g>
	<path style="fill:#D80027;" d="M250.436,113.779H468.88c-14.384-21.487-31.937-40.667-51.987-56.889H250.436V113.779z"/>
	<path style="fill:#D80027;" d="M250.436,227.557h259.985c-2.182-19.726-6.603-38.773-13.006-56.888H250.436V227.557z"/>
	<path style="fill:#D80027;" d="M14.588,341.335h482.825c6.403-18.115,10.825-37.164,13.007-56.89H1.582
		C3.762,304.172,8.184,323.221,14.588,341.335z"/>
	<path style="fill:#D80027;" d="M95.108,455.112h321.784c20.049-16.221,37.603-35.403,51.987-56.889H43.123
		C57.507,419.709,75.059,438.89,95.108,455.112z"/>
</g>
<path style="fill:#4A1F63;" d="M256.001,0.001C114.616,0.001-0.001,114.617,0,256.003c58.426-0.002,114.616,0,256,0L256.001,0.001z"
	/>
<polygon style="fill:#F0F0F0;" points="211.479,133.566 211.479,155.827 200.349,155.827 200.349,133.566 178.088,133.566 
	178.088,155.827 166.958,155.827 166.958,111.305 122.436,111.305 122.436,155.827 111.305,155.827 111.305,133.566 89.045,133.566 
	89.045,155.827 77.914,155.827 77.914,133.566 55.652,133.566 55.652,200.348 233.74,200.348 233.74,133.566 "/>
<g>
</g>
<g>
</g>
<g>
</g>
<g>
</g>
<g>
</g>
<g>
</g>
<g>
</g>
<g>
</g>
<g>
</g>
<g>
</g>
<g>
</g>
<g>
</g>
<g>
</g>
<g>
</g>
<g>
</g>
</svg>
