<?xml version="1.0" encoding="iso-8859-1"?>
<!-- Generator: Adobe Illustrator 19.0.0, SVG Export Plug-In . SVG Version: 6.00 Build 0)  -->
<svg version="1.1" id="Layer_1" xmlns="http://www.w3.org/2000/svg" xmlns:xlink="http://www.w3.org/1999/xlink" x="0px" y="0px"
	 viewBox="0 0 512 512" style="enable-background:new 0 0 512 512;" xml:space="preserve">
<circle style="fill:#F0F0F0;" cx="256" cy="256" r="256"/>
<g>
	<path style="fill:#D80027;" d="M2.168,289.391c5.956,45.713,23.978,87.628,50.755,122.464l136.294-122.464H2.168z"/>
	<path style="fill:#D80027;" d="M222.609,509.833v-187.05L100.145,459.078C134.982,485.855,176.896,503.878,222.609,509.833z"/>
	<path style="fill:#D80027;" d="M222.609,2.167c-45.713,5.956-87.627,23.978-122.464,50.755l122.464,136.296V2.167z"/>
	<path style="fill:#D80027;" d="M2.168,222.609h187.049L52.922,100.145C26.145,134.981,8.123,176.896,2.168,222.609z"/>
	<path style="fill:#D80027;" d="M289.391,2.167v187.05L411.857,52.922C377.02,26.147,335.105,8.122,289.391,2.167z"/>
	<path style="fill:#D80027;" d="M509.833,222.609c-5.956-45.713-23.978-87.628-50.755-122.465L322.783,222.609H509.833z"/>
	<path style="fill:#D80027;" d="M322.783,289.391l136.296,122.465c26.776-34.837,44.799-76.752,50.755-122.465H322.783z"/>
	<path style="fill:#D80027;" d="M289.391,509.833c45.713-5.956,87.629-23.978,122.465-50.756L289.391,322.783V509.833z"/>
</g>
<path style="fill:#496E2D;" d="M459.098,411.876L303.224,256.001L303.223,256l155.875-155.876
	c-6.722-8.736-14.076-17.14-22.078-25.144c-8.002-8.002-16.407-15.357-25.144-22.078L256.001,208.777H256L100.125,52.902
	C91.389,59.624,82.984,66.977,74.98,74.98c-8.002,8.004-15.357,16.408-22.078,25.145l155.875,155.874l0.001,0.001L52.903,411.876
	c6.722,8.735,14.076,17.14,22.078,25.144c8.003,8.002,16.408,15.357,25.145,22.078L256,303.223l0,0l155.876,155.875
	c8.735-6.722,17.14-14.076,25.144-22.078C445.023,429.016,452.376,420.611,459.098,411.876z"/>
<path style="fill:#F0F0F0;" d="M289.391,509.833V289.394v-0.002h220.442C511.258,278.461,512,267.317,512,256
	c0-11.316-0.743-22.46-2.167-33.39h-220.44l-0.001-0.001V2.168C278.462,0.745,267.319,0,256,0
	c-11.317,0.001-22.461,0.745-33.391,2.168l0.001,220.439v0.002H2.168C0.744,233.539,0,244.683,0,256
	c0.001,11.319,0.744,22.461,2.168,33.391h220.44l0,0l0.001,220.442C233.54,511.256,244.681,512,256,512
	C267.319,512,278.462,511.256,289.391,509.833z"/>
<g>
</g>
<g>
</g>
<g>
</g>
<g>
</g>
<g>
</g>
<g>
</g>
<g>
</g>
<g>
</g>
<g>
</g>
<g>
</g>
<g>
</g>
<g>
</g>
<g>
</g>
<g>
</g>
<g>
</g>
</svg>
