<?xml version="1.0" encoding="iso-8859-1"?>
<!-- Generator: Adobe Illustrator 19.0.0, SVG Export Plug-In . SVG Version: 6.00 Build 0)  -->
<svg version="1.1" id="Layer_1" xmlns="http://www.w3.org/2000/svg" xmlns:xlink="http://www.w3.org/1999/xlink" x="0px" y="0px"
	 viewBox="0 0 512 512" style="enable-background:new 0 0 512 512;" xml:space="preserve">
<path style="fill:#0052B4;" d="M512,256c0-87.861-44.269-165.374-111.713-211.478L256,33.391l-144.287,11.13
	C44.27,90.626,0,168.14,0,256c0,87.863,44.27,165.374,111.713,211.478L256,478.609l144.287-11.13
	C467.731,421.374,512,343.863,512,256z"/>
<g>
	<path style="fill:#A2001D;" d="M400.287,44.522C359.202,16.436,309.524,0,256,0c-53.523,0-103.202,16.436-144.287,44.522H400.287z"
		/>
	<path style="fill:#A2001D;" d="M111.713,467.478C152.797,495.564,202.477,512,256,512c53.524,0,103.202-16.436,144.287-44.522
		H111.713z"/>
</g>
<circle style="fill:#F0F0F0;" cx="256" cy="256" r="122.435"/>
<circle style="fill:#6DA544;" cx="256" cy="256" r="100.174"/>
<circle style="fill:#F0F0F0;" cx="256" cy="256" r="66.783"/>
<polygon style="fill:#0052B4;" points="256,239.304 219.826,256 219.826,283.826 256,306.087 292.174,283.826 292.174,256 "/>
<rect x="219.826" y="222.609" style="fill:#FFDA44;" width="72.348" height="33.391"/>
<g>
</g>
<g>
</g>
<g>
</g>
<g>
</g>
<g>
</g>
<g>
</g>
<g>
</g>
<g>
</g>
<g>
</g>
<g>
</g>
<g>
</g>
<g>
</g>
<g>
</g>
<g>
</g>
<g>
</g>
</svg>
