<?xml version="1.0" encoding="iso-8859-1"?>
<!-- Generator: Adobe Illustrator 19.0.0, SVG Export Plug-In . SVG Version: 6.00 Build 0)  -->
<svg version="1.1" id="Layer_1" xmlns="http://www.w3.org/2000/svg" xmlns:xlink="http://www.w3.org/1999/xlink" x="0px" y="0px"
	 viewBox="0 0 512 512" style="enable-background:new 0 0 512 512;" xml:space="preserve">
<path style="fill:#D80027;" d="M512,256c0,141.384-114.616,256-256,256S0,397.384,0,256C0,256.061,256,0.028,256,0
	C397.384,0,512,114.616,512,256z"/>
<g>
	<polygon style="fill:#0052B4;" points="256,122.435 256,208.778 166.957,122.435 	"/>
	<polygon style="fill:#0052B4;" points="133.565,256 208.776,256 133.565,155.826 122.435,233.739 	"/>
</g>
<g>
	<path style="fill:#F0F0F0;" d="M256,0c-0.016,0-0.028,0-0.043,0H256L256,0z"/>
	<path style="fill:#F0F0F0;" d="M255.315,256H256c0-0.23,0-0.454,0-0.685C255.772,255.544,255.544,255.772,255.315,256z"/>
	<path style="fill:#F0F0F0;" d="M256,133.565C256,88.52,256,59.005,256,0h-0.043C114.591,0.024,0,114.629,0,256h133.565v-75.211
		L208.776,256h46.54c0.228-0.228,0.456-0.456,0.685-0.685c0-17.247,0-32.636,0-46.537l-75.213-75.213H256z"/>
</g>
<g>
	<path style="fill:#D80027;" d="M129.515,33.391C89.476,56.19,56.189,89.476,33.391,129.515V267.13h66.783V100.176v-0.002H267.13
		c0-21.063,0-41.129,0-66.783H129.515z"/>
	<path style="fill:#D80027;" d="M266.177,234.694L165.045,133.565h-31.48v0.002l132.609,132.609h0.002
		C266.177,266.177,266.177,244.47,266.177,234.694z"/>
</g>
<path style="fill:#F3F3F3;" d="M289.391,133.565v122.434c0,59.64,155.826,59.64,155.826,0V133.565H289.391z"/>
<path style="fill:#6DA544;" d="M289.391,256v-0.001c0,59.64,77.913,77.914,77.913,77.914s77.913-18.274,77.913-77.914V256H289.391z"
	/>
<polygon style="fill:#A2001D;" points="367.304,207.026 331.13,222.609 331.13,256 367.304,278.261 403.478,256 403.478,222.609 "/>
<rect x="331.13" y="189.217" style="fill:#338AF3;" width="72.348" height="33.391"/>
<g>
</g>
<g>
</g>
<g>
</g>
<g>
</g>
<g>
</g>
<g>
</g>
<g>
</g>
<g>
</g>
<g>
</g>
<g>
</g>
<g>
</g>
<g>
</g>
<g>
</g>
<g>
</g>
<g>
</g>
</svg>
