<?xml version="1.0" encoding="iso-8859-1"?>
<!-- Generator: Adobe Illustrator 19.0.0, SVG Export Plug-In . SVG Version: 6.00 Build 0)  -->
<svg version="1.1" id="Layer_1" xmlns="http://www.w3.org/2000/svg" xmlns:xlink="http://www.w3.org/1999/xlink" x="0px" y="0px"
	 viewBox="0 0 512 512" style="enable-background:new 0 0 512 512;" xml:space="preserve">
<path style="fill:#FFDA44;" d="M74.98,437.02c-99.974-99.974-99.974-262.064,0-362.039s262.065-99.974,362.04,0
	c0,0.035,67.968,230.057-32.007,330.033C305.04,504.989,75.05,437.09,74.98,437.02z"/>
<path style="fill:#FF9811;" d="M74.98,437.02c99.974,99.974,262.065,99.974,362.04,0s99.974-262.064,0-362.039L74.98,437.02z"/>
<path style="fill:#F0F0F0;" d="M400.816,144.695v-44.522H315.48l-6.52,6.519c-23.189,23.189-19.288,50.241-16.44,69.993
	c2.641,18.323,2.958,25.342-3.856,32.157c-6.814,6.813-13.835,6.497-32.156,3.854c-19.752-2.847-46.803-6.748-69.992,16.44
	c-23.188,23.188-19.285,50.238-16.435,69.989c2.643,18.321,2.961,25.34-3.851,32.151c-6.813,6.811-13.834,6.494-32.151,3.851
	c-7.142-1.031-14.527-2.095-22.411-2.183l-0.489,44.52c4.934,0.055,10.573,0.867,16.543,1.729
	c7.068,1.021,15.068,2.175,23.494,2.175c8.732,0,17.918-1.245,26.99-5.162v35.621h66.783v-33.391h-33.391v-22.261h22.261v-33.391
	h-17.792c0.844-10.802-0.64-21.146-1.92-30.014c-2.643-18.321-2.961-25.34,3.851-32.15c6.814-6.814,13.832-6.498,32.156-3.856
	c14.393,2.075,32.661,4.697,50.488-2.999v35.627h66.783v-33.391h-33.391V233.74h22.261v-33.391h-17.791
	c0.845-10.803-0.638-21.146-1.918-30.017c-1.845-12.801-2.557-20.085-0.493-25.636h64.723V144.695z"/>
<g>
</g>
<g>
</g>
<g>
</g>
<g>
</g>
<g>
</g>
<g>
</g>
<g>
</g>
<g>
</g>
<g>
</g>
<g>
</g>
<g>
</g>
<g>
</g>
<g>
</g>
<g>
</g>
<g>
</g>
</svg>
