<?xml version="1.0" encoding="iso-8859-1"?>
<!-- Generator: Adobe Illustrator 19.0.0, SVG Export Plug-In . SVG Version: 6.00 Build 0)  -->
<svg version="1.1" id="Layer_1" xmlns="http://www.w3.org/2000/svg" xmlns:xlink="http://www.w3.org/1999/xlink" x="0px" y="0px"
	 viewBox="0 0 512 512" style="enable-background:new 0 0 512 512;" xml:space="preserve">
<circle style="fill:#F0F0F0;" cx="256" cy="256" r="256"/>
<path style="fill:#FFDA44;" d="M74.98,74.98C20.115,129.845-4.632,203.419,0.721,275.165L275.164,0.722
	C203.418-4.632,129.845,20.115,74.98,74.98z"/>
<path style="fill:#0052B4;" d="M91.41,452.071c100.581,84.622,250.94,79.617,345.61-15.052s99.675-245.029,15.052-345.609
	L91.41,452.071z"/>
<path d="M255.087,245.689l22.061-11.95l-22.061-11.95c-5.151-33.461-31.589-59.9-65.05-65.05l-11.951-22.062l-11.95,22.061
	c-33.46,5.15-59.898,31.589-65.05,65.05l-22.062,11.951l22.061,11.95c5.151,33.461,31.589,59.9,65.05,65.05l11.951,22.062
	l11.95-22.061C223.498,305.589,249.936,279.15,255.087,245.689z M178.087,278.261c-24.589,0-44.522-19.932-44.522-44.522
	s19.932-44.522,44.522-44.522s44.522,19.932,44.522,44.522S202.676,278.261,178.087,278.261z"/>
<polygon style="fill:#D80027;" points="178.087,200.348 187.726,217.043 207.005,217.043 197.365,233.739 207.005,250.435 
	187.726,250.435 178.087,267.13 168.448,250.435 149.17,250.435 158.809,233.739 149.17,217.043 168.448,217.043 "/>
<g>
</g>
<g>
</g>
<g>
</g>
<g>
</g>
<g>
</g>
<g>
</g>
<g>
</g>
<g>
</g>
<g>
</g>
<g>
</g>
<g>
</g>
<g>
</g>
<g>
</g>
<g>
</g>
<g>
</g>
</svg>
