<?xml version="1.0" encoding="iso-8859-1"?>
<!-- Generator: Adobe Illustrator 19.0.0, SVG Export Plug-In . SVG Version: 6.00 Build 0)  -->
<svg version="1.1" id="Layer_1" xmlns="http://www.w3.org/2000/svg" xmlns:xlink="http://www.w3.org/1999/xlink" x="0px" y="0px"
	 viewBox="0 0 512 512" style="enable-background:new 0 0 512 512;" xml:space="preserve">
<path style="fill:#0052B4;" d="M512,256c0,141.384-114.616,256-256,256S0,397.384,0,256C0,256.061,256,0.028,256,0
	C397.384,0,512,114.616,512,256z"/>
<g>
	<path style="fill:#F0F0F0;" d="M256,0c-0.016,0-0.028,0-0.043,0H256L256,0z"/>
	<path style="fill:#F0F0F0;" d="M255.315,256H256c0-0.23,0-0.454,0-0.685C255.772,255.544,255.544,255.772,255.315,256z"/>
	<path style="fill:#F0F0F0;" d="M256,133.565C256,88.52,256,59.005,256,0h-0.043C114.591,0.024,0,114.629,0,256h133.565v-75.211
		L208.776,256h46.54c0.228-0.228,0.456-0.456,0.685-0.685c0-17.247,0-32.636,0-46.537l-75.213-75.213H256z"/>
</g>
<path style="fill:#D80027;" d="M129.515,33.391C89.476,56.19,56.189,89.476,33.391,129.515V256h66.783V100.176v-0.002H256
	c0-21.063,0-41.129,0-66.783H129.515z"/>
<path style="fill:#FFDA44;" d="M367.304,256l-69.193,69.193c12.968,25.011,39.076,42.111,69.193,42.111s56.225-17.1,69.193-42.111
	L367.304,256z"/>
<path style="fill:#D80027;" d="M256,224.519l-90.955-90.953h-31.48v0.002L255.998,256H256C256,256,256,234.293,256,224.519z"/>
<path style="fill:#6DA544;" d="M289.391,133.565v122.434V256l0,0c0.001,59.639,77.913,77.913,77.913,77.913
	s77.912-18.274,77.913-77.913l0,0v-0.001V133.565H289.391z"/>
<g>
	<path style="fill:#496E2D;" d="M445.217,256v-0.001V256z"/>
	<polygon style="fill:#496E2D;" points="289.391,256 289.391,256 289.391,255.999 	"/>
</g>
<rect x="350.609" y="189.217" style="fill:#F0F0F0;" width="33.391" height="89.043"/>
<circle style="fill:#A2001D;" cx="367.304" cy="189.217" r="16.696"/>
<g>
	<rect x="311.652" y="155.826" style="fill:#FFDA44;" width="22.261" height="22.261"/>
	<rect x="311.652" y="205.913" style="fill:#FFDA44;" width="22.261" height="22.261"/>
	<rect x="311.652" y="256" style="fill:#FFDA44;" width="22.261" height="22.261"/>
	<rect x="400.696" y="155.826" style="fill:#FFDA44;" width="22.261" height="22.261"/>
	<rect x="400.696" y="205.913" style="fill:#FFDA44;" width="22.261" height="22.261"/>
	<rect x="400.696" y="256" style="fill:#FFDA44;" width="22.261" height="22.261"/>
</g>
<g>
</g>
<g>
</g>
<g>
</g>
<g>
</g>
<g>
</g>
<g>
</g>
<g>
</g>
<g>
</g>
<g>
</g>
<g>
</g>
<g>
</g>
<g>
</g>
<g>
</g>
<g>
</g>
<g>
</g>
</svg>
