<?xml version="1.0" encoding="iso-8859-1"?>
<!-- Generator: Adobe Illustrator 19.0.0, SVG Export Plug-In . SVG Version: 6.00 Build 0)  -->
<svg version="1.1" id="Layer_1" xmlns="http://www.w3.org/2000/svg" xmlns:xlink="http://www.w3.org/1999/xlink" x="0px" y="0px"
	 viewBox="0 0 512 512" style="enable-background:new 0 0 512 512;" xml:space="preserve">
<circle style="fill:#F0F0F0;" cx="256" cy="256" r="256"/>
<g>
	<path style="fill:#D80027;" d="M411.876,52.902c-91.652-70.526-220.1-70.526-311.752-0.001L256,208.777L411.876,52.902z"/>
	<path style="fill:#D80027;" d="M255.998,303.224L100.124,459.098c91.652,70.526,220.1,70.526,311.752,0L256,303.222
		L255.998,303.224z"/>
</g>
<g>
	<path style="fill:#6DA544;" d="M208.777,256L52.902,100.124c-70.526,91.652-70.526,220.1,0,311.752L208.777,256L208.777,256z"/>
	<path style="fill:#6DA544;" d="M303.224,256l155.874,155.876c70.526-91.652,70.526-220.1,0-311.752L303.224,256L303.224,256z"/>
</g>
<circle style="fill:#F0F0F0;" cx="256" cy="256" r="111.304"/>
<g>
	<polygon style="fill:#D80027;" points="256,178.087 265.639,194.783 284.918,194.783 275.278,211.478 284.918,228.174 
		265.639,228.174 256,244.87 246.361,228.174 227.083,228.174 236.722,211.478 227.083,194.783 246.361,194.783 	"/>
	<polygon style="fill:#D80027;" points="207.005,256 216.644,272.696 235.922,272.696 226.283,289.391 235.922,306.087 
		216.644,306.087 207.005,322.783 197.365,306.087 178.087,306.087 187.726,289.391 178.087,272.696 197.365,272.696 	"/>
	<polygon style="fill:#D80027;" points="304.996,256 314.635,272.696 333.913,272.696 324.274,289.391 333.913,306.087 
		314.635,306.087 304.996,322.783 295.356,306.087 276.078,306.087 285.717,289.391 276.078,272.696 295.356,272.696 	"/>
</g>
<g>
</g>
<g>
</g>
<g>
</g>
<g>
</g>
<g>
</g>
<g>
</g>
<g>
</g>
<g>
</g>
<g>
</g>
<g>
</g>
<g>
</g>
<g>
</g>
<g>
</g>
<g>
</g>
<g>
</g>
</svg>
