<?xml version="1.0" encoding="iso-8859-1"?>
<!-- Generator: Adobe Illustrator 19.0.0, SVG Export Plug-In . SVG Version: 6.00 Build 0)  -->
<svg version="1.1" id="Layer_1" xmlns="http://www.w3.org/2000/svg" xmlns:xlink="http://www.w3.org/1999/xlink" x="0px" y="0px"
	 viewBox="0 0 512 512" style="enable-background:new 0 0 512 512;" xml:space="preserve">
<circle style="fill:#F0F0F0;" cx="256" cy="256" r="256"/>
<g>
	<path style="fill:#0052B4;" d="M480.873,133.565c-33.08-60.629-89.963-106.398-158.09-124.76l-11.13,124.76H480.873z"/>
	<path style="fill:#0052B4;" d="M31.127,133.565h169.22l-11.13-124.76C121.09,27.167,64.208,72.937,31.127,133.565z"/>
</g>
<g>
	<path style="fill:#6DA544;" d="M311.652,256v122.435h169.22C500.717,342.064,512,300.35,512,256H311.652z"/>
	<path style="fill:#6DA544;" d="M200.348,256H0c0,44.35,11.283,86.064,31.127,122.435h169.22V256z"/>
</g>
<g>
	<path style="fill:#FFDA44;" d="M31.127,378.435c33.081,60.629,89.963,106.398,158.09,124.76l11.13-109.109L31.127,378.435z"/>
	<path style="fill:#FFDA44;" d="M322.783,503.195c68.127-18.362,125.01-64.131,158.09-124.76l-169.22,15.649L322.783,503.195z"/>
	<polygon style="fill:#FFDA44;" points="311.652,394.084 480.873,378.435 311.652,378.435 	"/>
	<polygon style="fill:#FFDA44;" points="200.348,378.435 31.127,378.435 200.348,394.084 	"/>
</g>
<path style="fill:#D80027;" d="M256,0c-23.107,0-45.489,3.08-66.783,8.819v494.363C210.511,508.92,232.893,512,256,512
	s45.489-3.08,66.783-8.819V8.819C301.489,3.08,279.107,0,256,0z"/>
<polygon style="fill:#FFDA44;" points="137.698,55.652 144.604,76.909 166.957,76.909 148.875,90.047 155.782,111.304 
	137.698,98.167 119.615,111.304 126.524,90.047 108.442,76.909 130.793,76.909 "/>
<g>
</g>
<g>
</g>
<g>
</g>
<g>
</g>
<g>
</g>
<g>
</g>
<g>
</g>
<g>
</g>
<g>
</g>
<g>
</g>
<g>
</g>
<g>
</g>
<g>
</g>
<g>
</g>
<g>
</g>
</svg>
