<?xml version="1.0" encoding="iso-8859-1"?>
<!-- Generator: Adobe Illustrator 19.0.0, SVG Export Plug-In . SVG Version: 6.00 Build 0)  -->
<svg version="1.1" id="Layer_1" xmlns="http://www.w3.org/2000/svg" xmlns:xlink="http://www.w3.org/1999/xlink" x="0px" y="0px"
	 viewBox="0 0 512 512" style="enable-background:new 0 0 512 512;" xml:space="preserve">
<circle style="fill:#F0F0F0;" cx="256" cy="256" r="256"/>
<path d="M256,0C185.307,0,121.307,28.654,74.98,74.98L256,256V0z"/>
<path d="M0,256c0,70.693,28.654,134.693,74.98,181.02L256,256H0z"/>
<path d="M256,512c70.693,0,134.693-28.654,181.02-74.98L256,256V512z"/>
<path d="M512,256c0-70.693-28.654-134.693-74.98-181.02L256,256H512z"/>
<polygon style="fill:#FFDA44;" points="166.957,178.087 256,189.22 345.043,178.087 345.043,124.661 309.426,142.47 256,89.043 
	202.574,142.47 166.957,124.661 "/>
<path style="fill:#D80027;" d="M256,389.565c-49.099,0-89.043-39.945-89.043-89.043v-89.039l33.391-33.394h111.304l33.391,33.394
	v89.039C345.043,349.62,305.099,389.565,256,389.565z"/>
<path style="fill:#F0F0F0;" d="M256,356.174c-30.687,0-55.652-24.966-55.652-55.652V211.48h111.304v89.041
	C311.652,331.208,286.687,356.174,256,356.174z"/>
<g>
	<rect x="166.957" y="178.087" style="fill:#FFDA44;" width="33.391" height="33.391"/>
	<rect x="311.652" y="178.087" style="fill:#FFDA44;" width="33.391" height="33.391"/>
	<rect x="311.652" y="250.435" style="fill:#FFDA44;" width="33.391" height="33.391"/>
	<rect x="166.957" y="250.435" style="fill:#FFDA44;" width="33.391" height="33.391"/>
	<path style="fill:#FFDA44;" d="M256,356.174c-5.816,0-11.423-0.9-16.696-2.562v34.361c5.412,1.032,10.988,1.593,16.696,1.593
		s11.284-0.561,16.696-1.593v-34.361C267.423,355.273,261.816,356.174,256,356.174z"/>
	<path style="fill:#FFDA44;" d="M201.092,309.556l-26.648,26.648c4.62,10.519,11.212,19.978,19.314,27.908l23.6-23.6
		C208.936,332.375,203.069,321.615,201.092,309.556z"/>
	<path style="fill:#FFDA44;" d="M337.556,336.206l-26.648-26.648c-1.978,12.058-7.844,22.817-16.265,30.957l23.6,23.6
		C326.343,356.184,332.936,346.725,337.556,336.206z"/>
</g>
<g>
	<path style="fill:#0052B4;" d="M244.87,230.03v18.55c0,6.146,4.983,11.13,11.13,11.13s11.13-4.984,11.13-11.13v-18.55H244.87z"/>
	<path style="fill:#0052B4;" d="M244.87,304.233v18.55c0,6.146,4.983,11.13,11.13,11.13s11.13-4.984,11.13-11.13v-18.55
		L244.87,304.233L244.87,304.233z"/>
	<path style="fill:#0052B4;" d="M278.261,267.13v18.552c0,6.146,4.983,11.13,11.13,11.13s11.13-4.984,11.13-11.13V267.13H278.261z"
		/>
	<path style="fill:#0052B4;" d="M244.87,267.13v18.552c0,6.146,4.983,11.13,11.13,11.13s11.13-4.984,11.13-11.13V267.13H244.87z"/>
	<path style="fill:#0052B4;" d="M211.478,267.13v18.552c0,6.146,4.983,11.13,11.13,11.13c6.147,0,11.13-4.984,11.13-11.13V267.13
		H211.478z"/>
</g>
<g>
</g>
<g>
</g>
<g>
</g>
<g>
</g>
<g>
</g>
<g>
</g>
<g>
</g>
<g>
</g>
<g>
</g>
<g>
</g>
<g>
</g>
<g>
</g>
<g>
</g>
<g>
</g>
<g>
</g>
</svg>
