<?xml version="1.0" encoding="iso-8859-1"?>
<!-- Generator: Adobe Illustrator 19.0.0, SVG Export Plug-In . SVG Version: 6.00 Build 0)  -->
<svg version="1.1" id="Layer_1" xmlns="http://www.w3.org/2000/svg" xmlns:xlink="http://www.w3.org/1999/xlink" x="0px" y="0px"
	 viewBox="0 0 512 512" style="enable-background:new 0 0 512 512;" xml:space="preserve">
<circle style="fill:#6DA544;" cx="256" cy="256" r="256"/>
<g>
	<polygon style="fill:#FFDA44;" points="392.984,367.304 400.009,381.993 415.873,378.327 408.769,392.978 421.526,403.094 
		405.642,406.674 405.687,422.957 392.984,412.77 380.282,422.957 380.326,406.674 364.443,403.094 377.2,392.978 370.096,378.327 
		385.959,381.993 	"/>
	<polygon style="fill:#FFDA44;" points="327.632,211.478 334.658,226.167 350.522,222.5 343.417,237.152 356.174,247.268 
		340.291,250.848 340.335,267.13 327.632,256.944 314.93,267.13 314.973,250.848 299.091,247.268 311.848,237.152 304.743,222.5 
		320.608,226.167 	"/>
	<polygon style="fill:#FFDA44;" points="392.984,122.435 400.009,137.124 415.873,133.456 408.77,148.108 421.526,158.225 
		405.642,161.804 405.685,178.087 392.984,167.9 380.282,178.087 380.326,161.804 364.444,158.225 377.2,148.108 370.096,133.456 
		385.959,137.124 	"/>
	<polygon style="fill:#FFDA44;" points="450.067,189.217 457.092,203.906 472.957,200.239 465.852,214.891 478.609,225.007 
		462.726,228.587 462.77,244.87 450.067,234.683 437.365,244.87 437.408,228.587 421.526,225.007 434.283,214.891 427.178,200.239 
		443.042,203.906 	"/>
	<polygon style="fill:#FFDA44;" points="409.249,267.13 414.776,284.137 432.657,284.137 418.19,294.647 423.717,311.652 
		409.249,301.143 394.784,311.652 400.309,294.647 385.843,284.137 403.724,284.137 	"/>
	<path style="fill:#FFDA44;" d="M283.826,328.348c-39.957,0-72.349-32.392-72.349-72.348s32.391-72.348,72.349-72.348
		c12.458,0,24.181,3.151,34.415,8.696c-16.055-15.702-38.01-25.392-62.243-25.392c-49.176,0-89.042,39.866-89.042,89.043
		s39.866,89.043,89.042,89.043c24.232,0,46.188-9.69,62.242-25.392C308.007,325.197,296.284,328.348,283.826,328.348z"/>
	<path style="fill:#FFDA44;" d="M160.986,100.174c-7.7-13.304-22.075-22.261-38.551-22.261s-30.851,8.957-38.551,22.261H160.986z"/>
	<path style="fill:#FFDA44;" d="M161.134,100.431l-38.699,38.699l-38.699-38.699c-3.699,6.491-5.822,13.998-5.822,22.004
		c0,24.589,19.933,44.522,44.522,44.522s44.522-19.932,44.522-44.522C166.957,114.429,164.833,106.922,161.134,100.431z"/>
</g>
<path style="fill:#A2001D;" d="M111.304,128v37.554c3.557,0.915,7.287,1.402,11.13,1.402c3.843,0,7.573-0.488,11.13-1.402V128
	H111.304z"/>
<g>
</g>
<g>
</g>
<g>
</g>
<g>
</g>
<g>
</g>
<g>
</g>
<g>
</g>
<g>
</g>
<g>
</g>
<g>
</g>
<g>
</g>
<g>
</g>
<g>
</g>
<g>
</g>
<g>
</g>
</svg>
