<?xml version="1.0" encoding="iso-8859-1"?>
<!-- Generator: Adobe Illustrator 19.0.0, SVG Export Plug-In . SVG Version: 6.00 Build 0)  -->
<svg version="1.1" id="Layer_1" xmlns="http://www.w3.org/2000/svg" xmlns:xlink="http://www.w3.org/1999/xlink" x="0px" y="0px"
	 viewBox="0 0 512 512" style="enable-background:new 0 0 512 512;" xml:space="preserve">
<path style="fill:#0052B4;" d="M512,256c0,141.384-114.616,256-256,256S0,397.384,0,256C0,256.061,256,0.028,256,0
	C397.384,0,512,114.616,512,256z"/>
<g>
	<path style="fill:#F0F0F0;" d="M256,0c-0.016,0-0.028,0-0.043,0H256L256,0z"/>
	<path style="fill:#F0F0F0;" d="M255.315,256H256c0-0.23,0-0.454,0-0.685C255.772,255.544,255.544,255.772,255.315,256z"/>
	<path style="fill:#F0F0F0;" d="M256,133.565C256,88.52,256,59.005,256,0h-0.043C114.591,0.024,0,114.629,0,256h133.565v-75.211
		L208.776,256h46.54c0.228-0.228,0.456-0.456,0.685-0.685c0-17.247,0-32.636,0-46.537l-75.213-75.213H256z"/>
</g>
<g>
	<path style="fill:#D80027;" d="M129.515,33.391C89.476,56.19,56.189,89.476,33.391,129.515V256h66.783V100.176v-0.002H256
		c0-21.063,0-41.129,0-66.783H129.515z"/>
	<path style="fill:#D80027;" d="M256,224.519l-90.955-90.953h-31.48v0.002L255.998,256H256C256,256,256,234.293,256,224.519z"/>
</g>
<g>
	<path style="fill:#496E2D;" d="M445.217,256L445.217,256L445.217,256z"/>
	<path style="fill:#496E2D;" d="M289.391,256L289.391,256L289.391,256z"/>
</g>
<g>
	<polygon style="fill:#F0F0F0;" points="345.043,256 349.781,270.576 365.106,270.576 352.708,279.584 357.444,294.161 
		345.043,285.152 332.644,294.161 337.38,279.584 324.982,270.576 340.307,270.576 	"/>
	<polygon style="fill:#F0F0F0;" points="282.081,282.081 295.736,289.038 306.574,278.201 304.176,293.339 317.832,300.297 
		302.694,302.693 300.297,317.833 293.338,304.176 278.201,306.574 289.04,295.737 	"/>
	<polygon style="fill:#F0F0F0;" points="256,345.043 270.576,340.307 270.578,324.983 279.584,337.38 294.161,332.643 
		285.152,345.043 294.161,357.444 279.584,352.708 270.578,365.106 270.578,349.781 	"/>
	<polygon style="fill:#F0F0F0;" points="282.081,408.006 289.038,394.35 278.201,383.514 293.339,385.911 300.297,372.255 
		302.694,387.393 317.832,389.789 304.176,396.748 306.574,411.887 295.736,401.047 	"/>
	<polygon style="fill:#F0F0F0;" points="345.043,434.087 340.307,419.51 324.981,419.51 337.38,410.502 332.644,395.926 
		345.043,404.934 357.444,395.926 352.708,410.502 365.106,419.51 349.781,419.51 	"/>
	<polygon style="fill:#F0F0F0;" points="408.006,408.006 394.35,401.05 383.514,411.887 385.911,396.748 372.255,389.791 
		387.393,387.393 389.791,372.255 396.748,385.911 411.886,383.514 401.047,394.351 	"/>
	<polygon style="fill:#F0F0F0;" points="434.087,345.043 419.51,349.781 419.51,365.106 410.502,352.707 395.926,357.444 
		404.935,345.043 395.926,332.643 410.502,337.38 419.51,324.983 419.51,340.307 	"/>
	<polygon style="fill:#F0F0F0;" points="408.006,282.082 401.05,295.737 411.886,306.574 396.748,304.176 389.791,317.833 
		387.393,302.693 372.255,300.296 385.911,293.339 383.514,278.202 394.351,289.038 	"/>
</g>
<g>
</g>
<g>
</g>
<g>
</g>
<g>
</g>
<g>
</g>
<g>
</g>
<g>
</g>
<g>
</g>
<g>
</g>
<g>
</g>
<g>
</g>
<g>
</g>
<g>
</g>
<g>
</g>
<g>
</g>
</svg>
