<?xml version="1.0" encoding="iso-8859-1"?>
<!-- Generator: Adobe Illustrator 19.0.0, SVG Export Plug-In . SVG Version: 6.00 Build 0)  -->
<svg version="1.1" id="Layer_1" xmlns="http://www.w3.org/2000/svg" xmlns:xlink="http://www.w3.org/1999/xlink" x="0px" y="0px"
	 viewBox="0 0 512 512" style="enable-background:new 0 0 512 512;" xml:space="preserve">
<circle style="fill:#FFDA44;" cx="256" cy="256" r="256"/>
<g>
	<path style="fill:#0052B4;" d="M256,512c84,0,158.549-40.458,205.229-102.949H50.771C97.451,471.542,172,512,256,512z"/>
	<path style="fill:#0052B4;" d="M512,256C512,114.616,397.384,0,256,0S0,114.616,0,256c0,30.273,5.269,59.312,14.916,86.269h482.167
		C506.731,315.312,512,286.273,512,256z"/>
</g>
<g>
	<polygon style="fill:#F0F0F0;" points="175.222,164.182 189.035,206.694 233.739,206.694 197.574,232.972 211.387,275.486 
		175.222,249.21 139.057,275.486 152.872,232.972 116.707,206.694 161.409,206.694 	"/>
	<polygon style="fill:#F0F0F0;" points="98.454,119.66 106.742,145.168 133.565,145.168 111.866,160.934 120.154,186.443 
		98.454,170.677 76.755,186.443 85.044,160.934 63.346,145.168 90.168,145.168 	"/>
</g>
<g>
</g>
<g>
</g>
<g>
</g>
<g>
</g>
<g>
</g>
<g>
</g>
<g>
</g>
<g>
</g>
<g>
</g>
<g>
</g>
<g>
</g>
<g>
</g>
<g>
</g>
<g>
</g>
<g>
</g>
</svg>
