<?xml version="1.0" encoding="iso-8859-1"?>
<!-- Generator: Adobe Illustrator 19.0.0, SVG Export Plug-In . SVG Version: 6.00 Build 0)  -->
<svg version="1.1" id="Layer_1" xmlns="http://www.w3.org/2000/svg" xmlns:xlink="http://www.w3.org/1999/xlink" x="0px" y="0px"
	 viewBox="0 0 512 512" style="enable-background:new 0 0 512 512;" xml:space="preserve">
<path style="fill:#FFDA44;" d="M483.574,138.616c-11.829-22.919-27.334-44.431-46.546-63.643
	c-19.213-19.213-40.726-34.718-63.644-46.546L193.035,193.033L28.428,373.382c11.829,22.919,27.334,44.432,46.546,63.644
	c19.212,19.212,40.725,34.717,63.643,46.546l180.349-164.607L483.574,138.616z"/>
<path style="fill:#D80027;" d="M74.974,437.027c10.739,10.739,22.198,20.317,34.217,28.75l356.584-356.586
	c-8.431-12.019-18.009-23.478-28.748-34.217c-10.74-10.739-22.198-20.316-34.217-28.748L46.226,402.81
	C54.657,414.827,64.234,426.288,74.974,437.027z"/>
<g>
	<path style="fill:#338AF3;" d="M74.974,74.972c-80.767,80.767-96.272,202.065-46.546,298.41L373.384,28.427
		C277.038-21.298,155.74-5.791,74.974,74.972z"/>
	<path style="fill:#338AF3;" d="M437.027,437.027c80.766-80.766,96.27-202.064,46.547-298.409L138.618,483.573
		C234.963,533.298,356.262,517.794,437.027,437.027z"/>
</g>
<polygon style="fill:#FFDA44;" points="136.426,77.905 150.24,120.422 194.944,120.422 158.778,146.698 172.592,189.214 
	136.426,162.937 100.258,189.214 114.074,146.698 77.906,120.422 122.61,120.422 "/>
<g>
</g>
<g>
</g>
<g>
</g>
<g>
</g>
<g>
</g>
<g>
</g>
<g>
</g>
<g>
</g>
<g>
</g>
<g>
</g>
<g>
</g>
<g>
</g>
<g>
</g>
<g>
</g>
<g>
</g>
</svg>
