<?xml version="1.0" encoding="iso-8859-1"?>
<!-- Generator: Adobe Illustrator 19.0.0, SVG Export Plug-In . SVG Version: 6.00 Build 0)  -->
<svg version="1.1" id="Layer_1" xmlns="http://www.w3.org/2000/svg" xmlns:xlink="http://www.w3.org/1999/xlink" x="0px" y="0px"
	 viewBox="0 0 512 512" style="enable-background:new 0 0 512 512;" xml:space="preserve">
<path style="fill:#338AF3;" d="M233.739,278.261c0,0-158.609-203.316-158.759-203.28C121.306,28.654,185.307,0,256,0
	c141.384,0,256,114.616,256,256L233.739,278.261z"/>
<path style="fill:#6DA544;" d="M233.739,256c0,0-158.609,181.055-158.759,181.019C121.306,483.346,185.307,512,256,512
	c141.384,0,256-114.616,256-256H233.739z"/>
<path style="fill:#F0F0F0;" d="M74.98,74.98c-99.974,99.974-99.974,262.065,0,362.04C116.293,395.707,156.026,355.974,256,256
	L74.98,74.98z"/>
<polygon style="fill:#D80027;" points="103.61,189.217 120.185,240.233 173.831,240.233 130.433,271.765 147.007,322.783 
	103.61,291.252 60.211,322.783 76.789,271.765 33.391,240.233 87.033,240.233 "/>
<g>
</g>
<g>
</g>
<g>
</g>
<g>
</g>
<g>
</g>
<g>
</g>
<g>
</g>
<g>
</g>
<g>
</g>
<g>
</g>
<g>
</g>
<g>
</g>
<g>
</g>
<g>
</g>
<g>
</g>
</svg>
