<?xml version="1.0" encoding="utf-8"?>
<!-- Generator: Adobe Illustrator 24.3.0, SVG Export Plug-In . SVG Version: 6.00 Build 0)  -->
<svg version="1.1" id="Layer_1" xmlns="http://www.w3.org/2000/svg" xmlns:xlink="http://www.w3.org/1999/xlink" x="0px" y="0px"
	 viewBox="0 0 512 512" style="enable-background:new 0 0 512 512;" xml:space="preserve">
<style type="text/css">
	.st0{fill:#21468B;}
	.st1{fill:#AE1C28;}
	.st2{fill:#FFFFFF;}
</style>
<path class="st0" d="M15.4,345c36.2,97.5,130,167,240.1,167s203.9-69.5,240.1-167l-240.1-22.3L15.4,345z"/>
<path class="st1" d="M255.5,0C145.4,0,51.6,69.5,15.4,167l240.1,22.3L495.6,167C459.4,69.5,365.6,0,255.5,0z"/>
<path class="st2" d="M15.4,167C5.1,194.7-0.5,224.7-0.5,256s5.6,61.3,15.9,89h480.2c10.3-27.7,15.9-57.7,15.9-89s-5.6-61.3-15.9-89
	H15.4z"/>
</svg>
