<?xml version="1.0" encoding="iso-8859-1"?>
<!-- Generator: Adobe Illustrator 19.0.0, SVG Export Plug-In . SVG Version: 6.00 Build 0)  -->
<svg version="1.1" id="Layer_1" xmlns="http://www.w3.org/2000/svg" xmlns:xlink="http://www.w3.org/1999/xlink" x="0px" y="0px"
	 viewBox="0 0 512 512" style="enable-background:new 0 0 512 512;" xml:space="preserve">
<circle style="fill:#FFDA44;" cx="256" cy="256" r="256"/>
<path style="fill:#D80027;" d="M256,0C193.323,0,135.917,22.537,91.415,59.934l0,0L367.304,256L91.415,452.066l0,0
	C135.917,489.463,193.323,512,256,512c141.384,0,256-114.616,256-256S397.384,0,256,0z"/>
<path d="M74.98,74.98c-99.974,99.974-99.974,262.065,0,362.04C116.293,395.707,156.026,355.974,256,256L74.98,74.98z"/>
<polygon style="fill:#F0F0F0;" points="70.979,197.355 109.939,234.227 157.047,208.563 134.022,257.013 172.983,293.886 
	119.789,286.958 96.761,335.407 86.914,282.675 33.72,275.745 80.826,250.084 "/>
<g>
</g>
<g>
</g>
<g>
</g>
<g>
</g>
<g>
</g>
<g>
</g>
<g>
</g>
<g>
</g>
<g>
</g>
<g>
</g>
<g>
</g>
<g>
</g>
<g>
</g>
<g>
</g>
<g>
</g>
</svg>
