<?xml version="1.0" encoding="iso-8859-1"?>
<!-- Generator: Adobe Illustrator 19.0.0, SVG Export Plug-In . SVG Version: 6.00 Build 0)  -->
<svg version="1.1" id="Layer_1" xmlns="http://www.w3.org/2000/svg" xmlns:xlink="http://www.w3.org/1999/xlink" x="0px" y="0px"
	 viewBox="0 0 512 512" style="enable-background:new 0 0 512 512;" xml:space="preserve">
<circle style="fill:#F0F0F0;" cx="256" cy="256" r="256"/>
<path style="fill:#6DA544;" d="M155.826,166.957h340.25C459.906,69.472,366.07,0,256,0C185.306,0,121.313,28.659,74.989,74.989
	L155.826,166.957z"/>
<path style="fill:#D80027;" d="M155.826,345.043h340.25C459.906,442.528,366.07,512,256,512
	c-70.694,0-134.687-28.659-181.011-74.989L155.826,345.043z"/>
<path style="fill:#0052B4;" d="M74.98,74.98c-99.974,99.974-99.974,262.065,0,362.04C116.293,395.707,156.026,355.974,256,256
	L74.98,74.98z"/>
<path style="fill:#DEDDE0;" d="M300.522,211.478v55.652c0,34.08,44.522,44.523,44.522,44.523s44.522-10.443,44.522-44.523v-55.652
	H300.522z"/>
<rect x="333.913" y="257.113" style="fill:#786145;" width="22.261" height="32.278"/>
<path style="fill:#6DA544;" d="M367.304,244.87c0-12.295-9.966-22.261-22.261-22.261c-12.295,0-22.261,9.966-22.261,22.261
	c-6.147,0-11.13,4.983-11.13,11.13s4.983,11.13,11.13,11.13c3.65,0,40.872,0,44.522,0c6.147,0,11.13-4.983,11.13-11.13
	S373.452,244.87,367.304,244.87z"/>
<g>
</g>
<g>
</g>
<g>
</g>
<g>
</g>
<g>
</g>
<g>
</g>
<g>
</g>
<g>
</g>
<g>
</g>
<g>
</g>
<g>
</g>
<g>
</g>
<g>
</g>
<g>
</g>
<g>
</g>
</svg>
