<?xml version="1.0" encoding="iso-8859-1"?>
<!-- Generator: Adobe Illustrator 19.0.0, SVG Export Plug-In . SVG Version: 6.00 Build 0)  -->
<svg version="1.1" id="Layer_1" xmlns="http://www.w3.org/2000/svg" xmlns:xlink="http://www.w3.org/1999/xlink" x="0px" y="0px"
	 viewBox="0 0 512 512" style="enable-background:new 0 0 512 512;" xml:space="preserve">
<path style="fill:#338AF3;" d="M233.739,233.739c0,0-158.609,203.317-158.759,203.28C121.306,483.346,185.307,512,256,512
	c141.384,0,256-114.616,256-256L233.739,233.739z"/>
<path style="fill:#6DA544;" d="M233.739,256c0,0-158.609-181.055-158.759-181.019C121.306,28.654,185.307,0,256,0
	c141.384,0,256,114.616,256,256H233.739z"/>
<path style="fill:#D80027;" d="M74.98,74.98c-99.974,99.974-99.974,262.065,0,362.04C74.973,437.061,512,256,512,256L74.98,74.98z"
	/>
<path style="fill:#FFDA44;" d="M133.565,150.261c-49.099,0-89.043,39.945-89.043,89.043v33.391
	c0,49.099,39.945,89.043,89.043,89.043s89.043-39.945,89.043-89.043v-33.391C222.609,190.206,182.664,150.261,133.565,150.261z
	 M189.217,272.696c0,24.872-16.402,45.981-38.957,53.09v-36.394l23.624-23.624l-23.611-23.611l-0.013-8.403v-11.144H116.87V256
	l-23.608,23.607l23.608,23.607v22.573c-22.555-7.109-38.957-28.218-38.957-53.09v-33.391c0-30.687,24.966-55.652,55.652-55.652
	s55.652,24.966,55.652,55.652V272.696z"/>
<g>
</g>
<g>
</g>
<g>
</g>
<g>
</g>
<g>
</g>
<g>
</g>
<g>
</g>
<g>
</g>
<g>
</g>
<g>
</g>
<g>
</g>
<g>
</g>
<g>
</g>
<g>
</g>
<g>
</g>
</svg>
