<?xml version="1.0" encoding="iso-8859-1"?>
<!-- Generator: Adobe Illustrator 19.0.0, SVG Export Plug-In . SVG Version: 6.00 Build 0)  -->
<svg version="1.1" id="Layer_1" xmlns="http://www.w3.org/2000/svg" xmlns:xlink="http://www.w3.org/1999/xlink" x="0px" y="0px"
	 viewBox="0 0 512 512" style="enable-background:new 0 0 512 512;" xml:space="preserve">
<path style="fill:#0052B4;" d="M512,256c0,141.384-114.616,256-256,256S0,397.384,0,256C0,256.061,256,0.028,256,0
	C397.384,0,512,114.616,512,256z"/>
<g>
	<path style="fill:#F0F0F0;" d="M256,0c-0.016,0-0.028,0-0.043,0H256L256,0z"/>
	<path style="fill:#F0F0F0;" d="M255.315,256H256c0-0.23,0-0.454,0-0.685C255.772,255.544,255.544,255.772,255.315,256z"/>
	<path style="fill:#F0F0F0;" d="M256,133.565C256,88.52,256,59.005,256,0h-0.043C114.592,0.024,0,114.629,0,256h133.565v-75.211
		L208.777,256h46.539c0.228-0.228,0.456-0.456,0.685-0.685c0-17.247,0-32.636,0-46.537l-75.213-75.213H256z"/>
</g>
<g>
	<path style="fill:#D80027;" d="M129.515,33.391C89.476,56.19,56.19,89.476,33.391,129.515V256h66.783V100.176v-0.002H256
		c0-21.063,0-41.129,0-66.783H129.515z"/>
	<path style="fill:#D80027;" d="M256,224.519l-90.953-90.953h-31.481v0.002L255.998,256H256C256,256,256,234.293,256,224.519z"/>
</g>
<polygon style="fill:#FFDA44;" points="411.826,300.522 411.826,311.652 322.783,311.652 322.783,300.522 289.391,300.522 
	289.391,345.043 311.652,345.043 311.652,356.174 422.957,356.174 422.957,345.043 445.217,345.043 445.217,300.522 "/>
<path style="fill:#338AF3;" d="M289.391,133.565V256c0,59.639,77.913,77.913,77.913,77.913s77.913-18.274,77.913-77.913V133.565
	H289.391z"/>
<g>
	<path style="fill:#F3F3F3;" d="M367.3,224.889c-19.477,0-19.477,17.809-38.954,17.809c-19.477,0-19.477-17.809-38.954-17.809
		v31.165c19.477,0,19.477,17.809,38.954,17.809s19.477-17.809,38.954-17.809c19.479,0,19.479,17.809,38.959,17.809
		s19.479-17.809,38.959-17.809v-31.165c-19.479,0-19.479,17.809-38.959,17.809C386.779,242.698,386.779,224.889,367.3,224.889z"/>
	<path style="fill:#F3F3F3;" d="M367.3,162.504c-19.477,0-19.477,17.809-38.954,17.809c-19.477,0-19.477-17.809-38.954-17.809
		v31.165c19.477,0,19.477,17.809,38.954,17.809s19.477-17.809,38.954-17.809c19.479,0,19.479,17.809,38.959,17.809
		s19.479-17.809,38.959-17.809v-31.165c-19.479,0-19.479,17.809-38.959,17.809C386.779,180.313,386.779,162.504,367.3,162.504z"/>
</g>
<g>
</g>
<g>
</g>
<g>
</g>
<g>
</g>
<g>
</g>
<g>
</g>
<g>
</g>
<g>
</g>
<g>
</g>
<g>
</g>
<g>
</g>
<g>
</g>
<g>
</g>
<g>
</g>
<g>
</g>
</svg>
