<?xml version="1.0" encoding="iso-8859-1"?>
<!-- Generator: Adobe Illustrator 19.0.0, SVG Export Plug-In . SVG Version: 6.00 Build 0)  -->
<svg version="1.1" id="Layer_1" xmlns="http://www.w3.org/2000/svg" xmlns:xlink="http://www.w3.org/1999/xlink" x="0px" y="0px"
	 viewBox="0 0 512 512" style="enable-background:new 0 0 512 512;" xml:space="preserve">
<path style="fill:#338AF3;" d="M512,256c0,141.384-114.616,256-256,256S0,397.384,0,256C0,256.061,256,0.028,256,0
	C397.384,0,512,114.616,512,256z"/>
<g>
	<polygon style="fill:#0052B4;" points="256,122.435 256,208.778 166.957,122.435 	"/>
	<polygon style="fill:#0052B4;" points="133.565,256 208.777,256 133.565,155.826 122.435,233.739 	"/>
</g>
<g>
	<path style="fill:#F0F0F0;" d="M256,0c-0.016,0-0.029,0-0.043,0H256L256,0z"/>
	<path style="fill:#F0F0F0;" d="M255.315,256H256c0-0.23,0-0.454,0-0.685C255.772,255.544,255.544,255.772,255.315,256z"/>
	<path style="fill:#F0F0F0;" d="M256,133.565C256,88.52,256,59.005,256,0h-0.043C114.592,0.024,0,114.629,0,256h133.565v-75.211
		L208.777,256h46.54c0.228-0.228,0.456-0.456,0.685-0.685c0-17.247,0-32.636,0-46.537l-75.214-75.213H256z"/>
</g>
<g>
	<path style="fill:#D80027;" d="M129.515,33.391C89.476,56.19,56.19,89.476,33.391,129.515V256h66.783V100.176v-0.002H256
		c0-21.063,0-41.129,0-66.783H129.515z"/>
	<path style="fill:#D80027;" d="M256,224.519l-90.953-90.953h-31.481v0.002L255.998,256H256C256,256,256,234.293,256,224.519z"/>
</g>
<path style="fill:#F3F3F3;" d="M289.391,166.957v89.042c0,59.64,77.913,77.914,77.913,77.914s77.913-18.274,77.913-77.914v-89.042
	l-77.913-22.261L289.391,166.957z"/>
<path style="fill:#D80027;" d="M445.217,166.957v-33.391H289.391v33.391h66.781v66.784h-66.781v22.259c0,0.001,0,0.002,0,0.002
	l66.781,0.001v74.497c6.718,2.376,11.132,3.414,11.132,3.414s4.412-1.036,11.129-3.414v-74.498h66.784v-0.002V233.74h-66.784
	v-66.784H445.217z"/>
<g>
</g>
<g>
</g>
<g>
</g>
<g>
</g>
<g>
</g>
<g>
</g>
<g>
</g>
<g>
</g>
<g>
</g>
<g>
</g>
<g>
</g>
<g>
</g>
<g>
</g>
<g>
</g>
<g>
</g>
</svg>
