<?xml version="1.0" encoding="iso-8859-1"?>
<!-- Generator: Adobe Illustrator 19.0.0, SVG Export Plug-In . SVG Version: 6.00 Build 0)  -->
<svg version="1.1" id="Layer_1" xmlns="http://www.w3.org/2000/svg" xmlns:xlink="http://www.w3.org/1999/xlink" x="0px" y="0px"
	 viewBox="0 0 512 512" style="enable-background:new 0 0 512 512;" xml:space="preserve">
<circle style="fill:#F0F0F0;" cx="256" cy="256" r="256"/>
<g>
	<path style="fill:#D80027;" d="M31.127,133.565h449.745C437.454,53.989,353.035,0,256,0S74.546,53.989,31.127,133.565z"/>
	<path style="fill:#D80027;" d="M256,512c97.035,0,181.454-53.989,224.873-133.565H31.127C74.546,458.011,158.965,512,256,512z"/>
</g>
<path style="fill:#FFDA44;" d="M345.043,256c0,49.178-39.866,77.913-89.043,77.913S166.957,305.178,166.957,256
	s39.866-89.043,89.043-89.043S345.043,206.822,345.043,256z"/>
<path style="fill:#0052B4;" d="M345.043,256c0,49.178-39.866,89.043-89.043,89.043S166.957,305.178,166.957,256"/>
<g>
	<rect x="200.348" y="233.739" style="fill:#D80027;" width="22.261" height="44.522"/>
	<rect x="289.391" y="233.739" style="fill:#D80027;" width="22.261" height="44.522"/>
	<rect x="244.87" y="200.348" style="fill:#D80027;" width="22.261" height="77.913"/>
</g>
<g>
</g>
<g>
</g>
<g>
</g>
<g>
</g>
<g>
</g>
<g>
</g>
<g>
</g>
<g>
</g>
<g>
</g>
<g>
</g>
<g>
</g>
<g>
</g>
<g>
</g>
<g>
</g>
<g>
</g>
</svg>
