<?xml version="1.0" encoding="iso-8859-1"?>
<!-- Generator: Adobe Illustrator 19.0.0, SVG Export Plug-In . SVG Version: 6.00 Build 0)  -->
<svg version="1.1" id="Layer_1" xmlns="http://www.w3.org/2000/svg" xmlns:xlink="http://www.w3.org/1999/xlink" x="0px" y="0px"
	 viewBox="0 0 512 512" style="enable-background:new 0 0 512 512;" xml:space="preserve">
<circle style="fill:#F0F0F0;" cx="256" cy="256" r="256"/>
<path style="fill:#D80027;" d="M509.833,222.609h-220.44h-0.001V2.167C278.461,0.744,267.317,0,256,0s-22.461,0.744-33.391,2.167
	v220.442l0,0H2.167C0.744,233.539,0,244.683,0,256s0.744,22.461,2.167,33.391h220.44h0.001v220.442
	C233.539,511.256,244.683,512,256,512s22.461-0.743,33.391-2.167V289.394v-0.002h220.442C511.256,278.461,512,267.317,512,256
	S511.256,233.539,509.833,222.609z"/>
<polygon style="fill:#FFDA44;" points="328.348,267.13 345.043,278.261 345.043,233.739 328.348,244.87 267.13,244.87 
	267.13,183.652 278.261,166.957 233.739,166.957 244.87,183.652 244.87,244.87 183.652,244.87 166.957,233.739 166.957,278.261 
	183.652,267.13 244.87,267.13 244.87,328.348 233.739,345.043 278.261,345.043 267.13,328.348 267.13,267.13 "/>
<g>
</g>
<g>
</g>
<g>
</g>
<g>
</g>
<g>
</g>
<g>
</g>
<g>
</g>
<g>
</g>
<g>
</g>
<g>
</g>
<g>
</g>
<g>
</g>
<g>
</g>
<g>
</g>
<g>
</g>
</svg>
