<?xml version="1.0" encoding="iso-8859-1"?>
<!-- Generator: Adobe Illustrator 19.0.0, SVG Export Plug-In . SVG Version: 6.00 Build 0)  -->
<svg version="1.1" id="Layer_1" xmlns="http://www.w3.org/2000/svg" xmlns:xlink="http://www.w3.org/1999/xlink" x="0px" y="0px"
	 viewBox="0 0 512 512" style="enable-background:new 0 0 512 512;" xml:space="preserve">
<path style="fill:#FFDA44;" d="M345.046,15.924C317.312,5.633,287.315,0,256,0c-31.313,0-61.309,5.633-89.041,15.922L155.828,256
	l11.13,240.078C194.691,506.368,224.687,512,256,512c31.316,0,61.312-5.632,89.046-15.924L356.176,256L345.046,15.924z"/>
<path style="fill:#D80027;" d="M0,256c0,110.07,69.472,203.906,166.957,240.076V15.922C69.472,52.094,0,145.928,0,256z"/>
<path style="fill:#6DA544;" d="M512,256c0-110.072-69.472-203.906-166.957-240.078v480.155C442.528,459.906,512,366.07,512,256z"/>
<g>
</g>
<g>
</g>
<g>
</g>
<g>
</g>
<g>
</g>
<g>
</g>
<g>
</g>
<g>
</g>
<g>
</g>
<g>
</g>
<g>
</g>
<g>
</g>
<g>
</g>
<g>
</g>
<g>
</g>
</svg>
