<?xml version="1.0" encoding="iso-8859-1"?>
<!-- Generator: Adobe Illustrator 19.0.0, SVG Export Plug-In . SVG Version: 6.00 Build 0)  -->
<svg version="1.1" id="Layer_1" xmlns="http://www.w3.org/2000/svg" xmlns:xlink="http://www.w3.org/1999/xlink" x="0px" y="0px"
	 viewBox="0 0 512 512" style="enable-background:new 0 0 512 512;" xml:space="preserve">
<circle style="fill:#F0F0F0;" cx="256" cy="256" r="256"/>
<path style="fill:#6DA544;" d="M256,0c-45.261,0-87.769,11.762-124.661,32.372v447.256C168.232,500.238,210.739,512,256,512
	c141.384,0,256-114.616,256-256S397.384,0,256,0z"/>
<path style="fill:#F0F0F0;" d="M132.092,31.951c-16.105,8.925-31.143,19.533-44.882,31.593c1.389-1.218,2.792-2.422,4.206-3.61
	L287.481,256L91.415,452.066c-1.415-1.188-2.817-2.392-4.206-3.61c13.739,12.06,28.778,22.667,44.882,31.593L512,256L132.092,31.951
	z"/>
<path style="fill:#FFDA44;" d="M110.47,45.382c-7.807,5.406-15.305,11.223-22.45,17.44L256,256L88.019,449.178
	c7.145,6.217,14.643,12.035,22.45,17.44L468.178,256L110.47,45.382z"/>
<path d="M91.415,59.934c-5.691,4.782-11.183,9.795-16.435,15.046L233.739,256L74.98,437.02c5.252,5.252,10.743,10.266,16.435,15.046
	L287.481,256L91.415,59.934z"/>
<path style="fill:#D80027;" d="M74.98,74.98c-99.974,99.974-99.974,262.065,0,362.04C116.293,395.707,156.026,355.974,256,256
	L74.98,74.98z"/>
<g>
</g>
<g>
</g>
<g>
</g>
<g>
</g>
<g>
</g>
<g>
</g>
<g>
</g>
<g>
</g>
<g>
</g>
<g>
</g>
<g>
</g>
<g>
</g>
<g>
</g>
<g>
</g>
<g>
</g>
</svg>
