<?xml version="1.0" encoding="iso-8859-1"?>
<!-- Generator: Adobe Illustrator 19.0.0, SVG Export Plug-In . SVG Version: 6.00 Build 0)  -->
<svg version="1.1" id="Layer_1" xmlns="http://www.w3.org/2000/svg" xmlns:xlink="http://www.w3.org/1999/xlink" x="0px" y="0px"
	 viewBox="0 0 512 512" style="enable-background:new 0 0 512 512;" xml:space="preserve">
<circle style="fill:#F0F0F0;" cx="256" cy="256" r="256"/>
<path style="fill:#D80027;" d="M256,512c64.917,0,124.179-24.176,169.306-64H86.694C131.821,487.824,191.083,512,256,512z"/>
<g>
	<path style="fill:#0052B4;" d="M8.065,320c5.845,22.706,14.731,44.19,26.191,64h443.487c11.46-19.81,20.346-41.294,26.191-64
		L256,300.522L8.065,320z"/>
	<path style="fill:#0052B4;" d="M503.935,192c-5.845-22.706-14.731-44.19-26.191-64L256,122.435c0-44.713,0-86.97,0-122.435
		c-19.017,0-37.551,2.075-55.386,6.008C200.272,6.084,33.391,137.718,33.391,256C37.658,256.742,256,278.261,256,278.261
		s0-48.761,0-86.261H503.935z"/>
</g>
<path style="fill:#F0F0F0;" d="M256,159.722v-128h-81.075l25.697-25.697C95.131,29.291,14.076,117.615,1.67,226.783
	C0.58,236.373,0,246.118,0,256c26.713,0,129.67,0,129.67,0v-51.023L181.198,256h91.585l-97.859-96.278H256z"/>
<path style="fill:#D80027;" d="M256.117,256l-96.278-96.278H129.67v0.001L225.947,256H97.391V128h380.353
	c-13.938-24.093-31.696-45.697-52.437-64H97.391v-8.925c-25.828,20.417-47.62,45.705-64,74.479V256H0c0,22.099,2.8,43.545,8.065,64
	h495.87C509.2,299.544,512,278.099,512,256H256.117z"/>
<g>
</g>
<g>
</g>
<g>
</g>
<g>
</g>
<g>
</g>
<g>
</g>
<g>
</g>
<g>
</g>
<g>
</g>
<g>
</g>
<g>
</g>
<g>
</g>
<g>
</g>
<g>
</g>
<g>
</g>
</svg>
