<?xml version="1.0" encoding="iso-8859-1"?>
<!-- Generator: Adobe Illustrator 19.0.0, SVG Export Plug-In . SVG Version: 6.00 Build 0)  -->
<svg version="1.1" id="Layer_1" xmlns="http://www.w3.org/2000/svg" xmlns:xlink="http://www.w3.org/1999/xlink" x="0px" y="0px"
	 viewBox="0 0 512 512" style="enable-background:new 0 0 512 512;" xml:space="preserve">
<circle style="fill:#FFDA44;" cx="256" cy="256" r="256"/>
<path style="fill:#6DA544;" d="M411.856,52.92C368.689,19.739,314.654,0,256,0S143.31,19.74,100.143,52.92L256,208.776
	L411.856,52.92z"/>
<path d="M52.919,100.144C19.74,143.311,0,197.346,0,256s19.74,112.69,52.92,155.858L208.777,256L52.919,100.144z"/>
<path style="fill:#6DA544;" d="M100.143,459.08C143.311,492.261,197.346,512,256,512s112.689-19.74,155.857-52.92L256,303.224
	L100.143,459.08z"/>
<path d="M459.08,411.856C492.261,368.689,512,314.654,512,256s-19.739-112.689-52.92-155.856L303.224,256L459.08,411.856z"/>
<g>
</g>
<g>
</g>
<g>
</g>
<g>
</g>
<g>
</g>
<g>
</g>
<g>
</g>
<g>
</g>
<g>
</g>
<g>
</g>
<g>
</g>
<g>
</g>
<g>
</g>
<g>
</g>
<g>
</g>
</svg>
