<?xml version="1.0" encoding="iso-8859-1"?>
<!-- Generator: Adobe Illustrator 19.0.0, SVG Export Plug-In . SVG Version: 6.00 Build 0)  -->
<svg version="1.1" id="Layer_1" xmlns="http://www.w3.org/2000/svg" xmlns:xlink="http://www.w3.org/1999/xlink" x="0px" y="0px"
	 viewBox="0 0 512 512" style="enable-background:new 0 0 512 512;" xml:space="preserve">
<circle style="fill:#F0F0F0;" cx="256" cy="256" r="256"/>
<path style="fill:#D80027;" d="M459.098,411.875L303.223,256.001h-0.001l155.876-155.877c-6.723-8.736-14.077-17.141-22.078-25.144
	c-8.003-8.002-16.407-15.357-25.144-22.078L256.001,208.777L256,208.778L100.125,52.902C91.39,59.624,82.984,66.977,74.981,74.98
	s-15.357,16.408-22.078,25.144l155.875,155.874l0.001,0.001L52.902,411.876c6.723,8.736,14.077,17.141,22.078,25.144
	c8.003,8.002,16.407,15.357,25.144,22.078L256,303.223l0.001-0.001l155.875,155.875c8.735-6.722,17.141-14.076,25.144-22.078
	C445.023,429.016,452.376,420.611,459.098,411.875z"/>
<polygon style="fill:#FFDA44;" points="211.478,77.913 256,89.043 300.522,77.913 300.522,40.07 282.713,48.974 256,22.261 
	229.287,48.974 211.478,40.07 "/>
<path style="fill:#D80027;" d="M211.478,77.913v27.828c0,34.08,44.522,44.522,44.522,44.522s44.522-10.443,44.522-44.522V77.913
	H211.478z"/>
<g>
</g>
<g>
</g>
<g>
</g>
<g>
</g>
<g>
</g>
<g>
</g>
<g>
</g>
<g>
</g>
<g>
</g>
<g>
</g>
<g>
</g>
<g>
</g>
<g>
</g>
<g>
</g>
<g>
</g>
</svg>
