<?xml version="1.0" encoding="iso-8859-1"?>
<!-- Generator: Adobe Illustrator 19.0.0, SVG Export Plug-In . SVG Version: 6.00 Build 0)  -->
<svg version="1.1" id="Layer_1" xmlns="http://www.w3.org/2000/svg" xmlns:xlink="http://www.w3.org/1999/xlink" x="0px" y="0px"
	 viewBox="0 0 512 512" style="enable-background:new 0 0 512 512;" xml:space="preserve">
<circle style="fill:#F0F0F0;" cx="256" cy="256" r="256"/>
<path d="M155.826,166.957h340.25C459.906,69.472,366.07,0,256,0C185.306,0,121.313,28.659,74.989,74.989L155.826,166.957z"/>
<path style="fill:#6DA544;" d="M155.826,345.043h340.25C459.906,442.528,366.07,512,256,512
	c-70.694,0-134.687-28.659-181.011-74.989L155.826,345.043z"/>
<path style="fill:#D80027;" d="M74.98,74.98c-99.974,99.974-99.974,262.065,0,362.04C116.293,395.707,156.026,355.974,256,256
	L74.98,74.98z"/>
<polygon style="fill:#F0F0F0;" points="101.605,200.348 115.654,229.727 147.383,222.394 133.173,251.695 158.688,271.929 
	126.921,279.088 127.009,311.652 101.605,291.279 76.2,311.652 76.289,279.088 44.522,271.929 70.036,251.695 55.828,222.394 
	87.555,229.727 "/>
<g>
</g>
<g>
</g>
<g>
</g>
<g>
</g>
<g>
</g>
<g>
</g>
<g>
</g>
<g>
</g>
<g>
</g>
<g>
</g>
<g>
</g>
<g>
</g>
<g>
</g>
<g>
</g>
<g>
</g>
</svg>
