<?xml version="1.0" encoding="iso-8859-1"?>
<!-- Generator: Adobe Illustrator 19.0.0, SVG Export Plug-In . SVG Version: 6.00 Build 0)  -->
<svg version="1.1" id="Layer_1" xmlns="http://www.w3.org/2000/svg" xmlns:xlink="http://www.w3.org/1999/xlink" x="0px" y="0px"
	 viewBox="0 0 512 512" style="enable-background:new 0 0 512 512;" xml:space="preserve">
<path style="fill:#D80027;" d="M0,256C0,114.616,114.616,0,256,0s256,114.616,256,256"/>
<g>
	<polygon style="fill:#FFDA44;" points="345.043,238.078 308.658,255.191 328.034,290.43 288.525,282.871 283.519,322.783 
		256,293.428 228.48,322.783 223.475,282.871 183.966,290.428 203.341,255.191 166.957,238.078 203.341,220.962 183.966,185.727 
		223.474,193.283 228.481,153.373 256,182.726 283.52,153.373 288.525,193.283 328.035,185.727 308.661,220.965 	"/>
	<path style="fill:#FFDA44;" d="M322.783,83.478h-50.087c0-9.219-7.476-16.696-16.696-16.696s-16.696,7.476-16.696,16.696h-50.087
		c0,9.22,8.032,16.696,17.252,16.696h-0.557c0,9.22,7.474,16.696,16.696,16.696c0,9.22,7.474,16.696,16.696,16.696h33.391
		c9.219,0,16.696-7.475,16.696-16.696c9.219,0,16.696-7.475,16.696-16.696h-0.557C314.751,100.174,322.783,92.699,322.783,83.478z"
		/>
</g>
<path style="fill:#F0F0F0;" d="M512,256c0,141.384-114.616,256-256,256S0,397.384,0,256C11.13,256,512,256,512,256z"/>
<g>
	<path style="fill:#0052B4;" d="M256,512c80.022,0,151.456-36.724,198.402-94.228c-8.444-5.757-13.003-15.063-27.739-15.063
		c-21.333,0-21.333,19.506-42.665,19.506s-21.333-19.506-42.665-19.506c-21.333,0-21.333,19.506-42.667,19.506
		s-21.335-19.506-42.67-19.506c-21.333,0-21.333,19.506-42.665,19.506c-21.33,0-21.33-19.506-42.663-19.506
		c-21.335,0-21.335,19.506-42.67,19.506s-21.335-19.506-42.67-19.506c-14.734,0-19.293,9.304-27.733,15.061
		C104.539,475.276,175.977,512,256,512z"/>
	<path style="fill:#0052B4;" d="M469.33,288.65c-21.333,0-21.333-19.506-42.667-19.506c-21.333,0-21.333,19.506-42.665,19.506
		s-21.333-19.506-42.665-19.506c-21.333,0-21.333,19.506-42.667,19.506s-21.335-19.506-42.67-19.506
		c-21.333,0-21.333,19.506-42.665,19.506c-21.33,0-21.33-19.506-42.663-19.506c-21.335,0-21.335,19.506-42.67,19.506
		s-21.335-19.506-42.67-19.506c-21.33,0-21.33,19.506-42.663,19.506c-21.218,0-21.341-19.291-42.332-19.497
		c0.591,11.71,1.989,23.206,4.103,34.448c17.004,2.499,18.493,19.182,38.23,19.182c21.333,0,21.333-19.504,42.663-19.504
		c21.335,0,21.335,19.504,42.67,19.504s21.335-19.504,42.67-19.504c21.333,0,21.333,19.504,42.663,19.504
		c21.333,0,21.333-19.504,42.665-19.504c21.335,0,21.335,19.504,42.67,19.504c21.335,0,21.335-19.504,42.667-19.504
		c21.333,0,21.333,19.504,42.665,19.504s21.333-19.504,42.665-19.504c21.335,0,21.335,19.504,42.667,19.504
		c19.739,0,21.228-16.682,38.233-19.181c2.115-11.243,3.511-22.738,4.105-34.448C490.674,269.361,490.549,288.65,469.33,288.65z"/>
	<path style="fill:#0052B4;" d="M426.663,335.927c-21.333,0-21.333,19.506-42.665,19.506s-21.333-19.506-42.665-19.506
		c-21.333,0-21.333,19.506-42.667,19.506c-21.335,0-21.335-19.506-42.67-19.506c-21.333,0-21.333,19.506-42.665,19.506
		c-21.33,0-21.33-19.506-42.663-19.506c-21.335,0-21.335,19.506-42.67,19.506s-21.335-19.506-42.67-19.506
		c-21.33,0-21.33,19.506-42.663,19.506c-15.243,0-19.597-9.956-28.622-15.644c6.008,17.359,13.824,33.872,23.237,49.308
		c1.637,0.302,3.419,0.469,5.385,0.469c21.333,0,21.333-19.504,42.663-19.504c21.335,0,21.335,19.504,42.67,19.504
		s21.335-19.504,42.67-19.504c21.333,0,21.333,19.504,42.663,19.504c21.333,0,21.333-19.504,42.665-19.504
		c21.335,0,21.335,19.504,42.67,19.504c21.335,0,21.335-19.504,42.667-19.504c21.333,0,21.333,19.504,42.665,19.504
		s21.333-19.504,42.665-19.504c21.335,0,21.335,19.504,42.667,19.504c1.968,0,3.75-0.167,5.387-0.47
		c9.413-15.435,17.228-31.948,23.239-49.306c-9.026,5.685-13.381,15.643-28.626,15.643
		C447.998,355.433,447.998,335.927,426.663,335.927z"/>
</g>
<path style="fill:#F0F0F0;" d="M511.206,235.775c-20.53,0.485-20.813,19.484-41.876,19.484c-21.333,0-21.333-19.506-42.667-19.506
	c-21.333,0-21.333,19.506-42.665,19.506s-21.333-19.506-42.665-19.506c-21.333,0-21.333,19.506-42.667,19.506
	s-21.335-19.506-42.67-19.506c-21.333,0-21.333,19.506-42.665,19.506c-21.33,0-21.33-19.506-42.663-19.506
	c-21.335,0-21.335,19.506-42.67,19.506s-21.335-19.506-42.67-19.506c-21.33,0-21.33,19.506-42.663,19.506
	c-21.059,0-21.344-18.997-41.872-19.484C0.272,242.449,0,249.193,0,256c0,4.663,0.132,9.296,0.381,13.897
	c20.943,0.235,21.082,19.494,42.285,19.494c21.333,0,21.333-19.504,42.663-19.504c21.335,0,21.335,19.504,42.67,19.504
	s21.335-19.504,42.67-19.504c21.333,0,21.333,19.504,42.663,19.504c21.333,0,21.333-19.504,42.665-19.504
	c21.335,0,21.335,19.504,42.67,19.504c21.335,0,21.335-19.504,42.667-19.504c21.333,0,21.333,19.504,42.665,19.504
	s21.333-19.504,42.665-19.504c21.335,0,21.335,19.504,42.667,19.504c21.205,0,21.344-19.259,42.291-19.494
	C511.868,265.295,512,260.663,512,256C512,249.193,511.728,242.449,511.206,235.775z"/>
<g>
</g>
<g>
</g>
<g>
</g>
<g>
</g>
<g>
</g>
<g>
</g>
<g>
</g>
<g>
</g>
<g>
</g>
<g>
</g>
<g>
</g>
<g>
</g>
<g>
</g>
<g>
</g>
<g>
</g>
</svg>
