<?xml version="1.0" encoding="iso-8859-1"?>
<!-- Generator: Adobe Illustrator 19.0.0, SVG Export Plug-In . SVG Version: 6.00 Build 0)  -->
<svg version="1.1" id="Layer_1" xmlns="http://www.w3.org/2000/svg" xmlns:xlink="http://www.w3.org/1999/xlink" x="0px" y="0px"
	 viewBox="0 0 512 512" style="enable-background:new 0 0 512 512;" xml:space="preserve">
<circle style="fill:#D80027;" cx="256" cy="256" r="256"/>
<polygon style="fill:#FFDA44;" points="381.197,256 330.042,280.062 357.283,329.609 301.73,318.98 294.694,375.096 
	255.999,333.826 217.307,375.096 210.268,318.98 154.72,329.607 181.96,280.06 130.803,256 181.96,231.939 154.72,182.391 
	210.266,193.021 217.309,136.904 255.999,178.175 294.696,136.904 301.73,193.021 357.285,182.391 330.043,231.942 "/>
<circle style="fill:#D80027;" cx="256" cy="256" r="77.913"/>
<g>
	<path style="fill:#FFDA44;" d="M217.043,256c-1.877,0-3.73,0.096-5.559,0.278c0.067,10.791,3.971,20.668,10.419,28.341
		c3.44-9.257,8.576-17.698,15.053-24.922C230.77,257.318,224.059,256,217.043,256z"/>
	<path style="fill:#FFDA44;" d="M241.025,297.933c4.68,1.672,9.719,2.589,14.975,2.589s10.295-0.917,14.975-2.589
		c-2.551-10.012-7.818-18.95-14.975-25.974C248.843,278.982,243.576,287.921,241.025,297.933z"/>
	<path style="fill:#FFDA44;" d="M294.555,233.746c-7.698-13.306-22.075-22.268-38.555-22.268s-30.857,8.961-38.555,22.268
		c14.034,0.071,27.194,3.887,38.555,10.476C267.361,237.633,280.519,233.817,294.555,233.746z"/>
	<path style="fill:#FFDA44;" d="M275.042,259.698c6.477,7.223,11.613,15.664,15.053,24.922c6.448-7.673,10.352-17.55,10.419-28.341
		c-1.83-0.183-3.683-0.278-5.559-0.278C287.941,256,281.23,257.318,275.042,259.698z"/>
</g>
<g>
</g>
<g>
</g>
<g>
</g>
<g>
</g>
<g>
</g>
<g>
</g>
<g>
</g>
<g>
</g>
<g>
</g>
<g>
</g>
<g>
</g>
<g>
</g>
<g>
</g>
<g>
</g>
<g>
</g>
</svg>
