<?xml version="1.0" encoding="iso-8859-1"?>
<!-- Generator: Adobe Illustrator 19.0.0, SVG Export Plug-In . SVG Version: 6.00 Build 0)  -->
<svg version="1.1" id="Layer_1" xmlns="http://www.w3.org/2000/svg" xmlns:xlink="http://www.w3.org/1999/xlink" x="0px" y="0px"
	 viewBox="0 0 512 512" style="enable-background:new 0 0 512 512;" xml:space="preserve">
<path style="fill:#F0F0F0;" d="M0,256c0,39.89,9.127,77.648,25.402,111.304L256,378.435l230.598-11.13
	C502.873,333.648,512,295.89,512,256s-9.127-77.648-25.402-111.304L256,133.565l-230.598,11.13C9.127,178.352,0,216.11,0,256z"/>
<path style="fill:#6DA544;" d="M256,512c101.493,0,189.19-59.065,230.598-144.696H25.402C66.81,452.935,154.506,512,256,512z"/>
<path style="fill:#0052B4;" d="M256,0C154.506,0,66.81,59.065,25.402,144.696h461.195C445.19,59.065,357.493,0,256,0z"/>
<path d="M272.696,250.435v-61.217h-33.391v61.217l-40.33,40.331c11.729,19.2,32.88,32.017,57.026,32.017
	s45.296-12.817,57.026-32.017L272.696,250.435z"/>
<g>
</g>
<g>
</g>
<g>
</g>
<g>
</g>
<g>
</g>
<g>
</g>
<g>
</g>
<g>
</g>
<g>
</g>
<g>
</g>
<g>
</g>
<g>
</g>
<g>
</g>
<g>
</g>
<g>
</g>
</svg>
