<?xml version="1.0" encoding="iso-8859-1"?>
<!-- Generator: Adobe Illustrator 19.0.0, SVG Export Plug-In . SVG Version: 6.00 Build 0)  -->
<svg version="1.1" id="Layer_1" xmlns="http://www.w3.org/2000/svg" xmlns:xlink="http://www.w3.org/1999/xlink" x="0px" y="0px"
	 viewBox="0 0 512 512" style="enable-background:new 0 0 512 512;" xml:space="preserve">
<path style="fill:#D80027;" d="M31.127,133.565L256,155.826l224.873-22.261C437.454,53.989,353.035,0,256,0
	S74.546,53.989,31.127,133.565z"/>
<path style="fill:#FFDA44;" d="M31.127,378.435L256,400.696l224.873-22.261C500.717,342.064,512,300.35,512,256l-256-22.261L0,256
	C0,300.35,11.283,342.064,31.127,378.435z"/>
<path style="fill:#0052B4;" d="M31.127,133.565C11.283,169.936,0,211.65,0,256h512c0-44.35-11.283-86.064-31.127-122.435H256H31.127
	z"/>
<path style="fill:#6DA544;" d="M256,512c97.035,0,181.454-53.989,224.873-133.565H31.127C74.546,458.011,158.965,512,256,512z"/>
<g>
</g>
<g>
</g>
<g>
</g>
<g>
</g>
<g>
</g>
<g>
</g>
<g>
</g>
<g>
</g>
<g>
</g>
<g>
</g>
<g>
</g>
<g>
</g>
<g>
</g>
<g>
</g>
<g>
</g>
</svg>
