<?xml version="1.0" encoding="iso-8859-1"?>
<!-- Generator: Adobe Illustrator 19.0.0, SVG Export Plug-In . SVG Version: 6.00 Build 0)  -->
<svg version="1.1" id="Layer_1" xmlns="http://www.w3.org/2000/svg" xmlns:xlink="http://www.w3.org/1999/xlink" x="0px" y="0px"
	 viewBox="0 0 512 512" style="enable-background:new 0 0 512 512;" xml:space="preserve">
<circle style="fill:#496E2D;" cx="256" cy="256" r="256"/>
<g>
	<path style="fill:#FFDA44;" d="M256,295.751c-42.626,0-78.236-29.958-86.973-69.963c-1.342,6.15-2.07,12.527-2.07,19.081
		c0,49.179,39.865,89.043,89.043,89.043s89.043-39.865,89.043-89.043c0-6.554-0.728-12.931-2.07-19.082
		C334.236,265.794,298.626,295.751,256,295.751z"/>
	<polygon style="fill:#FFDA44;" points="255.999,178.087 264.287,203.596 291.11,203.596 269.411,219.361 277.699,244.87 
		255.999,229.104 234.3,244.87 242.589,219.361 220.89,203.596 247.711,203.596 	"/>
</g>
<g>
</g>
<g>
</g>
<g>
</g>
<g>
</g>
<g>
</g>
<g>
</g>
<g>
</g>
<g>
</g>
<g>
</g>
<g>
</g>
<g>
</g>
<g>
</g>
<g>
</g>
<g>
</g>
<g>
</g>
</svg>
