<?xml version="1.0" encoding="iso-8859-1"?>
<!-- Generator: Adobe Illustrator 19.0.0, SVG Export Plug-In . SVG Version: 6.00 Build 0)  -->
<svg version="1.1" id="Layer_1" xmlns="http://www.w3.org/2000/svg" xmlns:xlink="http://www.w3.org/1999/xlink" x="0px" y="0px"
	 viewBox="0 0 512 512" style="enable-background:new 0 0 512 512;" xml:space="preserve">
<circle style="fill:#338AF3;" cx="256" cy="256" r="256"/>
<g>
	<polygon style="fill:#F0F0F0;" points="255.999,111.304 267.049,145.316 302.813,145.316 273.881,166.337 284.931,200.348 
		255.999,179.328 227.066,200.348 238.119,166.337 209.186,145.316 244.949,145.316 	"/>
	<polygon style="fill:#F0F0F0;" points="111.304,256.002 145.316,244.95 145.316,209.186 166.337,238.12 200.348,227.069 
		179.328,256.002 200.348,284.932 166.337,273.88 145.316,302.813 145.316,267.051 	"/>
	<polygon style="fill:#F0F0F0;" points="256.001,400.696 244.95,366.684 209.186,366.684 238.12,345.663 227.069,311.652 
		256.001,332.672 284.932,311.652 273.88,345.663 302.813,366.684 267.051,366.684 	"/>
	<polygon style="fill:#F0F0F0;" points="400.696,255.999 366.684,267.05 366.684,302.813 345.663,273.88 311.652,284.931 
		332.672,255.999 311.652,227.068 345.663,238.12 366.684,209.186 366.684,244.949 	"/>
</g>
<g>
</g>
<g>
</g>
<g>
</g>
<g>
</g>
<g>
</g>
<g>
</g>
<g>
</g>
<g>
</g>
<g>
</g>
<g>
</g>
<g>
</g>
<g>
</g>
<g>
</g>
<g>
</g>
<g>
</g>
</svg>
