<?xml version="1.0" encoding="iso-8859-1"?>
<!-- Generator: Adobe Illustrator 19.0.0, SVG Export Plug-In . SVG Version: 6.00 Build 0)  -->
<svg version="1.1" id="Layer_1" xmlns="http://www.w3.org/2000/svg" xmlns:xlink="http://www.w3.org/1999/xlink" x="0px" y="0px"
	 viewBox="0 0 512 512" style="enable-background:new 0 0 512 512;" xml:space="preserve">
<path style="fill:#FFDA44;" d="M367.304,25.402C333.648,9.128,295.89,0,256,0s-77.648,9.128-111.304,25.402L122.435,256
	l22.261,230.598C178.352,502.872,216.11,512,256,512s77.648-9.128,111.304-25.402L389.565,256L367.304,25.402z"/>
<path style="fill:#0052B4;" d="M144.696,25.411C59.066,66.818,0,154.507,0,256s59.066,189.182,144.696,230.589V25.411z"/>
<path style="fill:#D80027;" d="M367.304,25.411v461.178C452.934,445.182,512,357.493,512,256S452.934,66.818,367.304,25.411z"/>
<path style="fill:#FF9811;" d="M345.043,201.419h-61.217c0-15.368-12.458-27.826-27.826-27.826s-27.826,12.458-27.826,27.826
	h-61.217c0,15.131,13.181,27.396,28.31,27.396h-0.912c0,15.132,12.266,27.399,27.398,27.399c0,13.397,9.622,24.529,22.33,26.909
	l-21.59,48.742c10.345,4.205,21.651,6.542,33.507,6.542c11.855,0,23.162-2.337,33.506-6.542l-21.589-48.742
	c12.708-2.38,22.33-13.512,22.33-26.909c15.132,0,27.398-12.267,27.398-27.399h-0.913
	C331.863,228.815,345.043,216.549,345.043,201.419z"/>
<polygon style="fill:#0052B4;" points="256,239.304 219.826,256 219.826,289.391 256,311.652 292.174,289.391 292.174,256 "/>
<rect x="219.826" y="222.609" style="fill:#D80027;" width="72.348" height="33.391"/>
<g>
</g>
<g>
</g>
<g>
</g>
<g>
</g>
<g>
</g>
<g>
</g>
<g>
</g>
<g>
</g>
<g>
</g>
<g>
</g>
<g>
</g>
<g>
</g>
<g>
</g>
<g>
</g>
<g>
</g>
</svg>
