<?xml version="1.0" encoding="iso-8859-1"?>
<!-- Generator: Adobe Illustrator 19.0.0, SVG Export Plug-In . SVG Version: 6.00 Build 0)  -->
<svg version="1.1" id="Layer_1" xmlns="http://www.w3.org/2000/svg" xmlns:xlink="http://www.w3.org/1999/xlink" x="0px" y="0px"
	 viewBox="0 0 512 512" style="enable-background:new 0 0 512 512;" xml:space="preserve">
<circle style="fill:#D80027;" cx="256" cy="256" r="256"/>
<path style="fill:#FFDA44;" d="M407.288,210.09H291.714L256,100.174L220.286,210.09H104.712l93.501,67.932l-35.715,109.919
	L256,320.008l93.502,67.934l-35.715-109.919L407.288,210.09z M224.382,269.519l12.077-37.169h39.081l12.078,37.169l0,0v0.001
	L256,292.491l-31.617-22.971L224.382,269.519L224.382,269.519z M268.308,210.09h-24.615L256,172.21L268.308,210.09z
	 M306.553,255.762l-7.607-23.411h39.829L306.553,255.762z M213.053,232.351l-7.607,23.411l-32.223-23.411H213.053z M204.841,329.661
	l12.308-37.879l19.915,14.468L204.841,329.661z M274.936,306.251l19.915-14.468l12.308,37.879L274.936,306.251z"/>
<g>
</g>
<g>
</g>
<g>
</g>
<g>
</g>
<g>
</g>
<g>
</g>
<g>
</g>
<g>
</g>
<g>
</g>
<g>
</g>
<g>
</g>
<g>
</g>
<g>
</g>
<g>
</g>
<g>
</g>
</svg>
