<?xml version="1.0" encoding="iso-8859-1"?>
<!-- Generator: Adobe Illustrator 19.0.0, SVG Export Plug-In . SVG Version: 6.00 Build 0)  -->
<svg version="1.1" id="Layer_1" xmlns="http://www.w3.org/2000/svg" xmlns:xlink="http://www.w3.org/1999/xlink" x="0px" y="0px"
	 viewBox="0 0 512 512" style="enable-background:new 0 0 512 512;" xml:space="preserve">
<circle style="fill:#F0F0F0;" cx="256" cy="256" r="256"/>
<path style="fill:#FFDA44;" d="M138.371,356.174l-63.382,80.837C121.313,483.341,185.306,512,256,512
	c105.83,0,196.644-64.229,235.631-155.826H138.371z"/>
<path style="fill:#496E2D;" d="M492.029,156.753C453.26,64.662,362.188,0,256,0C185.306,0,121.313,28.659,74.989,74.989
	l64.11,81.764L492.029,156.753L492.029,156.753z"/>
<path d="M55.652,188.29v134.492h447.53C508.924,301.491,512,279.107,512,256c0-23.442-3.158-46.142-9.061-67.71L55.652,188.29
	L55.652,188.29z"/>
<path style="fill:#A2001D;" d="M74.98,74.98c-99.974,99.974-99.974,262.065,0,362.04C116.293,395.707,156.026,355.974,256,256
	L74.98,74.98z"/>
<polygon style="fill:#FFDA44;" points="103.61,189.217 120.185,240.233 173.831,240.233 130.433,271.765 147.007,322.783 
	103.61,291.252 60.211,322.783 76.789,271.765 33.391,240.233 87.033,240.233 "/>
<rect x="55.107" y="256" style="fill:#F0F0F0;" width="97.024" height="44.522"/>
<polygon points="170.5,204.959 154.759,189.217 103.611,240.365 52.463,189.217 36.722,204.959 87.915,256.061 36.722,307.255 
	52.463,322.783 103.611,271.727 154.759,322.783 170.5,307.255 119.307,256.061 "/>
<g>
</g>
<g>
</g>
<g>
</g>
<g>
</g>
<g>
</g>
<g>
</g>
<g>
</g>
<g>
</g>
<g>
</g>
<g>
</g>
<g>
</g>
<g>
</g>
<g>
</g>
<g>
</g>
<g>
</g>
</svg>
