<?xml version="1.0" encoding="iso-8859-1"?>
<!-- Generator: Adobe Illustrator 19.0.0, SVG Export Plug-In . SVG Version: 6.00 Build 0)  -->
<svg version="1.1" id="Layer_1" xmlns="http://www.w3.org/2000/svg" xmlns:xlink="http://www.w3.org/1999/xlink" x="0px" y="0px"
	 viewBox="0 0 512 512" style="enable-background:new 0 0 512 512;" xml:space="preserve">
<circle style="fill:#F0F0F0;" cx="256" cy="256" r="256"/>
<path style="fill:#A2001D;" d="M74.981,437.02c10.739,10.739,22.197,20.316,34.216,28.748l356.569-356.57
	c-8.431-12.019-18.008-23.477-28.748-34.216c-10.739-10.739-22.197-20.315-34.216-28.747L46.234,402.805
	C54.665,414.822,64.242,426.281,74.981,437.02z"/>
<path style="fill:#0052B4;" d="M74.981,74.98c-80.764,80.764-96.268,202.056-46.545,298.398L373.378,28.437
	C277.036-21.286,155.743-5.78,74.981,74.98z"/>
<path style="fill:#496E2D;" d="M437.019,437.02c80.762-80.762,96.266-202.055,46.545-298.398L138.622,483.564
	C234.963,533.287,356.256,517.783,437.019,437.02z"/>
<polygon style="fill:#FFDA44;" points="211.478,144.696 182.792,158.189 198.068,185.971 166.919,180.013 162.971,211.478 
	141.275,188.335 119.578,211.478 115.632,180.013 84.482,185.97 99.757,158.188 71.072,144.696 99.758,131.202 84.482,103.422 
	115.631,109.38 119.579,77.913 141.275,101.057 162.972,77.913 166.919,109.38 198.068,103.422 182.794,131.203 "/>
<g>
</g>
<g>
</g>
<g>
</g>
<g>
</g>
<g>
</g>
<g>
</g>
<g>
</g>
<g>
</g>
<g>
</g>
<g>
</g>
<g>
</g>
<g>
</g>
<g>
</g>
<g>
</g>
<g>
</g>
</svg>
