<?xml version="1.0" encoding="iso-8859-1"?>
<!-- Generator: Adobe Illustrator 19.0.0, SVG Export Plug-In . SVG Version: 6.00 Build 0)  -->
<svg version="1.1" id="Layer_1" xmlns="http://www.w3.org/2000/svg" xmlns:xlink="http://www.w3.org/1999/xlink" x="0px" y="0px"
	 viewBox="0 0 512 512" style="enable-background:new 0 0 512 512;" xml:space="preserve">
<circle style="fill:#0052B4;" cx="256" cy="256" r="256"/>
<path style="fill:#F0F0F0;" d="M365.865,273.86c0.942-5.817,1.439-11.782,1.439-17.86
	C367.304,262.078,366.807,268.043,365.865,273.86L411.826,256l-45.961-17.859l-25.245-9.809l-41.015-15.937l-15.937-41.015
	c26.874,8.809,48.141,30.076,56.951,56.951l25.245,9.809c-7.629-47.096-44.91-84.378-92.005-92.006L256,100.174l-17.86,45.961
	c-47.096,7.63-84.376,44.91-92.005,92.006L100.174,256l45.962,17.86c7.629,47.096,44.909,84.376,92.005,92.005L256,411.826
	l17.86-45.961C320.955,358.236,358.236,320.955,365.865,273.86z M282.408,229.593L256,256h94.365l-67.958,26.408L256,256v94.366
	l-26.408-67.959L256,256h-94.365l67.957-26.407L256,256v-94.365L282.408,229.593z M228.331,171.381l-15.938,41.015l-41.013,15.937
	C180.189,201.456,201.456,180.191,228.331,171.381z M171.381,283.669l41.012,15.937l15.938,41.013
	C201.456,331.809,180.191,310.544,171.381,283.669z M283.669,340.619l15.937-41.013l41.013-15.937
	C331.809,310.544,310.544,331.809,283.669,340.619z"/>
<g>
	<polygon style="fill:#0052B4;" points="350.365,256 256,256 282.408,282.408 	"/>
	<polygon style="fill:#0052B4;" points="161.635,256 256,256 229.592,229.593 	"/>
	<polygon style="fill:#0052B4;" points="256,350.366 256,256 229.592,282.408 	"/>
	<polygon style="fill:#0052B4;" points="256,256 282.408,229.593 256,161.635 	"/>
</g>
<g>
	<rect x="244.87" y="33.391" style="fill:#F0F0F0;" width="22.261" height="44.522"/>
	<rect x="33.391" y="244.87" style="fill:#F0F0F0;" width="44.522" height="22.261"/>
	<rect x="244.87" y="434.087" style="fill:#F0F0F0;" width="22.261" height="44.522"/>
	<rect x="434.087" y="244.87" style="fill:#F0F0F0;" width="44.522" height="22.261"/>
</g>
<g>
</g>
<g>
</g>
<g>
</g>
<g>
</g>
<g>
</g>
<g>
</g>
<g>
</g>
<g>
</g>
<g>
</g>
<g>
</g>
<g>
</g>
<g>
</g>
<g>
</g>
<g>
</g>
<g>
</g>
</svg>
