<?xml version="1.0" encoding="iso-8859-1"?>
<!-- Generator: Adobe Illustrator 19.0.0, SVG Export Plug-In . SVG Version: 6.00 Build 0)  -->
<svg version="1.1" id="Layer_1" xmlns="http://www.w3.org/2000/svg" xmlns:xlink="http://www.w3.org/1999/xlink" x="0px" y="0px"
	 viewBox="0 0 512 512" style="enable-background:new 0 0 512 512;" xml:space="preserve">
<path style="fill:#F0F0F0;" d="M256,0c-0.016,0-0.028,0-0.043,0H256L256,0z"/>
<path style="fill:#FFDA44;" d="M512,256c0,141.384-114.616,256-256,256S0,397.384,0,256C0,256.061,256,0.028,256,0
	C397.384,0,512,114.616,512,256z"/>
<g>
	<polygon style="fill:#0052B4;" points="256,122.435 256,208.778 166.957,122.435 	"/>
	<polygon style="fill:#0052B4;" points="133.565,256 208.776,256 133.565,155.826 122.435,233.739 	"/>
</g>
<g>
	<path style="fill:#F0F0F0;" d="M255.315,256H256c0-0.23,0-0.454,0-0.685C255.772,255.544,255.544,255.772,255.315,256z"/>
	<path style="fill:#F0F0F0;" d="M256,133.565C256,88.52,256,59.005,256,0h-0.043C114.591,0.024,0,114.629,0,256h133.565v-75.211
		L208.776,256h46.54c0.228-0.228,0.456-0.456,0.685-0.685c0-17.247,0-32.636,0-46.537l-75.213-75.213H256z"/>
</g>
<g>
	<path style="fill:#D80027;" d="M256,224.519l-90.955-90.953h-31.48v0.002L255.998,256H256C256,256,256,234.293,256,224.519z"/>
	<path style="fill:#D80027;" d="M129.515,33.391c-9.869,5.62-19.324,11.883-28.316,18.72h10.504L83.941,72.285l10.602,32.637
		L66.781,84.752l-2.954,2.147C52.3,99.989,42.08,114.257,33.391,129.515V256h66.783V100.176v-0.002H256c0-21.063,0-41.129,0-66.783
		H129.515z"/>
</g>
<path style="fill:#0052B4;" d="M109.36,46.152c-2.761,1.933-5.483,3.92-8.164,5.959L83.941,72.285l-17.16,12.466l-2.979,2.164
	c-6.286,7.14-12.181,14.632-17.651,22.445c6.235,3.026,13.234,4.727,20.63,4.727c26.126,0,47.304-21.178,47.304-47.304
	C114.087,59.385,112.387,52.388,109.36,46.152z"/>
<g>
	<path style="fill:#FFDA44;" d="M63.803,86.915l2.979-2.164l27.762,20.171L83.941,72.285l27.76-20.174h-10.506
		C87.601,62.45,75.074,74.114,63.803,86.915z"/>
	<polygon style="fill:#FFDA44;" points="176.942,44.522 182.468,61.527 200.348,61.527 185.883,72.038 191.406,89.043 
		176.942,78.533 162.477,89.043 167.999,72.038 153.534,61.527 171.415,61.527 	"/>
	<polygon style="fill:#FFDA44;" points="66.783,155.826 72.309,172.831 90.189,172.831 75.725,183.343 81.248,200.348 
		66.783,189.837 52.317,200.348 57.84,183.343 43.376,172.831 61.256,172.831 	"/>
</g>
<g>
</g>
<g>
</g>
<g>
</g>
<g>
</g>
<g>
</g>
<g>
</g>
<g>
</g>
<g>
</g>
<g>
</g>
<g>
</g>
<g>
</g>
<g>
</g>
<g>
</g>
<g>
</g>
<g>
</g>
</svg>
