<?xml version="1.0" encoding="iso-8859-1"?>
<!-- Generator: Adobe Illustrator 19.0.0, SVG Export Plug-In . SVG Version: 6.00 Build 0)  -->
<svg version="1.1" id="Layer_1" xmlns="http://www.w3.org/2000/svg" xmlns:xlink="http://www.w3.org/1999/xlink" x="0px" y="0px"
	 viewBox="0 0 512 512" style="enable-background:new 0 0 512 512;" xml:space="preserve">
<path style="fill:#F0F0F0;" d="M367.304,25.402C333.648,9.128,295.891,0,256,0s-77.648,9.128-111.304,25.402L122.435,256
	l22.261,230.598C178.352,502.872,216.109,512,256,512s77.648-9.128,111.304-25.402L389.565,256L367.304,25.402z"/>
<g>
	<path style="fill:#6DA544;" d="M144.696,25.411C59.065,66.817,0,154.506,0,256s59.065,189.183,144.696,230.589V25.411z"/>
	<path style="fill:#6DA544;" d="M367.304,25.411v461.178C452.935,445.183,512,357.493,512,256S452.935,66.817,367.304,25.411z"/>
	<polygon style="fill:#6DA544;" points="322.783,333.913 256,122.435 189.217,333.913 239.304,333.913 239.304,389.565 
		272.696,389.565 272.696,333.913 	"/>
</g>
<g>
</g>
<g>
</g>
<g>
</g>
<g>
</g>
<g>
</g>
<g>
</g>
<g>
</g>
<g>
</g>
<g>
</g>
<g>
</g>
<g>
</g>
<g>
</g>
<g>
</g>
<g>
</g>
<g>
</g>
</svg>
