<?xml version="1.0" encoding="iso-8859-1"?>
<!-- Generator: Adobe Illustrator 19.0.0, SVG Export Plug-In . SVG Version: 6.00 Build 0)  -->
<svg version="1.1" id="Layer_1" xmlns="http://www.w3.org/2000/svg" xmlns:xlink="http://www.w3.org/1999/xlink" x="0px" y="0px"
	 viewBox="0 0 512 512" style="enable-background:new 0 0 512 512;" xml:space="preserve">
<circle style="fill:#F0F0F0;" cx="256" cy="256" r="256"/>
<g>
	<path style="fill:#0052B4;" d="M256,0C178.409,0,108.886,34.524,61.939,89.043H450.06C403.114,34.524,333.591,0,256,0z"/>
	<path style="fill:#0052B4;" d="M450.061,422.957H61.939C108.886,477.476,178.409,512,256,512S403.114,477.476,450.061,422.957z"/>
</g>
<path style="fill:#D80027;" d="M474.426,122.435H37.574C13.745,161.32,0,207.053,0,256s13.745,94.681,37.574,133.565h436.852
	C498.255,350.681,512,304.947,512,256S498.255,161.32,474.426,122.435z"/>
<circle style="fill:#F0F0F0;" cx="157.496" cy="256" r="98.504"/>
<polygon style="fill:#D80027;" points="157.496,157.496 179.597,225.517 251.235,225.517 193.258,267.559 215.532,335.783 
	157.496,293.541 99.548,335.704 121.734,267.559 63.809,225.517 135.394,225.517 "/>
<g>
</g>
<g>
</g>
<g>
</g>
<g>
</g>
<g>
</g>
<g>
</g>
<g>
</g>
<g>
</g>
<g>
</g>
<g>
</g>
<g>
</g>
<g>
</g>
<g>
</g>
<g>
</g>
<g>
</g>
</svg>
