<?xml version="1.0" encoding="iso-8859-1"?>
<!-- Generator: Adobe Illustrator 19.0.0, SVG Export Plug-In . SVG Version: 6.00 Build 0)  -->
<svg version="1.1" id="Layer_1" xmlns="http://www.w3.org/2000/svg" xmlns:xlink="http://www.w3.org/1999/xlink" x="0px" y="0px"
	 viewBox="0 0 512 512" style="enable-background:new 0 0 512 512;" xml:space="preserve">
<circle style="fill:#F0F0F0;" cx="256" cy="256" r="256"/>
<g>
	<path style="fill:#D80027;" d="M61.939,89.043c-8.983,10.433-17.138,21.596-24.366,33.391h436.852
		c-7.228-11.795-15.382-22.959-24.366-33.391H61.939z"/>
	<path style="fill:#D80027;" d="M61.939,422.957H450.06c8.983-10.433,17.138-21.596,24.366-33.391H37.574
		C44.801,401.36,52.956,412.524,61.939,422.957z"/>
	<polygon style="fill:#D80027;" points="223.24,209.186 244.244,238.131 278.261,227.101 257.224,256.021 278.226,284.965 
		244.221,273.893 223.184,302.813 223.205,267.052 189.2,255.98 223.218,244.95 	"/>
	<path style="fill:#D80027;" d="M165.915,328.348c-39.956,0-72.348-32.392-72.348-72.348s32.392-72.348,72.348-72.348
		c12.458,0,24.181,3.15,34.415,8.696c-16.055-15.701-38.012-25.392-62.241-25.392c-49.178,0-89.043,39.866-89.043,89.043
		s39.866,89.043,89.043,89.043c24.229,0,46.186-9.691,62.241-25.392C190.096,325.198,178.374,328.348,165.915,328.348z"/>
</g>
<g>
</g>
<g>
</g>
<g>
</g>
<g>
</g>
<g>
</g>
<g>
</g>
<g>
</g>
<g>
</g>
<g>
</g>
<g>
</g>
<g>
</g>
<g>
</g>
<g>
</g>
<g>
</g>
<g>
</g>
</svg>
