<?xml version="1.0" encoding="iso-8859-1"?>
<!-- Generator: Adobe Illustrator 19.0.0, SVG Export Plug-In . SVG Version: 6.00 Build 0)  -->
<svg version="1.1" id="Layer_1" xmlns="http://www.w3.org/2000/svg" xmlns:xlink="http://www.w3.org/1999/xlink" x="0px" y="0px"
	 viewBox="0 0 512 512" style="enable-background:new 0 0 512 512;" xml:space="preserve">
<circle style="fill:#FCFCFC;" cx="256" cy="256" r="256"/>
<path style="fill:#D80027;" d="M333.913,211.478v22.261h30.552c-12.75,17.72-29.733,32.186-49.465,41.927
	c-5.062-5.259-12.169-8.536-20.044-8.536c-13.275,0-24.371,9.299-27.15,21.738c-3.89,0.342-7.827,0.523-11.806,0.523
	c-3.979,0-7.916-0.183-11.806-0.523c-2.779-12.438-13.875-21.738-27.15-21.738c-7.875,0-14.98,3.277-20.044,8.536
	c-19.732-9.74-36.714-24.208-49.464-41.927h30.551v-22.261h-77.913c0,86.059,69.767,155.826,155.826,155.826
	c86.061,0,155.826-69.767,155.826-155.826H333.913z"/>
<g>
</g>
<g>
</g>
<g>
</g>
<g>
</g>
<g>
</g>
<g>
</g>
<g>
</g>
<g>
</g>
<g>
</g>
<g>
</g>
<g>
</g>
<g>
</g>
<g>
</g>
<g>
</g>
<g>
</g>
</svg>
