<?xml version="1.0" encoding="iso-8859-1"?>
<!-- Generator: Adobe Illustrator 19.0.0, SVG Export Plug-In . SVG Version: 6.00 Build 0)  -->
<svg version="1.1" id="Layer_1" xmlns="http://www.w3.org/2000/svg" xmlns:xlink="http://www.w3.org/1999/xlink" x="0px" y="0px"
	 viewBox="0 0 512 512" style="enable-background:new 0 0 512 512;" xml:space="preserve">
<path style="fill:#FFDA44;" d="M0,256c0,44.35,11.283,86.064,31.127,122.435L256,400.696l224.873-22.261
	C500.717,342.064,512,300.35,512,256l-256-22.261L0,256z"/>
<path style="fill:#338AF3;" d="M480.873,133.565C437.454,53.989,353.035,0,256,0S74.546,53.989,31.127,133.565
	C11.283,169.936,0,211.65,0,256h512C512,211.65,500.717,169.936,480.873,133.565z"/>
<path style="fill:#496E2D;" d="M256,512c97.035,0,181.454-53.989,224.873-133.565H31.127C74.546,458.011,158.965,512,256,512z"/>
<polygon style="fill:#FFDA44;" points="289.391,149.821 320.657,164.528 304.008,194.808 337.958,188.314 342.26,222.609 
	365.906,197.385 389.554,222.609 393.855,188.314 427.805,194.806 411.157,164.527 442.421,149.821 411.156,135.116 
	427.805,104.836 393.856,111.33 389.553,77.035 365.906,102.259 342.259,77.035 337.958,111.33 304.007,104.836 320.656,135.117 "/>
<g>
</g>
<g>
</g>
<g>
</g>
<g>
</g>
<g>
</g>
<g>
</g>
<g>
</g>
<g>
</g>
<g>
</g>
<g>
</g>
<g>
</g>
<g>
</g>
<g>
</g>
<g>
</g>
<g>
</g>
</svg>
