<?xml version="1.0" encoding="iso-8859-1"?>
<!-- Generator: Adobe Illustrator 19.0.0, SVG Export Plug-In . SVG Version: 6.00 Build 0)  -->
<svg version="1.1" id="Layer_1" xmlns="http://www.w3.org/2000/svg" xmlns:xlink="http://www.w3.org/1999/xlink" x="0px" y="0px"
	 viewBox="0 0 512 512" style="enable-background:new 0 0 512 512;" xml:space="preserve">
<circle style="fill:#F0F0F0;" cx="256" cy="256" r="256"/>
<g>
	<path style="fill:#D80027;" d="M256,0C255.761-0.18-0.068,255.933,0,256C0,114.616,114.616,0,256,0z"/>
	<path style="fill:#D80027;" d="M256,0c0.239-0.18,256.068,255.932,256,256C512,114.616,397.384,0,256,0z"/>
</g>
<g>
	<path style="fill:#0052B4;" d="M256,512C255.761,512.18-0.068,256.068,0,256C0,397.384,114.616,512,256,512z"/>
	<path style="fill:#0052B4;" d="M256,512c0.239,0.18,256.068-255.932,256-256C512,397.384,397.384,512,256,512z"/>
</g>
<polygon style="fill:#FFDA44;" points="256,133.565 283.628,218.594 373.033,218.594 300.702,271.144 328.33,356.174 256,303.623 
	183.67,356.174 211.298,271.144 138.968,218.594 228.372,218.594 "/>
<g>
</g>
<g>
</g>
<g>
</g>
<g>
</g>
<g>
</g>
<g>
</g>
<g>
</g>
<g>
</g>
<g>
</g>
<g>
</g>
<g>
</g>
<g>
</g>
<g>
</g>
<g>
</g>
<g>
</g>
</svg>
