<?xml version="1.0" encoding="iso-8859-1"?>
<!-- Generator: Adobe Illustrator 19.0.0, SVG Export Plug-In . SVG Version: 6.00 Build 0)  -->
<svg version="1.1" id="Layer_1" xmlns="http://www.w3.org/2000/svg" xmlns:xlink="http://www.w3.org/1999/xlink" x="0px" y="0px"
	 viewBox="0 0 511.999 511.999" style="enable-background:new 0 0 511.999 511.999;" xml:space="preserve">
<circle style="fill:#FFDA44;" cx="255.999" cy="255.999" r="255.999"/>
<path d="M74.98,437.019c10.739,10.739,22.198,20.317,34.217,28.748l356.568-356.568c-8.431-12.02-18.008-23.478-28.748-34.217
	c-10.739-10.739-22.197-20.314-34.216-28.747L46.235,402.804C54.665,414.823,64.241,426.28,74.98,437.019z"/>
<path style="fill:#6DA544;" d="M74.981,74.98c-80.763,80.763-96.268,202.056-46.544,298.397l344.94-344.939
	C277.036-21.285,155.741-5.78,74.981,74.98z"/>
<path style="fill:#D80027;" d="M437.018,437.019c80.762-80.761,96.266-202.054,46.545-298.397L138.62,483.564
	C234.962,533.286,356.255,517.782,437.018,437.019z"/>
<g>
	<polygon style="fill:#F0F0F0;" points="162.77,302.008 186.668,314.185 205.634,295.22 201.438,321.709 225.335,333.887 
		198.844,338.082 194.648,364.573 182.472,340.675 155.982,344.871 174.947,325.906 	"/>
	<polygon style="fill:#F0F0F0;" points="302.007,162.771 325.904,174.948 344.87,155.983 340.675,182.472 364.572,194.65 
		338.081,198.846 333.886,225.336 321.709,201.439 295.219,205.634 314.184,186.669 	"/>
</g>
<g>
</g>
<g>
</g>
<g>
</g>
<g>
</g>
<g>
</g>
<g>
</g>
<g>
</g>
<g>
</g>
<g>
</g>
<g>
</g>
<g>
</g>
<g>
</g>
<g>
</g>
<g>
</g>
<g>
</g>
</svg>
