<?xml version="1.0" encoding="iso-8859-1"?>
<!-- Generator: Adobe Illustrator 19.0.0, SVG Export Plug-In . SVG Version: 6.00 Build 0)  -->
<svg version="1.1" id="Layer_1" xmlns="http://www.w3.org/2000/svg" xmlns:xlink="http://www.w3.org/1999/xlink" x="0px" y="0px"
	 viewBox="0 0 512 512" style="enable-background:new 0 0 512 512;" xml:space="preserve">
<path style="fill:#D80027;" d="M512,256c0,141.384-114.616,256-256,256S0,397.384,0,256C87.93,168.07,162.504,93.496,256,0
	C397.384,0,512,114.616,512,256z"/>
<path style="fill:#0052B4;" d="M256,256c0-141.384,0-158.052,0-256C114.616,0,0,114.616,0,256H256z"/>
<g>
	<polygon style="fill:#F0F0F0;" points="205.054,166.957 209.199,179.712 222.609,179.712 211.759,187.593 215.904,200.348 
		205.054,192.465 194.204,200.348 198.349,187.593 187.499,179.712 200.909,179.712 	"/>
	<polygon style="fill:#F0F0F0;" points="137.698,66.783 144.605,88.042 166.957,88.042 148.873,101.177 155.782,122.435 
		137.698,109.296 119.615,122.435 126.523,101.177 108.44,88.042 130.79,88.042 	"/>
	<polygon style="fill:#F0F0F0;" points="204.481,89.043 211.388,110.303 233.739,110.303 215.656,123.438 222.563,144.696 
		204.481,131.557 186.398,144.696 193.306,123.438 175.223,110.303 197.573,110.303 	"/>
	<polygon style="fill:#F0F0F0;" points="151.693,178.087 158.601,199.346 180.951,199.346 162.868,212.481 169.776,233.739 
		151.693,220.601 133.61,233.739 140.518,212.481 122.435,199.346 144.786,199.346 	"/>
	<polygon style="fill:#F0F0F0;" points="93.176,122.435 100.084,143.694 122.435,143.694 104.351,156.829 111.259,178.087 
		93.176,164.949 75.094,178.087 82.001,156.829 63.919,143.694 86.269,143.694 	"/>
</g>
<g>
</g>
<g>
</g>
<g>
</g>
<g>
</g>
<g>
</g>
<g>
</g>
<g>
</g>
<g>
</g>
<g>
</g>
<g>
</g>
<g>
</g>
<g>
</g>
<g>
</g>
<g>
</g>
<g>
</g>
</svg>
