<?xml version="1.0" encoding="iso-8859-1"?>
<!-- Generator: Adobe Illustrator 19.0.0, SVG Export Plug-In . SVG Version: 6.00 Build 0)  -->
<svg version="1.1" id="Layer_1" xmlns="http://www.w3.org/2000/svg" xmlns:xlink="http://www.w3.org/1999/xlink" x="0px" y="0px"
	 viewBox="0 0 512 512" style="enable-background:new 0 0 512 512;" xml:space="preserve">
<circle style="fill:#FFDA44;" cx="256" cy="256" r="256"/>
<g>
	<path style="fill:#6DA544;" d="M155.826,166.957h340.25C459.906,69.472,366.07,0,256,0C185.306,0,121.313,28.659,74.989,74.989
		L155.826,166.957z"/>
	<path style="fill:#6DA544;" d="M155.826,345.043h340.25C459.906,442.528,366.07,512,256,512
		c-70.694,0-134.687-28.659-181.011-74.989L155.826,345.043z"/>
</g>
<path style="fill:#D80027;" d="M74.98,74.98c-99.974,99.974-99.974,262.065,0,362.04C116.293,395.707,156.026,355.974,256,256
	L74.98,74.98z"/>
<polygon points="325.074,211.478 336.125,245.49 371.887,245.49 342.955,266.51 354.006,300.522 325.074,279.501 296.142,300.522 
	307.192,266.51 278.261,245.49 314.023,245.49 "/>
<polygon points="436.379,211.478 447.429,245.49 483.191,245.49 454.26,266.51 465.31,300.522 436.379,279.501 407.446,300.522 
	418.497,266.51 389.565,245.49 425.327,245.49 "/>
<g>
</g>
<g>
</g>
<g>
</g>
<g>
</g>
<g>
</g>
<g>
</g>
<g>
</g>
<g>
</g>
<g>
</g>
<g>
</g>
<g>
</g>
<g>
</g>
<g>
</g>
<g>
</g>
<g>
</g>
</svg>
