<?xml version="1.0" encoding="iso-8859-1"?>
<!-- Generator: Adobe Illustrator 19.0.0, SVG Export Plug-In . SVG Version: 6.00 Build 0)  -->
<svg version="1.1" id="Layer_1" xmlns="http://www.w3.org/2000/svg" xmlns:xlink="http://www.w3.org/1999/xlink" x="0px" y="0px"
	 viewBox="0 0 512 512" style="enable-background:new 0 0 512 512;" xml:space="preserve">
<circle style="fill:#F0F0F0;" cx="256" cy="256" r="256"/>
<path style="fill:#D80027;" d="M509.833,222.609h-220.44h-0.001V2.167C278.461,0.744,267.317,0,256,0s-22.461,0.744-33.391,2.167
	v220.44v0.001H2.167C0.744,233.539,0,244.683,0,256s0.744,22.461,2.167,33.391h220.44h0.001v220.442
	C233.539,511.256,244.683,512,256,512s22.461-0.743,33.391-2.167V289.394v-0.002h220.442C511.256,278.461,512,267.317,512,256
	S511.256,233.539,509.833,222.609z"/>
<path d="M378.435,89.043c-20.746,0-38.177,14.189-43.119,33.391l43.119,11.13l43.119-11.13
	C416.612,103.233,399.181,89.043,378.435,89.043z"/>
<path d="M333.913,189.217l55.652,11.13v-23.663c15.645-4.028,27.959-16.345,31.986-31.989l-43.116-11.13h-55.652l11.13,33.391
	V189.217z"/>
<path style="fill:#ACABB1;" d="M421.554,122.435h-98.771v22.261v22.261h11.13v-22.261h87.638c0.916-3.557,1.406-7.287,1.406-11.13
	C422.957,129.722,422.47,125.992,421.554,122.435z"/>
<path d="M144.696,89.043c-20.746,0-38.177,14.189-43.119,33.391l43.119,11.13l43.119-11.13
	C182.873,103.233,165.442,89.043,144.696,89.043z"/>
<path d="M100.174,189.217l55.652,11.13v-23.663c15.645-4.028,27.959-16.345,31.986-31.989l-43.116-11.13H89.043l11.13,33.391
	V189.217z"/>
<path style="fill:#ACABB1;" d="M187.815,122.435H89.043v22.261v22.261h11.13v-22.261h87.638c0.916-3.557,1.406-7.287,1.406-11.13
	C189.217,129.722,188.731,125.992,187.815,122.435z"/>
<path d="M378.435,311.652c-20.746,0-38.177,14.189-43.119,33.391l43.119,11.13l43.119-11.13
	C416.612,325.841,399.181,311.652,378.435,311.652z"/>
<path d="M333.913,411.826l55.652,11.13v-23.663c15.645-4.028,27.959-16.345,31.986-31.989l-43.116-11.13h-55.652l11.13,33.391
	V411.826z"/>
<path style="fill:#ACABB1;" d="M421.554,345.043h-98.771v22.261v22.261h11.13v-22.261h87.638c0.916-3.557,1.406-7.287,1.406-11.13
	C422.957,352.331,422.47,348.601,421.554,345.043z"/>
<path d="M144.696,311.652c-20.746,0-38.177,14.189-43.119,33.391l43.119,11.13l43.119-11.13
	C182.873,325.841,165.442,311.652,144.696,311.652z"/>
<path d="M100.174,411.826l55.652,11.13v-23.663c15.645-4.028,27.959-16.345,31.986-31.989l-43.116-11.13H89.043l11.13,33.391
	V411.826z"/>
<path style="fill:#ACABB1;" d="M187.815,345.043H89.043v22.261v22.261h11.13v-22.261h87.638c0.916-3.557,1.406-7.287,1.406-11.13
	C189.217,352.331,188.731,348.601,187.815,345.043z"/>
<g>
</g>
<g>
</g>
<g>
</g>
<g>
</g>
<g>
</g>
<g>
</g>
<g>
</g>
<g>
</g>
<g>
</g>
<g>
</g>
<g>
</g>
<g>
</g>
<g>
</g>
<g>
</g>
<g>
</g>
</svg>
