<?xml version="1.0" encoding="iso-8859-1"?>
<!-- Generator: Adobe Illustrator 19.0.0, SVG Export Plug-In . SVG Version: 6.00 Build 0)  -->
<svg version="1.1" id="Layer_1" xmlns="http://www.w3.org/2000/svg" xmlns:xlink="http://www.w3.org/1999/xlink" x="0px" y="0px"
	 viewBox="0 0 512 512" style="enable-background:new 0 0 512 512;" xml:space="preserve">
<path style="fill:#FFDA44;" d="M367.304,25.402C333.648,9.128,295.89,0,256,0s-77.648,9.128-111.304,25.402L122.435,256
	l22.261,230.598C178.352,502.872,216.11,512,256,512s77.648-9.128,111.304-25.402L389.565,256L367.304,25.402z"/>
<g>
	<polygon style="fill:#496E2D;" points="255.998,166.957 278.098,234.977 349.626,234.977 291.762,277.02 313.863,345.043 
		255.998,303.003 198.133,345.043 220.238,277.02 162.374,234.977 233.897,234.977 	"/>
	<path style="fill:#496E2D;" d="M144.696,25.411C59.066,66.818,0,154.507,0,256s59.066,189.182,144.696,230.589V25.411z"/>
</g>
<path style="fill:#D80027;" d="M367.304,25.411v461.178C452.934,445.182,512,357.493,512,256S452.934,66.818,367.304,25.411z"/>
<g>
</g>
<g>
</g>
<g>
</g>
<g>
</g>
<g>
</g>
<g>
</g>
<g>
</g>
<g>
</g>
<g>
</g>
<g>
</g>
<g>
</g>
<g>
</g>
<g>
</g>
<g>
</g>
<g>
</g>
</svg>
