<?xml version="1.0" encoding="iso-8859-1"?>
<!-- Generator: Adobe Illustrator 19.0.0, SVG Export Plug-In . SVG Version: 6.00 Build 0)  -->
<svg version="1.1" id="Layer_1" xmlns="http://www.w3.org/2000/svg" xmlns:xlink="http://www.w3.org/1999/xlink" x="0px" y="0px"
	 viewBox="0 0 512 512" style="enable-background:new 0 0 512 512;" xml:space="preserve">
<circle style="fill:#F0F0F0;" cx="256" cy="256" r="256"/>
<path style="fill:#FFDA44;" d="M428.809,67.137C383.269,25.445,322.608,0,256,0c-10.904,0-21.649,0.687-32.195,2.01L100.174,144.696
	L8.101,320.131c5.948,23.061,15.042,44.855,26.775,64.917L256,256L428.809,67.137z"/>
<path style="fill:#6DA544;" d="M469.131,397.838l-358.168,69.12C152.192,495.359,202.15,512,256,512
	C344.921,512,423.24,466.657,469.131,397.838z"/>
<path style="fill:#D80027;" d="M428.845,67.171L35.022,385.296c10.301,17.568,22.634,33.799,36.681,48.368L512,256
	C512,181.241,479.949,113.973,428.845,67.171z"/>
<path style="fill:#0052B4;" d="M0,256c0,22.147,2.814,43.636,8.101,64.131L223.805,2.01C97.618,17.844,0,125.52,0,256z"/>
<g>
</g>
<g>
</g>
<g>
</g>
<g>
</g>
<g>
</g>
<g>
</g>
<g>
</g>
<g>
</g>
<g>
</g>
<g>
</g>
<g>
</g>
<g>
</g>
<g>
</g>
<g>
</g>
<g>
</g>
</svg>
