<?xml version="1.0" encoding="iso-8859-1"?>
<!-- Generator: Adobe Illustrator 19.0.0, SVG Export Plug-In . SVG Version: 6.00 Build 0)  -->
<svg version="1.1" id="Layer_1" xmlns="http://www.w3.org/2000/svg" xmlns:xlink="http://www.w3.org/1999/xlink" x="0px" y="0px"
	 viewBox="0 0 512 512" style="enable-background:new 0 0 512 512;" xml:space="preserve">
<path id="SVGCleanerId_0" style="fill:#D80027;" d="M111.713,467.478C152.799,495.563,202.476,512,256,512
	s103.202-16.437,144.287-44.522L256,445.217L111.713,467.478z"/>
<path id="SVGCleanerId_1" style="fill:#D80027;" d="M400.287,44.522C359.202,16.437,309.524,0,256,0S152.797,16.437,111.713,44.522
	L256,66.783L400.287,44.522z"/>
<g>
	<path id="SVGCleanerId_0_1_" style="fill:#D80027;" d="M111.713,467.478C152.799,495.563,202.476,512,256,512
		s103.202-16.437,144.287-44.522L256,445.217L111.713,467.478z"/>
</g>
<g>
	<path id="SVGCleanerId_1_1_" style="fill:#D80027;" d="M400.287,44.522C359.202,16.437,309.524,0,256,0
		S152.797,16.437,111.713,44.522L256,66.783L400.287,44.522z"/>
</g>
<g>
	<path style="fill:#0052B4;" d="M511.348,239.304c-6.065-79.01-54.072-155.826-111.061-194.783H111.713
		C48.577,87.682,5.75,158.37,0.538,239.304L256,256L511.348,239.304z"/>
	<path style="fill:#0052B4;" d="M0.538,272.696c5.212,80.935,48.038,151.622,111.174,194.783h288.574
		c63.139-43.16,105.963-113.848,111.175-194.783L256,256L0.538,272.696z"/>
</g>
<path style="fill:#D80027;" d="M511.348,239.303H272.696V33.391h-33.391v205.912H0.539C0.184,244.823,0,250.39,0,256
	c0,5.609,0.183,11.175,0.538,16.695h238.767v205.914h33.391V272.695h238.767C511.817,267.175,512,261.609,512,256
	C512,250.431,511.775,244.862,511.348,239.303z"/>
<polygon style="fill:#F0F0F0;" points="100.174,256 255.999,158.058 411.826,256 255.999,353.943 "/>
<polygon style="fill:#6DA544;" points="166.957,300.522 367.304,300.522 322.783,233.739 300.522,256 278.261,244.87 256,278.261 
	211.478,278.261 189.217,256 "/>
<polygon style="fill:#FFDA44;" points="256,189.217 261.526,206.222 279.405,206.222 264.94,216.733 270.466,233.739 256,223.229 
	241.534,233.739 247.06,216.733 232.595,206.222 250.474,206.222 "/>
<path style="fill:#D80027;" d="M255.999,130.074L55.652,256l200.347,125.926L456.348,256L255.999,130.074z M118.4,256
	l137.599-86.487L393.6,256l-137.601,86.487L118.4,256z"/>
<g>
</g>
<g>
</g>
<g>
</g>
<g>
</g>
<g>
</g>
<g>
</g>
<g>
</g>
<g>
</g>
<g>
</g>
<g>
</g>
<g>
</g>
<g>
</g>
<g>
</g>
<g>
</g>
<g>
</g>
</svg>
