<?xml version="1.0" encoding="iso-8859-1"?>
<!-- Generator: Adobe Illustrator 19.0.0, SVG Export Plug-In . SVG Version: 6.00 Build 0)  -->
<svg version="1.1" id="Layer_1" xmlns="http://www.w3.org/2000/svg" xmlns:xlink="http://www.w3.org/1999/xlink" x="0px" y="0px"
	 viewBox="0 0 512 512" style="enable-background:new 0 0 512 512;" xml:space="preserve">
<path style="fill:#F0F0F0;" d="M496.077,345.043C506.367,317.31,512,287.314,512,256s-5.633-61.31-15.923-89.043L256,144.696
	L15.923,166.957C5.633,194.69,0,224.686,0,256s5.633,61.31,15.923,89.043L256,367.304L496.077,345.043z"/>
<path style="fill:#D80027;" d="M256,512c110.07,0,203.906-69.472,240.076-166.957H15.922C52.094,442.528,145.928,512,256,512z"/>
<path style="fill:#496E2D;" d="M256,0C145.928,0,52.094,69.472,15.922,166.957h480.155C459.906,69.472,366.07,0,256,0z"/>
<polygon points="256,200.348 269.813,242.861 314.516,242.861 278.351,269.138 292.166,311.652 256,285.379 219.834,311.652 
	233.649,269.138 197.484,242.861 242.187,242.861 "/>
<g>
	<path style="fill:#F0F0F0;" d="M332.058,50.087v51.941c0,8.185-6.657,14.841-14.84,14.841v22.261
		c20.458,0,37.101-16.643,37.101-37.102V50.087H332.058z"/>
	<path style="fill:#F0F0F0;" d="M172.522,102.028c0,8.185-6.657,14.841-14.841,14.841v22.261c20.459,0,37.102-16.643,37.102-37.102
		V50.087h-22.261V102.028z"/>
	<rect x="298.663" y="50.087" style="fill:#F0F0F0;" width="22.261" height="51.941"/>
	<path style="fill:#F0F0F0;" d="M265.275,79.767c0,2.046-1.665,3.711-3.71,3.711c-2.046,0-3.711-1.665-3.711-3.711v-29.68h-22.261
		v29.68c0,2.046-1.664,3.711-3.71,3.711c-2.046,0-3.71-1.665-3.71-3.711v-29.68h-22.261v29.68c0,14.322,11.65,25.972,25.971,25.972
		c5.515,0,10.631-1.733,14.84-4.676c4.211,2.943,9.326,4.676,14.841,4.676c1.111,0,2.203-0.078,3.277-0.215
		c-1.578,6.499-7.431,11.345-14.407,11.345v22.261c20.458,0,37.101-16.643,37.101-37.102V79.767v-29.68h-22.261L265.275,79.767
		L265.275,79.767z"/>
	<rect x="205.913" y="116.87" style="fill:#F0F0F0;" width="33.391" height="22.261"/>
</g>
<g>
</g>
<g>
</g>
<g>
</g>
<g>
</g>
<g>
</g>
<g>
</g>
<g>
</g>
<g>
</g>
<g>
</g>
<g>
</g>
<g>
</g>
<g>
</g>
<g>
</g>
<g>
</g>
<g>
</g>
</svg>
