<?xml version="1.0" encoding="iso-8859-1"?>
<!-- Generator: Adobe Illustrator 19.0.0, SVG Export Plug-In . SVG Version: 6.00 Build 0)  -->
<svg version="1.1" id="Layer_1" xmlns="http://www.w3.org/2000/svg" xmlns:xlink="http://www.w3.org/1999/xlink" x="0px" y="0px"
	 viewBox="0 0 512 512" style="enable-background:new 0 0 512 512;" xml:space="preserve">
<circle style="fill:#F0F0F0;" cx="256" cy="256" r="256"/>
<path d="M492.029,156.753C453.26,64.662,362.188,0,256,0C185.306,0,121.313,28.659,74.989,74.989l64.11,81.764L492.029,156.753
	L492.029,156.753z"/>
<path style="fill:#496E2D;" d="M139.826,354.32l-64.837,82.691C121.313,483.341,185.306,512,256,512
	c106.546,0,197.878-65.094,236.424-157.68L139.826,354.32L139.826,354.32z"/>
<path style="fill:#A2001D;" d="M55.652,188.29v134.492h447.53C508.924,301.491,512,279.107,512,256
	c0-23.442-3.158-46.142-9.061-67.71L55.652,188.29L55.652,188.29z"/>
<path style="fill:#0052B4;" d="M74.98,74.98c-99.974,99.974-99.974,262.065,0,362.04C116.293,395.707,156.026,355.974,256,256
	L74.98,74.98z"/>
<polygon style="fill:#FFDA44;" points="83.386,192.352 114.631,235.953 165.759,219.708 133.948,262.901 165.193,306.504 
	114.285,289.597 82.473,332.789 82.823,279.146 31.913,262.237 83.037,245.993 "/>
<g>
</g>
<g>
</g>
<g>
</g>
<g>
</g>
<g>
</g>
<g>
</g>
<g>
</g>
<g>
</g>
<g>
</g>
<g>
</g>
<g>
</g>
<g>
</g>
<g>
</g>
<g>
</g>
<g>
</g>
</svg>
