<?xml version="1.0" encoding="iso-8859-1"?>
<!-- Generator: Adobe Illustrator 19.0.0, SVG Export Plug-In . SVG Version: 6.00 Build 0)  -->
<svg version="1.1" id="Layer_1" xmlns="http://www.w3.org/2000/svg" xmlns:xlink="http://www.w3.org/1999/xlink" x="0px" y="0px"
	 viewBox="0 0 511.58 511.58" style="enable-background:new 0 0 511.58 511.58;" xml:space="preserve">
<circle style="fill:#F0F0F0;" cx="255.79" cy="255.79" r="255.79"/>
<g>
	<path style="fill:#ACABB1;" d="M456.714,205.744h-84.151c0-15.355-12.448-27.803-27.803-27.803l-22.243,44.485
		c0,0,23.726,66.728,22.984,66.728h27.803c15.356,0,27.803-12.447,27.803-27.803c15.356,0,27.803-12.447,27.803-27.803h-0.926
		C443.339,233.547,456.714,221.1,456.714,205.744z"/>
	<path style="fill:#ACABB1;" d="M54.865,205.744h84.151c0-15.355,12.448-27.803,27.803-27.803l22.243,44.485
		c0,0-23.726,66.728-22.984,66.728h-27.803c-15.356,0-27.803-12.447-27.803-27.803c-15.356,0-27.803-12.447-27.803-27.803h0.926
		C68.239,233.547,54.865,221.1,54.865,205.744z"/>
</g>
<polygon style="fill:#FFDA44;" points="344.76,355.881 344.76,367.002 166.819,367.002 166.819,355.881 122.334,355.881 
	122.334,400.366 166.819,400.366 166.819,411.487 344.76,411.487 344.76,400.366 389.245,400.366 389.245,355.881 "/>
<path style="fill:#0052B4;" d="M166.819,177.94v111.212c0,68.103,88.97,88.971,88.97,88.971s88.97-20.868,88.97-88.971V177.94
	l-88.97-11.121L166.819,177.94z"/>
<rect x="166.82" y="222.43" style="fill:#D80027;" width="177.94" height="66.728"/>
<polygon style="fill:#FFDA44;" points="300.274,122.334 300.274,139.016 289.153,144.577 278.032,133.455 278.032,100.091 
	233.547,100.091 233.547,133.455 222.426,144.577 211.304,139.016 211.304,122.334 166.819,122.334 166.819,177.94 344.76,177.94 
	344.76,122.334 "/>
<g>
</g>
<g>
</g>
<g>
</g>
<g>
</g>
<g>
</g>
<g>
</g>
<g>
</g>
<g>
</g>
<g>
</g>
<g>
</g>
<g>
</g>
<g>
</g>
<g>
</g>
<g>
</g>
<g>
</g>
</svg>
