<?xml version="1.0" encoding="iso-8859-1"?>
<!-- Generator: Adobe Illustrator 19.0.0, SVG Export Plug-In . SVG Version: 6.00 Build 0)  -->
<svg version="1.1" id="Layer_1" xmlns="http://www.w3.org/2000/svg" xmlns:xlink="http://www.w3.org/1999/xlink" x="0px" y="0px"
	 viewBox="0 0 512 512" style="enable-background:new 0 0 512 512;" xml:space="preserve">
<path style="fill:#FFDA44;" d="M378.435,31.127C342.064,11.283,300.35,0,256,0s-86.064,11.283-122.435,31.127L111.304,256
	l22.261,224.873C169.936,500.717,211.65,512,256,512s86.064-11.283,122.435-31.127L400.696,256L378.435,31.127z"/>
<path style="fill:#338AF3;" d="M133.565,480.871V31.126C53.989,74.546,0,158.965,0,256S53.989,437.454,133.565,480.871z"/>
<g>
	<path style="fill:#6DA544;" d="M512,256c0-97.035-53.989-181.454-133.565-224.874v449.745C458.011,437.454,512,353.035,512,256z"/>
	<polygon style="fill:#6DA544;" points="200.348,322.783 155.825,256 200.347,189.217 244.871,256 	"/>
	<polygon style="fill:#6DA544;" points="311.652,322.783 267.13,256 311.652,189.217 356.174,256 	"/>
	<polygon style="fill:#6DA544;" points="256,411.826 211.478,345.043 256,278.261 300.522,345.043 	"/>
</g>
<g>
</g>
<g>
</g>
<g>
</g>
<g>
</g>
<g>
</g>
<g>
</g>
<g>
</g>
<g>
</g>
<g>
</g>
<g>
</g>
<g>
</g>
<g>
</g>
<g>
</g>
<g>
</g>
<g>
</g>
</svg>
