<?xml version="1.0" encoding="iso-8859-1"?>
<!-- Generator: Adobe Illustrator 19.0.0, SVG Export Plug-In . SVG Version: 6.00 Build 0)  -->
<svg version="1.1" id="Layer_1" xmlns="http://www.w3.org/2000/svg" xmlns:xlink="http://www.w3.org/1999/xlink" x="0px" y="0px"
	 viewBox="0 0 512 512" style="enable-background:new 0 0 512 512;" xml:space="preserve">
<path style="fill:#F0F0F0;" d="M25.402,144.696C9.128,178.352,0,216.109,0,256s9.128,77.648,25.402,111.304L256,389.565
	l230.598-22.261C502.872,333.648,512,295.891,512,256s-9.128-77.648-25.402-111.304L256,122.435L25.402,144.696z"/>
<path d="M25.411,367.304C66.817,452.935,154.506,512,256,512s189.183-59.065,230.589-144.696H25.411z"/>
<path style="fill:#D80027;" d="M25.411,144.696h461.178C445.183,59.065,357.494,0,256,0S66.817,59.065,25.411,144.696z"/>
<path style="fill:#496E2D;" d="M74.98,74.98c-99.974,99.974-99.974,262.065,0,362.04C116.293,395.707,156.026,355.974,256,256
	L74.98,74.98z"/>
<g>
</g>
<g>
</g>
<g>
</g>
<g>
</g>
<g>
</g>
<g>
</g>
<g>
</g>
<g>
</g>
<g>
</g>
<g>
</g>
<g>
</g>
<g>
</g>
<g>
</g>
<g>
</g>
<g>
</g>
</svg>
