<?xml version="1.0" encoding="iso-8859-1"?>
<!-- Generator: Adobe Illustrator 19.0.0, SVG Export Plug-In . SVG Version: 6.00 Build 0)  -->
<svg version="1.1" id="Layer_1" xmlns="http://www.w3.org/2000/svg" xmlns:xlink="http://www.w3.org/1999/xlink" x="0px" y="0px"
	 viewBox="0 0 512 512" style="enable-background:new 0 0 512 512;" xml:space="preserve">
<circle style="fill:#F0F0F0;" cx="256" cy="256" r="256"/>
<path style="fill:#A2001D;" d="M496.076,166.957H15.922C5.633,194.691,0,224.686,0,256s5.633,61.311,15.922,89.043h480.155
	C506.368,317.311,512,287.314,512,256S506.368,194.691,496.076,166.957z"/>
<g>
	<path style="fill:#6DA544;" d="M256.741,512c87.682,0,165.058-44.092,211.196-111.304H45.546
		C91.684,467.908,169.058,512,256.741,512z"/>
	<path style="fill:#6DA544;" d="M256.741,0.002c87.682,0,165.058,44.092,211.196,111.304H45.546
		C91.684,44.094,169.058,0.002,256.741,0.002z"/>
</g>
<polygon style="fill:#FFDA44;" points="256,166.957 278.101,234.977 349.626,234.977 291.762,277.021 313.865,345.043 256,303.004 
	198.135,345.043 220.239,277.021 162.374,234.977 233.899,234.977 "/>
<g>
</g>
<g>
</g>
<g>
</g>
<g>
</g>
<g>
</g>
<g>
</g>
<g>
</g>
<g>
</g>
<g>
</g>
<g>
</g>
<g>
</g>
<g>
</g>
<g>
</g>
<g>
</g>
<g>
</g>
</svg>
