<?xml version="1.0" encoding="iso-8859-1"?>
<!-- Generator: Adobe Illustrator 19.0.0, SVG Export Plug-In . SVG Version: 6.00 Build 0)  -->
<svg version="1.1" id="Layer_1" xmlns="http://www.w3.org/2000/svg" xmlns:xlink="http://www.w3.org/1999/xlink" x="0px" y="0px"
	 viewBox="0 0 512 512" style="enable-background:new 0 0 512 512;" xml:space="preserve">
<circle style="fill:#FFDA44;" cx="256" cy="256" r="256"/>
<path d="M74.98,437.02c10.739,10.739,22.197,20.316,34.216,28.748l356.57-356.571c-8.43-12.019-18.008-23.477-28.747-34.216
	c-10.74-10.739-22.197-20.315-34.216-28.747L46.234,402.805C54.664,414.821,64.242,426.28,74.98,437.02z"/>
<path style="fill:#6DA544;" d="M74.98,74.98c-80.762,80.764-96.267,202.055-46.544,298.398L373.378,28.437
	C277.035-21.286,155.743-5.78,74.98,74.98z"/>
<path style="fill:#338AF3;" d="M437.019,437.02c80.762-80.762,96.266-202.055,46.545-298.398L138.622,483.564
	C234.963,533.287,356.256,517.782,437.019,437.02z"/>
<g>
</g>
<g>
</g>
<g>
</g>
<g>
</g>
<g>
</g>
<g>
</g>
<g>
</g>
<g>
</g>
<g>
</g>
<g>
</g>
<g>
</g>
<g>
</g>
<g>
</g>
<g>
</g>
<g>
</g>
</svg>
