<?xml version="1.0" encoding="iso-8859-1"?>
<!-- Generator: Adobe Illustrator 19.0.0, SVG Export Plug-In . SVG Version: 6.00 Build 0)  -->
<svg version="1.1" id="Layer_1" xmlns="http://www.w3.org/2000/svg" xmlns:xlink="http://www.w3.org/1999/xlink" x="0px" y="0px"
	 viewBox="0 0 512 512" style="enable-background:new 0 0 512 512;" xml:space="preserve">
<circle style="fill:#F0F0F0;" cx="256" cy="256" r="256"/>
<path style="fill:#FFDA44;" d="M111.713,44.522C152.798,16.436,202.476,0,256,0s103.202,16.436,144.287,44.522L256,55.652
	L111.713,44.522z"/>
<path style="fill:#D80027;" d="M74.994,437.006l118.042-118.04L256,211.478l62.957,107.481l118.049,118.047
	C483.336,390.682,512,326.693,512,256c0-87.861-44.269-165.375-111.713-211.478H111.713C44.269,90.625,0,168.139,0,256
	C0,326.693,28.664,390.682,74.994,437.006z"/>
<g>
	<path style="fill:#0052B4;" d="M492.552,354.021l-187.17-77.558l13.566,42.484l118.058,118.058
		C460.578,413.436,479.576,385.294,492.552,354.021z"/>
	<path style="fill:#0052B4;" d="M512,256c0-34.725-6.921-67.83-19.448-98.021L256,256H512z"/>
	<path style="fill:#0052B4;" d="M437.006,74.994c-11.252-11.25-23.541-21.463-36.719-30.472h-56.655L256,256L437.006,74.994z"/>
	<polygon style="fill:#0052B4;" points="256,44.522 168.369,44.522 256,256 	"/>
	<path style="fill:#0052B4;" d="M74.994,74.994c-23.572,23.57-42.569,51.711-55.545,82.984L256,256L74.994,74.994z"/>
	<path style="fill:#0052B4;" d="M0,256c0,34.725,6.921,67.83,19.448,98.021L256,256H0z"/>
</g>
<g>
	<path style="fill:#FFDA44;" d="M111.713,467.478C152.797,495.564,202.476,512,256,512s103.202-16.436,144.287-44.522H111.713z"/>
	<path style="fill:#FFDA44;" d="M256,256l62.963,62.963c16.115-16.114,26.081-38.374,26.081-62.963
		c0-49.178-39.866-89.043-89.043-89.043S166.957,206.822,166.957,256c0,24.588,9.966,46.849,26.081,62.963L256,256z"/>
	<path style="fill:#FFDA44;" d="M294.957,384c0,21.515-17.443,27.826-38.957,27.826s-38.957-6.311-38.957-27.826
		c0-21.515,17.443-38.957,38.957-38.957S294.957,362.485,294.957,384z"/>
</g>
<path style="fill:#0052B4;" d="M294.957,384c0,21.515-17.443,38.957-38.957,38.957S217.043,405.515,217.043,384"/>
<g>
</g>
<g>
</g>
<g>
</g>
<g>
</g>
<g>
</g>
<g>
</g>
<g>
</g>
<g>
</g>
<g>
</g>
<g>
</g>
<g>
</g>
<g>
</g>
<g>
</g>
<g>
</g>
<g>
</g>
</svg>
