<?xml version="1.0" encoding="iso-8859-1"?>
<!-- Generator: Adobe Illustrator 19.0.0, SVG Export Plug-In . SVG Version: 6.00 Build 0)  -->
<svg version="1.1" id="Layer_1" xmlns="http://www.w3.org/2000/svg" xmlns:xlink="http://www.w3.org/1999/xlink" x="0px" y="0px"
	 viewBox="0 0 512 512" style="enable-background:new 0 0 512 512;" xml:space="preserve">
<circle style="fill:#FFDA44;" cx="256" cy="256" r="256"/>
<g>
	<path style="fill:#496E2D;" d="M256,0c-0.186,0.002-11.13,102.4-11.13,102.4h215.942C414.107,40.223,339.752,0,256,0z"/>
	<path style="fill:#496E2D;" d="M256,512c83.752,0,158.107-40.223,204.811-102.4H51.189C97.893,471.777,172.248,512,256,512z"/>
	<path style="fill:#496E2D;" d="M506.874,204.8H244.87L256,307.2h250.874C510.234,290.657,512,273.535,512,256
		S510.232,221.343,506.874,204.8z"/>
</g>
<path style="fill:#D80027;" d="M256,307.2c0-53.426,0-247.096,0-307.2C114.616,0,0,114.616,0,256c0,17.535,1.768,34.657,5.126,51.2
	H256z"/>
<polygon style="fill:#F0F0F0;" points="141.257,122.435 157.833,173.45 211.478,173.45 168.081,204.983 184.655,256 141.257,224.47 
	97.859,256 114.436,204.983 71.039,173.45 124.682,173.45 "/>
<g>
</g>
<g>
</g>
<g>
</g>
<g>
</g>
<g>
</g>
<g>
</g>
<g>
</g>
<g>
</g>
<g>
</g>
<g>
</g>
<g>
</g>
<g>
</g>
<g>
</g>
<g>
</g>
<g>
</g>
</svg>
