<?xml version="1.0" encoding="iso-8859-1"?>
<!-- Generator: Adobe Illustrator 19.0.0, SVG Export Plug-In . SVG Version: 6.00 Build 0)  -->
<svg version="1.1" id="Layer_1" xmlns="http://www.w3.org/2000/svg" xmlns:xlink="http://www.w3.org/1999/xlink" x="0px" y="0px"
	 viewBox="0 0 512 512" style="enable-background:new 0 0 512 512;" xml:space="preserve">
<circle style="fill:#FFDA44;" cx="256" cy="256" r="256"/>
<path style="fill:#0052B4;" d="M411.826,122.435c-2.296,11.035-3.339,22.788-3.339,34.504c0,67.534,40.259,125.985,97.954,152.298
	C510.074,292.061,512,274.256,512,256C512,114.616,397.384,0,256,0S0,114.616,0,256s114.616,256,256,256
	c87.682,0,165.058-44.092,211.196-111.304h-322.5v-33.391h341.902c3.499-7.236,6.66-14.665,9.48-22.261H144.696L411.826,122.435z"/>
<g>
	<polygon style="fill:#F0F0F0;" points="188.072,133.565 193.598,150.571 211.478,150.571 197.013,161.082 202.539,178.087 
		188.072,167.578 173.607,178.087 179.132,161.082 164.665,150.571 182.546,150.571 	"/>
	<polygon style="fill:#F0F0F0;" points="115.438,256 122.346,277.259 144.696,277.259 126.613,290.394 133.521,311.652 
		115.438,298.514 97.356,311.652 104.263,290.394 86.181,277.259 108.531,277.259 	"/>
	<polygon style="fill:#F0F0F0;" points="115.438,77.913 122.346,99.172 144.696,99.172 126.613,112.307 133.521,133.565 
		115.438,120.427 97.356,133.565 104.263,112.307 86.181,99.172 108.531,99.172 	"/>
	<polygon style="fill:#F0F0F0;" points="59.786,178.087 66.694,199.346 89.043,199.346 70.961,212.481 77.869,233.739 
		59.786,220.601 41.704,233.739 48.611,212.481 30.529,199.346 52.878,199.346 	"/>
</g>
<g>
</g>
<g>
</g>
<g>
</g>
<g>
</g>
<g>
</g>
<g>
</g>
<g>
</g>
<g>
</g>
<g>
</g>
<g>
</g>
<g>
</g>
<g>
</g>
<g>
</g>
<g>
</g>
<g>
</g>
</svg>
