<?xml version="1.0" encoding="iso-8859-1"?>
<!-- Generator: Adobe Illustrator 19.0.0, SVG Export Plug-In . SVG Version: 6.00 Build 0)  -->
<svg version="1.1" id="Layer_1" xmlns="http://www.w3.org/2000/svg" xmlns:xlink="http://www.w3.org/1999/xlink" x="0px" y="0px"
	 viewBox="0 0 512 512" style="enable-background:new 0 0 512 512;" xml:space="preserve">
<path style="fill:#F0F0F0;" d="M138.616,28.426C115.698,40.255,94.185,55.76,74.973,74.972
	c-19.213,19.213-34.718,40.726-46.546,63.644l164.607,180.349l180.349,164.607c22.919-11.829,44.432-27.334,63.644-46.545
	c19.213-19.213,34.717-40.726,46.546-63.644L318.966,193.033L138.616,28.426z"/>
<path d="M437.027,437.027c10.739-10.739,20.317-22.198,28.749-34.217L109.191,46.224c-12.019,8.431-23.478,18.009-34.217,28.748
	S54.657,97.17,46.225,109.19L402.81,465.774C414.828,457.343,426.288,447.766,437.027,437.027z"/>
<g>
	<path style="fill:#D80027;" d="M74.972,437.027c80.767,80.767,202.064,96.271,298.41,46.545L28.427,138.616
		C-21.298,234.962-5.791,356.26,74.972,437.027z"/>
	<path style="fill:#D80027;" d="M437.027,74.973c-80.767-80.766-202.064-96.27-298.41-46.547l344.955,344.958
		C533.298,277.038,517.794,155.739,437.027,74.973z"/>
</g>
<g>
</g>
<g>
</g>
<g>
</g>
<g>
</g>
<g>
</g>
<g>
</g>
<g>
</g>
<g>
</g>
<g>
</g>
<g>
</g>
<g>
</g>
<g>
</g>
<g>
</g>
<g>
</g>
<g>
</g>
</svg>
