<?xml version="1.0" encoding="iso-8859-1"?>
<!-- Generator: Adobe Illustrator 19.0.0, SVG Export Plug-In . SVG Version: 6.00 Build 0)  -->
<svg version="1.1" id="Layer_1" xmlns="http://www.w3.org/2000/svg" xmlns:xlink="http://www.w3.org/1999/xlink" x="0px" y="0px"
	 viewBox="0 0 512 512" style="enable-background:new 0 0 512 512;" xml:space="preserve">
<path style="fill:#0052B4;" d="M512,256c0,141.384-114.616,256-256,256S0,397.384,0,256C0,256.061,256,0.028,256,0
	C397.384,0,512,114.616,512,256z"/>
<g>
	<path style="fill:#F0F0F0;" d="M256,0c-0.016,0-0.028,0-0.043,0H256L256,0z"/>
	<path style="fill:#F0F0F0;" d="M255.315,256H256c0-0.23,0-0.454,0-0.685C255.772,255.544,255.544,255.772,255.315,256z"/>
	<path style="fill:#F0F0F0;" d="M256,133.565C256,88.52,256,59.005,256,0h-0.043C114.591,0.024,0,114.629,0,256h133.565v-75.211
		L208.776,256h46.54c0.228-0.228,0.456-0.456,0.685-0.685c0-17.247,0-32.636,0-46.537l-75.213-75.213H256z"/>
</g>
<g>
	<path style="fill:#D80027;" d="M129.515,33.391C89.476,56.19,56.189,89.476,33.391,129.515V256h66.783V100.176v-0.002H256
		c0-21.063,0-41.129,0-66.783H129.515z"/>
	<path style="fill:#D80027;" d="M256,224.519l-90.955-90.953h-31.48v0.002L255.998,256H256C256,256,256,234.293,256,224.519z"/>
</g>
<path style="fill:#FFDA44;" d="M289.391,133.565v122.434c0,59.64,77.913,77.914,77.913,77.914s77.913-18.274,77.913-77.914V133.565
	H289.391z"/>
<path style="fill:#FF9811;" d="M356.174,178.087c0,12.295-9.966,44.522-22.261,44.522s-22.261-32.227-22.261-44.522
	c0-12.295,22.261-22.261,22.261-22.261S356.174,165.792,356.174,178.087z"/>
<path style="fill:#A2001D;" d="M415.245,202.332c3.592-8.765,6.386-21.577,6.386-27.955c0-10.246-13.357-18.551-13.357-18.551
	s-13.357,8.306-13.357,18.551c0,6.378,2.794,19.19,6.386,27.955l-7.711,17.41c4.532,1.842,9.486,2.866,14.681,2.866
	c5.195,0,10.149-1.024,14.681-2.866L415.245,202.332z"/>
<path style="fill:#6DA544;" d="M350.609,256c0,0-11.13,22.261-11.13,44.522c0,0,33.391,0,55.652,0C395.13,278.261,384,256,384,256
	l-16.696-11.13L350.609,256z"/>
<path style="fill:#D80027;" d="M384,256v-5.565c0-9.22-7.475-16.696-16.696-16.696c-9.22,0-16.696,7.475-16.696,16.696V256H384z"/>
<g>
</g>
<g>
</g>
<g>
</g>
<g>
</g>
<g>
</g>
<g>
</g>
<g>
</g>
<g>
</g>
<g>
</g>
<g>
</g>
<g>
</g>
<g>
</g>
<g>
</g>
<g>
</g>
<g>
</g>
</svg>
