<?xml version="1.0" encoding="iso-8859-1"?>
<!-- Generator: Adobe Illustrator 19.0.0, SVG Export Plug-In . SVG Version: 6.00 Build 0)  -->
<svg version="1.1" id="Layer_1" xmlns="http://www.w3.org/2000/svg" xmlns:xlink="http://www.w3.org/1999/xlink" x="0px" y="0px"
	 viewBox="0 0 512 512" style="enable-background:new 0 0 512 512;" xml:space="preserve">
<circle style="fill:#FCFCFC;" cx="256" cy="256" r="256"/>
<g>
	<path style="fill:#FFDA44;" d="M299.479,178.846c0-24.012-19.466-43.478-43.479-43.478s-43.479,19.466-43.479,43.478H116.87
		c0,23.641,20.594,42.808,44.235,42.808h-1.424c0,23.643,19.164,42.811,42.809,42.811c0,20.933,15.034,38.327,34.889,42.045
		l-0.111,0.25h37.465l-0.111-0.25c19.856-3.72,34.889-21.113,34.889-42.045c23.644,0,42.809-19.168,42.809-42.811h-1.426
		c23.641,0,44.236-19.167,44.236-42.808H299.479z"/>
	<path style="fill:#FFDA44;" d="M236.887,302.324l-26.958,60.863c14.224,5.782,29.771,8.996,46.072,8.996
		c16.301,0,31.848-3.213,46.071-8.996l-26.957-60.863H236.887z"/>
</g>
<path style="fill:#F0F0F0;" d="M200.348,200.227v74.891c0,42.598,55.652,55.652,55.652,55.652s55.652-13.054,55.652-55.652v-74.891
	L200.348,200.227L200.348,200.227z"/>
<g>
	<path style="fill:#338AF3;" d="M62.079,257.802l30.099,84.184l29.786-84.184h22.732L101.27,369.106H83.085L39.348,257.802H62.079
		L62.079,257.802z"/>
	<path style="fill:#338AF3;" d="M411.826,369.106V257.802h21.633v111.304H411.826z"/>
</g>
<g>
	<path style="fill:#D80027;" d="M222.609,224.411v90.754c7.651,5.631,15.883,9.504,22.261,11.984V224.411H222.609z"/>
	<path style="fill:#D80027;" d="M289.391,224.411v90.754c-7.651,5.631-15.883,9.504-22.261,11.984V224.411H289.391z"/>
</g>
<rect x="200.348" y="200.225" style="fill:#0052B4;" width="111.304" height="35.316"/>
<g>
</g>
<g>
</g>
<g>
</g>
<g>
</g>
<g>
</g>
<g>
</g>
<g>
</g>
<g>
</g>
<g>
</g>
<g>
</g>
<g>
</g>
<g>
</g>
<g>
</g>
<g>
</g>
<g>
</g>
</svg>
