<?xml version="1.0" encoding="iso-8859-1"?>
<!-- Generator: Adobe Illustrator 19.0.0, SVG Export Plug-In . SVG Version: 6.00 Build 0)  -->
<svg version="1.1" id="Layer_1" xmlns="http://www.w3.org/2000/svg" xmlns:xlink="http://www.w3.org/1999/xlink" x="0px" y="0px"
	 viewBox="0 0 512 512" style="enable-background:new 0 0 512 512;" xml:space="preserve">
<circle style="fill:#F0F0F0;" cx="256" cy="256" r="256"/>
<path style="fill:#496E2D;" d="M512,256c0,141.384-114.616,256-256,256S0,397.384,0,256"/>
<path style="fill:#D80027;" d="M443.014,178.143c-9.155-25.963-33.892-44.577-62.987-44.577h-57.244
	c-36.883,0-66.783,29.9-66.783,66.783c0,12.05,3.208,23.631,8.791,33.391c-21.257-0.174-40.93,0.147-53.313,0
	c0-25.756,0-58.566,0-65.431l2.63-2.63c11.806-11.806,7.869-31.482,7.869-31.482s-19.674-3.935-31.48,7.871l-13.759,13.759h-15.347
	c-33.81,0-61.217,27.408-61.217,61.217h44.522v50.087c0,7.326,1.477,14.305,4.146,20.661l-15.277,12.73h-22.261v-22.261H89.043
	v44.522h100.174v44.522h-22.261v22.261h44.522v-44.522l20.405-24.487h48.233l20.405,24.487v22.261h-22.261v22.261h89.043V267.13
	c0-18.441,14.95-33.391,33.391-33.391c0.474,0,0.944,0.017,1.414,0.036c-0.922-3.568-1.414-7.309-1.414-11.166
	C400.696,198.76,419.449,179.292,443.014,178.143z M322.783,367.304v-46.748h1.855l20.405,24.487v22.261H322.783z"/>
<g>
</g>
<g>
</g>
<g>
</g>
<g>
</g>
<g>
</g>
<g>
</g>
<g>
</g>
<g>
</g>
<g>
</g>
<g>
</g>
<g>
</g>
<g>
</g>
<g>
</g>
<g>
</g>
<g>
</g>
</svg>
