<?xml version="1.0" encoding="iso-8859-1"?>
<!-- Generator: Adobe Illustrator 19.0.0, SVG Export Plug-In . SVG Version: 6.00 Build 0)  -->
<svg version="1.1" id="Layer_1" xmlns="http://www.w3.org/2000/svg" xmlns:xlink="http://www.w3.org/1999/xlink" x="0px" y="0px"
	 viewBox="0 0 512 512" style="enable-background:new 0 0 512 512;" xml:space="preserve">
<circle style="fill:#496E2D;" cx="256" cy="256" r="256"/>
<path style="fill:#D80027;" d="M356.174,256H256v256c29.924,0,58.641-5.151,85.333-14.586L356.174,256z"/>
<path style="fill:#FF9811;" d="M426.666,446.793C479.034,399.919,512,331.813,512,256H411.826L426.666,446.793z"/>
<path d="M341.333,256v241.414c31.797-11.241,60.711-28.58,85.334-50.62V256H341.333z"/>
<path style="fill:#FF9811;" d="M473.043,166.957h-66.783c0-12.294-9.967-22.261-22.261-22.261s-22.261,9.967-22.261,22.261h-66.783
	c0,12.295,10.709,22.261,23.002,22.261h-0.741c0,12.295,9.965,22.261,22.261,22.261c0,12.295,9.965,22.261,22.261,22.261h44.522
	c12.294,0,22.261-9.966,22.261-22.261c12.294,0,22.261-9.966,22.261-22.261h-0.741C462.335,189.217,473.043,179.251,473.043,166.957
	z"/>
<g>
</g>
<g>
</g>
<g>
</g>
<g>
</g>
<g>
</g>
<g>
</g>
<g>
</g>
<g>
</g>
<g>
</g>
<g>
</g>
<g>
</g>
<g>
</g>
<g>
</g>
<g>
</g>
<g>
</g>
</svg>
