<?xml version="1.0" encoding="UTF-8"?>
<svg width="24px" height="24px" viewBox="0 0 24 24" version="1.1" xmlns="http://www.w3.org/2000/svg" xmlns:xlink="http://www.w3.org/1999/xlink">
    <!-- Generator: Sketch 51.2 (57519) - http://www.bohemiancoding.com/sketch -->
    <title>Icon/Vote-Dark</title>
    <desc>Created with Sketch.</desc>
    <defs></defs>
    <g id="Icon/Vote-Dark" stroke="none" stroke-width="1" fill="none" fill-rule="evenodd">
        <path d="M7.78125,8.75 C7.93359451,8.75 8.06542913,8.80566351 8.17675781,8.91699219 C8.28808649,9.02832087 8.34375,9.16015549 8.34375,9.3125 L8.34375,20.5625 C8.34375,20.7148445 8.28808649,20.8466791 8.17675781,20.9580078 C8.06542913,21.0693365 7.93359451,21.125 7.78125,21.125 L3.84375,21.125 C3.69140549,21.125 3.55957087,21.0693365 3.44824219,20.9580078 C3.33691351,20.8466791 3.28125,20.7148445 3.28125,20.5625 L3.28125,9.3125 C3.28125,9.16015549 3.33691351,9.02832087 3.44824219,8.91699219 C3.55957087,8.80566351 3.69140549,8.75 3.84375,8.75 L7.78125,8.75 Z M7.21875,20 L7.21875,9.875 L4.40625,9.875 L4.40625,20 L7.21875,20 Z M13.96875,12.0898438 C14.1210945,12.0898438 14.2529291,12.1455073 14.3642578,12.2568359 C14.4755865,12.3681646 14.53125,12.4999992 14.53125,12.6523438 L14.53125,20.5625 C14.53125,20.7148445 14.4755865,20.8466791 14.3642578,20.9580078 C14.2529291,21.0693365 14.1210945,21.125 13.96875,21.125 L10.03125,21.125 C9.86718668,21.125 9.7324224,21.0693365 9.62695312,20.9580078 C9.52148385,20.8466791 9.46875,20.7148445 9.46875,20.5625 L9.46875,12.6523438 C9.46875,12.4999992 9.52148385,12.3681646 9.62695312,12.2568359 C9.7324224,12.1455073 9.86718668,12.0898438 10.03125,12.0898438 L13.96875,12.0898438 Z M13.40625,20 L13.40625,13.2148438 L10.59375,13.2148438 L10.59375,20 L13.40625,20 Z M20.15625,3.125 C20.3085945,3.125 20.4404291,3.18066351 20.5517578,3.29199219 C20.6630865,3.40332087 20.71875,3.53515549 20.71875,3.6875 L20.71875,20.5625 C20.71875,20.7148445 20.6630865,20.8466791 20.5517578,20.9580078 C20.4404291,21.0693365 20.3085945,21.125 20.15625,21.125 L16.21875,21.125 C16.0664055,21.125 15.9345709,21.0693365 15.8232422,20.9580078 C15.7119135,20.8466791 15.65625,20.7148445 15.65625,20.5625 L15.65625,3.6875 C15.65625,3.53515549 15.7119135,3.40332087 15.8232422,3.29199219 C15.9345709,3.18066351 16.0664055,3.125 16.21875,3.125 L20.15625,3.125 Z M19.59375,20 L19.59375,4.25 L16.78125,4.25 L16.78125,20 L19.59375,20 Z" id="Chart---simple-line-icons" stroke="#394152" stroke-width="0.3" fill="#394152"></path>
    </g>
</svg>