<svg xmlns="http://www.w3.org/2000/svg" data-name="Layer 1" viewBox="0 0 32 32"><path d="M19.5,3h-7a.5.5,0,0,1-.5-.5v-1A1.5,1.5,0,0,1,13.5,0h5A1.5,1.5,0,0,1,20,1.5v1A.5.5,0,0,1,19.5,3ZM13,2h6V1.5a.5.5,0,0,0-.5-.5h-5a.5.5,0,0,0-.5.5Z"/><path d="M30,18.09V4.5A2.5,2.5,0,0,0,27.5,2H4.5A2.5,2.5,0,0,0,2,4.5V18.09A1.5,1.5,0,0,0,2.5,21H9.24L3.32,31.25a.5.5,0,0,0,0,.5.5.5,0,0,0,.43.25H6.06a.5.5,0,0,0,.43-.25L9.24,27H22.78l2.75,4.75a.5.5,0,0,0,.43.25h2.31a.5.5,0,0,0,.43-.25.5.5,0,0,0,0-.5L22.78,21H29.5a1.5,1.5,0,0,0,.5-2.91ZM3,4.5A1.5,1.5,0,0,1,4.5,3h23A1.5,1.5,0,0,1,29,4.5v9.8l-3.65-3.66a2.362,2.362,0,0,0-3.26,0L18.33,14.4,12.1,8.17a2.006,2.006,0,0,0-2.77,0L3,14.5ZM29,15.71V18H21.93l-2.09-2.09-.27-.27-.53-.53,3.76-3.76a1.316,1.316,0,0,1,1.84,0ZM3,15.92l7.04-7.05a.979.979,0,0,1,1.35,0l6.24,6.24.7.7L20.52,18H3ZM27.4,31H26.25L23.5,26.25a.5.5,0,0,0-.43-.25H8.95a.5.5,0,0,0-.43.25L5.77,31H4.62l5.77-10h1.16L9.67,24.25a.5.5,0,0,0,0,.5.5.5,0,0,0,.43.25H21.92a.5.5,0,0,0,.43-.25.5.5,0,0,0,0-.5L20.47,21h1.16ZM12.7,21h6.62l1.73,3H10.97Zm16.8-1H2.5a.5.5,0,0,1,0-1h27a.5.5,0,0,1,0,1Zm-11-10A2.5,2.5,0,1,0,16,7.5,2.5,2.5,0,0,0,18.5,10Zm0-4A1.5,1.5,0,1,1,17,7.5,1.5,1.5,0,0,1,18.5,6Z"/></svg>