<svg width="18" height="18" viewBox="0 0 18 18" fill="none" xmlns="http://www.w3.org/2000/svg">
<path d="M17.8973 5.18555L15.4388 0.492188C15.3685 0.351562 15.2515 0.234375 15.0875 0.140625C14.9236 0.046875 14.7656 0 14.6134 0H8.9587C8.947 0 8.94114 0 8.94114 0C8.92943 0 8.92358 0 8.92358 0H3.37425C3.22206 0 3.06401 0.046875 2.9001 0.140625C2.7362 0.234375 2.61912 0.351562 2.54888 0.492188L0.0903146 5.09766C0.0200699 5.23828 -0.00919871 5.40234 0.00250874 5.58984C0.0142162 5.77734 0.0668997 5.92969 0.160559 6.04688L8.58992 17.8242C8.68358 17.9414 8.7948 18 8.92358 18C8.98212 18 9.04066 17.9854 9.09919 17.9561C9.15773 17.9268 9.21041 17.8828 9.25724 17.8242L17.8271 6.15234C18.0144 5.88281 18.0495 5.58984 17.9325 5.27344C17.9207 5.23828 17.909 5.20898 17.8973 5.18555ZM16.5451 5.0625H13.5422L14.7539 1.59961L16.5451 5.0625ZM10.1002 1.125H13.7178L12.5939 4.3418L10.1002 1.125ZM11.7334 5.0625H6.5177L8.97626 1.51172L11.7334 5.0625ZM5.51671 4.51758L4.3928 1.125H7.88747L5.51671 4.51758ZM11.9617 6.1875L8.94114 14.8359L6.06111 6.1875H11.9617ZM7.67674 14.6074L1.6357 6.1875H4.88451L7.67674 14.6074ZM13.1558 6.1875H16.4046L10.2055 14.625L13.1558 6.1875ZM3.30401 1.44141L4.51573 5.0625H1.38984L3.30401 1.44141Z" fill="#95999D"/>
</svg>
