<?xml version="1.0" encoding="UTF-8"?>
<svg width="24px" height="24px" viewBox="0 0 24 24" version="1.1" xmlns="http://www.w3.org/2000/svg" xmlns:xlink="http://www.w3.org/1999/xlink">
    <!-- Generator: Sketch 48.2 (47327) - http://www.bohemiancoding.com/sketch -->
    <title>Icon/Contacts-Dark</title>
    <desc>Created with Sketch.</desc>
    <defs></defs>
    <g id="Symbols" stroke="none" stroke-width="1" fill="none" fill-rule="evenodd">
        <g id="Icon/Contacts-Dark">
            <rect id="Rectangle-6-Copy-4" x="0" y="0" width="24" height="24"></rect>
            <path d="M12.8118024,13.1630899 C13.8619717,12.6452708 15.1480015,12.2857143 16.2829854,12.2857143 C18.1887767,12.2857143 20.8214108,13.4087456 21.2627876,14.3675549 C21.3680655,14.5962515 21.4291299,14.8693278 21.4827205,15.2345926 C21.5251253,15.5236164 21.5522283,15.8047183 21.5686997,16.0714286 C21.5686997,16.9776747 20.8340825,17.7142857 19.9270849,17.7142857 L15.9040291,17.7142857 C15.654964,18.4642922 14.9358352,19 14.0990105,19 L3.89553171,19 C2.85550388,19 1.99727108,18.1725364 2.00000652,17.0607006 C2.00492139,16.9943887 2.0143316,16.884105 2.02839309,16.743874 C2.05186028,16.5098425 2.08029078,16.2752646 2.11425447,16.0526773 C2.18482258,15.5901963 2.26555292,15.2430607 2.39530938,14.9720301 C2.94017274,13.8339393 6.47361009,12.3846154 8.99727108,12.3846154 C10.1840776,12.3846154 11.5942019,12.7051414 12.8118024,13.1630899 Z M15.6382826,15.0593757 C15.7142474,15.2412443 15.7741041,15.4587058 15.8241113,15.7142857 L19.5292373,15.7142857 C19.5216292,15.6518869 19.5131753,15.5881033 19.5039051,15.524919 C19.4910268,15.4371427 19.476973,15.3587857 19.4659407,15.3014588 C19.4358684,15.2798158 19.4004984,15.2557511 19.3605806,15.2300736 C19.1514664,15.0955589 18.8660254,14.9469232 18.5480078,14.811263 C17.782808,14.4848434 16.9654236,14.2857143 16.2829854,14.2857143 C15.9344454,14.2857143 15.5492528,14.3390375 15.1598739,14.4315097 C15.3621661,14.6095932 15.511784,14.7898874 15.5987231,14.970967 C15.5988216,14.9711723 15.5989201,14.9713776 15.5990185,14.9715829 C15.5989117,14.97136 15.5988174,14.9711635 15.5987231,14.970967 Z M16.2829854,11.7142857 C14.7839268,11.7142857 13.5686997,10.4990586 13.5686997,9 C13.5686997,7.50094139 14.7839268,6.28571429 16.2829854,6.28571429 C17.782044,6.28571429 18.9972711,7.50094139 18.9972711,9 C18.9972711,10.4990586 17.782044,11.7142857 16.2829854,11.7142857 Z M16.2829854,9.71428571 C16.6774745,9.71428571 16.9972711,9.39448911 16.9972711,9 C16.9972711,8.60551089 16.6774745,8.28571429 16.2829854,8.28571429 C15.8884963,8.28571429 15.5686997,8.60551089 15.5686997,9 C15.5686997,9.39448911 15.8884963,9.71428571 16.2829854,9.71428571 Z M8.99727108,11.6153846 C7.17048306,11.6153846 5.68957877,10.1344803 5.68957877,8.30769231 C5.68957877,6.48090429 7.17048306,5 8.99727108,5 C10.8240591,5 12.3049634,6.48090429 12.3049634,8.30769231 C12.3049634,10.1344803 10.8240591,11.6153846 8.99727108,11.6153846 Z M8.99727108,9.61538462 C9.7194896,9.61538462 10.3049634,9.02991083 10.3049634,8.30769231 C10.3049634,7.58547379 9.7194896,7 8.99727108,7 C8.27505256,7 7.68957877,7.58547379 7.68957877,8.30769231 C7.68957877,9.02991083 8.27505256,9.61538462 8.99727108,9.61538462 Z M13.5372708,15.7203401 C13.2242401,15.5267248 12.804078,15.3163516 12.3381321,15.1252328 C11.2176158,14.6656262 10.017984,14.3846154 8.99727108,14.3846154 C7.97655812,14.3846154 6.77692641,14.6656262 5.65641006,15.1252328 C5.1904642,15.3163516 4.77030206,15.5267248 4.45727132,15.7203401 C4.33889622,15.7935574 4.24287704,15.8602006 4.17564672,15.9140333 C4.1526963,16.0057009 4.12027549,16.1649255 4.09137083,16.3543575 C4.05496432,16.5929543 4.02744946,16.8361564 4.01057101,17 L13.9822034,17 C13.9641782,16.8106247 13.9376659,16.580424 13.9031713,16.3543575 C13.8742667,16.1649255 13.8418459,16.0057009 13.8188954,15.9140333 C13.7516651,15.8602006 13.6556459,15.7935574 13.5372708,15.7203401 Z" id="Nav-Contacts" fill="#394152" fill-rule="nonzero"></path>
        </g>
    </g>
</svg>