<?xml version="1.0" encoding="UTF-8"?>
<svg width="24px" height="24px" viewBox="0 0 24 24" version="1.1" xmlns="http://www.w3.org/2000/svg" xmlns:xlink="http://www.w3.org/1999/xlink">
    <!-- Generator: Sketch 48.2 (47327) - http://www.bohemiancoding.com/sketch -->
    <title>Icon/History-Dark</title>
    <desc>Created with Sketch.</desc>
    <defs></defs>
    <g id="Symbols" stroke="none" stroke-width="1" fill="none" fill-rule="evenodd">
        <g id="Icon/History-Dark">
            <rect id="Rectangle-6-Copy" x="0" y="0" width="24" height="24"></rect>
            <path d="M18.8,7.25085 C18.8,6.7808 18.4209,6.4 17.95425,6.4 C17.95,6.87005 17.5726,7.25 17.1,7.25 C16.62995,7.25 16.25,6.87345 16.25,6.40085 L14.55,6.4 C14.55,6.87005 14.1726,7.25 13.7,7.25 C13.22995,7.25 12.85,6.87345 12.85,6.40085 L11.15,6.4 C11.15,6.87005 10.7726,7.25 10.3,7.25 C9.82995,7.25 9.45,6.87345 9.45,6.40085 L7.75,6.4 C7.75,6.87005 7.3726,7.25 6.9,7.25 C6.42995,7.25 6.05,6.87345 6.05,6.40085 C5.57825,6.4 5.2,6.77995 5.2,7.25085 L5.2,8.95 L18.8,8.95 L18.8,7.25085 Z M5.2,10.65 L5.2,18.3 C5.2,18.77005 5.5791,19.15 6.04575,19.15 L17.95425,19.15 C18.42175,19.15 18.8,18.7709 18.8,18.3 L18.8,10.65 L5.2,10.65 Z M20.5,7.25085 L20.5,18.3 C20.5,19.70845 19.361,20.85 17.95425,20.85 L6.04575,20.85 C4.63985,20.85 3.5,19.7076 3.5,18.3 L3.5,7.25085 C3.5,5.8424 4.639,4.7 6.04575,4.7 L6.05,3.85 C6.05,3.3808 6.4274,3 6.9,3 C7.37005,3 7.75,3.3774 7.75,3.85 L7.75,4.7 L9.45,4.7 L9.45,3.85 C9.45,3.3808 9.8274,3 10.3,3 C10.77005,3 11.15,3.3774 11.15,3.85 L11.15,4.7 L12.85,4.7 L12.85,3.85 C12.85,3.3808 13.2274,3 13.7,3 C14.17005,3 14.55,3.3774 14.55,3.85 L14.55,4.7 L16.25,4.7 L16.25,3.85 C16.25,3.3808 16.6274,3 17.1,3 C17.57005,3 17.95,3.3774 17.95,3.85 L17.95,4.7 C19.36015,4.7 20.5,5.84325 20.5,7.25085 Z M6.9,13.2 C6.9,12.7308 7.2808,12.35 7.75255,12.35 L16.24745,12.35 C16.71835,12.35 17.1,12.7274 17.1,13.2 C17.1,13.67005 16.7192,14.05 16.24745,14.05 L7.75255,14.05 C7.28165,14.05 6.9,13.67345 6.9,13.2 Z M6.9,16.6 C6.9,16.1308 7.2808,15.75 7.75255,15.75 L16.24745,15.75 C16.71835,15.75 17.1,16.1274 17.1,16.6 C17.1,17.07005 16.7192,17.45 16.24745,17.45 L7.75255,17.45 C7.28165,17.45 6.9,17.07345 6.9,16.6 Z" id="Nav-History" fill="#394152"></path>
        </g>
    </g>
</svg>