<?xml version="1.0" encoding="UTF-8"?>
<svg width="24px" height="24px" viewBox="0 0 24 24" version="1.1" xmlns="http://www.w3.org/2000/svg" xmlns:xlink="http://www.w3.org/1999/xlink">
    <!-- Generator: Sketch 48.2 (47327) - http://www.bohemiancoding.com/sketch -->
    <title>Icon/Home-Dark</title>
    <desc>Created with Sketch.</desc>
    <defs></defs>
    <g id="Symbols" stroke="none" stroke-width="1" fill="none" fill-rule="evenodd">
        <g id="Icon/Home-Dark">
            <rect id="Rectangle-6" x="0" y="0" width="24" height="24"></rect>
            <path d="M6.2736756,19.0453058 L8.72734711,19.046124 L8.72734711,14.1346901 C8.72734711,13.6838822 9.09306607,13.3181632 9.54305584,13.3181632 L14.4569442,13.3181632 C14.9077521,13.3181632 15.2726529,13.683064 15.2726529,14.1346901 L15.2726529,19.0477603 L17.7271426,19.0493966 L17.7271426,11.2048476 L12,5.48261403 L6.27285744,11.2048476 C6.27203927,12.7528124 6.2736756,19.0453058 6.2736756,19.0453058 Z M4.39680916,13.0784414 C4.07690734,13.3983432 3.55982819,13.3983432 3.23992637,13.0784414 C2.92002454,12.7593577 2.92002454,12.2414604 3.23992637,11.9215586 L11.4215586,3.73992637 C11.7414604,3.42002454 12.2585396,3.42002454 12.5784414,3.73992637 L20.7600736,11.9215586 C21.0799755,12.2414604 21.0799755,12.7593577 20.7600736,13.0784414 C20.4401718,13.3983432 19.9230927,13.3983432 19.6031908,13.0784414 L19.363469,12.8395377 L19.363469,19.0493966 C19.363469,19.9518306 18.6320311,20.6816322 17.7263244,20.6816322 L6.2736756,20.6816322 C5.3704234,20.6816322 4.63653099,19.9518306 4.63653099,19.0493966 L4.63653099,12.8395377 L4.39680916,13.0784414 Z M13.6363264,19.0477603 L13.6363264,14.9536715 L10.3636736,14.9544897 L10.3636736,19.046124 L13.6363264,19.0477603 Z" id="Nav-Home" fill="#394152"></path>
        </g>
    </g>
</svg>