<?xml version="1.0" encoding="UTF-8"?>
<svg width="24px" height="24px" viewBox="0 0 24 24" version="1.1" xmlns="http://www.w3.org/2000/svg" xmlns:xlink="http://www.w3.org/1999/xlink">
    <!-- Generator: Sketch 48.2 (47327) - http://www.bohemiancoding.com/sketch -->
    <title>Icon/Logout-Dark</title>
    <desc>Created with Sketch.</desc>
    <defs></defs>
    <g id="Symbols" stroke="none" stroke-width="1" fill="none" fill-rule="evenodd">
        <g id="Icon/Logout-Dark">
            <rect id="Rectangle-6-Copy-6" x="0" y="0" width="24" height="24"></rect>
            <path d="M18.0923429,10.1451454 C17.7550084,9.80953203 17.7532873,9.2656662 18.0889008,8.9283317 C18.4236536,8.5909972 18.9692405,8.58927611 19.3057145,8.92402897 L21.0268089,10.6347968 C21.3641434,10.9704102 21.3658645,11.5151366 21.0302511,11.8516105 L19.3091567,13.583892 C18.9744038,13.9212265 18.4296774,13.9229476 18.0923429,13.5873342 C17.7550084,13.2517208 17.7532873,12.707855 18.0889008,12.3705205 L18.3496466,12.1054719 L13.9634375,12.1054719 C13.489276,12.1054719 13.1054719,11.7242495 13.1054719,11.2449248 C13.1054719,10.7707632 13.4901365,10.3843776 13.9634375,10.3843776 L18.3332962,10.3843776 L18.0923429,10.1451454 Z M11.3843776,18.9898495 L11.3843776,20.895101 C11.3843776,21.8046994 10.4851057,22.3107011 9.70803162,21.8296552 L5.27105029,19.0870913 C4.81754191,18.8056924 4.5,18.2334285 4.5,17.7024709 L4.5,4.78823915 C4.5,4.51286405 4.58261253,4.27535302 4.71943953,4.08947483 C4.73062665,4.05935568 4.74697704,4.03009707 4.76935127,4.00083847 C5.00600175,3.69620476 5.37603704,3.5 5.79082079,3.5 L15.2559794,3.5 C15.9676519,3.5 16.5476607,4.07914826 16.5476607,4.78823915 L16.5476607,6.94218878 C16.5476607,7.41807138 16.1629961,7.80273597 15.6871135,7.80273597 C15.2112309,7.80273597 14.8265663,7.41807138 14.8265663,6.94218878 L14.8265663,5.22109439 L8.38278894,5.2176522 L10.6133273,6.5979699 C11.0668356,6.87764774 11.3843776,7.44991162 11.3843776,7.98086924 L11.3843776,17.2687551 L14.8265663,17.2687551 L14.8265663,15.5476607 C14.8265663,15.0734992 15.2112309,14.6871135 15.6871135,14.6871135 C16.1629961,14.6871135 16.5476607,15.0734992 16.5476607,15.5476607 L16.5476607,17.7024709 C16.5476607,18.415004 15.9685125,18.9898495 15.2559794,18.9898495 L11.3843776,18.9898495 Z M9.6675859,8.06003958 L6.22109439,5.91985871 L6.22109439,17.6921443 L9.6675859,19.7901584 L9.6675859,8.06003958 Z" id="Nav-Logout" fill="#394152"></path>
        </g>
    </g>
</svg>