<?xml version="1.0" encoding="UTF-8"?>
<svg width="24px" height="24px" viewBox="0 0 24 24" version="1.1" xmlns="http://www.w3.org/2000/svg" xmlns:xlink="http://www.w3.org/1999/xlink">
    <title>Icon/Migrate-Light</title>
    <g id="Icon/Migrate-Light" stroke="none" stroke-width="1" fill="none" fill-rule="evenodd">
        <path d="M12.5,21 C13.1577381,21 13.7269345,20.8482143 14.2075893,20.5446429 C14.688244,20.2410714 14.9285714,19.874256 14.9285714,19.4441964 L14.9285714,19.4441964 L14.9285714,16.1428571 C14.9285714,15.9404762 15.0044643,15.6685268 15.15625,15.3270089 C15.3080357,14.9854911 15.5357143,14.5807292 15.8392857,14.1127232 C16.1428571,13.6447173 16.4464286,13.2020089 16.75,12.7845982 C17.0535714,12.3671875 17.4267113,11.8802083 17.8694196,11.3236607 C18.312128,10.7671131 18.6662946,10.3244048 18.9319196,9.99553571 C19.1975446,9.66666667 19.5327381,9.24925595 19.9375,8.74330357 C20.3422619,8.23735119 20.5825893,7.94642857 20.6584821,7.87053571 C20.8861607,7.61755952 21,7.33928571 21,7.03571429 C21,6.20089286 20.171503,5.48623512 18.5145089,4.89174107 C16.8575149,4.29724702 14.8526786,4 12.5,4 C10.1473214,4 8.13616071,4.30357143 6.46651786,4.91071429 C4.82217262,5.49255952 4,6.20089286 4,7.03571429 C4,7.3139881 4.1391369,7.61755952 4.41741071,7.94642857 C8.18675595,12.5505952 10.0714286,15.2827381 10.0714286,16.1428571 L10.0714286,16.1428571 L10.0714286,19.4441964 C10.0714286,19.874256 10.311756,20.2410714 10.7924107,20.5446429 C11.2730655,20.8482143 11.8422619,21 12.5,21 Z M12.5,8.85714286 C10.7291667,8.85714286 9.1733631,8.68005952 7.83258929,8.32589286 C6.49181548,7.94642857 5.82142857,7.51636905 5.82142857,7.03571429 C5.82142857,6.55505952 6.49181548,6.1313244 7.83258929,5.76450893 C9.1733631,5.39769345 10.7291667,5.21428571 12.5,5.21428571 C14.2708333,5.21428571 15.8266369,5.39769345 17.1674107,5.76450893 C18.5081845,6.1313244 19.1785714,6.55505952 19.1785714,7.03571429 C19.1785714,7.51636905 18.5081845,7.94010417 17.1674107,8.30691964 C15.8266369,8.67373512 14.2708333,8.85714286 12.5,8.85714286 Z" id="" stroke="#FFFFFF" stroke-width="1.1" fill-rule="nonzero"></path>
    </g>
</svg>