<?xml version="1.0" encoding="UTF-8"?>
<svg width="31px" height="23px" viewBox="0 0 31 23" version="1.1" xmlns="http://www.w3.org/2000/svg" xmlns:xlink="http://www.w3.org/1999/xlink">
    <title>mobile 3</title>
    <defs>
        <path d="M12.375,18.125 C12.84375,18.125 13.2421875,17.9609375 13.5703125,17.6328125 C13.8984375,17.3046875 14.0625,16.90625 14.0625,16.4375 L14.0625,1.8125 C14.0625,1.34375 13.8984375,0.9453125 13.5703125,0.6171875 C13.2421875,0.2890625 12.84375,0.125 12.375,0.125 L5.625,0.125 C5.15625,0.125 4.7578125,0.2890625 4.4296875,0.6171875 C4.1015625,0.9453125 3.9375,1.34375 3.9375,1.8125 L3.9375,16.4375 C3.9375,16.90625 4.1015625,17.3046875 4.4296875,17.6328125 C4.7578125,17.9609375 5.15625,18.125 5.625,18.125 L12.375,18.125 Z M12.375,17 L5.625,17 C5.47265625,17 5.34082031,16.9443359 5.22949219,16.8330078 C5.11816406,16.7216797 5.0625,16.5898438 5.0625,16.4375 L5.0625,1.8125 C5.0625,1.66015625 5.11816406,1.52832031 5.22949219,1.41699219 C5.34082031,1.30566406 5.47265625,1.25 5.625,1.25 L12.375,1.25 C12.5273438,1.25 12.6591797,1.30566406 12.7705078,1.41699219 C12.8818359,1.52832031 12.9375,1.66015625 12.9375,1.8125 L12.9375,16.4375 C12.9375,16.5898438 12.8818359,16.7216797 12.7705078,16.8330078 C12.6591797,16.9443359 12.5273438,17 12.375,17 Z M10.125,2.9375 C10.2773438,2.9375 10.4091797,2.88183594 10.5205078,2.77050781 C10.6318359,2.65917969 10.6875,2.52734375 10.6875,2.375 C10.6875,2.22265625 10.6318359,2.09082031 10.5205078,1.97949219 C10.4091797,1.86816406 10.2773438,1.8125 10.125,1.8125 L7.875,1.8125 C7.72265625,1.8125 7.59082031,1.86816406 7.47949219,1.97949219 C7.36816406,2.09082031 7.3125,2.22265625 7.3125,2.375 C7.3125,2.52734375 7.36816406,2.65917969 7.47949219,2.77050781 C7.59082031,2.88183594 7.72265625,2.9375 7.875,2.9375 L10.125,2.9375 Z M9,16.4375 C9.31640625,16.4375 9.58300781,16.3261719 9.79980469,16.1035156 C10.0166016,15.8808594 10.125,15.6171875 10.125,15.3125 C10.125,15.0078125 10.0166016,14.7441406 9.79980469,14.5214844 C9.58300781,14.2988281 9.31640625,14.1875 9,14.1875 C8.6953125,14.1875 8.43164062,14.2988281 8.20898438,14.5214844 C7.98632812,14.7441406 7.875,15.0078125 7.875,15.3125 C7.875,15.6171875 7.98632812,15.8808594 8.20898438,16.1035156 C8.43164062,16.3261719 8.6953125,16.4375 9,16.4375 Z" id="path-1"></path>
    </defs>
    <g id="Page-1" stroke="none" stroke-width="1" fill="none" fill-rule="evenodd">
        <g id="mobile-3" transform="translate(0.000000, 0.000000)" fill-rule="nonzero">
            <g id="mobile" transform="translate(0.000000, 0.000000)">
                <g id="î€" transform="translate(0.000000, 4.000000)">
                    <use fill="#000000" xlink:href="#path-1"></use>
                    <use fill="#3FEFA4" xlink:href="#path-1"></use>
                </g>
                <rect id="Rectangle" fill="#3FEFA4" x="10" y="0" width="20.9000005" height="9.90000021" rx="4.9500001"></rect>
                <path d="M14.8829001,7.15000004 L14.8829001,4.39779998 L16.4669001,7.15000004 L17.3315002,7.15000004 L17.3315002,2.60259994 L16.3613001,2.60259994 L16.3613001,5.3218 L14.8037001,2.60259994 L13.9193001,2.60259994 L13.9193001,7.15000004 L14.8829001,7.15000004 Z M21.3377002,7.15000004 L21.3377002,6.29860002 L19.3643002,6.29860002 L19.3643002,5.3284 L21.0407002,5.3284 L21.0407002,4.49019998 L19.3643002,4.49019998 L19.3643002,3.45399996 L21.2783002,3.45399996 L21.2783002,2.60259994 L18.4007002,2.60259994 L18.4007002,7.15000004 L21.3377002,7.15000004 Z M23.9579003,7.15000004 L24.5849003,4.76079998 L25.2251003,7.15000004 L25.9841003,7.15000004 L27.5285004,2.60259994 L26.4791004,2.60259994 L25.5881003,5.467 L24.9875003,3.24279995 L24.1955003,3.24279995 C23.8699003,4.43959998 23.6675003,5.18099999 23.5883003,5.467 L23.5883003,5.467 L22.7039003,2.60259994 L21.6611003,2.60259994 L23.1923003,7.15000004 L23.9579003,7.15000004 Z" id="NEW" fill="#1C202A"></path>
            </g>
        </g>
    </g>
</svg>