<?xml version="1.0" encoding="UTF-8"?>
<svg width="34px" height="25px" viewBox="0 0 34 25" version="1.1" xmlns="http://www.w3.org/2000/svg" xmlns:xlink="http://www.w3.org/1999/xlink">
    <title>Group 3</title>
    <g id="Symbols" stroke="none" stroke-width="1" fill="none" fill-rule="evenodd">
        <g id="UI/Sidebar-BTN/Dark_Mobile-B-Copy" transform="translate(-21.000000, -12.000000)">
            <g id="Group-3" transform="translate(21.000000, 12.000000)">
                <g id="Group" transform="translate(0.000000, 1.000000)" fill="#3FEFA4" font-family="simple-line-icons" font-size="18" font-weight="normal">
                    <g id="Screen-smartphone---simple-line-icons">
                        <text>
                            <tspan x="3" y="20"></tspan>
                        </text>
                    </g>
                </g>
                <rect id="Rectangle" fill="#3FEFA4" x="13" y="0" width="20.9000005" height="9.90000021" rx="4.95000011"></rect>
                <path d="M17.8829001,7.15000004 L17.8829001,4.39779998 L19.4669001,7.15000004 L20.3315002,7.15000004 L20.3315002,2.60259994 L19.3613001,2.60259994 L19.3613001,5.3218 L17.8037001,2.60259994 L16.9193001,2.60259994 L16.9193001,7.15000004 L17.8829001,7.15000004 Z M24.3377002,7.15000004 L24.3377002,6.29860002 L22.3643002,6.29860002 L22.3643002,5.3284 L24.0407002,5.3284 L24.0407002,4.49019998 L22.3643002,4.49019998 L22.3643002,3.45399996 L24.2783002,3.45399996 L24.2783002,2.60259994 L21.4007002,2.60259994 L21.4007002,7.15000004 L24.3377002,7.15000004 Z M26.9579003,7.15000004 L27.5849003,4.76079998 L28.2251003,7.15000004 L28.9841003,7.15000004 L30.5285004,2.60259994 L29.4791004,2.60259994 L28.5881003,5.467 L27.9875003,3.24279995 L27.1955003,3.24279995 C26.8699003,4.43959998 26.6675003,5.18099999 26.5883003,5.467 L26.5883003,5.467 L25.7039003,2.60259994 L24.6611003,2.60259994 L26.1923003,7.15000004 L26.9579003,7.15000004 Z" id="NEW" fill="#1C202A" fill-rule="nonzero"></path>
            </g>
        </g>
    </g>
</svg>