<?xml version="1.0" encoding="iso-8859-1"?>
<svg width="22px" height="24px" version="1.1" id="Layer_1" xmlns="http://www.w3.org/2000/svg" xmlns:xlink="http://www.w3.org/1999/xlink" x="0px" y="0px"
	 viewBox="0 0 512 512" style="enable-background:new 0 0 512 512;" xml:space="preserve">
<g>
	<g>
		<g>
			<path d="M493.74,86.319h-89.276V24.7c0-10.085-8.176-18.26-18.26-18.26H18.26C8.176,6.44,0,14.616,0,24.7v408.831
				c0,39.717,32.319,72.029,72.043,72.029h367.93c39.717,0,72.028-32.313,72.028-72.029V104.579
				C512,94.494,503.824,86.319,493.74,86.319z M72.043,469.039c-19.586,0-35.522-15.928-35.522-35.508V42.961h331.422
				c0,410.552-3.561,403.342,9.375,426.078H72.043z M475.479,433.531c0,46.925-71.015,46.925-71.015,0V122.84h71.015V433.531z"/>
			<path d="M320.732,86.319H83.732c-10.085,0-18.26,8.176-18.26,18.26v91.635c0,10.085,8.176,18.26,18.26,18.26h237.001
				c10.085,0,18.26-8.176,18.26-18.26v-91.635C338.993,94.494,330.817,86.319,320.732,86.319z M302.472,177.953h-200.48V122.84
				h200.48V177.953z"/>
			<path d="M320.732,244.844H83.732c-10.085,0-18.26,8.176-18.26,18.26s8.176,18.26,18.26,18.26h237.001
				c10.085,0,18.26-8.176,18.26-18.26S330.817,244.844,320.732,244.844z"/>
			<path d="M320.732,311.735h-91.617c-10.085,0-18.26,8.176-18.26,18.26c0,10.085,8.176,18.26,18.26,18.26h91.617
				c10.085,0,18.26-8.176,18.26-18.26C338.993,319.911,330.817,311.735,320.732,311.735z"/>
			<path d="M320.732,378.627h-91.617c-10.085,0-18.26,8.176-18.26,18.26s8.176,18.26,18.26,18.26h91.617
				c10.085,0,18.26-8.176,18.26-18.26C338.993,386.801,330.817,378.627,320.732,378.627z"/>
			<path d="M164.667,311.735H83.732c-10.085,0-18.26,8.176-18.26,18.26v66.891c0,10.085,8.176,18.26,18.26,18.26h80.934
				c10.085,0,18.26-8.176,18.26-18.26v-66.891C182.928,319.911,174.752,311.735,164.667,311.735z M101.992,378.627v-30.37h44.413
				v30.37H101.992z"/>
		</g>
	</g>
</g>
<g>
</g>
<g>
</g>
<g>
</g>
<g>
</g>
<g>
</g>
<g>
</g>
<g>
</g>
<g>
</g>
<g>
</g>
<g>
</g>
<g>
</g>
<g>
</g>
<g>
</g>
<g>
</g>
<g>
</g>
</svg>
