<?xml version="1.0" encoding="UTF-8"?>
<svg width="24px" height="24px" viewBox="0 0 24 24" version="1.1" xmlns="http://www.w3.org/2000/svg" xmlns:xlink="http://www.w3.org/1999/xlink">
    <!-- Generator: Sketch 48.2 (47327) - http://www.bohemiancoding.com/sketch -->
    <title>Icon/Tokens-Dark</title>
    <desc>Created with Sketch.</desc>
    <defs></defs>
    <g id="Symbols" stroke="none" stroke-width="1" fill="none" fill-rule="evenodd">
        <g id="Icon/Tokens-Dark" fill="#394152">
            <path d="M12.2272727,14.0454545 C12.2272727,14.1927273 12.1863636,14.3359091 12.1168182,14.4545455 C12.0595455,14.5568182 11.9777273,14.6427273 11.8836364,14.7122727 C11.8631818,14.7286364 11.8386364,14.7409091 11.8181818,14.7531818 C11.6995455,14.8227273 11.5563636,14.8636364 11.4090909,14.8636364 L9.77272727,14.8636364 L9.77272727,16.5 C9.77272727,16.6472727 9.73181818,16.7904545 9.66227273,16.9090909 C9.51909091,17.1545455 9.25727273,17.3181818 8.95454545,17.3181818 C8.65181818,17.3181818 8.39,17.1545455 8.24681818,16.9090909 C8.17727273,16.7904545 8.13636364,16.6472727 8.13636364,16.5 L8.13636364,14.8636364 L6.5,14.8636364 C6.35272727,14.8636364 6.20954545,14.8227273 6.09090909,14.7531818 C5.84545455,14.61 5.68181818,14.3481818 5.68181818,14.0454545 C5.68181818,13.7427273 5.84545455,13.4809091 6.09090909,13.3377273 C6.20954545,13.2681818 6.35272727,13.2272727 6.5,13.2272727 L8.13636364,13.2272727 L8.13636364,11.5909091 C8.13636364,11.4436364 8.17727273,11.3004545 8.24681818,11.1818182 C8.30818182,11.0754545 8.39409091,10.9813636 8.49636364,10.9118182 C8.62727273,10.8218182 8.78681818,10.7727273 8.95454545,10.7727273 C9.25727273,10.7727273 9.51909091,10.9363636 9.66227273,11.1818182 C9.73181818,11.3004545 9.77272727,11.4436364 9.77272727,11.5909091 L9.77272727,13.2272727 L11.4090909,13.2272727 C11.5563636,13.2272727 11.6995455,13.2681818 11.8181818,13.3377273 C12.0636364,13.4809091 12.2272727,13.7427273 12.2272727,14.0454545 Z M17.9545455,5.79 C17.9381818,5.81045455 17.9136364,5.83090909 17.8809091,5.85954545 C17.7172727,5.98636364 17.4390909,6.12136364 17.075,6.24409091 C16.2527273,6.51818182 15.0990909,6.68181818 13.8636364,6.68181818 C12.6281818,6.68181818 11.4745455,6.51818182 10.6522727,6.24409091 C10.2881818,6.12136364 10.01,5.98636364 9.84636364,5.85954545 C9.81363636,5.83090909 9.78909091,5.81045455 9.77272727,5.79 L9.77272727,5.52818182 C9.78909091,5.50772727 9.81363636,5.48727273 9.84636364,5.45863636 C10.01,5.33181818 10.2881818,5.19681818 10.6522727,5.07409091 C10.685,5.06181818 10.7136364,5.05363636 10.7463636,5.04545455 C11.5604545,4.78772727 12.6731818,4.63636364 13.8636364,4.63636364 C15.0540909,4.63636364 16.1668182,4.78772727 16.9809091,5.04545455 C17.0136364,5.05363636 17.0422727,5.06181818 17.075,5.07409091 C17.4390909,5.19681818 17.7172727,5.33181818 17.8809091,5.45863636 C17.9136364,5.48727273 17.9381818,5.50772727 17.9545455,5.52818182 L17.9545455,5.79 Z M17.9545455,9.88090909 C17.9381818,9.90136364 17.9136364,9.92181818 17.8809091,9.95045455 C17.7172727,10.0772727 17.4390909,10.2122727 17.075,10.335 C17.0422727,10.3472727 17.0136364,10.3554545 16.9809091,10.3636364 C16.4490909,10.5313636 15.7904545,10.6540909 15.0622727,10.7195455 C14.9968182,10.5968182 14.9272727,10.4781818 14.8536364,10.3636364 C14.3422727,9.54136364 13.6590909,8.83363636 12.8572727,8.28954545 C13.1845455,8.31 13.52,8.31818182 13.8636364,8.31818182 C15.4672727,8.31818182 16.9154545,8.09727273 17.9545455,7.67590909 L17.9545455,9.88090909 Z M17.9545455,13.9718182 C17.9381818,13.9922727 17.9136364,14.0127273 17.8809091,14.0413636 C17.7172727,14.1681818 17.4390909,14.3031818 17.075,14.4259091 C17.0422727,14.4381818 17.0136364,14.4463636 16.9809091,14.4545455 C16.6536364,14.5568182 16.2813636,14.6427273 15.8763636,14.7081818 C15.8845455,14.6222727 15.8927273,14.5404545 15.8968182,14.4545455 C15.905,14.3195455 15.9090909,14.1804545 15.9090909,14.0454545 C15.9090909,13.4440909 15.8313636,12.8590909 15.6922727,12.3027273 C16.5595455,12.2004545 17.3327273,12.0204545 17.9545455,11.7668182 L17.9545455,13.9718182 Z M17.9545455,18.0627273 C17.9381818,18.0831818 17.9136364,18.1036364 17.8809091,18.1322727 C17.7172727,18.2590909 17.4390909,18.3940909 17.075,18.5168182 C17.0422727,18.5290909 17.0136364,18.5372727 16.9809091,18.5454545 C16.1709091,18.8031818 15.0622727,18.9545455 13.88,18.9545455 C14.0109091,18.8236364 14.1336364,18.6886364 14.2522727,18.5454545 C14.7881818,17.9236364 15.2095455,17.2036364 15.4959091,16.4181818 C16.4409091,16.32 17.2836364,16.1318182 17.9545455,15.8577273 L17.9545455,18.0627273 Z M13.6754545,16.4959091 C13.6018182,16.6390909 13.52,16.7740909 13.4340909,16.9090909 C13.0209091,17.5595455 12.4686364,18.1118182 11.8181818,18.525 C11.8059091,18.5331818 11.7977273,18.5413636 11.7854545,18.5454545 C11.6831818,18.6109091 11.5809091,18.6722727 11.4745455,18.7295455 C10.7218182,19.1345455 9.86681818,19.3636364 8.95454545,19.3636364 C8.88909091,19.3636364 8.82363636,19.3636364 8.75818182,19.3595455 C7.79272727,19.3268182 6.89272727,19.0322727 6.12363636,18.5454545 C6.11136364,18.5413636 6.10318182,18.5331818 6.09090909,18.525 C5.44045455,18.1118182 4.88818182,17.5595455 4.475,16.9090909 C3.94318182,16.0827273 3.63636364,15.1009091 3.63636364,14.0454545 C3.63636364,12.99 3.94318182,12.0081818 4.475,11.1818182 C4.88818182,10.5313636 5.44045455,9.97909091 6.09090909,9.56590909 C6.70045455,9.17318182 7.39181818,8.90318182 8.13636364,8.78863636 C8.40227273,8.74772727 8.67636364,8.72727273 8.95454545,8.72727273 C9.23272727,8.72727273 9.50681818,8.74772727 9.77272727,8.78863636 C10.5172727,8.90318182 11.2086364,9.17318182 11.8181818,9.56590909 C12.1740909,9.79090909 12.5013636,10.0609091 12.7877273,10.3636364 C12.9104545,10.4863636 13.0209091,10.6172727 13.1272727,10.7522727 C13.2377273,10.8913636 13.34,11.0345455 13.4340909,11.1818182 C13.6754545,11.5581818 13.8718182,11.9713636 14.0109091,12.405 C14.1827273,12.9204545 14.2727273,13.4727273 14.2727273,14.0454545 C14.2727273,14.1845455 14.2686364,14.3195455 14.2563636,14.4545455 C14.2481818,14.5895455 14.2318182,14.7245455 14.2113636,14.8554545 C14.1213636,15.4404545 13.9372727,15.9886364 13.6754545,16.4959091 Z M13.8636364,3 C10.9836364,3 8.59863636,3.70772727 8.19772727,5.04545455 C8.15681818,5.17636364 8.13636364,5.31136364 8.13636364,5.45454545 L8.13636364,7.14 C7.41227273,7.22181818 6.725,7.41818182 6.09090909,7.70863636 C3.67727273,8.79681818 2,11.2268182 2,14.0454545 C2,16.8640909 3.67727273,19.2940909 6.09090909,20.3822727 C6.96227273,20.7790909 7.93181818,21 8.95454545,21 C9.92818182,21 10.8527273,20.7995455 11.6913636,20.4395455 C12.3622727,20.5418182 13.0945455,20.5909091 13.8636364,20.5909091 C15.4672727,20.5909091 16.9154545,20.37 17.9545455,19.9486364 C18.785,19.6090909 19.3536364,19.1386364 19.5295455,18.5454545 C19.5704545,18.4145455 19.5909091,18.2795455 19.5909091,18.1363636 L19.5909091,5.45454545 C19.5909091,3.855 17.0259091,3 13.8636364,3 Z" id="Page-1"></path>
        </g>
    </g>
</svg>