<svg viewBox="0 0 242 36" xmlns="http://www.w3.org/2000/svg"><g fill="#FFFFFF" fill-rule="evenodd"><path d="M58.716 13.25c-.25 0-.46.208-.46.46v9.582c0 .25.21.458.46.458H71V26H58.716C57.212 26 56 24.792 56 23.292V13.71c0-1.5 1.212-2.71 2.716-2.71H71v2.25H58.716zM76 12.563L78 11v15h-2M98 11v2.25h-6.375V26h-2.25V13.25H83V11M117 11l-6.45 9.376V26h-2.1v-5.624L102 11h2.468l5.032 6.834L114.513 11M144.292 23.75c.25 0 .458-.208.458-.46V13.71c0-.25-.208-.458-.458-.458h-9.584c-.25 0-.458.208-.458.458v9.583c0 .252.208.46.458.46h9.584zm0-12.75c1.5 0 2.708 1.208 2.708 2.708v9.583c0 1.502-1.208 2.71-2.708 2.71h-9.584c-1.5 0-2.708-1.208-2.708-2.71V13.71c0-1.5 1.21-2.708 2.708-2.708h9.584zM165 11v2.25h-11.71v4.125h9.42v2.25h-9.42V26H151V11M178 11h15v2.667L181 23.75h12V26h-15v-2.667l12-10.083h-12M199 12.825L201 11v15h-2M218.292 23.75c.25 0 .458-.208.458-.46V13.71c0-.25-.208-.458-.458-.458h-9.584c-.25 0-.458.208-.458.458v9.583c0 .252.208.46.458.46h9.584zm0-12.75c1.5 0 2.708 1.208 2.708 2.708v9.583c0 1.502-1.208 2.71-2.708 2.71h-9.584c-1.5 0-2.708-1.208-2.708-2.71V13.71c0-1.5 1.21-2.708 2.708-2.708h9.584zM239.383 11.173h2.172v14.48h-2.575l-9.734-11.584v11.584h-2.173v-14.48h2.575l9.735 11.584M41 25.714l-5.125 5.143h-10.25l10.25-10.286M30.75 15.498l-4.71-5.074 4.71-5.074L25.625.277 20.5 5.35 15.654 0 10.25 5.35l15.375 15.22M5.125 10.286L20.5 25.714 10.25 36H0l10.25-10.286L0 15.428"></path></g></svg>
