<?xml version="1.0" encoding="UTF-8"?>
<svg width="112px" height="128px" viewBox="0 0 112 128" version="1.1" xmlns="http://www.w3.org/2000/svg" xmlns:xlink="http://www.w3.org/1999/xlink">
    <!-- Generator: Sketch 48.2 (47327) - http://www.bohemiancoding.com/sketch -->
    <title>Group</title>
    <desc>Created with Sketch.</desc>
    <defs>
        <linearGradient x1="-6.23405116%" y1="0%" x2="107.664697%" y2="100%" id="linearGradient-1">
            <stop stop-color="#EE6D66" offset="0%"></stop>
            <stop stop-color="#A866EE" offset="100%"></stop>
        </linearGradient>
    </defs>
    <g id="Component-Library" stroke="none" stroke-width="1" fill="none" fill-rule="evenodd" transform="translate(-472.000000, -644.000000)">
        <g id="Group" transform="translate(464.000000, 644.000000)">
            <rect id="Rectangle-9-Copy" x="0" y="0" width="128" height="128"></rect>
            <path d="M61.9985704,0.535991625 L10.0014296,30.5375229 C9.96540386,30.5575225 9.93738385,30.5875221 9.90335954,30.6095217 C9.75725518,30.6995203 9.61915654,30.7995188 9.48506076,30.9075171 C9.4270193,30.9555163 9.36097212,31.0015156 9.30293066,31.0535148 C9.12880629,31.2135123 8.96669049,31.3855096 8.82258756,31.5735067 C8.79056469,31.615506 8.76654753,31.6635053 8.73652609,31.7075046 C8.62844889,31.8615022 8.53037884,32.0174997 8.44231594,32.1854971 C8.40428878,32.2594959 8.37626876,32.3374947 8.34424589,32.4134935 C8.28020014,32.5574913 8.22616154,32.703489 8.1761258,32.8554866 C8.15210865,32.9414853 8.13009292,33.0294839 8.11208006,33.1154826 C8.07805575,33.2614803 8.0540386,33.409478 8.03602573,33.5594756 C8.02802001,33.6554741 8.01601144,33.7494727 8.01200858,33.8494711 C8.01000715,33.8994703 8,33.9494695 8,34.0014687 L8,94.0005312 C8,95.4305089 8.7645461,96.7504883 10.0014296,97.4644771 C10.6198713,97.8224715 11.312366,98.0004687 12.0028592,98.0004687 C12.6933524,98.0004687 13.3838456,97.8224715 14.0042888,97.4644771 L36.5383846,84.4666802 L60.5335239,125.998031 C60.7076483,126.302027 60.9238027,126.582022 61.1739814,126.832018 C61.3280915,126.982016 61.5062187,127.092014 61.6743388,127.216012 C61.7864189,127.296011 61.8784846,127.396009 61.9985704,127.466008 C62.0005718,127.468008 62.0045747,127.468008 62.0085776,127.468008 C62.3047891,127.640006 62.6250179,127.772004 62.9592566,127.862002 C63.2994996,127.954001 63.6497498,128 64,128 C64.3482487,128 64.6944961,127.954001 65.0347391,127.864002 L65.0367405,127.864002 C65.3409578,127.782003 65.6251608,127.654005 65.8953538,127.508008 C65.9293781,127.490008 65.9674053,127.486008 66.0014296,127.466008 L117.99857,97.4644771 C119.203431,96.770488 119.959971,95.5025078 120,94.1165294 L120,33.8854705 C119.959971,32.5014922 119.203431,31.231512 117.99857,30.5375229 C116.761687,29.821534 115.236598,29.821534 113.995711,30.5375229 L91.4636169,43.5373197 L67.4664761,2.00196872 C66.9360972,1.08398306 66.0614725,0.411993563 65.0367405,0.137997844 C64.6944961,0.0459992813 64.3442459,0 63.9979986,0 C63.3015011,0 62.6110079,0.183997125 61.9985704,0.535991625 Z M41.4679056,77.0007969 L17.4707648,35.4674458 L62.5329521,9.4658521 L84.5306648,47.5352573 L61.9985704,60.5370541 C60.7596855,61.251043 59.9971408,62.5710223 59.9971408,64.003 L59.9971408,109.072296 L41.4679056,77.0007969 Z M68.0028592,66.3089639 L92.0020014,52.4651802 C92.0040029,52.4651802 92.0060043,52.4611803 92.0100071,52.4591803 L111.996283,40.9293605 L111.996283,91.6925673 L68.0028592,117.072171 L68.0028592,66.3089639 Z M16.0057184,48.9292355 L32.5335239,77.5367885 L16.0057184,87.0726395 L16.0057184,48.9292355 Z" id="Glyph-Copy" fill="url(#linearGradient-1)"></path>
        </g>
    </g>
</svg>